G04 EAGLE Gerber RS-274X export*
G75*
%MOMM*%
%FSLAX34Y34*%
%LPD*%
%INSoldermask Bottom*%
%IPPOS*%
%AMOC8*
5,1,8,0,0,1.08239X$1,22.5*%
G01*
G04 Define Apertures*
%ADD10C,3.801600*%
%ADD11C,2.501600*%
%ADD12C,1.801600*%
%ADD13R,1.201600X0.901600*%
%ADD14R,2.801600X1.301600*%
%ADD15C,0.150800*%
%ADD16R,3.201600X3.201600*%
%ADD17R,1.104900X0.609600*%
%ADD18R,1.266200X1.916900*%
%ADD19R,1.916900X1.266200*%
%ADD20R,1.566900X1.266200*%
%ADD21R,1.266200X1.566900*%
%ADD22R,1.132800X1.521800*%
%ADD23C,0.245375*%
%ADD24C,3.501600*%
%ADD25C,2.001600*%
%ADD26R,2.701600X2.701600*%
%ADD27C,3.101600*%
%ADD28C,0.232847*%
%ADD29R,0.406400X1.397000*%
%ADD30R,1.901600X2.301600*%
%ADD31R,1.521800X1.132800*%
%ADD32C,1.151600*%
%ADD33C,1.301600*%
%ADD34R,1.301600X1.301600*%
%ADD35R,1.101600X1.101600*%
%ADD36C,0.394209*%
%ADD37R,0.401600X1.401600*%
%ADD38C,2.006600*%
%ADD39R,1.371600X0.762000*%
%ADD40R,1.401600X1.151600*%
%ADD41R,1.901600X0.921600*%
%ADD42C,2.641600*%
%ADD43C,1.371600*%
G36*
X2903461Y66846D02*
X2915808Y66846D01*
X2915808Y70515D01*
X2904449Y70515D01*
X2904449Y73408D01*
X2914997Y73408D01*
X2915808Y72632D01*
X2915808Y76724D01*
X2903461Y76724D01*
X2903461Y79652D01*
X2918666Y79652D01*
X2918666Y63953D01*
X2903461Y63953D01*
X2903461Y66846D01*
G37*
G36*
X2924275Y63953D02*
X2924275Y67234D01*
X2928826Y71785D01*
X2924275Y76336D01*
X2924275Y79652D01*
X2927168Y79652D01*
X2927168Y77500D01*
X2936622Y68081D01*
X2936622Y79652D01*
X2939515Y79652D01*
X2939515Y63953D01*
X2936657Y63953D01*
X2930872Y69739D01*
X2927168Y66035D01*
X2927168Y63953D01*
X2924275Y63953D01*
G37*
G36*
X2874145Y76724D02*
X2869311Y76724D01*
X2869311Y79652D01*
X2877038Y79652D01*
X2877038Y63953D01*
X2869311Y63953D01*
X2869311Y66846D01*
X2874145Y66846D01*
X2874145Y70515D01*
X2869311Y70515D01*
X2869311Y73408D01*
X2873369Y73408D01*
X2874145Y72632D01*
X2874145Y76724D01*
G37*
G36*
X2891714Y63953D02*
X2888786Y63953D01*
X2888786Y70410D01*
X2882612Y76583D01*
X2882612Y79652D01*
X2885505Y79652D01*
X2885505Y77783D01*
X2890232Y73055D01*
X2894959Y77783D01*
X2894959Y79652D01*
X2897852Y79652D01*
X2897852Y76583D01*
X2891714Y70410D01*
X2891714Y63953D01*
G37*
G36*
X2861798Y66247D02*
X2861798Y70868D01*
X2862892Y71962D01*
X2861798Y73055D01*
X2861798Y77359D01*
X2864056Y79652D01*
X2869311Y79652D01*
X2869311Y76724D01*
X2864691Y76724D01*
X2864691Y73408D01*
X2869311Y73408D01*
X2869311Y70515D01*
X2864691Y70515D01*
X2864691Y66846D01*
X2869311Y66846D01*
X2869311Y63953D01*
X2864056Y63953D01*
X2861798Y66247D01*
G37*
G36*
X2832482Y76724D02*
X2827649Y76724D01*
X2827649Y79652D01*
X2833082Y79652D01*
X2835375Y77359D01*
X2835375Y63953D01*
X2830542Y63953D01*
X2827649Y66833D01*
X2827649Y70939D01*
X2831741Y66846D01*
X2832482Y66846D01*
X2832482Y76724D01*
G37*
G36*
X2820099Y63953D02*
X2820099Y72950D01*
X2821511Y72950D01*
X2820099Y74361D01*
X2820099Y77359D01*
X2822393Y79652D01*
X2827649Y79652D01*
X2827649Y76724D01*
X2823028Y76724D01*
X2823028Y75560D01*
X2827649Y70939D01*
X2827649Y66833D01*
X2823028Y71432D01*
X2823028Y63953D01*
X2820099Y63953D01*
G37*
G36*
X2811527Y76724D02*
X2806817Y76724D01*
X2806817Y79652D01*
X2812162Y79652D01*
X2814455Y77359D01*
X2814455Y63953D01*
X2809622Y63953D01*
X2806817Y66739D01*
X2806817Y70851D01*
X2810821Y66846D01*
X2811527Y66846D01*
X2811527Y76724D01*
G37*
G36*
X2793571Y79652D02*
X2793571Y63953D01*
X2785986Y63953D01*
X2785986Y66846D01*
X2790713Y66846D01*
X2790713Y76724D01*
X2785986Y76724D01*
X2785986Y79652D01*
X2793571Y79652D01*
G37*
G36*
X2799180Y63953D02*
X2799180Y67552D01*
X2802567Y70974D01*
X2799180Y74361D01*
X2799180Y77359D01*
X2801473Y79652D01*
X2806817Y79652D01*
X2806817Y76724D01*
X2802108Y76724D01*
X2802108Y75560D01*
X2806817Y70851D01*
X2806817Y66739D01*
X2804648Y68893D01*
X2802108Y66388D01*
X2802108Y63953D01*
X2799180Y63953D01*
G37*
G36*
X2848480Y79652D02*
X2853931Y79652D01*
X2856189Y77359D01*
X2856189Y66247D01*
X2853931Y63953D01*
X2848480Y63953D01*
X2848480Y66846D01*
X2853331Y66846D01*
X2853331Y76724D01*
X2848480Y76724D01*
X2848480Y79652D01*
G37*
G36*
X2781259Y66846D02*
X2785986Y66846D01*
X2785986Y63953D01*
X2780623Y63953D01*
X2778366Y66247D01*
X2778366Y77359D01*
X2780623Y79652D01*
X2785986Y79652D01*
X2785986Y76724D01*
X2781259Y76724D01*
X2781259Y66846D01*
G37*
G36*
X2843877Y66846D02*
X2848480Y66846D01*
X2848480Y63953D01*
X2843242Y63953D01*
X2840984Y66247D01*
X2840984Y77359D01*
X2843242Y79652D01*
X2848480Y79652D01*
X2848480Y76724D01*
X2843877Y76724D01*
X2843877Y66846D01*
G37*
G36*
X137795Y245110D02*
X137795Y250190D01*
X141605Y250190D01*
X141605Y245110D01*
X137795Y245110D01*
G37*
G36*
X1376045Y1267460D02*
X1376045Y1272540D01*
X1379855Y1272540D01*
X1379855Y1267460D01*
X1376045Y1267460D01*
G37*
G36*
X1401445Y1267460D02*
X1401445Y1272540D01*
X1405255Y1272540D01*
X1405255Y1267460D01*
X1401445Y1267460D01*
G37*
G36*
X2945689Y64800D02*
X2958777Y64800D01*
X2958777Y61908D01*
X2945689Y61908D01*
X2945689Y64800D01*
G37*
D10*
X40000Y40000D03*
X3160000Y40000D03*
X1600000Y40000D03*
X1300000Y280000D03*
X1310000Y860000D03*
X1080000Y1120000D03*
X390000Y1120000D03*
X1080000Y40000D03*
X560000Y40000D03*
X40000Y890000D03*
X40000Y460000D03*
X2120000Y40000D03*
X2640000Y40000D03*
X1900000Y280000D03*
X1890000Y860000D03*
X2120000Y1120000D03*
X2800000Y1120000D03*
X3160000Y890000D03*
X3160000Y460000D03*
X880000Y1320000D03*
X2320000Y1320000D03*
X40000Y1320000D03*
X3160000Y1320000D03*
D11*
X1700000Y910000D03*
X1500000Y910000D03*
D12*
X2800000Y1313850D03*
X2800000Y1206150D03*
D13*
X2827500Y1253650D03*
X2827500Y1266350D03*
X2827500Y1240950D03*
X2827500Y1228250D03*
X2827500Y1279050D03*
X2827500Y1291750D03*
X2772500Y1291750D03*
X2772500Y1279050D03*
X2772500Y1266350D03*
X2772500Y1253650D03*
X2772500Y1240950D03*
X2772500Y1228250D03*
D14*
X2775500Y1316700D03*
X2824500Y1316700D03*
X2775500Y1203300D03*
X2824500Y1203300D03*
D12*
X390000Y1313850D03*
X390000Y1206150D03*
D13*
X417500Y1253650D03*
X417500Y1266350D03*
X417500Y1240950D03*
X417500Y1228250D03*
X417500Y1279050D03*
X417500Y1291750D03*
X362500Y1291750D03*
X362500Y1279050D03*
X362500Y1266350D03*
X362500Y1253650D03*
X362500Y1240950D03*
X362500Y1228250D03*
D14*
X365500Y1316700D03*
X414500Y1316700D03*
X365500Y1203300D03*
X414500Y1203300D03*
D15*
X1569804Y1193954D02*
X1569804Y1192446D01*
X1561896Y1192446D01*
X1561896Y1193954D01*
X1569804Y1193954D01*
X1569804Y1193879D02*
X1561896Y1193879D01*
X1569804Y1196446D02*
X1569804Y1197954D01*
X1569804Y1196446D02*
X1561896Y1196446D01*
X1561896Y1197954D01*
X1569804Y1197954D01*
X1569804Y1197879D02*
X1561896Y1197879D01*
X1569804Y1200446D02*
X1569804Y1201954D01*
X1569804Y1200446D02*
X1561896Y1200446D01*
X1561896Y1201954D01*
X1569804Y1201954D01*
X1569804Y1201879D02*
X1561896Y1201879D01*
X1569804Y1204446D02*
X1569804Y1205954D01*
X1569804Y1204446D02*
X1561896Y1204446D01*
X1561896Y1205954D01*
X1569804Y1205954D01*
X1569804Y1205879D02*
X1561896Y1205879D01*
X1569804Y1208446D02*
X1569804Y1209954D01*
X1569804Y1208446D02*
X1561896Y1208446D01*
X1561896Y1209954D01*
X1569804Y1209954D01*
X1569804Y1209879D02*
X1561896Y1209879D01*
X1569804Y1212446D02*
X1569804Y1213954D01*
X1569804Y1212446D02*
X1561896Y1212446D01*
X1561896Y1213954D01*
X1569804Y1213954D01*
X1569804Y1213879D02*
X1561896Y1213879D01*
X1569804Y1216446D02*
X1569804Y1217954D01*
X1569804Y1216446D02*
X1561896Y1216446D01*
X1561896Y1217954D01*
X1569804Y1217954D01*
X1569804Y1217879D02*
X1561896Y1217879D01*
X1569804Y1220446D02*
X1569804Y1221954D01*
X1569804Y1220446D02*
X1561896Y1220446D01*
X1561896Y1221954D01*
X1569804Y1221954D01*
X1569804Y1221879D02*
X1561896Y1221879D01*
X1569804Y1224446D02*
X1569804Y1225954D01*
X1569804Y1224446D02*
X1561896Y1224446D01*
X1561896Y1225954D01*
X1569804Y1225954D01*
X1569804Y1225879D02*
X1561896Y1225879D01*
X1569804Y1228446D02*
X1569804Y1229954D01*
X1569804Y1228446D02*
X1561896Y1228446D01*
X1561896Y1229954D01*
X1569804Y1229954D01*
X1569804Y1229879D02*
X1561896Y1229879D01*
X1569804Y1232446D02*
X1569804Y1233954D01*
X1569804Y1232446D02*
X1561896Y1232446D01*
X1561896Y1233954D01*
X1569804Y1233954D01*
X1569804Y1233879D02*
X1561896Y1233879D01*
X1569804Y1236446D02*
X1569804Y1237954D01*
X1569804Y1236446D02*
X1561896Y1236446D01*
X1561896Y1237954D01*
X1569804Y1237954D01*
X1569804Y1237879D02*
X1561896Y1237879D01*
X1569804Y1240446D02*
X1569804Y1241954D01*
X1569804Y1240446D02*
X1561896Y1240446D01*
X1561896Y1241954D01*
X1569804Y1241954D01*
X1569804Y1241879D02*
X1561896Y1241879D01*
X1569804Y1244446D02*
X1569804Y1245954D01*
X1569804Y1244446D02*
X1561896Y1244446D01*
X1561896Y1245954D01*
X1569804Y1245954D01*
X1569804Y1245879D02*
X1561896Y1245879D01*
X1638504Y1245954D02*
X1638504Y1244446D01*
X1630596Y1244446D01*
X1630596Y1245954D01*
X1638504Y1245954D01*
X1638504Y1245879D02*
X1630596Y1245879D01*
X1638504Y1241954D02*
X1638504Y1240446D01*
X1630596Y1240446D01*
X1630596Y1241954D01*
X1638504Y1241954D01*
X1638504Y1241879D02*
X1630596Y1241879D01*
X1638504Y1237954D02*
X1638504Y1236446D01*
X1630596Y1236446D01*
X1630596Y1237954D01*
X1638504Y1237954D01*
X1638504Y1237879D02*
X1630596Y1237879D01*
X1638504Y1233954D02*
X1638504Y1232446D01*
X1630596Y1232446D01*
X1630596Y1233954D01*
X1638504Y1233954D01*
X1638504Y1233879D02*
X1630596Y1233879D01*
X1638504Y1229954D02*
X1638504Y1228446D01*
X1630596Y1228446D01*
X1630596Y1229954D01*
X1638504Y1229954D01*
X1638504Y1229879D02*
X1630596Y1229879D01*
X1638504Y1225954D02*
X1638504Y1224446D01*
X1630596Y1224446D01*
X1630596Y1225954D01*
X1638504Y1225954D01*
X1638504Y1225879D02*
X1630596Y1225879D01*
X1638504Y1221954D02*
X1638504Y1220446D01*
X1630596Y1220446D01*
X1630596Y1221954D01*
X1638504Y1221954D01*
X1638504Y1221879D02*
X1630596Y1221879D01*
X1638504Y1217954D02*
X1638504Y1216446D01*
X1630596Y1216446D01*
X1630596Y1217954D01*
X1638504Y1217954D01*
X1638504Y1217879D02*
X1630596Y1217879D01*
X1638504Y1213954D02*
X1638504Y1212446D01*
X1630596Y1212446D01*
X1630596Y1213954D01*
X1638504Y1213954D01*
X1638504Y1213879D02*
X1630596Y1213879D01*
X1638504Y1209954D02*
X1638504Y1208446D01*
X1630596Y1208446D01*
X1630596Y1209954D01*
X1638504Y1209954D01*
X1638504Y1209879D02*
X1630596Y1209879D01*
X1638504Y1205954D02*
X1638504Y1204446D01*
X1630596Y1204446D01*
X1630596Y1205954D01*
X1638504Y1205954D01*
X1638504Y1205879D02*
X1630596Y1205879D01*
X1638504Y1201954D02*
X1638504Y1200446D01*
X1630596Y1200446D01*
X1630596Y1201954D01*
X1638504Y1201954D01*
X1638504Y1201879D02*
X1630596Y1201879D01*
X1638504Y1197954D02*
X1638504Y1196446D01*
X1630596Y1196446D01*
X1630596Y1197954D01*
X1638504Y1197954D01*
X1638504Y1197879D02*
X1630596Y1197879D01*
X1638504Y1193954D02*
X1638504Y1192446D01*
X1630596Y1192446D01*
X1630596Y1193954D01*
X1638504Y1193954D01*
X1638504Y1193879D02*
X1630596Y1193879D01*
X1626954Y1188804D02*
X1626954Y1180896D01*
X1625446Y1180896D01*
X1625446Y1188804D01*
X1626954Y1188804D01*
X1626954Y1182329D02*
X1625446Y1182329D01*
X1625446Y1183762D02*
X1626954Y1183762D01*
X1626954Y1185195D02*
X1625446Y1185195D01*
X1625446Y1186628D02*
X1626954Y1186628D01*
X1626954Y1188061D02*
X1625446Y1188061D01*
X1622954Y1188804D02*
X1622954Y1180896D01*
X1621446Y1180896D01*
X1621446Y1188804D01*
X1622954Y1188804D01*
X1622954Y1182329D02*
X1621446Y1182329D01*
X1621446Y1183762D02*
X1622954Y1183762D01*
X1622954Y1185195D02*
X1621446Y1185195D01*
X1621446Y1186628D02*
X1622954Y1186628D01*
X1622954Y1188061D02*
X1621446Y1188061D01*
X1618954Y1188804D02*
X1618954Y1180896D01*
X1617446Y1180896D01*
X1617446Y1188804D01*
X1618954Y1188804D01*
X1618954Y1182329D02*
X1617446Y1182329D01*
X1617446Y1183762D02*
X1618954Y1183762D01*
X1618954Y1185195D02*
X1617446Y1185195D01*
X1617446Y1186628D02*
X1618954Y1186628D01*
X1618954Y1188061D02*
X1617446Y1188061D01*
X1614954Y1188804D02*
X1614954Y1180896D01*
X1613446Y1180896D01*
X1613446Y1188804D01*
X1614954Y1188804D01*
X1614954Y1182329D02*
X1613446Y1182329D01*
X1613446Y1183762D02*
X1614954Y1183762D01*
X1614954Y1185195D02*
X1613446Y1185195D01*
X1613446Y1186628D02*
X1614954Y1186628D01*
X1614954Y1188061D02*
X1613446Y1188061D01*
X1610954Y1188804D02*
X1610954Y1180896D01*
X1609446Y1180896D01*
X1609446Y1188804D01*
X1610954Y1188804D01*
X1610954Y1182329D02*
X1609446Y1182329D01*
X1609446Y1183762D02*
X1610954Y1183762D01*
X1610954Y1185195D02*
X1609446Y1185195D01*
X1609446Y1186628D02*
X1610954Y1186628D01*
X1610954Y1188061D02*
X1609446Y1188061D01*
X1606954Y1188804D02*
X1606954Y1180896D01*
X1605446Y1180896D01*
X1605446Y1188804D01*
X1606954Y1188804D01*
X1606954Y1182329D02*
X1605446Y1182329D01*
X1605446Y1183762D02*
X1606954Y1183762D01*
X1606954Y1185195D02*
X1605446Y1185195D01*
X1605446Y1186628D02*
X1606954Y1186628D01*
X1606954Y1188061D02*
X1605446Y1188061D01*
X1602954Y1188804D02*
X1602954Y1180896D01*
X1601446Y1180896D01*
X1601446Y1188804D01*
X1602954Y1188804D01*
X1602954Y1182329D02*
X1601446Y1182329D01*
X1601446Y1183762D02*
X1602954Y1183762D01*
X1602954Y1185195D02*
X1601446Y1185195D01*
X1601446Y1186628D02*
X1602954Y1186628D01*
X1602954Y1188061D02*
X1601446Y1188061D01*
X1598954Y1188804D02*
X1598954Y1180896D01*
X1597446Y1180896D01*
X1597446Y1188804D01*
X1598954Y1188804D01*
X1598954Y1182329D02*
X1597446Y1182329D01*
X1597446Y1183762D02*
X1598954Y1183762D01*
X1598954Y1185195D02*
X1597446Y1185195D01*
X1597446Y1186628D02*
X1598954Y1186628D01*
X1598954Y1188061D02*
X1597446Y1188061D01*
X1594954Y1188804D02*
X1594954Y1180896D01*
X1593446Y1180896D01*
X1593446Y1188804D01*
X1594954Y1188804D01*
X1594954Y1182329D02*
X1593446Y1182329D01*
X1593446Y1183762D02*
X1594954Y1183762D01*
X1594954Y1185195D02*
X1593446Y1185195D01*
X1593446Y1186628D02*
X1594954Y1186628D01*
X1594954Y1188061D02*
X1593446Y1188061D01*
X1590954Y1188804D02*
X1590954Y1180896D01*
X1589446Y1180896D01*
X1589446Y1188804D01*
X1590954Y1188804D01*
X1590954Y1182329D02*
X1589446Y1182329D01*
X1589446Y1183762D02*
X1590954Y1183762D01*
X1590954Y1185195D02*
X1589446Y1185195D01*
X1589446Y1186628D02*
X1590954Y1186628D01*
X1590954Y1188061D02*
X1589446Y1188061D01*
X1586954Y1188804D02*
X1586954Y1180896D01*
X1585446Y1180896D01*
X1585446Y1188804D01*
X1586954Y1188804D01*
X1586954Y1182329D02*
X1585446Y1182329D01*
X1585446Y1183762D02*
X1586954Y1183762D01*
X1586954Y1185195D02*
X1585446Y1185195D01*
X1585446Y1186628D02*
X1586954Y1186628D01*
X1586954Y1188061D02*
X1585446Y1188061D01*
X1582954Y1188804D02*
X1582954Y1180896D01*
X1581446Y1180896D01*
X1581446Y1188804D01*
X1582954Y1188804D01*
X1582954Y1182329D02*
X1581446Y1182329D01*
X1581446Y1183762D02*
X1582954Y1183762D01*
X1582954Y1185195D02*
X1581446Y1185195D01*
X1581446Y1186628D02*
X1582954Y1186628D01*
X1582954Y1188061D02*
X1581446Y1188061D01*
X1578954Y1188804D02*
X1578954Y1180896D01*
X1577446Y1180896D01*
X1577446Y1188804D01*
X1578954Y1188804D01*
X1578954Y1182329D02*
X1577446Y1182329D01*
X1577446Y1183762D02*
X1578954Y1183762D01*
X1578954Y1185195D02*
X1577446Y1185195D01*
X1577446Y1186628D02*
X1578954Y1186628D01*
X1578954Y1188061D02*
X1577446Y1188061D01*
X1574954Y1188804D02*
X1574954Y1180896D01*
X1573446Y1180896D01*
X1573446Y1188804D01*
X1574954Y1188804D01*
X1574954Y1182329D02*
X1573446Y1182329D01*
X1573446Y1183762D02*
X1574954Y1183762D01*
X1574954Y1185195D02*
X1573446Y1185195D01*
X1573446Y1186628D02*
X1574954Y1186628D01*
X1574954Y1188061D02*
X1573446Y1188061D01*
X1574954Y1249596D02*
X1574954Y1257504D01*
X1574954Y1249596D02*
X1573446Y1249596D01*
X1573446Y1257504D01*
X1574954Y1257504D01*
X1574954Y1251029D02*
X1573446Y1251029D01*
X1573446Y1252462D02*
X1574954Y1252462D01*
X1574954Y1253895D02*
X1573446Y1253895D01*
X1573446Y1255328D02*
X1574954Y1255328D01*
X1574954Y1256761D02*
X1573446Y1256761D01*
X1578954Y1257504D02*
X1578954Y1249596D01*
X1577446Y1249596D01*
X1577446Y1257504D01*
X1578954Y1257504D01*
X1578954Y1251029D02*
X1577446Y1251029D01*
X1577446Y1252462D02*
X1578954Y1252462D01*
X1578954Y1253895D02*
X1577446Y1253895D01*
X1577446Y1255328D02*
X1578954Y1255328D01*
X1578954Y1256761D02*
X1577446Y1256761D01*
X1582954Y1257504D02*
X1582954Y1249596D01*
X1581446Y1249596D01*
X1581446Y1257504D01*
X1582954Y1257504D01*
X1582954Y1251029D02*
X1581446Y1251029D01*
X1581446Y1252462D02*
X1582954Y1252462D01*
X1582954Y1253895D02*
X1581446Y1253895D01*
X1581446Y1255328D02*
X1582954Y1255328D01*
X1582954Y1256761D02*
X1581446Y1256761D01*
X1586954Y1257504D02*
X1586954Y1249596D01*
X1585446Y1249596D01*
X1585446Y1257504D01*
X1586954Y1257504D01*
X1586954Y1251029D02*
X1585446Y1251029D01*
X1585446Y1252462D02*
X1586954Y1252462D01*
X1586954Y1253895D02*
X1585446Y1253895D01*
X1585446Y1255328D02*
X1586954Y1255328D01*
X1586954Y1256761D02*
X1585446Y1256761D01*
X1590954Y1257504D02*
X1590954Y1249596D01*
X1589446Y1249596D01*
X1589446Y1257504D01*
X1590954Y1257504D01*
X1590954Y1251029D02*
X1589446Y1251029D01*
X1589446Y1252462D02*
X1590954Y1252462D01*
X1590954Y1253895D02*
X1589446Y1253895D01*
X1589446Y1255328D02*
X1590954Y1255328D01*
X1590954Y1256761D02*
X1589446Y1256761D01*
X1594954Y1257504D02*
X1594954Y1249596D01*
X1593446Y1249596D01*
X1593446Y1257504D01*
X1594954Y1257504D01*
X1594954Y1251029D02*
X1593446Y1251029D01*
X1593446Y1252462D02*
X1594954Y1252462D01*
X1594954Y1253895D02*
X1593446Y1253895D01*
X1593446Y1255328D02*
X1594954Y1255328D01*
X1594954Y1256761D02*
X1593446Y1256761D01*
X1598954Y1257504D02*
X1598954Y1249596D01*
X1597446Y1249596D01*
X1597446Y1257504D01*
X1598954Y1257504D01*
X1598954Y1251029D02*
X1597446Y1251029D01*
X1597446Y1252462D02*
X1598954Y1252462D01*
X1598954Y1253895D02*
X1597446Y1253895D01*
X1597446Y1255328D02*
X1598954Y1255328D01*
X1598954Y1256761D02*
X1597446Y1256761D01*
X1602954Y1257504D02*
X1602954Y1249596D01*
X1601446Y1249596D01*
X1601446Y1257504D01*
X1602954Y1257504D01*
X1602954Y1251029D02*
X1601446Y1251029D01*
X1601446Y1252462D02*
X1602954Y1252462D01*
X1602954Y1253895D02*
X1601446Y1253895D01*
X1601446Y1255328D02*
X1602954Y1255328D01*
X1602954Y1256761D02*
X1601446Y1256761D01*
X1606954Y1257504D02*
X1606954Y1249596D01*
X1605446Y1249596D01*
X1605446Y1257504D01*
X1606954Y1257504D01*
X1606954Y1251029D02*
X1605446Y1251029D01*
X1605446Y1252462D02*
X1606954Y1252462D01*
X1606954Y1253895D02*
X1605446Y1253895D01*
X1605446Y1255328D02*
X1606954Y1255328D01*
X1606954Y1256761D02*
X1605446Y1256761D01*
X1610954Y1257504D02*
X1610954Y1249596D01*
X1609446Y1249596D01*
X1609446Y1257504D01*
X1610954Y1257504D01*
X1610954Y1251029D02*
X1609446Y1251029D01*
X1609446Y1252462D02*
X1610954Y1252462D01*
X1610954Y1253895D02*
X1609446Y1253895D01*
X1609446Y1255328D02*
X1610954Y1255328D01*
X1610954Y1256761D02*
X1609446Y1256761D01*
X1614954Y1257504D02*
X1614954Y1249596D01*
X1613446Y1249596D01*
X1613446Y1257504D01*
X1614954Y1257504D01*
X1614954Y1251029D02*
X1613446Y1251029D01*
X1613446Y1252462D02*
X1614954Y1252462D01*
X1614954Y1253895D02*
X1613446Y1253895D01*
X1613446Y1255328D02*
X1614954Y1255328D01*
X1614954Y1256761D02*
X1613446Y1256761D01*
X1618954Y1257504D02*
X1618954Y1249596D01*
X1617446Y1249596D01*
X1617446Y1257504D01*
X1618954Y1257504D01*
X1618954Y1251029D02*
X1617446Y1251029D01*
X1617446Y1252462D02*
X1618954Y1252462D01*
X1618954Y1253895D02*
X1617446Y1253895D01*
X1617446Y1255328D02*
X1618954Y1255328D01*
X1618954Y1256761D02*
X1617446Y1256761D01*
X1622954Y1257504D02*
X1622954Y1249596D01*
X1621446Y1249596D01*
X1621446Y1257504D01*
X1622954Y1257504D01*
X1622954Y1251029D02*
X1621446Y1251029D01*
X1621446Y1252462D02*
X1622954Y1252462D01*
X1622954Y1253895D02*
X1621446Y1253895D01*
X1621446Y1255328D02*
X1622954Y1255328D01*
X1622954Y1256761D02*
X1621446Y1256761D01*
X1626954Y1257504D02*
X1626954Y1249596D01*
X1625446Y1249596D01*
X1625446Y1257504D01*
X1626954Y1257504D01*
X1626954Y1251029D02*
X1625446Y1251029D01*
X1625446Y1252462D02*
X1626954Y1252462D01*
X1626954Y1253895D02*
X1625446Y1253895D01*
X1625446Y1255328D02*
X1626954Y1255328D01*
X1626954Y1256761D02*
X1625446Y1256761D01*
D16*
X1600200Y1219200D03*
D17*
X1262825Y1006500D03*
X1262825Y1016000D03*
X1262825Y1025500D03*
X1289875Y1025500D03*
X1289875Y1006500D03*
D18*
X1261596Y1047750D03*
X1291104Y1047750D03*
D19*
X1320800Y1001246D03*
X1320800Y1030754D03*
D20*
X1530350Y1299346D03*
X1530350Y1316854D03*
X1555750Y1299346D03*
X1555750Y1316854D03*
X1511300Y1229496D03*
X1511300Y1247004D03*
X1676400Y1299346D03*
X1676400Y1316854D03*
X1587500Y1145404D03*
X1587500Y1127896D03*
X1651000Y1299346D03*
X1651000Y1316854D03*
D21*
X1661296Y1155700D03*
X1678804Y1155700D03*
X1661296Y1213104D03*
X1678804Y1213104D03*
D20*
X1536446Y1229496D03*
X1536446Y1247004D03*
D21*
X1661296Y1250950D03*
X1678804Y1250950D03*
X1661296Y1276350D03*
X1678804Y1276350D03*
D22*
X1724355Y1244600D03*
X1742745Y1244600D03*
X1742745Y1219200D03*
X1724355Y1219200D03*
D23*
X1794019Y1170581D02*
X1808681Y1170581D01*
X1808681Y1166219D01*
X1794019Y1166219D01*
X1794019Y1170581D01*
X1794019Y1168550D02*
X1808681Y1168550D01*
X1808681Y1157881D02*
X1794019Y1157881D01*
X1808681Y1157881D02*
X1808681Y1153519D01*
X1794019Y1153519D01*
X1794019Y1157881D01*
X1794019Y1155850D02*
X1808681Y1155850D01*
X1808681Y1145181D02*
X1794019Y1145181D01*
X1808681Y1145181D02*
X1808681Y1140819D01*
X1794019Y1140819D01*
X1794019Y1145181D01*
X1794019Y1143150D02*
X1808681Y1143150D01*
X1808681Y1132481D02*
X1794019Y1132481D01*
X1808681Y1132481D02*
X1808681Y1128119D01*
X1794019Y1128119D01*
X1794019Y1132481D01*
X1794019Y1130450D02*
X1808681Y1130450D01*
X1736581Y1132481D02*
X1721919Y1132481D01*
X1736581Y1132481D02*
X1736581Y1128119D01*
X1721919Y1128119D01*
X1721919Y1132481D01*
X1721919Y1130450D02*
X1736581Y1130450D01*
X1736581Y1145181D02*
X1721919Y1145181D01*
X1736581Y1145181D02*
X1736581Y1140819D01*
X1721919Y1140819D01*
X1721919Y1145181D01*
X1721919Y1143150D02*
X1736581Y1143150D01*
X1736581Y1157881D02*
X1721919Y1157881D01*
X1736581Y1157881D02*
X1736581Y1153519D01*
X1721919Y1153519D01*
X1721919Y1157881D01*
X1721919Y1155850D02*
X1736581Y1155850D01*
X1736581Y1170581D02*
X1721919Y1170581D01*
X1736581Y1170581D02*
X1736581Y1166219D01*
X1721919Y1166219D01*
X1721919Y1170581D01*
X1721919Y1168550D02*
X1736581Y1168550D01*
D21*
X1742304Y1193800D03*
X1724796Y1193800D03*
D22*
X1780845Y1193800D03*
X1762455Y1193800D03*
X1818945Y1193800D03*
X1800555Y1193800D03*
D24*
X210000Y942000D03*
D25*
X265000Y942000D03*
X155000Y942000D03*
D26*
X248000Y883000D03*
D27*
X160000Y904000D03*
X210000Y883000D03*
D26*
X122500Y904000D03*
D28*
X287982Y855750D02*
X287982Y844962D01*
X281994Y844962D01*
X281994Y855750D01*
X287982Y855750D01*
X287982Y847174D02*
X281994Y847174D01*
X281994Y849386D02*
X287982Y849386D01*
X287982Y851598D02*
X281994Y851598D01*
X281994Y853810D02*
X287982Y853810D01*
X287982Y878562D02*
X287982Y889350D01*
X287982Y878562D02*
X281994Y878562D01*
X281994Y889350D01*
X287982Y889350D01*
X287982Y880774D02*
X281994Y880774D01*
X281994Y882986D02*
X287982Y882986D01*
X287982Y885198D02*
X281994Y885198D01*
X281994Y887410D02*
X287982Y887410D01*
D24*
X400500Y942000D03*
D25*
X455500Y942000D03*
X345500Y942000D03*
D26*
X438500Y883000D03*
D27*
X350500Y904000D03*
X400500Y883000D03*
D26*
X313000Y904000D03*
D28*
X478482Y855750D02*
X478482Y844962D01*
X472494Y844962D01*
X472494Y855750D01*
X478482Y855750D01*
X478482Y847174D02*
X472494Y847174D01*
X472494Y849386D02*
X478482Y849386D01*
X478482Y851598D02*
X472494Y851598D01*
X472494Y853810D02*
X478482Y853810D01*
X478482Y878562D02*
X478482Y889350D01*
X478482Y878562D02*
X472494Y878562D01*
X472494Y889350D01*
X478482Y889350D01*
X478482Y880774D02*
X472494Y880774D01*
X472494Y882986D02*
X478482Y882986D01*
X478482Y885198D02*
X472494Y885198D01*
X472494Y887410D02*
X478482Y887410D01*
D24*
X591000Y942000D03*
D25*
X646000Y942000D03*
X536000Y942000D03*
D26*
X629000Y883000D03*
D27*
X541000Y904000D03*
X591000Y883000D03*
D26*
X503500Y904000D03*
D28*
X668982Y855750D02*
X668982Y844962D01*
X662994Y844962D01*
X662994Y855750D01*
X668982Y855750D01*
X668982Y847174D02*
X662994Y847174D01*
X662994Y849386D02*
X668982Y849386D01*
X668982Y851598D02*
X662994Y851598D01*
X662994Y853810D02*
X668982Y853810D01*
X668982Y878562D02*
X668982Y889350D01*
X668982Y878562D02*
X662994Y878562D01*
X662994Y889350D01*
X668982Y889350D01*
X668982Y880774D02*
X662994Y880774D01*
X662994Y882986D02*
X668982Y882986D01*
X668982Y885198D02*
X662994Y885198D01*
X662994Y887410D02*
X668982Y887410D01*
D24*
X781500Y942000D03*
D25*
X836500Y942000D03*
X726500Y942000D03*
D26*
X819500Y883000D03*
D27*
X731500Y904000D03*
X781500Y883000D03*
D26*
X694000Y904000D03*
D28*
X859482Y855750D02*
X859482Y844962D01*
X853494Y844962D01*
X853494Y855750D01*
X859482Y855750D01*
X859482Y847174D02*
X853494Y847174D01*
X853494Y849386D02*
X859482Y849386D01*
X859482Y851598D02*
X853494Y851598D01*
X853494Y853810D02*
X859482Y853810D01*
X859482Y878562D02*
X859482Y889350D01*
X859482Y878562D02*
X853494Y878562D01*
X853494Y889350D01*
X859482Y889350D01*
X859482Y880774D02*
X853494Y880774D01*
X853494Y882986D02*
X859482Y882986D01*
X859482Y885198D02*
X853494Y885198D01*
X853494Y887410D02*
X859482Y887410D01*
D24*
X972000Y942000D03*
D25*
X1027000Y942000D03*
X917000Y942000D03*
D26*
X1010000Y883000D03*
D27*
X922000Y904000D03*
X972000Y883000D03*
D26*
X884500Y904000D03*
D28*
X1049982Y855750D02*
X1049982Y844962D01*
X1043994Y844962D01*
X1043994Y855750D01*
X1049982Y855750D01*
X1049982Y847174D02*
X1043994Y847174D01*
X1043994Y849386D02*
X1049982Y849386D01*
X1049982Y851598D02*
X1043994Y851598D01*
X1043994Y853810D02*
X1049982Y853810D01*
X1049982Y878562D02*
X1049982Y889350D01*
X1049982Y878562D02*
X1043994Y878562D01*
X1043994Y889350D01*
X1049982Y889350D01*
X1049982Y880774D02*
X1043994Y880774D01*
X1043994Y882986D02*
X1049982Y882986D01*
X1049982Y885198D02*
X1043994Y885198D01*
X1043994Y887410D02*
X1049982Y887410D01*
D24*
X1162500Y942000D03*
D25*
X1217500Y942000D03*
X1107500Y942000D03*
D26*
X1200500Y883000D03*
D27*
X1112500Y904000D03*
X1162500Y883000D03*
D26*
X1075000Y904000D03*
D28*
X1240482Y855750D02*
X1240482Y844962D01*
X1234494Y844962D01*
X1234494Y855750D01*
X1240482Y855750D01*
X1240482Y847174D02*
X1234494Y847174D01*
X1234494Y849386D02*
X1240482Y849386D01*
X1240482Y851598D02*
X1234494Y851598D01*
X1234494Y853810D02*
X1240482Y853810D01*
X1240482Y878562D02*
X1240482Y889350D01*
X1240482Y878562D02*
X1234494Y878562D01*
X1234494Y889350D01*
X1240482Y889350D01*
X1240482Y880774D02*
X1234494Y880774D01*
X1234494Y882986D02*
X1240482Y882986D01*
X1240482Y885198D02*
X1234494Y885198D01*
X1234494Y887410D02*
X1240482Y887410D01*
D24*
X2037500Y942000D03*
D25*
X2092500Y942000D03*
X1982500Y942000D03*
D26*
X2075500Y883000D03*
D27*
X1987500Y904000D03*
X2037500Y883000D03*
D26*
X1950000Y904000D03*
D28*
X2115512Y855750D02*
X2115512Y844962D01*
X2109524Y844962D01*
X2109524Y855750D01*
X2115512Y855750D01*
X2115512Y847174D02*
X2109524Y847174D01*
X2109524Y849386D02*
X2115512Y849386D01*
X2115512Y851598D02*
X2109524Y851598D01*
X2109524Y853810D02*
X2115512Y853810D01*
X2115512Y878562D02*
X2115512Y889350D01*
X2115512Y878562D02*
X2109524Y878562D01*
X2109524Y889350D01*
X2115512Y889350D01*
X2115512Y880774D02*
X2109524Y880774D01*
X2109524Y882986D02*
X2115512Y882986D01*
X2115512Y885198D02*
X2109524Y885198D01*
X2109524Y887410D02*
X2115512Y887410D01*
D24*
X2228000Y942000D03*
D25*
X2283000Y942000D03*
X2173000Y942000D03*
D26*
X2266000Y883000D03*
D27*
X2178000Y904000D03*
X2228000Y883000D03*
D26*
X2140500Y904000D03*
D28*
X2306012Y855750D02*
X2306012Y844962D01*
X2300024Y844962D01*
X2300024Y855750D01*
X2306012Y855750D01*
X2306012Y847174D02*
X2300024Y847174D01*
X2300024Y849386D02*
X2306012Y849386D01*
X2306012Y851598D02*
X2300024Y851598D01*
X2300024Y853810D02*
X2306012Y853810D01*
X2306012Y878562D02*
X2306012Y889350D01*
X2306012Y878562D02*
X2300024Y878562D01*
X2300024Y889350D01*
X2306012Y889350D01*
X2306012Y880774D02*
X2300024Y880774D01*
X2300024Y882986D02*
X2306012Y882986D01*
X2306012Y885198D02*
X2300024Y885198D01*
X2300024Y887410D02*
X2306012Y887410D01*
D24*
X2418500Y942000D03*
D25*
X2473500Y942000D03*
X2363500Y942000D03*
D26*
X2456500Y883000D03*
D27*
X2368500Y904000D03*
X2418500Y883000D03*
D26*
X2331000Y904000D03*
D28*
X2496512Y855750D02*
X2496512Y844962D01*
X2490524Y844962D01*
X2490524Y855750D01*
X2496512Y855750D01*
X2496512Y847174D02*
X2490524Y847174D01*
X2490524Y849386D02*
X2496512Y849386D01*
X2496512Y851598D02*
X2490524Y851598D01*
X2490524Y853810D02*
X2496512Y853810D01*
X2496512Y878562D02*
X2496512Y889350D01*
X2496512Y878562D02*
X2490524Y878562D01*
X2490524Y889350D01*
X2496512Y889350D01*
X2496512Y880774D02*
X2490524Y880774D01*
X2490524Y882986D02*
X2496512Y882986D01*
X2496512Y885198D02*
X2490524Y885198D01*
X2490524Y887410D02*
X2496512Y887410D01*
D24*
X2609000Y942000D03*
D25*
X2664000Y942000D03*
X2554000Y942000D03*
D26*
X2647000Y883000D03*
D27*
X2559000Y904000D03*
X2609000Y883000D03*
D26*
X2521500Y904000D03*
D28*
X2687012Y855750D02*
X2687012Y844962D01*
X2681024Y844962D01*
X2681024Y855750D01*
X2687012Y855750D01*
X2687012Y847174D02*
X2681024Y847174D01*
X2681024Y849386D02*
X2687012Y849386D01*
X2687012Y851598D02*
X2681024Y851598D01*
X2681024Y853810D02*
X2687012Y853810D01*
X2687012Y878562D02*
X2687012Y889350D01*
X2687012Y878562D02*
X2681024Y878562D01*
X2681024Y889350D01*
X2687012Y889350D01*
X2687012Y880774D02*
X2681024Y880774D01*
X2681024Y882986D02*
X2687012Y882986D01*
X2687012Y885198D02*
X2681024Y885198D01*
X2681024Y887410D02*
X2687012Y887410D01*
D24*
X2799500Y942000D03*
D25*
X2854500Y942000D03*
X2744500Y942000D03*
D26*
X2837500Y883000D03*
D27*
X2749500Y904000D03*
X2799500Y883000D03*
D26*
X2712000Y904000D03*
D28*
X2877512Y855750D02*
X2877512Y844962D01*
X2871524Y844962D01*
X2871524Y855750D01*
X2877512Y855750D01*
X2877512Y847174D02*
X2871524Y847174D01*
X2871524Y849386D02*
X2877512Y849386D01*
X2877512Y851598D02*
X2871524Y851598D01*
X2871524Y853810D02*
X2877512Y853810D01*
X2877512Y878562D02*
X2877512Y889350D01*
X2877512Y878562D02*
X2871524Y878562D01*
X2871524Y889350D01*
X2877512Y889350D01*
X2877512Y880774D02*
X2871524Y880774D01*
X2871524Y882986D02*
X2877512Y882986D01*
X2877512Y885198D02*
X2871524Y885198D01*
X2871524Y887410D02*
X2877512Y887410D01*
D24*
X2990000Y942000D03*
D25*
X3045000Y942000D03*
X2935000Y942000D03*
D26*
X3028000Y883000D03*
D27*
X2940000Y904000D03*
X2990000Y883000D03*
D26*
X2902500Y904000D03*
D28*
X3068012Y855750D02*
X3068012Y844962D01*
X3062024Y844962D01*
X3062024Y855750D01*
X3068012Y855750D01*
X3068012Y847174D02*
X3062024Y847174D01*
X3062024Y849386D02*
X3068012Y849386D01*
X3068012Y851598D02*
X3062024Y851598D01*
X3062024Y853810D02*
X3068012Y853810D01*
X3068012Y878562D02*
X3068012Y889350D01*
X3068012Y878562D02*
X3062024Y878562D01*
X3062024Y889350D01*
X3068012Y889350D01*
X3068012Y880774D02*
X3062024Y880774D01*
X3062024Y882986D02*
X3068012Y882986D01*
X3068012Y885198D02*
X3062024Y885198D01*
X3062024Y887410D02*
X3068012Y887410D01*
D24*
X210000Y751500D03*
D25*
X265000Y751500D03*
X155000Y751500D03*
D26*
X248000Y692500D03*
D27*
X160000Y713500D03*
X210000Y692500D03*
D26*
X122500Y713500D03*
D28*
X287982Y665250D02*
X287982Y654462D01*
X281994Y654462D01*
X281994Y665250D01*
X287982Y665250D01*
X287982Y656674D02*
X281994Y656674D01*
X281994Y658886D02*
X287982Y658886D01*
X287982Y661098D02*
X281994Y661098D01*
X281994Y663310D02*
X287982Y663310D01*
X287982Y688062D02*
X287982Y698850D01*
X287982Y688062D02*
X281994Y688062D01*
X281994Y698850D01*
X287982Y698850D01*
X287982Y690274D02*
X281994Y690274D01*
X281994Y692486D02*
X287982Y692486D01*
X287982Y694698D02*
X281994Y694698D01*
X281994Y696910D02*
X287982Y696910D01*
D24*
X400500Y751500D03*
D25*
X455500Y751500D03*
X345500Y751500D03*
D26*
X438500Y692500D03*
D27*
X350500Y713500D03*
X400500Y692500D03*
D26*
X313000Y713500D03*
D28*
X478482Y665250D02*
X478482Y654462D01*
X472494Y654462D01*
X472494Y665250D01*
X478482Y665250D01*
X478482Y656674D02*
X472494Y656674D01*
X472494Y658886D02*
X478482Y658886D01*
X478482Y661098D02*
X472494Y661098D01*
X472494Y663310D02*
X478482Y663310D01*
X478482Y688062D02*
X478482Y698850D01*
X478482Y688062D02*
X472494Y688062D01*
X472494Y698850D01*
X478482Y698850D01*
X478482Y690274D02*
X472494Y690274D01*
X472494Y692486D02*
X478482Y692486D01*
X478482Y694698D02*
X472494Y694698D01*
X472494Y696910D02*
X478482Y696910D01*
D24*
X591000Y751500D03*
D25*
X646000Y751500D03*
X536000Y751500D03*
D26*
X629000Y692500D03*
D27*
X541000Y713500D03*
X591000Y692500D03*
D26*
X503500Y713500D03*
D28*
X668982Y665250D02*
X668982Y654462D01*
X662994Y654462D01*
X662994Y665250D01*
X668982Y665250D01*
X668982Y656674D02*
X662994Y656674D01*
X662994Y658886D02*
X668982Y658886D01*
X668982Y661098D02*
X662994Y661098D01*
X662994Y663310D02*
X668982Y663310D01*
X668982Y688062D02*
X668982Y698850D01*
X668982Y688062D02*
X662994Y688062D01*
X662994Y698850D01*
X668982Y698850D01*
X668982Y690274D02*
X662994Y690274D01*
X662994Y692486D02*
X668982Y692486D01*
X668982Y694698D02*
X662994Y694698D01*
X662994Y696910D02*
X668982Y696910D01*
D24*
X781500Y751500D03*
D25*
X836500Y751500D03*
X726500Y751500D03*
D26*
X819500Y692500D03*
D27*
X731500Y713500D03*
X781500Y692500D03*
D26*
X694000Y713500D03*
D28*
X859482Y665250D02*
X859482Y654462D01*
X853494Y654462D01*
X853494Y665250D01*
X859482Y665250D01*
X859482Y656674D02*
X853494Y656674D01*
X853494Y658886D02*
X859482Y658886D01*
X859482Y661098D02*
X853494Y661098D01*
X853494Y663310D02*
X859482Y663310D01*
X859482Y688062D02*
X859482Y698850D01*
X859482Y688062D02*
X853494Y688062D01*
X853494Y698850D01*
X859482Y698850D01*
X859482Y690274D02*
X853494Y690274D01*
X853494Y692486D02*
X859482Y692486D01*
X859482Y694698D02*
X853494Y694698D01*
X853494Y696910D02*
X859482Y696910D01*
D24*
X972000Y751500D03*
D25*
X1027000Y751500D03*
X917000Y751500D03*
D26*
X1010000Y692500D03*
D27*
X922000Y713500D03*
X972000Y692500D03*
D26*
X884500Y713500D03*
D28*
X1049982Y665250D02*
X1049982Y654462D01*
X1043994Y654462D01*
X1043994Y665250D01*
X1049982Y665250D01*
X1049982Y656674D02*
X1043994Y656674D01*
X1043994Y658886D02*
X1049982Y658886D01*
X1049982Y661098D02*
X1043994Y661098D01*
X1043994Y663310D02*
X1049982Y663310D01*
X1049982Y688062D02*
X1049982Y698850D01*
X1049982Y688062D02*
X1043994Y688062D01*
X1043994Y698850D01*
X1049982Y698850D01*
X1049982Y690274D02*
X1043994Y690274D01*
X1043994Y692486D02*
X1049982Y692486D01*
X1049982Y694698D02*
X1043994Y694698D01*
X1043994Y696910D02*
X1049982Y696910D01*
D24*
X1162500Y751500D03*
D25*
X1217500Y751500D03*
X1107500Y751500D03*
D26*
X1200500Y692500D03*
D27*
X1112500Y713500D03*
X1162500Y692500D03*
D26*
X1075000Y713500D03*
D28*
X1240482Y665250D02*
X1240482Y654462D01*
X1234494Y654462D01*
X1234494Y665250D01*
X1240482Y665250D01*
X1240482Y656674D02*
X1234494Y656674D01*
X1234494Y658886D02*
X1240482Y658886D01*
X1240482Y661098D02*
X1234494Y661098D01*
X1234494Y663310D02*
X1240482Y663310D01*
X1240482Y688062D02*
X1240482Y698850D01*
X1240482Y688062D02*
X1234494Y688062D01*
X1234494Y698850D01*
X1240482Y698850D01*
X1240482Y690274D02*
X1234494Y690274D01*
X1234494Y692486D02*
X1240482Y692486D01*
X1240482Y694698D02*
X1234494Y694698D01*
X1234494Y696910D02*
X1240482Y696910D01*
D24*
X2037500Y751500D03*
D25*
X2092500Y751500D03*
X1982500Y751500D03*
D26*
X2075500Y692500D03*
D27*
X1987500Y713500D03*
X2037500Y692500D03*
D26*
X1950000Y713500D03*
D28*
X2115512Y665250D02*
X2115512Y654462D01*
X2109524Y654462D01*
X2109524Y665250D01*
X2115512Y665250D01*
X2115512Y656674D02*
X2109524Y656674D01*
X2109524Y658886D02*
X2115512Y658886D01*
X2115512Y661098D02*
X2109524Y661098D01*
X2109524Y663310D02*
X2115512Y663310D01*
X2115512Y688062D02*
X2115512Y698850D01*
X2115512Y688062D02*
X2109524Y688062D01*
X2109524Y698850D01*
X2115512Y698850D01*
X2115512Y690274D02*
X2109524Y690274D01*
X2109524Y692486D02*
X2115512Y692486D01*
X2115512Y694698D02*
X2109524Y694698D01*
X2109524Y696910D02*
X2115512Y696910D01*
D24*
X2228000Y751500D03*
D25*
X2283000Y751500D03*
X2173000Y751500D03*
D26*
X2266000Y692500D03*
D27*
X2178000Y713500D03*
X2228000Y692500D03*
D26*
X2140500Y713500D03*
D28*
X2306012Y665250D02*
X2306012Y654462D01*
X2300024Y654462D01*
X2300024Y665250D01*
X2306012Y665250D01*
X2306012Y656674D02*
X2300024Y656674D01*
X2300024Y658886D02*
X2306012Y658886D01*
X2306012Y661098D02*
X2300024Y661098D01*
X2300024Y663310D02*
X2306012Y663310D01*
X2306012Y688062D02*
X2306012Y698850D01*
X2306012Y688062D02*
X2300024Y688062D01*
X2300024Y698850D01*
X2306012Y698850D01*
X2306012Y690274D02*
X2300024Y690274D01*
X2300024Y692486D02*
X2306012Y692486D01*
X2306012Y694698D02*
X2300024Y694698D01*
X2300024Y696910D02*
X2306012Y696910D01*
D24*
X2418500Y751500D03*
D25*
X2473500Y751500D03*
X2363500Y751500D03*
D26*
X2456500Y692500D03*
D27*
X2368500Y713500D03*
X2418500Y692500D03*
D26*
X2331000Y713500D03*
D28*
X2496512Y665250D02*
X2496512Y654462D01*
X2490524Y654462D01*
X2490524Y665250D01*
X2496512Y665250D01*
X2496512Y656674D02*
X2490524Y656674D01*
X2490524Y658886D02*
X2496512Y658886D01*
X2496512Y661098D02*
X2490524Y661098D01*
X2490524Y663310D02*
X2496512Y663310D01*
X2496512Y688062D02*
X2496512Y698850D01*
X2496512Y688062D02*
X2490524Y688062D01*
X2490524Y698850D01*
X2496512Y698850D01*
X2496512Y690274D02*
X2490524Y690274D01*
X2490524Y692486D02*
X2496512Y692486D01*
X2496512Y694698D02*
X2490524Y694698D01*
X2490524Y696910D02*
X2496512Y696910D01*
D24*
X2609000Y751500D03*
D25*
X2664000Y751500D03*
X2554000Y751500D03*
D26*
X2647000Y692500D03*
D27*
X2559000Y713500D03*
X2609000Y692500D03*
D26*
X2521500Y713500D03*
D28*
X2687012Y665250D02*
X2687012Y654462D01*
X2681024Y654462D01*
X2681024Y665250D01*
X2687012Y665250D01*
X2687012Y656674D02*
X2681024Y656674D01*
X2681024Y658886D02*
X2687012Y658886D01*
X2687012Y661098D02*
X2681024Y661098D01*
X2681024Y663310D02*
X2687012Y663310D01*
X2687012Y688062D02*
X2687012Y698850D01*
X2687012Y688062D02*
X2681024Y688062D01*
X2681024Y698850D01*
X2687012Y698850D01*
X2687012Y690274D02*
X2681024Y690274D01*
X2681024Y692486D02*
X2687012Y692486D01*
X2687012Y694698D02*
X2681024Y694698D01*
X2681024Y696910D02*
X2687012Y696910D01*
D24*
X2799500Y751500D03*
D25*
X2854500Y751500D03*
X2744500Y751500D03*
D26*
X2837500Y692500D03*
D27*
X2749500Y713500D03*
X2799500Y692500D03*
D26*
X2712000Y713500D03*
D28*
X2877512Y665250D02*
X2877512Y654462D01*
X2871524Y654462D01*
X2871524Y665250D01*
X2877512Y665250D01*
X2877512Y656674D02*
X2871524Y656674D01*
X2871524Y658886D02*
X2877512Y658886D01*
X2877512Y661098D02*
X2871524Y661098D01*
X2871524Y663310D02*
X2877512Y663310D01*
X2877512Y688062D02*
X2877512Y698850D01*
X2877512Y688062D02*
X2871524Y688062D01*
X2871524Y698850D01*
X2877512Y698850D01*
X2877512Y690274D02*
X2871524Y690274D01*
X2871524Y692486D02*
X2877512Y692486D01*
X2877512Y694698D02*
X2871524Y694698D01*
X2871524Y696910D02*
X2877512Y696910D01*
D24*
X2990000Y751500D03*
D25*
X3045000Y751500D03*
X2935000Y751500D03*
D26*
X3028000Y692500D03*
D27*
X2940000Y713500D03*
X2990000Y692500D03*
D26*
X2902500Y713500D03*
D28*
X3068012Y665250D02*
X3068012Y654462D01*
X3062024Y654462D01*
X3062024Y665250D01*
X3068012Y665250D01*
X3068012Y656674D02*
X3062024Y656674D01*
X3062024Y658886D02*
X3068012Y658886D01*
X3068012Y661098D02*
X3062024Y661098D01*
X3062024Y663310D02*
X3068012Y663310D01*
X3068012Y688062D02*
X3068012Y698850D01*
X3068012Y688062D02*
X3062024Y688062D01*
X3062024Y698850D01*
X3068012Y698850D01*
X3068012Y690274D02*
X3062024Y690274D01*
X3062024Y692486D02*
X3068012Y692486D01*
X3068012Y694698D02*
X3062024Y694698D01*
X3062024Y696910D02*
X3068012Y696910D01*
D24*
X210000Y561000D03*
D25*
X265000Y561000D03*
X155000Y561000D03*
D26*
X248000Y502000D03*
D27*
X160000Y523000D03*
X210000Y502000D03*
D26*
X122500Y523000D03*
D28*
X287982Y474750D02*
X287982Y463962D01*
X281994Y463962D01*
X281994Y474750D01*
X287982Y474750D01*
X287982Y466174D02*
X281994Y466174D01*
X281994Y468386D02*
X287982Y468386D01*
X287982Y470598D02*
X281994Y470598D01*
X281994Y472810D02*
X287982Y472810D01*
X287982Y497562D02*
X287982Y508350D01*
X287982Y497562D02*
X281994Y497562D01*
X281994Y508350D01*
X287982Y508350D01*
X287982Y499774D02*
X281994Y499774D01*
X281994Y501986D02*
X287982Y501986D01*
X287982Y504198D02*
X281994Y504198D01*
X281994Y506410D02*
X287982Y506410D01*
D24*
X400500Y561000D03*
D25*
X455500Y561000D03*
X345500Y561000D03*
D26*
X438500Y502000D03*
D27*
X350500Y523000D03*
X400500Y502000D03*
D26*
X313000Y523000D03*
D28*
X478482Y474750D02*
X478482Y463962D01*
X472494Y463962D01*
X472494Y474750D01*
X478482Y474750D01*
X478482Y466174D02*
X472494Y466174D01*
X472494Y468386D02*
X478482Y468386D01*
X478482Y470598D02*
X472494Y470598D01*
X472494Y472810D02*
X478482Y472810D01*
X478482Y497562D02*
X478482Y508350D01*
X478482Y497562D02*
X472494Y497562D01*
X472494Y508350D01*
X478482Y508350D01*
X478482Y499774D02*
X472494Y499774D01*
X472494Y501986D02*
X478482Y501986D01*
X478482Y504198D02*
X472494Y504198D01*
X472494Y506410D02*
X478482Y506410D01*
D24*
X591000Y561000D03*
D25*
X646000Y561000D03*
X536000Y561000D03*
D26*
X629000Y502000D03*
D27*
X541000Y523000D03*
X591000Y502000D03*
D26*
X503500Y523000D03*
D28*
X668982Y474750D02*
X668982Y463962D01*
X662994Y463962D01*
X662994Y474750D01*
X668982Y474750D01*
X668982Y466174D02*
X662994Y466174D01*
X662994Y468386D02*
X668982Y468386D01*
X668982Y470598D02*
X662994Y470598D01*
X662994Y472810D02*
X668982Y472810D01*
X668982Y497562D02*
X668982Y508350D01*
X668982Y497562D02*
X662994Y497562D01*
X662994Y508350D01*
X668982Y508350D01*
X668982Y499774D02*
X662994Y499774D01*
X662994Y501986D02*
X668982Y501986D01*
X668982Y504198D02*
X662994Y504198D01*
X662994Y506410D02*
X668982Y506410D01*
D24*
X781500Y561000D03*
D25*
X836500Y561000D03*
X726500Y561000D03*
D26*
X819500Y502000D03*
D27*
X731500Y523000D03*
X781500Y502000D03*
D26*
X694000Y523000D03*
D28*
X859482Y474750D02*
X859482Y463962D01*
X853494Y463962D01*
X853494Y474750D01*
X859482Y474750D01*
X859482Y466174D02*
X853494Y466174D01*
X853494Y468386D02*
X859482Y468386D01*
X859482Y470598D02*
X853494Y470598D01*
X853494Y472810D02*
X859482Y472810D01*
X859482Y497562D02*
X859482Y508350D01*
X859482Y497562D02*
X853494Y497562D01*
X853494Y508350D01*
X859482Y508350D01*
X859482Y499774D02*
X853494Y499774D01*
X853494Y501986D02*
X859482Y501986D01*
X859482Y504198D02*
X853494Y504198D01*
X853494Y506410D02*
X859482Y506410D01*
D24*
X972000Y561000D03*
D25*
X1027000Y561000D03*
X917000Y561000D03*
D26*
X1010000Y502000D03*
D27*
X922000Y523000D03*
X972000Y502000D03*
D26*
X884500Y523000D03*
D28*
X1049982Y474750D02*
X1049982Y463962D01*
X1043994Y463962D01*
X1043994Y474750D01*
X1049982Y474750D01*
X1049982Y466174D02*
X1043994Y466174D01*
X1043994Y468386D02*
X1049982Y468386D01*
X1049982Y470598D02*
X1043994Y470598D01*
X1043994Y472810D02*
X1049982Y472810D01*
X1049982Y497562D02*
X1049982Y508350D01*
X1049982Y497562D02*
X1043994Y497562D01*
X1043994Y508350D01*
X1049982Y508350D01*
X1049982Y499774D02*
X1043994Y499774D01*
X1043994Y501986D02*
X1049982Y501986D01*
X1049982Y504198D02*
X1043994Y504198D01*
X1043994Y506410D02*
X1049982Y506410D01*
D24*
X1162500Y561000D03*
D25*
X1217500Y561000D03*
X1107500Y561000D03*
D26*
X1200500Y502000D03*
D27*
X1112500Y523000D03*
X1162500Y502000D03*
D26*
X1075000Y523000D03*
D28*
X1240482Y474750D02*
X1240482Y463962D01*
X1234494Y463962D01*
X1234494Y474750D01*
X1240482Y474750D01*
X1240482Y466174D02*
X1234494Y466174D01*
X1234494Y468386D02*
X1240482Y468386D01*
X1240482Y470598D02*
X1234494Y470598D01*
X1234494Y472810D02*
X1240482Y472810D01*
X1240482Y497562D02*
X1240482Y508350D01*
X1240482Y497562D02*
X1234494Y497562D01*
X1234494Y508350D01*
X1240482Y508350D01*
X1240482Y499774D02*
X1234494Y499774D01*
X1234494Y501986D02*
X1240482Y501986D01*
X1240482Y504198D02*
X1234494Y504198D01*
X1234494Y506410D02*
X1240482Y506410D01*
D24*
X2037500Y561000D03*
D25*
X2092500Y561000D03*
X1982500Y561000D03*
D26*
X2075500Y502000D03*
D27*
X1987500Y523000D03*
X2037500Y502000D03*
D26*
X1950000Y523000D03*
D28*
X2115512Y474750D02*
X2115512Y463962D01*
X2109524Y463962D01*
X2109524Y474750D01*
X2115512Y474750D01*
X2115512Y466174D02*
X2109524Y466174D01*
X2109524Y468386D02*
X2115512Y468386D01*
X2115512Y470598D02*
X2109524Y470598D01*
X2109524Y472810D02*
X2115512Y472810D01*
X2115512Y497562D02*
X2115512Y508350D01*
X2115512Y497562D02*
X2109524Y497562D01*
X2109524Y508350D01*
X2115512Y508350D01*
X2115512Y499774D02*
X2109524Y499774D01*
X2109524Y501986D02*
X2115512Y501986D01*
X2115512Y504198D02*
X2109524Y504198D01*
X2109524Y506410D02*
X2115512Y506410D01*
D24*
X2228000Y561000D03*
D25*
X2283000Y561000D03*
X2173000Y561000D03*
D26*
X2266000Y502000D03*
D27*
X2178000Y523000D03*
X2228000Y502000D03*
D26*
X2140500Y523000D03*
D28*
X2306012Y474750D02*
X2306012Y463962D01*
X2300024Y463962D01*
X2300024Y474750D01*
X2306012Y474750D01*
X2306012Y466174D02*
X2300024Y466174D01*
X2300024Y468386D02*
X2306012Y468386D01*
X2306012Y470598D02*
X2300024Y470598D01*
X2300024Y472810D02*
X2306012Y472810D01*
X2306012Y497562D02*
X2306012Y508350D01*
X2306012Y497562D02*
X2300024Y497562D01*
X2300024Y508350D01*
X2306012Y508350D01*
X2306012Y499774D02*
X2300024Y499774D01*
X2300024Y501986D02*
X2306012Y501986D01*
X2306012Y504198D02*
X2300024Y504198D01*
X2300024Y506410D02*
X2306012Y506410D01*
D24*
X2418500Y561000D03*
D25*
X2473500Y561000D03*
X2363500Y561000D03*
D26*
X2456500Y502000D03*
D27*
X2368500Y523000D03*
X2418500Y502000D03*
D26*
X2331000Y523000D03*
D28*
X2496512Y474750D02*
X2496512Y463962D01*
X2490524Y463962D01*
X2490524Y474750D01*
X2496512Y474750D01*
X2496512Y466174D02*
X2490524Y466174D01*
X2490524Y468386D02*
X2496512Y468386D01*
X2496512Y470598D02*
X2490524Y470598D01*
X2490524Y472810D02*
X2496512Y472810D01*
X2496512Y497562D02*
X2496512Y508350D01*
X2496512Y497562D02*
X2490524Y497562D01*
X2490524Y508350D01*
X2496512Y508350D01*
X2496512Y499774D02*
X2490524Y499774D01*
X2490524Y501986D02*
X2496512Y501986D01*
X2496512Y504198D02*
X2490524Y504198D01*
X2490524Y506410D02*
X2496512Y506410D01*
D24*
X2609000Y561000D03*
D25*
X2664000Y561000D03*
X2554000Y561000D03*
D26*
X2647000Y502000D03*
D27*
X2559000Y523000D03*
X2609000Y502000D03*
D26*
X2521500Y523000D03*
D28*
X2687012Y474750D02*
X2687012Y463962D01*
X2681024Y463962D01*
X2681024Y474750D01*
X2687012Y474750D01*
X2687012Y466174D02*
X2681024Y466174D01*
X2681024Y468386D02*
X2687012Y468386D01*
X2687012Y470598D02*
X2681024Y470598D01*
X2681024Y472810D02*
X2687012Y472810D01*
X2687012Y497562D02*
X2687012Y508350D01*
X2687012Y497562D02*
X2681024Y497562D01*
X2681024Y508350D01*
X2687012Y508350D01*
X2687012Y499774D02*
X2681024Y499774D01*
X2681024Y501986D02*
X2687012Y501986D01*
X2687012Y504198D02*
X2681024Y504198D01*
X2681024Y506410D02*
X2687012Y506410D01*
D24*
X2799500Y561000D03*
D25*
X2854500Y561000D03*
X2744500Y561000D03*
D26*
X2837500Y502000D03*
D27*
X2749500Y523000D03*
X2799500Y502000D03*
D26*
X2712000Y523000D03*
D28*
X2877512Y474750D02*
X2877512Y463962D01*
X2871524Y463962D01*
X2871524Y474750D01*
X2877512Y474750D01*
X2877512Y466174D02*
X2871524Y466174D01*
X2871524Y468386D02*
X2877512Y468386D01*
X2877512Y470598D02*
X2871524Y470598D01*
X2871524Y472810D02*
X2877512Y472810D01*
X2877512Y497562D02*
X2877512Y508350D01*
X2877512Y497562D02*
X2871524Y497562D01*
X2871524Y508350D01*
X2877512Y508350D01*
X2877512Y499774D02*
X2871524Y499774D01*
X2871524Y501986D02*
X2877512Y501986D01*
X2877512Y504198D02*
X2871524Y504198D01*
X2871524Y506410D02*
X2877512Y506410D01*
D24*
X2990000Y561000D03*
D25*
X3045000Y561000D03*
X2935000Y561000D03*
D26*
X3028000Y502000D03*
D27*
X2940000Y523000D03*
X2990000Y502000D03*
D26*
X2902500Y523000D03*
D28*
X3068012Y474750D02*
X3068012Y463962D01*
X3062024Y463962D01*
X3062024Y474750D01*
X3068012Y474750D01*
X3068012Y466174D02*
X3062024Y466174D01*
X3062024Y468386D02*
X3068012Y468386D01*
X3068012Y470598D02*
X3062024Y470598D01*
X3062024Y472810D02*
X3068012Y472810D01*
X3068012Y497562D02*
X3068012Y508350D01*
X3068012Y497562D02*
X3062024Y497562D01*
X3062024Y508350D01*
X3068012Y508350D01*
X3068012Y499774D02*
X3062024Y499774D01*
X3062024Y501986D02*
X3068012Y501986D01*
X3068012Y504198D02*
X3062024Y504198D01*
X3062024Y506410D02*
X3068012Y506410D01*
D24*
X210000Y370500D03*
D25*
X265000Y370500D03*
X155000Y370500D03*
D26*
X248000Y311500D03*
D27*
X160000Y332500D03*
X210000Y311500D03*
D26*
X122500Y332500D03*
D28*
X287982Y284250D02*
X287982Y273462D01*
X281994Y273462D01*
X281994Y284250D01*
X287982Y284250D01*
X287982Y275674D02*
X281994Y275674D01*
X281994Y277886D02*
X287982Y277886D01*
X287982Y280098D02*
X281994Y280098D01*
X281994Y282310D02*
X287982Y282310D01*
X287982Y307062D02*
X287982Y317850D01*
X287982Y307062D02*
X281994Y307062D01*
X281994Y317850D01*
X287982Y317850D01*
X287982Y309274D02*
X281994Y309274D01*
X281994Y311486D02*
X287982Y311486D01*
X287982Y313698D02*
X281994Y313698D01*
X281994Y315910D02*
X287982Y315910D01*
D24*
X400500Y370500D03*
D25*
X455500Y370500D03*
X345500Y370500D03*
D26*
X438500Y311500D03*
D27*
X350500Y332500D03*
X400500Y311500D03*
D26*
X313000Y332500D03*
D28*
X478482Y284250D02*
X478482Y273462D01*
X472494Y273462D01*
X472494Y284250D01*
X478482Y284250D01*
X478482Y275674D02*
X472494Y275674D01*
X472494Y277886D02*
X478482Y277886D01*
X478482Y280098D02*
X472494Y280098D01*
X472494Y282310D02*
X478482Y282310D01*
X478482Y307062D02*
X478482Y317850D01*
X478482Y307062D02*
X472494Y307062D01*
X472494Y317850D01*
X478482Y317850D01*
X478482Y309274D02*
X472494Y309274D01*
X472494Y311486D02*
X478482Y311486D01*
X478482Y313698D02*
X472494Y313698D01*
X472494Y315910D02*
X478482Y315910D01*
D24*
X591000Y370500D03*
D25*
X646000Y370500D03*
X536000Y370500D03*
D26*
X629000Y311500D03*
D27*
X541000Y332500D03*
X591000Y311500D03*
D26*
X503500Y332500D03*
D28*
X668982Y284250D02*
X668982Y273462D01*
X662994Y273462D01*
X662994Y284250D01*
X668982Y284250D01*
X668982Y275674D02*
X662994Y275674D01*
X662994Y277886D02*
X668982Y277886D01*
X668982Y280098D02*
X662994Y280098D01*
X662994Y282310D02*
X668982Y282310D01*
X668982Y307062D02*
X668982Y317850D01*
X668982Y307062D02*
X662994Y307062D01*
X662994Y317850D01*
X668982Y317850D01*
X668982Y309274D02*
X662994Y309274D01*
X662994Y311486D02*
X668982Y311486D01*
X668982Y313698D02*
X662994Y313698D01*
X662994Y315910D02*
X668982Y315910D01*
D24*
X781500Y370500D03*
D25*
X836500Y370500D03*
X726500Y370500D03*
D26*
X819500Y311500D03*
D27*
X731500Y332500D03*
X781500Y311500D03*
D26*
X694000Y332500D03*
D28*
X859482Y284250D02*
X859482Y273462D01*
X853494Y273462D01*
X853494Y284250D01*
X859482Y284250D01*
X859482Y275674D02*
X853494Y275674D01*
X853494Y277886D02*
X859482Y277886D01*
X859482Y280098D02*
X853494Y280098D01*
X853494Y282310D02*
X859482Y282310D01*
X859482Y307062D02*
X859482Y317850D01*
X859482Y307062D02*
X853494Y307062D01*
X853494Y317850D01*
X859482Y317850D01*
X859482Y309274D02*
X853494Y309274D01*
X853494Y311486D02*
X859482Y311486D01*
X859482Y313698D02*
X853494Y313698D01*
X853494Y315910D02*
X859482Y315910D01*
D24*
X972000Y370500D03*
D25*
X1027000Y370500D03*
X917000Y370500D03*
D26*
X1010000Y311500D03*
D27*
X922000Y332500D03*
X972000Y311500D03*
D26*
X884500Y332500D03*
D28*
X1049982Y284250D02*
X1049982Y273462D01*
X1043994Y273462D01*
X1043994Y284250D01*
X1049982Y284250D01*
X1049982Y275674D02*
X1043994Y275674D01*
X1043994Y277886D02*
X1049982Y277886D01*
X1049982Y280098D02*
X1043994Y280098D01*
X1043994Y282310D02*
X1049982Y282310D01*
X1049982Y307062D02*
X1049982Y317850D01*
X1049982Y307062D02*
X1043994Y307062D01*
X1043994Y317850D01*
X1049982Y317850D01*
X1049982Y309274D02*
X1043994Y309274D01*
X1043994Y311486D02*
X1049982Y311486D01*
X1049982Y313698D02*
X1043994Y313698D01*
X1043994Y315910D02*
X1049982Y315910D01*
D24*
X1162500Y370500D03*
D25*
X1217500Y370500D03*
X1107500Y370500D03*
D26*
X1200500Y311500D03*
D27*
X1112500Y332500D03*
X1162500Y311500D03*
D26*
X1075000Y332500D03*
D28*
X1240482Y284250D02*
X1240482Y273462D01*
X1234494Y273462D01*
X1234494Y284250D01*
X1240482Y284250D01*
X1240482Y275674D02*
X1234494Y275674D01*
X1234494Y277886D02*
X1240482Y277886D01*
X1240482Y280098D02*
X1234494Y280098D01*
X1234494Y282310D02*
X1240482Y282310D01*
X1240482Y307062D02*
X1240482Y317850D01*
X1240482Y307062D02*
X1234494Y307062D01*
X1234494Y317850D01*
X1240482Y317850D01*
X1240482Y309274D02*
X1234494Y309274D01*
X1234494Y311486D02*
X1240482Y311486D01*
X1240482Y313698D02*
X1234494Y313698D01*
X1234494Y315910D02*
X1240482Y315910D01*
D24*
X2037500Y370500D03*
D25*
X2092500Y370500D03*
X1982500Y370500D03*
D26*
X2075500Y311500D03*
D27*
X1987500Y332500D03*
X2037500Y311500D03*
D26*
X1950000Y332500D03*
D28*
X2115512Y284250D02*
X2115512Y273462D01*
X2109524Y273462D01*
X2109524Y284250D01*
X2115512Y284250D01*
X2115512Y275674D02*
X2109524Y275674D01*
X2109524Y277886D02*
X2115512Y277886D01*
X2115512Y280098D02*
X2109524Y280098D01*
X2109524Y282310D02*
X2115512Y282310D01*
X2115512Y307062D02*
X2115512Y317850D01*
X2115512Y307062D02*
X2109524Y307062D01*
X2109524Y317850D01*
X2115512Y317850D01*
X2115512Y309274D02*
X2109524Y309274D01*
X2109524Y311486D02*
X2115512Y311486D01*
X2115512Y313698D02*
X2109524Y313698D01*
X2109524Y315910D02*
X2115512Y315910D01*
D24*
X2228000Y370500D03*
D25*
X2283000Y370500D03*
X2173000Y370500D03*
D26*
X2266000Y311500D03*
D27*
X2178000Y332500D03*
X2228000Y311500D03*
D26*
X2140500Y332500D03*
D28*
X2306012Y284250D02*
X2306012Y273462D01*
X2300024Y273462D01*
X2300024Y284250D01*
X2306012Y284250D01*
X2306012Y275674D02*
X2300024Y275674D01*
X2300024Y277886D02*
X2306012Y277886D01*
X2306012Y280098D02*
X2300024Y280098D01*
X2300024Y282310D02*
X2306012Y282310D01*
X2306012Y307062D02*
X2306012Y317850D01*
X2306012Y307062D02*
X2300024Y307062D01*
X2300024Y317850D01*
X2306012Y317850D01*
X2306012Y309274D02*
X2300024Y309274D01*
X2300024Y311486D02*
X2306012Y311486D01*
X2306012Y313698D02*
X2300024Y313698D01*
X2300024Y315910D02*
X2306012Y315910D01*
D24*
X2418500Y370500D03*
D25*
X2473500Y370500D03*
X2363500Y370500D03*
D26*
X2456500Y311500D03*
D27*
X2368500Y332500D03*
X2418500Y311500D03*
D26*
X2331000Y332500D03*
D28*
X2496512Y284250D02*
X2496512Y273462D01*
X2490524Y273462D01*
X2490524Y284250D01*
X2496512Y284250D01*
X2496512Y275674D02*
X2490524Y275674D01*
X2490524Y277886D02*
X2496512Y277886D01*
X2496512Y280098D02*
X2490524Y280098D01*
X2490524Y282310D02*
X2496512Y282310D01*
X2496512Y307062D02*
X2496512Y317850D01*
X2496512Y307062D02*
X2490524Y307062D01*
X2490524Y317850D01*
X2496512Y317850D01*
X2496512Y309274D02*
X2490524Y309274D01*
X2490524Y311486D02*
X2496512Y311486D01*
X2496512Y313698D02*
X2490524Y313698D01*
X2490524Y315910D02*
X2496512Y315910D01*
D24*
X2609000Y370500D03*
D25*
X2664000Y370500D03*
X2554000Y370500D03*
D26*
X2647000Y311500D03*
D27*
X2559000Y332500D03*
X2609000Y311500D03*
D26*
X2521500Y332500D03*
D28*
X2687012Y284250D02*
X2687012Y273462D01*
X2681024Y273462D01*
X2681024Y284250D01*
X2687012Y284250D01*
X2687012Y275674D02*
X2681024Y275674D01*
X2681024Y277886D02*
X2687012Y277886D01*
X2687012Y280098D02*
X2681024Y280098D01*
X2681024Y282310D02*
X2687012Y282310D01*
X2687012Y307062D02*
X2687012Y317850D01*
X2687012Y307062D02*
X2681024Y307062D01*
X2681024Y317850D01*
X2687012Y317850D01*
X2687012Y309274D02*
X2681024Y309274D01*
X2681024Y311486D02*
X2687012Y311486D01*
X2687012Y313698D02*
X2681024Y313698D01*
X2681024Y315910D02*
X2687012Y315910D01*
D24*
X2799500Y370500D03*
D25*
X2854500Y370500D03*
X2744500Y370500D03*
D26*
X2837500Y311500D03*
D27*
X2749500Y332500D03*
X2799500Y311500D03*
D26*
X2712000Y332500D03*
D28*
X2877512Y284250D02*
X2877512Y273462D01*
X2871524Y273462D01*
X2871524Y284250D01*
X2877512Y284250D01*
X2877512Y275674D02*
X2871524Y275674D01*
X2871524Y277886D02*
X2877512Y277886D01*
X2877512Y280098D02*
X2871524Y280098D01*
X2871524Y282310D02*
X2877512Y282310D01*
X2877512Y307062D02*
X2877512Y317850D01*
X2877512Y307062D02*
X2871524Y307062D01*
X2871524Y317850D01*
X2877512Y317850D01*
X2877512Y309274D02*
X2871524Y309274D01*
X2871524Y311486D02*
X2877512Y311486D01*
X2877512Y313698D02*
X2871524Y313698D01*
X2871524Y315910D02*
X2877512Y315910D01*
D24*
X2990000Y370500D03*
D25*
X3045000Y370500D03*
X2935000Y370500D03*
D26*
X3028000Y311500D03*
D27*
X2940000Y332500D03*
X2990000Y311500D03*
D26*
X2902500Y332500D03*
D28*
X3068012Y284250D02*
X3068012Y273462D01*
X3062024Y273462D01*
X3062024Y284250D01*
X3068012Y284250D01*
X3068012Y275674D02*
X3062024Y275674D01*
X3062024Y277886D02*
X3068012Y277886D01*
X3068012Y280098D02*
X3062024Y280098D01*
X3062024Y282310D02*
X3068012Y282310D01*
X3068012Y307062D02*
X3068012Y317850D01*
X3068012Y307062D02*
X3062024Y307062D01*
X3062024Y317850D01*
X3068012Y317850D01*
X3068012Y309274D02*
X3062024Y309274D01*
X3062024Y311486D02*
X3068012Y311486D01*
X3068012Y313698D02*
X3062024Y313698D01*
X3062024Y315910D02*
X3068012Y315910D01*
D24*
X591000Y180000D03*
D25*
X646000Y180000D03*
X536000Y180000D03*
D26*
X629000Y121000D03*
D27*
X541000Y142000D03*
X591000Y121000D03*
D26*
X503500Y142000D03*
D28*
X668982Y93750D02*
X668982Y82962D01*
X662994Y82962D01*
X662994Y93750D01*
X668982Y93750D01*
X668982Y85174D02*
X662994Y85174D01*
X662994Y87386D02*
X668982Y87386D01*
X668982Y89598D02*
X662994Y89598D01*
X662994Y91810D02*
X668982Y91810D01*
X668982Y116562D02*
X668982Y127350D01*
X668982Y116562D02*
X662994Y116562D01*
X662994Y127350D01*
X668982Y127350D01*
X668982Y118774D02*
X662994Y118774D01*
X662994Y120986D02*
X668982Y120986D01*
X668982Y123198D02*
X662994Y123198D01*
X662994Y125410D02*
X668982Y125410D01*
D24*
X781500Y180000D03*
D25*
X836500Y180000D03*
X726500Y180000D03*
D26*
X819500Y121000D03*
D27*
X731500Y142000D03*
X781500Y121000D03*
D26*
X694000Y142000D03*
D28*
X859482Y93750D02*
X859482Y82962D01*
X853494Y82962D01*
X853494Y93750D01*
X859482Y93750D01*
X859482Y85174D02*
X853494Y85174D01*
X853494Y87386D02*
X859482Y87386D01*
X859482Y89598D02*
X853494Y89598D01*
X853494Y91810D02*
X859482Y91810D01*
X859482Y116562D02*
X859482Y127350D01*
X859482Y116562D02*
X853494Y116562D01*
X853494Y127350D01*
X859482Y127350D01*
X859482Y118774D02*
X853494Y118774D01*
X853494Y120986D02*
X859482Y120986D01*
X859482Y123198D02*
X853494Y123198D01*
X853494Y125410D02*
X859482Y125410D01*
D24*
X1067250Y180000D03*
D25*
X1122250Y180000D03*
X1012250Y180000D03*
D26*
X1105250Y121000D03*
D27*
X1017250Y142000D03*
X1067250Y121000D03*
D26*
X979750Y142000D03*
D28*
X1145232Y93750D02*
X1145232Y82962D01*
X1139244Y82962D01*
X1139244Y93750D01*
X1145232Y93750D01*
X1145232Y85174D02*
X1139244Y85174D01*
X1139244Y87386D02*
X1145232Y87386D01*
X1145232Y89598D02*
X1139244Y89598D01*
X1139244Y91810D02*
X1145232Y91810D01*
X1145232Y116562D02*
X1145232Y127350D01*
X1145232Y116562D02*
X1139244Y116562D01*
X1139244Y127350D01*
X1145232Y127350D01*
X1145232Y118774D02*
X1139244Y118774D01*
X1139244Y120986D02*
X1145232Y120986D01*
X1145232Y123198D02*
X1139244Y123198D01*
X1139244Y125410D02*
X1145232Y125410D01*
D24*
X2132750Y180000D03*
D25*
X2187750Y180000D03*
X2077750Y180000D03*
D26*
X2170750Y121000D03*
D27*
X2082750Y142000D03*
X2132750Y121000D03*
D26*
X2045250Y142000D03*
D28*
X2210508Y93506D02*
X2210508Y82718D01*
X2204520Y82718D01*
X2204520Y93506D01*
X2210508Y93506D01*
X2210508Y84930D02*
X2204520Y84930D01*
X2204520Y87142D02*
X2210508Y87142D01*
X2210508Y89354D02*
X2204520Y89354D01*
X2204520Y91566D02*
X2210508Y91566D01*
X2210508Y116318D02*
X2210508Y127106D01*
X2210508Y116318D02*
X2204520Y116318D01*
X2204520Y127106D01*
X2210508Y127106D01*
X2210508Y118530D02*
X2204520Y118530D01*
X2204520Y120742D02*
X2210508Y120742D01*
X2210508Y122954D02*
X2204520Y122954D01*
X2204520Y125166D02*
X2210508Y125166D01*
D24*
X2418500Y180000D03*
D25*
X2473500Y180000D03*
X2363500Y180000D03*
D26*
X2456500Y121000D03*
D27*
X2368500Y142000D03*
X2418500Y121000D03*
D26*
X2331000Y142000D03*
D28*
X2496512Y93750D02*
X2496512Y82962D01*
X2490524Y82962D01*
X2490524Y93750D01*
X2496512Y93750D01*
X2496512Y85174D02*
X2490524Y85174D01*
X2490524Y87386D02*
X2496512Y87386D01*
X2496512Y89598D02*
X2490524Y89598D01*
X2490524Y91810D02*
X2496512Y91810D01*
X2496512Y116562D02*
X2496512Y127350D01*
X2496512Y116562D02*
X2490524Y116562D01*
X2490524Y127350D01*
X2496512Y127350D01*
X2496512Y118774D02*
X2490524Y118774D01*
X2490524Y120986D02*
X2496512Y120986D01*
X2496512Y123198D02*
X2490524Y123198D01*
X2490524Y125410D02*
X2496512Y125410D01*
D24*
X2609000Y180000D03*
D25*
X2664000Y180000D03*
X2554000Y180000D03*
D26*
X2647000Y121000D03*
D27*
X2559000Y142000D03*
X2609000Y121000D03*
D26*
X2521500Y142000D03*
D28*
X2687012Y93750D02*
X2687012Y82962D01*
X2681024Y82962D01*
X2681024Y93750D01*
X2687012Y93750D01*
X2687012Y85174D02*
X2681024Y85174D01*
X2681024Y87386D02*
X2687012Y87386D01*
X2687012Y89598D02*
X2681024Y89598D01*
X2681024Y91810D02*
X2687012Y91810D01*
X2687012Y116562D02*
X2687012Y127350D01*
X2687012Y116562D02*
X2681024Y116562D01*
X2681024Y127350D01*
X2687012Y127350D01*
X2687012Y118774D02*
X2681024Y118774D01*
X2681024Y120986D02*
X2687012Y120986D01*
X2687012Y123198D02*
X2681024Y123198D01*
X2681024Y125410D02*
X2687012Y125410D01*
D29*
X1562900Y952670D03*
X1567900Y952670D03*
X1572900Y952670D03*
X1577900Y952670D03*
X1582900Y952670D03*
X1587900Y952670D03*
X1592900Y952670D03*
X1597900Y952670D03*
X1602900Y952670D03*
X1607900Y952670D03*
X1612900Y952670D03*
X1617900Y952670D03*
X1622900Y952670D03*
X1627900Y952670D03*
X1632900Y952670D03*
X1637900Y952670D03*
D30*
X1543900Y920140D03*
X1656900Y920140D03*
D18*
X1636246Y988050D03*
X1665754Y988050D03*
X1636246Y1019800D03*
X1665754Y1019800D03*
D31*
X1651000Y1060745D03*
X1651000Y1042355D03*
D22*
X1628445Y1057900D03*
X1610055Y1057900D03*
D21*
X1546996Y1013450D03*
X1564504Y1013450D03*
X1546996Y988050D03*
X1564504Y988050D03*
D32*
X1167750Y1158500D02*
X1157250Y1158500D01*
X1157250Y1281500D02*
X1167750Y1281500D01*
D33*
X1162500Y1220000D03*
X1162500Y1260000D03*
D34*
X1162500Y1180000D03*
D32*
X2413250Y1158500D02*
X2423750Y1158500D01*
X2423750Y1281500D02*
X2413250Y1281500D01*
D33*
X2418500Y1220000D03*
X2418500Y1260000D03*
D34*
X2418500Y1180000D03*
D32*
X2233250Y1158500D02*
X2222750Y1158500D01*
X2222750Y1281500D02*
X2233250Y1281500D01*
D33*
X2228000Y1220000D03*
X2228000Y1260000D03*
D34*
X2228000Y1180000D03*
D32*
X2042750Y1158500D02*
X2032250Y1158500D01*
X2032250Y1281500D02*
X2042750Y1281500D01*
D33*
X2037500Y1220000D03*
X2037500Y1260000D03*
D34*
X2037500Y1180000D03*
D32*
X786750Y1158500D02*
X776250Y1158500D01*
X776250Y1281500D02*
X786750Y1281500D01*
D33*
X781500Y1220000D03*
X781500Y1260000D03*
D34*
X781500Y1180000D03*
D32*
X966750Y1158500D02*
X977250Y1158500D01*
X977250Y1281500D02*
X966750Y1281500D01*
D33*
X972000Y1220000D03*
X972000Y1260000D03*
D34*
X972000Y1180000D03*
D35*
X1487550Y1327870D03*
X1471550Y1327870D03*
X1471550Y1287870D03*
X1487550Y1287870D03*
X1728850Y1328076D03*
X1712850Y1328076D03*
X1712850Y1288076D03*
X1728850Y1288076D03*
D22*
X1780845Y1270000D03*
X1762455Y1270000D03*
D31*
X1428750Y1209345D03*
X1428750Y1190955D03*
D36*
X1382687Y1189163D02*
X1373513Y1189163D01*
X1373513Y1192137D01*
X1382687Y1192137D01*
X1382687Y1189163D01*
X1382687Y1198663D02*
X1373513Y1198663D01*
X1373513Y1201637D01*
X1382687Y1201637D01*
X1382687Y1198663D01*
X1382687Y1208163D02*
X1373513Y1208163D01*
X1373513Y1211137D01*
X1382687Y1211137D01*
X1382687Y1208163D01*
X1398613Y1208163D02*
X1407787Y1208163D01*
X1398613Y1208163D02*
X1398613Y1211137D01*
X1407787Y1211137D01*
X1407787Y1208163D01*
X1407787Y1189163D02*
X1398613Y1189163D01*
X1398613Y1192137D01*
X1407787Y1192137D01*
X1407787Y1189163D01*
X255713Y1045837D02*
X255713Y1036663D01*
X255713Y1045837D02*
X258687Y1045837D01*
X258687Y1036663D01*
X255713Y1036663D01*
X255713Y1040408D02*
X258687Y1040408D01*
X258687Y1044153D02*
X255713Y1044153D01*
X265213Y1045837D02*
X265213Y1036663D01*
X265213Y1045837D02*
X268187Y1045837D01*
X268187Y1036663D01*
X265213Y1036663D01*
X265213Y1040408D02*
X268187Y1040408D01*
X268187Y1044153D02*
X265213Y1044153D01*
X274713Y1045837D02*
X274713Y1036663D01*
X274713Y1045837D02*
X277687Y1045837D01*
X277687Y1036663D01*
X274713Y1036663D01*
X274713Y1040408D02*
X277687Y1040408D01*
X277687Y1044153D02*
X274713Y1044153D01*
X274713Y1020737D02*
X274713Y1011563D01*
X274713Y1020737D02*
X277687Y1020737D01*
X277687Y1011563D01*
X274713Y1011563D01*
X274713Y1015308D02*
X277687Y1015308D01*
X277687Y1019053D02*
X274713Y1019053D01*
X255713Y1020737D02*
X255713Y1011563D01*
X255713Y1020737D02*
X258687Y1020737D01*
X258687Y1011563D01*
X255713Y1011563D01*
X255713Y1015308D02*
X258687Y1015308D01*
X258687Y1019053D02*
X255713Y1019053D01*
D22*
X257505Y1066800D03*
X275895Y1066800D03*
D37*
X1602900Y694500D03*
D30*
X1551400Y638000D03*
X1649400Y638000D03*
D37*
X1627900Y694500D03*
X1622900Y694500D03*
X1617900Y694500D03*
X1612900Y694500D03*
X1607900Y694500D03*
X1597900Y694500D03*
X1592900Y694500D03*
X1587900Y694500D03*
X1582900Y694500D03*
X1577900Y694500D03*
X1572900Y694500D03*
D38*
X80000Y205000D03*
X80000Y180000D03*
X80000Y155000D03*
X142500Y205000D03*
X142500Y155000D03*
D22*
X79045Y247650D03*
X60655Y247650D03*
X79045Y107950D03*
X60655Y107950D03*
D31*
X1377950Y1247445D03*
X1377950Y1229055D03*
X1403350Y1247445D03*
X1403350Y1229055D03*
D39*
X1403350Y1275207D03*
X1403350Y1264793D03*
X1377950Y1275207D03*
X1377950Y1264793D03*
D40*
X1460938Y1191400D03*
X1483938Y1191400D03*
X1483938Y1208900D03*
X1460938Y1208900D03*
D20*
X1511300Y1191396D03*
X1511300Y1208904D03*
X1460500Y1247004D03*
X1460500Y1229496D03*
D31*
X1485855Y1247445D03*
X1485855Y1229055D03*
D22*
X1533855Y1339850D03*
X1552245Y1339850D03*
D28*
X187144Y102894D02*
X187144Y92106D01*
X181156Y92106D01*
X181156Y102894D01*
X187144Y102894D01*
X187144Y94318D02*
X181156Y94318D01*
X181156Y96530D02*
X187144Y96530D01*
X187144Y98742D02*
X181156Y98742D01*
X181156Y100954D02*
X187144Y100954D01*
X187144Y125706D02*
X187144Y136494D01*
X187144Y125706D02*
X181156Y125706D01*
X181156Y136494D01*
X187144Y136494D01*
X187144Y127918D02*
X181156Y127918D01*
X181156Y130130D02*
X187144Y130130D01*
X187144Y132342D02*
X181156Y132342D01*
X181156Y134554D02*
X187144Y134554D01*
D39*
X139700Y252857D03*
X139700Y242443D03*
D41*
X236000Y997000D03*
X236000Y982000D03*
X184000Y982000D03*
X184000Y997000D03*
D21*
X2999350Y1027176D03*
X2981842Y1027176D03*
D41*
X426500Y997000D03*
X426500Y982000D03*
X374500Y982000D03*
X374500Y997000D03*
D21*
X2808850Y1027176D03*
X2791342Y1027176D03*
D41*
X617000Y997000D03*
X617000Y982000D03*
X565000Y982000D03*
X565000Y997000D03*
D21*
X2618350Y1027176D03*
X2600842Y1027176D03*
D41*
X807500Y997000D03*
X807500Y982000D03*
X755500Y982000D03*
X755500Y997000D03*
D21*
X2427850Y1027176D03*
X2410342Y1027176D03*
D41*
X998000Y997000D03*
X998000Y982000D03*
X946000Y982000D03*
X946000Y997000D03*
D21*
X2237350Y1027176D03*
X2219842Y1027176D03*
D41*
X1188500Y997000D03*
X1188500Y982000D03*
X1136500Y982000D03*
X1136500Y997000D03*
D21*
X2046850Y1027176D03*
X2029342Y1027176D03*
D41*
X1188304Y806584D03*
X1188304Y791584D03*
X1136304Y791584D03*
X1136304Y806584D03*
D21*
X1170550Y1027176D03*
X1153042Y1027176D03*
D41*
X997804Y806584D03*
X997804Y791584D03*
X945804Y791584D03*
X945804Y806584D03*
D21*
X980050Y1027176D03*
X962542Y1027176D03*
D41*
X807304Y806584D03*
X807304Y791584D03*
X755304Y791584D03*
X755304Y806584D03*
D21*
X789550Y1027176D03*
X772042Y1027176D03*
D41*
X616804Y806584D03*
X616804Y791584D03*
X564804Y791584D03*
X564804Y806584D03*
D21*
X599050Y1027176D03*
X581542Y1027176D03*
D41*
X426304Y806584D03*
X426304Y791584D03*
X374304Y791584D03*
X374304Y806584D03*
D21*
X408550Y1027176D03*
X391042Y1027176D03*
D41*
X235804Y806584D03*
X235804Y791584D03*
X183804Y791584D03*
X183804Y806584D03*
D21*
X218050Y1027176D03*
X200542Y1027176D03*
D41*
X236000Y616000D03*
X236000Y601000D03*
X184000Y601000D03*
X184000Y616000D03*
D21*
X2999350Y836676D03*
X2981842Y836676D03*
D41*
X426500Y616000D03*
X426500Y601000D03*
X374500Y601000D03*
X374500Y616000D03*
D21*
X2808850Y836676D03*
X2791342Y836676D03*
D41*
X617000Y616000D03*
X617000Y601000D03*
X565000Y601000D03*
X565000Y616000D03*
D21*
X2618350Y836676D03*
X2600842Y836676D03*
D41*
X807500Y616000D03*
X807500Y601000D03*
X755500Y601000D03*
X755500Y616000D03*
D21*
X2427850Y836676D03*
X2410342Y836676D03*
D41*
X998000Y616000D03*
X998000Y601000D03*
X946000Y601000D03*
X946000Y616000D03*
D21*
X2237350Y836676D03*
X2219842Y836676D03*
D41*
X1188500Y616000D03*
X1188500Y601000D03*
X1136500Y601000D03*
X1136500Y616000D03*
D21*
X2046850Y836676D03*
X2029342Y836676D03*
D41*
X1188304Y425584D03*
X1188304Y410584D03*
X1136304Y410584D03*
X1136304Y425584D03*
D21*
X1170550Y836676D03*
X1153042Y836676D03*
D41*
X997804Y425584D03*
X997804Y410584D03*
X945804Y410584D03*
X945804Y425584D03*
D21*
X980050Y836676D03*
X962542Y836676D03*
D41*
X807304Y425584D03*
X807304Y410584D03*
X755304Y410584D03*
X755304Y425584D03*
D21*
X789550Y836676D03*
X772042Y836676D03*
D41*
X616804Y425584D03*
X616804Y410584D03*
X564804Y410584D03*
X564804Y425584D03*
D21*
X599050Y836676D03*
X581542Y836676D03*
D41*
X426304Y425584D03*
X426304Y410584D03*
X374304Y410584D03*
X374304Y425584D03*
D21*
X408550Y836676D03*
X391042Y836676D03*
D41*
X235804Y425584D03*
X235804Y410584D03*
X183804Y410584D03*
X183804Y425584D03*
D21*
X218050Y836676D03*
X200542Y836676D03*
D41*
X617000Y235000D03*
X617000Y220000D03*
X565000Y220000D03*
X565000Y235000D03*
D21*
X2999350Y646176D03*
X2981842Y646176D03*
D41*
X807500Y235000D03*
X807500Y220000D03*
X755500Y220000D03*
X755500Y235000D03*
D21*
X2808850Y646176D03*
X2791342Y646176D03*
D41*
X1093250Y235000D03*
X1093250Y220000D03*
X1041250Y220000D03*
X1041250Y235000D03*
D21*
X2618350Y646176D03*
X2600842Y646176D03*
D41*
X2159034Y235000D03*
X2159034Y220000D03*
X2107034Y220000D03*
X2107034Y235000D03*
D21*
X2427850Y646176D03*
X2410342Y646176D03*
D41*
X2444276Y235000D03*
X2444276Y220000D03*
X2392276Y220000D03*
X2392276Y235000D03*
D21*
X2237350Y646176D03*
X2219842Y646176D03*
D41*
X2635030Y235000D03*
X2635030Y220000D03*
X2583030Y220000D03*
X2583030Y235000D03*
D21*
X2046850Y646176D03*
X2029342Y646176D03*
D41*
X3016088Y425584D03*
X3016088Y410584D03*
X2964088Y410584D03*
X2964088Y425584D03*
D21*
X1170550Y646176D03*
X1153042Y646176D03*
D41*
X2825588Y425584D03*
X2825588Y410584D03*
X2773588Y410584D03*
X2773588Y425584D03*
D21*
X980050Y646176D03*
X962542Y646176D03*
D41*
X2635088Y425584D03*
X2635088Y410584D03*
X2583088Y410584D03*
X2583088Y425584D03*
D21*
X789550Y646176D03*
X772042Y646176D03*
D41*
X2444588Y425584D03*
X2444588Y410584D03*
X2392588Y410584D03*
X2392588Y425584D03*
D21*
X599050Y646176D03*
X581542Y646176D03*
D41*
X2254088Y425584D03*
X2254088Y410584D03*
X2202088Y410584D03*
X2202088Y425584D03*
D21*
X408550Y646176D03*
X391042Y646176D03*
D41*
X2063588Y425584D03*
X2063588Y410584D03*
X2011588Y410584D03*
X2011588Y425584D03*
D21*
X218050Y646176D03*
X200542Y646176D03*
D41*
X2063276Y616000D03*
X2063276Y601000D03*
X2011276Y601000D03*
X2011276Y616000D03*
D21*
X2999350Y455676D03*
X2981842Y455676D03*
D41*
X2253776Y616000D03*
X2253776Y601000D03*
X2201776Y601000D03*
X2201776Y616000D03*
D21*
X2808850Y455676D03*
X2791342Y455676D03*
D41*
X2444276Y616000D03*
X2444276Y601000D03*
X2392276Y601000D03*
X2392276Y616000D03*
D21*
X2618350Y455676D03*
X2600842Y455676D03*
D41*
X2634776Y616000D03*
X2634776Y601000D03*
X2582776Y601000D03*
X2582776Y616000D03*
D21*
X2427850Y455676D03*
X2410342Y455676D03*
D41*
X2825276Y616000D03*
X2825276Y601000D03*
X2773276Y601000D03*
X2773276Y616000D03*
D21*
X2237350Y455676D03*
X2219842Y455676D03*
D41*
X3015776Y616000D03*
X3015776Y601000D03*
X2963776Y601000D03*
X2963776Y616000D03*
D21*
X2046850Y455676D03*
X2029342Y455676D03*
D41*
X3016088Y806584D03*
X3016088Y791584D03*
X2964088Y791584D03*
X2964088Y806584D03*
D21*
X1170550Y455676D03*
X1153042Y455676D03*
D41*
X2825588Y806584D03*
X2825588Y791584D03*
X2773588Y791584D03*
X2773588Y806584D03*
D21*
X980050Y455676D03*
X962542Y455676D03*
D41*
X2635088Y806584D03*
X2635088Y791584D03*
X2583088Y791584D03*
X2583088Y806584D03*
D21*
X789550Y455676D03*
X772042Y455676D03*
D41*
X2444588Y806584D03*
X2444588Y791584D03*
X2392588Y791584D03*
X2392588Y806584D03*
D21*
X599050Y455676D03*
X581542Y455676D03*
D41*
X2254088Y806584D03*
X2254088Y791584D03*
X2202088Y791584D03*
X2202088Y806584D03*
D21*
X408550Y455676D03*
X391042Y455676D03*
D41*
X2063588Y806584D03*
X2063588Y791584D03*
X2011588Y791584D03*
X2011588Y806584D03*
D21*
X218050Y455676D03*
X200542Y455676D03*
D41*
X2063334Y997084D03*
X2063334Y982084D03*
X2011334Y982084D03*
X2011334Y997084D03*
D21*
X2617500Y265176D03*
X2599992Y265176D03*
D41*
X2253834Y997084D03*
X2253834Y982084D03*
X2201834Y982084D03*
X2201834Y997084D03*
D21*
X2427000Y265176D03*
X2409492Y265176D03*
D41*
X2444334Y997084D03*
X2444334Y982084D03*
X2392334Y982084D03*
X2392334Y997084D03*
D21*
X2066260Y265430D03*
X2083768Y265430D03*
D41*
X2634834Y997084D03*
X2634834Y982084D03*
X2582834Y982084D03*
X2582834Y997084D03*
D21*
X1000700Y265684D03*
X1018208Y265684D03*
D41*
X2825334Y997084D03*
X2825334Y982084D03*
X2773334Y982084D03*
X2773334Y997084D03*
D21*
X790254Y265430D03*
X772746Y265430D03*
D41*
X3015834Y997084D03*
X3015834Y982084D03*
X2963834Y982084D03*
X2963834Y997084D03*
D21*
X599754Y265430D03*
X582246Y265430D03*
D42*
X1320800Y971550D03*
D43*
X1898650Y1200150D03*
D42*
X1320800Y927100D03*
D43*
X1873250Y1200150D03*
X1847850Y1243330D03*
X1847850Y1220470D03*
X1682750Y641350D03*
X1708150Y641350D03*
X1682750Y673100D03*
X1708150Y673100D03*
M02*
