G04 EAGLE Gerber RS-274X export*
G75*
%MOMM*%
%FSLAX34Y34*%
%LPD*%
%INSoldermask Top*%
%IPPOS*%
%AMOC8*
5,1,8,0,0,1.08239X$1,22.5*%
G01*
G04 Define Apertures*
%ADD10C,3.801600*%
%ADD11C,2.501600*%
%ADD12C,1.801600*%
%ADD13C,3.501600*%
%ADD14C,2.001600*%
%ADD15C,3.101600*%
%ADD16C,1.151600*%
%ADD17C,1.301600*%
%ADD18R,1.301600X1.301600*%
%ADD19R,1.651600X1.401600*%
%ADD20R,1.813400X1.063400*%
%ADD21C,2.006600*%
%ADD22C,2.641600*%
G36*
X272479Y1182050D02*
X288050Y1182050D01*
X288050Y1159950D01*
X261950Y1159950D01*
X261950Y1171521D01*
X272479Y1182050D01*
G37*
G36*
X261950Y1280050D02*
X288050Y1280050D01*
X288050Y1257950D01*
X272479Y1257950D01*
X261950Y1268479D01*
X261950Y1280050D01*
G37*
G36*
X2938050Y1159950D02*
X2911950Y1159950D01*
X2911950Y1182050D01*
X2927521Y1182050D01*
X2938050Y1171521D01*
X2938050Y1159950D01*
G37*
G36*
X2927521Y1257950D02*
X2911950Y1257950D01*
X2911950Y1280050D01*
X2938050Y1280050D01*
X2938050Y1268479D01*
X2927521Y1257950D01*
G37*
D10*
X40000Y40000D03*
X3160000Y40000D03*
X1600000Y40000D03*
X1300000Y280000D03*
X1310000Y860000D03*
X1080000Y1120000D03*
X390000Y1120000D03*
X1080000Y40000D03*
X560000Y40000D03*
X40000Y890000D03*
X40000Y460000D03*
X2120000Y40000D03*
X2640000Y40000D03*
X1900000Y280000D03*
X1890000Y860000D03*
X2120000Y1120000D03*
X2800000Y1120000D03*
X3160000Y890000D03*
X3160000Y460000D03*
X880000Y1320000D03*
X2320000Y1320000D03*
X40000Y1320000D03*
X3160000Y1320000D03*
D11*
X1700000Y910000D03*
X1500000Y910000D03*
D12*
X2800000Y1313850D03*
X2800000Y1206150D03*
X390000Y1313850D03*
X390000Y1206150D03*
D13*
X210000Y942000D03*
D14*
X265000Y942000D03*
X155000Y942000D03*
D15*
X160000Y904000D03*
X210000Y883000D03*
D13*
X400500Y942000D03*
D14*
X455500Y942000D03*
X345500Y942000D03*
D15*
X350500Y904000D03*
X400500Y883000D03*
D13*
X591000Y942000D03*
D14*
X646000Y942000D03*
X536000Y942000D03*
D15*
X541000Y904000D03*
X591000Y883000D03*
D13*
X781500Y942000D03*
D14*
X836500Y942000D03*
X726500Y942000D03*
D15*
X731500Y904000D03*
X781500Y883000D03*
D13*
X972000Y942000D03*
D14*
X1027000Y942000D03*
X917000Y942000D03*
D15*
X922000Y904000D03*
X972000Y883000D03*
D13*
X1162500Y942000D03*
D14*
X1217500Y942000D03*
X1107500Y942000D03*
D15*
X1112500Y904000D03*
X1162500Y883000D03*
D13*
X2037500Y942000D03*
D14*
X2092500Y942000D03*
X1982500Y942000D03*
D15*
X1987500Y904000D03*
X2037500Y883000D03*
D13*
X2228000Y942000D03*
D14*
X2283000Y942000D03*
X2173000Y942000D03*
D15*
X2178000Y904000D03*
X2228000Y883000D03*
D13*
X2418500Y942000D03*
D14*
X2473500Y942000D03*
X2363500Y942000D03*
D15*
X2368500Y904000D03*
X2418500Y883000D03*
D13*
X2609000Y942000D03*
D14*
X2664000Y942000D03*
X2554000Y942000D03*
D15*
X2559000Y904000D03*
X2609000Y883000D03*
D13*
X2799500Y942000D03*
D14*
X2854500Y942000D03*
X2744500Y942000D03*
D15*
X2749500Y904000D03*
X2799500Y883000D03*
D13*
X2990000Y942000D03*
D14*
X3045000Y942000D03*
X2935000Y942000D03*
D15*
X2940000Y904000D03*
X2990000Y883000D03*
D13*
X210000Y751500D03*
D14*
X265000Y751500D03*
X155000Y751500D03*
D15*
X160000Y713500D03*
X210000Y692500D03*
D13*
X400500Y751500D03*
D14*
X455500Y751500D03*
X345500Y751500D03*
D15*
X350500Y713500D03*
X400500Y692500D03*
D13*
X591000Y751500D03*
D14*
X646000Y751500D03*
X536000Y751500D03*
D15*
X541000Y713500D03*
X591000Y692500D03*
D13*
X781500Y751500D03*
D14*
X836500Y751500D03*
X726500Y751500D03*
D15*
X731500Y713500D03*
X781500Y692500D03*
D13*
X972000Y751500D03*
D14*
X1027000Y751500D03*
X917000Y751500D03*
D15*
X922000Y713500D03*
X972000Y692500D03*
D13*
X1162500Y751500D03*
D14*
X1217500Y751500D03*
X1107500Y751500D03*
D15*
X1112500Y713500D03*
X1162500Y692500D03*
D13*
X2037500Y751500D03*
D14*
X2092500Y751500D03*
X1982500Y751500D03*
D15*
X1987500Y713500D03*
X2037500Y692500D03*
D13*
X2228000Y751500D03*
D14*
X2283000Y751500D03*
X2173000Y751500D03*
D15*
X2178000Y713500D03*
X2228000Y692500D03*
D13*
X2418500Y751500D03*
D14*
X2473500Y751500D03*
X2363500Y751500D03*
D15*
X2368500Y713500D03*
X2418500Y692500D03*
D13*
X2609000Y751500D03*
D14*
X2664000Y751500D03*
X2554000Y751500D03*
D15*
X2559000Y713500D03*
X2609000Y692500D03*
D13*
X2799500Y751500D03*
D14*
X2854500Y751500D03*
X2744500Y751500D03*
D15*
X2749500Y713500D03*
X2799500Y692500D03*
D13*
X2990000Y751500D03*
D14*
X3045000Y751500D03*
X2935000Y751500D03*
D15*
X2940000Y713500D03*
X2990000Y692500D03*
D13*
X210000Y561000D03*
D14*
X265000Y561000D03*
X155000Y561000D03*
D15*
X160000Y523000D03*
X210000Y502000D03*
D13*
X400500Y561000D03*
D14*
X455500Y561000D03*
X345500Y561000D03*
D15*
X350500Y523000D03*
X400500Y502000D03*
D13*
X591000Y561000D03*
D14*
X646000Y561000D03*
X536000Y561000D03*
D15*
X541000Y523000D03*
X591000Y502000D03*
D13*
X781500Y561000D03*
D14*
X836500Y561000D03*
X726500Y561000D03*
D15*
X731500Y523000D03*
X781500Y502000D03*
D13*
X972000Y561000D03*
D14*
X1027000Y561000D03*
X917000Y561000D03*
D15*
X922000Y523000D03*
X972000Y502000D03*
D13*
X1162500Y561000D03*
D14*
X1217500Y561000D03*
X1107500Y561000D03*
D15*
X1112500Y523000D03*
X1162500Y502000D03*
D13*
X2037500Y561000D03*
D14*
X2092500Y561000D03*
X1982500Y561000D03*
D15*
X1987500Y523000D03*
X2037500Y502000D03*
D13*
X2228000Y561000D03*
D14*
X2283000Y561000D03*
X2173000Y561000D03*
D15*
X2178000Y523000D03*
X2228000Y502000D03*
D13*
X2418500Y561000D03*
D14*
X2473500Y561000D03*
X2363500Y561000D03*
D15*
X2368500Y523000D03*
X2418500Y502000D03*
D13*
X2609000Y561000D03*
D14*
X2664000Y561000D03*
X2554000Y561000D03*
D15*
X2559000Y523000D03*
X2609000Y502000D03*
D13*
X2799500Y561000D03*
D14*
X2854500Y561000D03*
X2744500Y561000D03*
D15*
X2749500Y523000D03*
X2799500Y502000D03*
D13*
X2990000Y561000D03*
D14*
X3045000Y561000D03*
X2935000Y561000D03*
D15*
X2940000Y523000D03*
X2990000Y502000D03*
D13*
X210000Y370500D03*
D14*
X265000Y370500D03*
X155000Y370500D03*
D15*
X160000Y332500D03*
X210000Y311500D03*
D13*
X400500Y370500D03*
D14*
X455500Y370500D03*
X345500Y370500D03*
D15*
X350500Y332500D03*
X400500Y311500D03*
D13*
X591000Y370500D03*
D14*
X646000Y370500D03*
X536000Y370500D03*
D15*
X541000Y332500D03*
X591000Y311500D03*
D13*
X781500Y370500D03*
D14*
X836500Y370500D03*
X726500Y370500D03*
D15*
X731500Y332500D03*
X781500Y311500D03*
D13*
X972000Y370500D03*
D14*
X1027000Y370500D03*
X917000Y370500D03*
D15*
X922000Y332500D03*
X972000Y311500D03*
D13*
X1162500Y370500D03*
D14*
X1217500Y370500D03*
X1107500Y370500D03*
D15*
X1112500Y332500D03*
X1162500Y311500D03*
D13*
X2037500Y370500D03*
D14*
X2092500Y370500D03*
X1982500Y370500D03*
D15*
X1987500Y332500D03*
X2037500Y311500D03*
D13*
X2228000Y370500D03*
D14*
X2283000Y370500D03*
X2173000Y370500D03*
D15*
X2178000Y332500D03*
X2228000Y311500D03*
D13*
X2418500Y370500D03*
D14*
X2473500Y370500D03*
X2363500Y370500D03*
D15*
X2368500Y332500D03*
X2418500Y311500D03*
D13*
X2609000Y370500D03*
D14*
X2664000Y370500D03*
X2554000Y370500D03*
D15*
X2559000Y332500D03*
X2609000Y311500D03*
D13*
X2799500Y370500D03*
D14*
X2854500Y370500D03*
X2744500Y370500D03*
D15*
X2749500Y332500D03*
X2799500Y311500D03*
D13*
X2990000Y370500D03*
D14*
X3045000Y370500D03*
X2935000Y370500D03*
D15*
X2940000Y332500D03*
X2990000Y311500D03*
D13*
X591000Y180000D03*
D14*
X646000Y180000D03*
X536000Y180000D03*
D15*
X541000Y142000D03*
X591000Y121000D03*
D13*
X781500Y180000D03*
D14*
X836500Y180000D03*
X726500Y180000D03*
D15*
X731500Y142000D03*
X781500Y121000D03*
D13*
X1067250Y180000D03*
D14*
X1122250Y180000D03*
X1012250Y180000D03*
D15*
X1017250Y142000D03*
X1067250Y121000D03*
D13*
X2132750Y180000D03*
D14*
X2187750Y180000D03*
X2077750Y180000D03*
D15*
X2082750Y142000D03*
X2132750Y121000D03*
D13*
X2418500Y180000D03*
D14*
X2473500Y180000D03*
X2363500Y180000D03*
D15*
X2368500Y142000D03*
X2418500Y121000D03*
D13*
X2609000Y180000D03*
D14*
X2664000Y180000D03*
X2554000Y180000D03*
D15*
X2559000Y142000D03*
X2609000Y121000D03*
D16*
X1167750Y1158500D02*
X1157250Y1158500D01*
X1157250Y1281500D02*
X1167750Y1281500D01*
D17*
X1162500Y1220000D03*
X1162500Y1260000D03*
D18*
X1162500Y1180000D03*
D16*
X2413250Y1158500D02*
X2423750Y1158500D01*
X2423750Y1281500D02*
X2413250Y1281500D01*
D17*
X2418500Y1220000D03*
X2418500Y1260000D03*
D18*
X2418500Y1180000D03*
D16*
X2233250Y1158500D02*
X2222750Y1158500D01*
X2222750Y1281500D02*
X2233250Y1281500D01*
D17*
X2228000Y1220000D03*
X2228000Y1260000D03*
D18*
X2228000Y1180000D03*
D16*
X2042750Y1158500D02*
X2032250Y1158500D01*
X2032250Y1281500D02*
X2042750Y1281500D01*
D17*
X2037500Y1220000D03*
X2037500Y1260000D03*
D18*
X2037500Y1180000D03*
D16*
X786750Y1158500D02*
X776250Y1158500D01*
X776250Y1281500D02*
X786750Y1281500D01*
D17*
X781500Y1220000D03*
X781500Y1260000D03*
D18*
X781500Y1180000D03*
D16*
X966750Y1158500D02*
X977250Y1158500D01*
X977250Y1281500D02*
X966750Y1281500D01*
D17*
X972000Y1220000D03*
X972000Y1260000D03*
D18*
X972000Y1180000D03*
D19*
X1560250Y1242500D03*
X1639750Y1242500D03*
X1560250Y1197500D03*
X1639750Y1197500D03*
D20*
X1720000Y1235250D03*
X1720000Y1204750D03*
X1480000Y1204750D03*
X1480000Y1235250D03*
D21*
X80000Y205000D03*
X80000Y180000D03*
X80000Y155000D03*
X142500Y205000D03*
X142500Y155000D03*
D22*
X1460500Y1320800D03*
X1422400Y1320800D03*
X1339850Y1320800D03*
M02*
