M48
;GenerationSoftware,Autodesk,EAGLE,9.7.0*%
;CreationDate,2025-10-28T02:12:18Z*%
FMAT,2
ICI,OFF
METRIC,TZ,000.000
T11C0.350
T10C0.500
T9C0.700
T8C0.800
T7C1.270
T6C1.700
T5C1.900
T4C2.400
T3C3.000
T2C3.400
T1C3.700
%
G90
M71
T1
X316000Y132000
X4000Y4000
X316000Y4000
X160000Y4000
X130000Y28000
X131000Y86000
X108000Y112000
X39000Y112000
X108000Y4000
X56000Y4000
X4000Y89000
X4000Y46000
X212000Y4000
X264000Y4000
X190000Y28000
X189000Y86000
X212000Y112000
X280000Y112000
X316000Y89000
X316000Y46000
X88000Y132000
X232000Y132000
X4000Y132000
T2
X106725Y18000
X78150Y18000
X78150Y56100
X97200Y56100
X97200Y94200
X116250Y56100
X203750Y56100
X222800Y56100
X241850Y56100
X116250Y94200
X260900Y56100
X279950Y56100
X299000Y56100
X203750Y94200
X40050Y56100
X78150Y94200
X21000Y56100
X299000Y75150
X279950Y75150
X260900Y75150
X59100Y94200
X241850Y75150
X222800Y75150
X203750Y75150
X116250Y75150
X40050Y94200
X97200Y75150
X78150Y75150
X59100Y75150
X40050Y75150
X21000Y94200
X21000Y75150
X299000Y94200
X279950Y94200
X260900Y94200
X241850Y94200
X222800Y94200
X21000Y37050
X40050Y37050
X59100Y37050
X78150Y37050
X260900Y18000
X97200Y37050
X116250Y37050
X203750Y37050
X222800Y37050
X241850Y18000
X241850Y37050
X260900Y37050
X279950Y37050
X299000Y37050
X213275Y18000
X59100Y18000
X59100Y56100
T3
X198750Y90400
X78150Y50200
X203750Y88300
X78150Y12100
X73150Y14200
X222800Y50200
X217800Y90400
X101725Y14200
X59100Y12100
X54100Y14200
X222800Y88300
X299000Y50200
X106725Y12100
X299000Y31150
X294000Y33250
X236850Y90400
X241850Y88300
X255900Y90400
X279950Y31150
X274950Y33250
X260900Y88300
X274950Y90400
X279950Y88300
X260900Y31150
X255900Y33250
X294000Y90400
X299000Y88300
X208275Y14200
X241850Y31150
X236850Y33250
X16000Y71350
X21000Y69250
X213275Y12100
X222800Y31150
X217800Y33250
X35050Y71350
X40050Y69250
X54100Y71350
X203750Y31150
X198750Y33250
X59100Y69250
X16000Y90400
X73150Y71350
X116250Y31150
X111250Y33250
X78150Y69250
X21000Y88300
X236850Y14200
X97200Y31150
X92200Y33250
X92200Y71350
X97200Y69250
X241850Y12100
X78150Y31150
X73150Y33250
X111250Y71350
X116250Y69250
X198750Y71350
X59100Y31150
X54100Y33250
X203750Y69250
X35050Y90400
X217800Y71350
X40050Y31150
X35050Y33250
X222800Y69250
X40050Y88300
X255900Y14200
X21000Y31150
X16000Y33250
X236850Y71350
X260900Y12100
X92200Y52300
X241850Y69250
X294000Y52300
X255900Y71350
X260900Y69250
X97200Y50200
X279950Y50200
X274950Y52300
X274950Y71350
X279950Y69250
X54100Y90400
X260900Y50200
X255900Y52300
X294000Y71350
X299000Y69250
X59100Y88300
X241850Y50200
X236850Y52300
X16000Y52300
X21000Y50200
X97200Y88300
X111250Y90400
X217800Y52300
X116250Y88300
X35050Y52300
X92200Y90400
X203750Y50200
X198750Y52300
X40050Y50200
X54100Y52300
X59100Y50200
X116250Y50200
X111250Y52300
X73150Y90400
X73150Y52300
X78150Y88300
T4
X150000Y91000
X170000Y91000
T5
X91700Y56100
X72650Y18000
X102700Y56100
X102700Y94200
X121750Y56100
X72650Y56100
X83650Y56100
X110750Y56100
X91700Y94200
X209250Y56100
X53600Y56100
X64600Y56100
X72650Y94200
X198250Y56100
X228300Y56100
X34550Y56100
X45550Y56100
X83650Y94200
X247350Y56100
X236350Y56100
X15500Y56100
X26500Y56100
X121750Y94200
X266400Y56100
X255400Y56100
X293500Y75150
X304500Y75150
X110750Y94200
X285450Y56100
X274450Y56100
X274450Y75150
X285450Y75150
X53600Y94200
X304500Y56100
X293500Y56100
X255400Y75150
X266400Y75150
X64600Y94200
X26500Y37050
X15500Y37050
X236350Y75150
X247350Y75150
X45550Y37050
X34550Y37050
X255400Y18000
X217300Y75150
X228300Y75150
X64600Y37050
X53600Y37050
X266400Y18000
X198250Y75150
X209250Y75150
X34550Y94200
X83650Y37050
X72650Y37050
X110750Y75150
X121750Y75150
X45550Y94200
X102700Y37050
X91700Y37050
X91700Y75150
X102700Y75150
X121750Y37050
X110750Y37050
X236350Y18000
X72650Y75150
X83650Y75150
X209250Y37050
X198250Y37050
X247350Y18000
X53600Y75150
X64600Y75150
X15500Y94200
X228300Y37050
X217300Y37050
X34550Y75150
X45550Y75150
X26500Y94200
X247350Y37050
X236350Y37050
X15500Y75150
X26500Y75150
X209250Y94200
X266400Y37050
X255400Y37050
X293500Y94200
X304500Y94200
X198250Y94200
X207775Y18000
X285450Y37050
X274450Y94200
X285450Y94200
X217300Y56100
X274450Y37050
X218775Y18000
X255400Y94200
X266400Y94200
X101225Y18000
X304500Y37050
X293500Y37050
X236350Y94200
X247350Y94200
X64600Y18000
X53600Y18000
X83650Y18000
X217300Y94200
X228300Y94200
X112225Y18000
T6
X280000Y131385
X280000Y120615
X39000Y131385
X39000Y120615
T7
X14250Y15500
X8000Y15500
X14250Y20500
X8000Y18000
X8000Y20500
T8
X203750Y118000
X116250Y126000
X116250Y118000
X97200Y118000
X97200Y126000
X241850Y122000
X241850Y126000
X241850Y118000
X97200Y122000
X78150Y118000
X222800Y122000
X222800Y126000
X222800Y118000
X78150Y126000
X78150Y122000
X203750Y122000
X203750Y126000
X116250Y122000
T9
X78150Y128150
X78150Y115850
X203750Y128150
X203750Y115850
X222800Y128150
X97200Y115850
X97200Y128150
X222800Y115850
X241850Y128150
X241850Y115850
X116250Y128150
X116250Y115850
X189865Y118110
X197485Y104775
T10
X156845Y93725
X132080Y101600
X287020Y121739
X287020Y122641
X312420Y126819
X311785Y127721
T11
X156210Y69850
X148412Y61800
X314147Y117378
X296367Y117378
X289255Y117378
X287477Y132776
X275031Y117378
X260807Y117378
X246583Y117378
X243027Y117378
X235915Y117378
X232359Y117378
X228803Y117378
X221691Y117378
X139903Y117378
X207467Y117378
X131013Y126617
X193243Y117378
X8331Y123537
X99009Y114299
X315925Y114299
X182575Y117378
X177241Y114299
X266141Y120458
X179019Y117378
X175463Y117378
X63449Y120458
X79451Y123537
X150571Y117378
X141681Y114299
X40335Y123537
X299923Y123537
X303479Y117378
X147015Y117378
X251917Y120458
X61671Y123537
X136347Y117378
X109677Y120458
X132791Y117378
X56337Y120458
X259029Y132776
X97231Y123537
X285699Y117378
X129235Y123537
X129235Y117378
X239471Y117378
X68783Y123537
X282143Y117378
X125679Y117378
X191465Y114299
X118567Y117378
X315925Y120458
X115011Y117378
X264363Y117378
X107899Y117378
X166573Y114299
X33223Y117378
X100787Y117378
X200355Y117378
X93675Y117378
X90119Y117378
X262585Y120458
X225247Y117378
X83007Y117378
X79451Y117378
X68783Y117378
X65227Y117378
X218135Y117378
X203911Y111219
X84785Y132776
X61671Y117378
X29667Y117378
X299923Y117378
X255473Y114299
X266141Y114299
X123901Y126617
X2997Y126617
X67005Y132776
X1219Y117378
X303479Y123537
X104343Y123537
X22555Y117378
X113233Y120458
X10109Y132776
X308813Y114299
X43891Y111219
X301701Y114299
X296367Y129696
X298145Y114299
X294589Y114299
X317703Y117378
X273253Y114299
X310591Y111219
X262585Y114299
X235915Y111219
X259029Y114299
X109677Y114299
X17221Y120458
X251917Y114299
X47447Y111219
X244805Y114299
X202133Y114299
X271475Y117378
X223469Y132776
X241249Y114299
X230581Y120458
X31445Y120458
X237693Y114299
X230581Y114299
X111455Y117378
X227025Y114299
X223469Y114299
X292811Y111219
X276809Y114299
X289255Y129696
X170129Y126617
X219913Y114299
X189687Y129696
X187909Y114299
X195021Y120458
X184353Y114299
X26111Y129696
X84785Y114299
X209245Y120458
X90119Y111219
X218135Y111219
X29667Y123537
X97231Y111219
X95453Y126617
X307035Y117378
X164795Y117378
X212801Y114299
X196799Y117378
X134569Y114299
X116789Y114299
X298145Y120458
X106121Y114299
X200355Y111219
X227025Y120458
X234137Y114299
X205689Y132776
X102565Y114299
X239471Y111219
X59893Y114299
X1219Y111219
X88341Y126617
X18999Y129696
X251917Y126617
X95453Y114299
X11887Y123537
X314147Y111219
X29667Y111219
X262585Y132776
X91897Y114299
X88341Y114299
X86563Y117378
X198577Y114299
X211023Y117378
X22555Y129696
X99009Y126617
X81229Y114299
X250139Y111219
X216357Y114299
X77673Y114299
X287477Y120458
X209245Y114299
X84785Y126617
X10109Y114299
X67005Y114299
X8331Y129696
X191465Y120458
X267919Y111219
X116789Y120458
X95453Y132776
X45669Y114299
X223469Y120458
X283921Y114299
X198577Y120458
X74117Y120458
X106121Y120458
X250139Y117378
X122123Y111219
X52781Y120458
X13665Y114299
X29667Y129696
X294589Y120458
X63449Y114299
X120345Y114299
X234137Y120458
X72339Y111219
X2997Y114299
X20777Y120458
X15443Y117378
X148793Y114299
X51003Y111219
X186131Y117378
X70561Y114299
X264363Y111219
X257251Y111219
X273253Y132776
X49225Y132776
X214579Y111219
X132791Y111219
X253695Y111219
X49225Y114299
X93675Y111219
X207467Y111219
X317703Y111219
X202133Y120458
X186131Y111219
X269697Y120458
X296367Y123537
X56337Y114299
X49225Y120458
X83007Y111219
X123901Y114299
X47447Y117378
X79451Y111219
X193243Y111219
X296367Y111219
X54559Y111219
X168351Y111219
X123901Y120458
X143459Y129696
X182575Y111219
X307035Y111219
X303479Y129696
X275031Y129696
X299923Y111219
X139903Y111219
X246583Y123537
X157683Y111219
X310591Y129696
X246583Y111219
X289255Y111219
X180797Y132776
X111455Y111219
X118567Y111219
X310591Y117378
X17221Y126617
X33223Y111219
X303479Y111219
X11887Y117378
X113233Y114299
X42113Y114299
X291033Y114299
X115011Y111219
X275031Y111219
X70561Y132776
X59893Y126617
X86563Y111219
X129235Y111219
X51003Y117378
X83007Y123537
X104343Y111219
X74117Y114299
X72339Y117378
X271475Y111219
X75895Y111219
X253695Y117378
X131013Y114299
X243027Y111219
X305257Y114299
X20777Y132776
X260807Y111219
X248361Y126617
X195021Y114299
X65227Y111219
X13665Y120458
X260807Y129696
X136347Y111219
X68783Y111219
X267919Y117378
X100787Y111219
X221691Y111219
X214579Y117378
X125679Y111219
X58115Y111219
X17221Y132776
X241249Y120458
X52781Y114299
X294589Y132776
X232359Y111219
X209245Y126617
X26111Y111219
X278587Y117378
X264363Y129696
X196799Y111219
X315925Y126617
X134569Y120458
X198577Y132776
X127457Y132776
X18999Y111219
X225247Y111219
X31445Y132776
X61671Y111219
X130632Y104913
X146634Y101833
X139522Y101833
X144856Y98754
X137744Y98754
X134188Y98754
X146634Y95674
X143078Y95674
X128854Y95674
X148412Y92595
X144856Y92595
X137744Y92595
X146634Y71038
X143078Y89515
X132410Y52561
X144856Y86436
X135966Y89515
X132410Y89515
X128854Y40243
X128854Y89515
X143078Y58720
X137744Y86436
X134188Y86436
X146634Y83356
X132410Y83356
X141300Y92595
X139522Y64879
X137744Y80277
X128854Y83356
X148412Y80277
X130632Y80277
X146634Y77197
X132410Y77197
X150190Y83356
X128854Y77197
X128854Y52561
X143078Y77197
X135966Y77197
X137744Y74118
X139522Y83356
X130632Y74118
X150190Y71038
X148412Y86436
X134188Y80277
X150190Y95674
X143078Y71038
X128854Y64879
X139522Y71038
X135966Y71038
X130632Y55641
X135966Y83356
X134188Y67959
X143078Y64879
X128854Y71038
X144856Y67959
X130632Y67959
X150190Y64879
X144856Y80277
X130632Y98754
X156210Y67310
X127457Y114299
X301625Y97155
X139522Y89515
X141300Y67959
X134188Y104913
X141300Y61800
X135966Y101833
X134188Y92595
X139522Y95674
X135966Y95674
X141300Y86436
X141300Y98754
X134188Y61800
X141300Y74118
X139522Y58720
X134188Y74118
X135966Y58720
X143078Y83356
X137744Y61800
X132410Y46402
X141300Y80277
X146634Y64879
X137744Y55641
X135966Y64879
X134188Y49482
X148412Y98754
X135966Y52561
X128854Y46402
X143078Y101833
X130632Y43323
X139522Y77197
X134188Y43323
X130632Y24846
X128854Y34084
X146634Y89515
X130632Y49482
X144856Y74118
X134188Y55641
X130632Y31005
X130632Y37164
X132410Y71038
X137744Y67959
X189052Y104913
X185496Y104913
X178384Y104913
X174828Y104913
X171272Y104913
X190830Y101833
X187274Y101833
X180162Y101833
X173050Y101833
X189052Y98754
X185496Y98754
X181940Y98754
X178384Y98754
X174828Y98754
X171272Y98754
X187274Y95674
X180162Y95674
X176606Y95674
X173050Y95674
X169494Y95674
X189052Y92595
X171272Y92595
X187274Y89515
X189052Y37164
X183718Y89515
X176606Y89515
X181940Y86436
X189052Y61800
X173050Y71038
X171272Y86436
X183718Y83356
X171272Y61800
X185496Y86436
X176606Y58720
X180162Y83356
X176606Y83356
X189052Y80277
X181940Y92595
X185496Y80277
X174828Y80277
X181940Y80277
X185496Y92595
X185496Y49482
X190830Y83356
X183718Y71038
X187274Y83356
X173050Y83356
X171272Y80277
X178384Y80277
X180162Y58720
X169494Y83356
X189052Y74118
X174828Y74118
X180162Y89515
X190830Y71038
X187274Y71038
X176606Y71038
X176606Y64879
X187274Y77197
X176606Y77197
X189052Y67959
X174828Y86436
X189052Y31005
X185496Y67959
X185496Y55641
X190830Y95674
X174828Y67959
X180162Y64879
X190830Y64879
X190830Y34084
X181940Y61800
X185496Y74118
X178384Y61800
X178384Y86436
X169494Y77197
X173050Y64879
X174828Y61800
X176606Y101833
X185496Y61800
X190830Y89515
X181940Y104913
X183718Y101833
X189052Y55641
X181940Y55641
X183718Y58720
X178384Y67959
X185496Y43323
X173050Y89515
X183718Y52561
X183718Y77197
X173050Y77197
X190830Y40243
X183718Y95674
X189052Y49482
X190830Y77197
X180162Y77197
X169494Y101833
X181940Y74118
X190830Y58720
X178384Y74118
X189052Y24846
X190830Y52561
X187274Y64879
X174828Y92595
X183718Y64879
X181940Y67959
X178384Y92595
X180162Y71038
X190830Y46402
X163449Y132342
X139065Y120015
X139065Y133350
X177800Y128905
X177800Y135081
X6553Y120458
X170129Y132776
X216357Y120458
X301701Y120458
X140335Y120015
X123258Y104843
X95453Y120458
X27889Y120458
X34611Y126602
X33909Y125900
X38100Y125095
X38100Y123190
X33909Y127305
X165100Y115570
X171450Y116840
X152400Y123190
X2997Y120458
X86563Y123537
X163195Y67310
X137160Y132279
X135890Y122911
X151809Y130298
X164717Y121720
X154940Y122950
X165139Y125125
X148742Y127584
X148742Y133711
X304800Y85090
X285750Y85090
X266700Y85090
X247650Y85090
X228600Y85090
X209550Y85090
X26670Y85090
X121920Y85090
X102870Y85090
X83820Y85090
X64770Y85090
X45720Y85090
X152626Y114074
X266700Y8890
X219075Y8890
X247650Y8890
X20320Y8890
X68580Y8890
X116205Y8890
X87630Y8890
X150640Y116060
X153949Y119532
X155567Y126470
X304800Y27940
X209550Y27940
X228600Y27940
X247650Y27940
X266700Y27940
X285750Y27940
X30480Y27940
X125730Y27940
X106680Y27940
X87630Y27940
X68580Y27940
X49530Y27940
X150957Y114750
X304800Y46990
X209550Y46990
X228600Y46990
X247650Y46990
X266700Y46990
X285750Y46990
X26670Y46990
X121920Y46990
X102870Y46990
X83820Y46990
X64770Y46990
X45720Y46990
X151633Y115067
X304800Y66040
X285750Y66040
X266700Y66040
X209550Y66040
X228600Y66040
X247650Y66040
X26670Y66040
X121920Y66040
X102870Y66040
X83820Y66040
X64770Y66040
X45720Y66040
X151705Y114002
X161874Y130108
X161925Y102615
X161171Y130810
X161348Y103250
X159064Y130108
X160819Y102590
X159766Y130810
X160349Y107551
X158362Y130810
X159385Y102615
X174625Y127000
X142875Y117475
X29210Y106680
X150495Y111207
X162576Y130810
X157507Y67285
X160469Y130108
X160655Y108965
X163278Y130108
X159048Y67285
X161261Y67310
X158491Y128132
X137795Y131216
X136525Y126365
X161992Y67310
X158054Y127576
X139700Y131216
X141605Y126365
X145524Y127286
X145969Y127885
X16510Y97790
X42545Y101600
X35560Y97790
X61595Y101600
X53975Y97790
X80645Y101600
X73025Y97790
X99695Y101600
X92075Y97790
X118745Y101600
X111125Y78740
X99695Y82550
X73025Y78740
X61595Y82550
X53975Y78740
X42545Y82550
X34925Y78740
X23495Y82550
X15875Y59690
X42545Y63500
X34925Y59690
X61595Y63500
X53975Y59690
X80645Y63500
X73025Y59690
X99695Y63500
X92075Y59690
X118745Y63500
X111125Y40640
X99695Y44450
X92075Y40640
X80645Y44450
X73025Y40640
X61595Y44450
X53975Y40640
X42545Y44450
X34925Y40640
X23495Y44450
X53975Y21590
X80645Y25400
X73025Y21590
X109220Y25400
X208280Y21590
X244475Y25400
X236855Y21590
X263525Y25400
X294005Y40640
X282575Y44450
X274955Y40640
X263525Y44450
X255905Y40640
X244475Y44450
X236855Y40640
X225425Y44450
X217805Y40640
X206375Y44450
X198755Y59690
X225425Y63500
X217805Y59690
X244475Y63500
X236855Y59690
X263525Y63500
X274955Y59690
X301625Y63500
X294005Y78740
X282575Y82550
X274955Y78740
X263525Y82550
X255905Y78740
X244475Y82550
X236855Y78740
X225425Y82550
X217805Y78740
X206375Y82550
X198755Y97790
X225425Y101600
X217805Y97790
X244475Y101600
X236855Y97790
X263525Y101600
X255905Y97790
X282575Y101600
X274955Y97790
X301625Y101600
X92075Y78740
X80645Y82550
X15875Y40640
X61595Y25400
X255905Y59690
X282575Y63500
X59893Y120458
X54559Y117378
X122123Y117378
X227025Y126617
X70561Y120458
X67005Y120458
X54559Y123537
X77673Y120458
X228803Y111219
X81229Y120458
X205689Y120458
X22555Y111219
X84785Y120458
X248361Y114299
X120345Y120458
X75895Y117378
X184353Y132776
X88341Y120458
X91897Y120458
X99009Y120458
X18999Y117378
X127457Y120458
X145237Y114299
X6553Y132776
X131013Y120458
X269697Y114299
X289255Y123537
X120345Y126617
X259029Y120458
X170129Y120458
X120345Y132776
X216357Y132776
X104343Y117378
X237693Y120458
X212801Y120458
X219913Y120458
X109677Y126617
X305257Y120458
X244805Y120458
X248361Y120458
X255473Y120458
X273253Y120458
X111455Y123537
X196799Y123537
X243027Y123537
X63449Y132776
X205689Y114299
X11887Y129696
X308813Y120458
X1219Y123537
X18999Y123537
X22555Y123537
X102565Y120458
X47447Y123537
X15443Y123537
X287477Y114299
X51003Y123537
X58115Y123537
X143459Y111219
X65227Y123537
X257251Y117378
X90119Y123537
X93675Y123537
X100787Y123537
X212801Y132776
X107899Y123537
X285699Y111219
X278587Y129696
X219913Y132776
X118567Y123537
X11887Y111219
X122123Y123537
X125679Y123537
X132791Y123537
X58115Y117378
X72339Y123537
X138125Y114299
X253695Y123537
X200355Y123537
X278587Y123537
X250139Y123537
X113233Y126617
X191465Y132776
X292811Y123537
X127457Y126617
X307035Y123537
X310591Y123537
X244805Y126617
X314147Y123537
X317703Y123537
X10109Y126617
X305257Y132776
X13665Y126617
X20777Y126617
X219913Y126617
X24333Y126617
X52781Y132776
X4775Y129696
X49225Y126617
X52781Y126617
X56337Y126617
X63449Y126617
X67005Y126617
X266141Y126617
X70561Y126617
X81229Y126617
X102565Y126617
X106121Y126617
X134569Y126617
X145237Y126617
X33223Y129696
X202133Y126617
X205689Y126617
X212801Y126617
X216357Y126617
X280365Y132776
X237693Y126617
X259029Y126617
X262585Y126617
X177241Y132776
X269697Y126617
X273253Y126617
X280365Y126617
X1219Y129696
X15443Y129696
X202133Y132776
X209245Y132776
X179019Y129696
X182575Y129696
X186131Y129696
X193243Y129696
X248361Y132776
X283921Y132776
X257251Y129696
X267919Y129696
X131013Y132776
X166573Y132776
X285699Y129696
X292811Y129696
X299923Y129696
X307035Y129696
X314147Y129696
X317703Y129696
X24333Y132776
X27889Y132776
X237693Y132776
X56337Y132776
X59893Y132776
X74117Y132776
X77673Y132776
X81229Y132776
X91897Y132776
X99009Y132776
X102565Y132776
X106121Y132776
X113233Y132776
X116789Y132776
X123901Y132776
X187909Y132776
X308813Y132776
X195021Y132776
X227025Y132776
X241249Y132776
X244805Y132776
X251917Y132776
X255473Y132776
X266141Y132776
X269697Y132776
X276809Y132776
X291033Y132776
X298145Y132776
X301701Y132776
X312369Y132776
X130175Y57785
X120980Y41046
X23190Y45568
X25121Y41046
X25121Y79146
X120396Y60096
X120345Y79146
X101473Y79146
X101422Y60096
X191135Y43815
X130810Y39370
X128905Y41910
X162966Y133404
X160045Y133404
X130810Y36195
X130810Y74930
X174214Y123283
X171352Y122616
X266589Y135349
X141471Y133711
X144145Y133711
X146819Y133711
X156845Y133355
X157480Y109785
X150585Y132599
X185420Y32385
X185420Y34290
X157651Y105213
X23495Y83820
X120650Y98425
X101600Y98425
X82550Y98425
X101600Y41275
X63500Y98425
X82677Y79146
X82550Y60325
X82550Y41275
X44272Y60096
X44475Y79146
X44450Y98425
X25197Y60096
X63373Y41072
X63348Y60096
X63475Y79146
X25375Y98196
X278765Y125095
X281305Y125095
X275590Y125730
X128700Y101600
X166370Y107950
X163830Y110490
X163830Y107950
X267335Y128905
X170180Y123190
X151765Y131445
X155575Y132715
X153035Y132715
X157607Y101523
X159207Y99465
X159233Y101523
X163830Y105790
X118745Y102870
X99695Y102870
X80645Y102870
X61595Y102870
X42545Y102870
X164440Y100380
X164465Y96900
X169545Y132080
X169545Y125095
X170815Y119380
X169545Y121285
X24130Y105410
X20955Y104775
X29210Y104140
X24130Y104140
X157480Y120345
X157480Y121285
X157480Y119380
X206375Y102870
X225425Y102870
X244475Y102870
X263525Y102870
X301625Y102870
X282575Y102870
X153670Y69850
X151130Y69850
X153670Y67310
X61595Y20955
X61595Y26670
X80645Y26670
X80645Y20955
X98806Y26568
X109220Y20955
X117069Y44094
X99695Y45720
X80645Y45720
X61595Y45720
X42545Y45720
X42545Y40005
X21819Y63119
X42545Y64770
X61595Y64770
X80645Y64770
X99695Y64770
X118745Y64770
X117043Y82194
X99695Y83820
X80645Y83820
X61595Y83820
X42545Y83820
X205105Y26543
X215900Y20955
X244475Y26670
X244475Y20955
X263525Y20955
X263525Y26670
X301625Y45720
X301625Y40005
X282575Y40005
X282550Y45542
X263525Y45720
X263525Y40005
X244475Y45720
X244475Y40005
X225425Y45720
X225425Y40005
X206375Y40005
X206375Y45720
X206375Y64770
X206375Y59055
X225425Y59055
X225425Y64770
X244475Y64770
X244475Y59055
X263525Y59055
X263525Y64770
X282575Y64770
X282575Y59055
X301625Y59055
X301625Y64618
X301600Y83668
X301625Y78105
X282575Y78105
X282575Y83820
X263525Y83820
X263525Y78105
X244475Y78105
X244475Y83820
X225425Y83820
X225425Y78105
X206375Y78105
X206375Y83820
X206375Y97155
X225425Y97155
X244475Y97155
X263525Y97155
X282575Y97155
X144856Y61800
X132410Y64879
X109677Y132776
M30