M48
;GenerationSoftware,Autodesk,EAGLE,9.7.0*%
;CreationDate,2025-10-28T01:42:03Z*%
FMAT,2
ICI,OFF
METRIC,TZ,000.000
T24C0.300
T23C0.350
T22C0.400
T21C0.406
T20C0.450
T19C0.600
T18C0.610
T17C0.635
T16C0.800
T15C0.900
T14C0.914
T13C0.920
T12C1.000
T11C1.016
T10C1.100
T9C1.200
T8C1.400
T7C1.600
T6C1.700
T5C2.030
T4C2.700
T3C3.000
T2C3.048
T1C3.700
%
G90
M71
T1
X232000Y52000
X88000Y52000
X316000Y52000
X4000Y52000
X316000Y24000
X4000Y24000
X92000Y4000
X236000Y4000
X288000Y36000
X288000Y4000
X32000Y4000
X32000Y36000
T2
X150303Y52735
X150303Y3735
X208303Y3735
X208303Y52735
T3
X212000Y26000
X242000Y26000
X230000Y26000
T4
X176500Y52000
X176500Y4000
X143500Y4000
X143500Y52000
T5
X64788Y38244
X47212Y47083
T6
X40000Y51385
X40000Y40615
X281000Y51385
X281000Y40615
T7
X270250Y16000
T8
X47212Y40580
X64788Y45000
T9
X4000Y31000
X9000Y36000
X14000Y41000
X14000Y31000
X1500Y31000
X4000Y41000
X1500Y41000
T10
X23810Y44195
X11110Y44195
X18730Y46735
X18730Y44195
X21270Y46735
X21270Y44195
X23810Y46735
X16190Y46735
X26350Y46735
X26350Y44195
X28890Y46735
X28890Y44195
X291110Y46735
X291110Y44195
X293650Y46735
X293650Y44195
X296190Y46735
X296190Y44195
X298730Y46735
X298730Y44195
X301270Y46735
X301270Y44195
X303810Y46735
X303810Y44195
X306350Y46735
X306350Y44195
X13650Y44195
X13650Y46735
X308890Y44195
X308890Y46735
X11110Y46735
X270250Y36000
X16190Y44195
T11
X63518Y49572
X48482Y49572
X63518Y52112
X48482Y52112
T12
X14000Y38500
X14000Y36000
X14000Y33500
X16500Y33500
X16500Y36000
X16500Y38500
T13
X79000Y48150
X81500Y48150
X77000Y48150
X74500Y48150
T14
X60445Y33875
X59175Y32605
X57905Y33875
X61715Y32605
G00X275250Y47942
M15
G01X275250Y46138
M16
X275250Y47040
G00X260750Y47942
M15
G01X260750Y46138
M16
X260750Y47040
G00X275250Y53597
M15
G01X275250Y52403
M16
X275250Y53000
G00X260750Y53597
M15
G01X260750Y52403
M16
X260750Y53000
G00X251250Y47942
M15
G01X251250Y46138
M16
X251250Y47040
G00X236750Y47942
M15
G01X236750Y46138
M16
X236750Y47040
G05
X55365Y33875
X54095Y32605
G00X251250Y53597
M15
G01X251250Y52403
M16
X251250Y53000
G00X236750Y53597
M15
G01X236750Y52403
M16
X236750Y53000
G05
X52825Y33875
X51555Y32605
X62985Y33875
X50285Y33875
X49015Y32605
X56635Y32605
T15
X226255Y7875
X228755Y7875
X217077Y7874
X219577Y7874
T16
X9000Y31000
X9000Y41000
X4000Y36000
T17
G00X84400Y49995
M15
G01X84400Y49005
M16
X84400Y49500
G00X71600Y49995
M15
G01X71600Y49005
M16
X71600Y49500
T18
G00X228530Y45608
M15
G01X228530Y44592
M16
X228530Y45100
G00X96530Y45608
M15
G01X96530Y44592
M16
X96530Y45100
G00X215430Y50408
M15
G01X215430Y49392
M16
X215430Y49900
G00X107430Y50408
M15
G01X107430Y49392
M16
X107430Y49900
G00X104570Y50408
M15
G01X104570Y49392
M16
X104570Y49900
G00X108530Y45608
M15
G01X108530Y44592
M16
X108530Y45100
G00X103470Y45608
M15
G01X103470Y44592
M16
X103470Y45100
G00X92570Y50408
M15
G01X92570Y49392
M16
X92570Y49900
G00X95430Y50408
M15
G01X95430Y49392
M16
X95430Y49900
G00X223470Y45608
M15
G01X223470Y44592
M16
X223470Y45100
G00X211470Y45608
M15
G01X211470Y44592
M16
X211470Y45100
G00X227430Y50408
M15
G01X227430Y49392
M16
X227430Y49900
G00X224570Y50408
M15
G01X224570Y49392
M16
X224570Y49900
G00X216530Y45608
M15
G01X216530Y44592
M16
X216530Y45100
G00X212570Y50408
M15
G01X212570Y49392
M16
X212570Y49900
G00X91470Y45608
M15
G01X91470Y44592
M16
X91470Y45100
T19
G05
X159385Y45720
T20
X89535Y41910
T21
X105610Y49050
X105610Y48150
X105610Y47250
X105610Y46350
X105610Y45450
X105610Y44550
X105610Y49950
X106390Y50400
X106390Y49500
X106390Y48600
X106390Y47700
X106390Y46800
X106390Y45900
X106390Y45000
X93610Y44550
X93610Y45450
X93610Y46350
X93610Y47250
X93610Y48150
X93610Y49050
X93610Y49950
X94390Y50400
X94390Y49500
X94390Y48600
X94390Y47700
X94390Y46800
X94390Y45900
X94390Y45000
X225610Y44550
X225610Y45450
X225610Y46350
X225610Y47250
X225610Y48150
X225610Y49050
X225610Y49950
X226390Y50400
X226390Y48600
X226390Y46800
X226390Y45900
X226390Y45000
X213610Y44550
X213610Y45450
X213610Y46350
X213610Y47250
X213610Y48150
X213610Y49050
X213610Y49950
X214390Y50400
X214390Y49500
X214390Y48600
X214390Y47700
X214390Y46800
X214390Y45900
X214390Y45000
X226390Y49500
X226390Y47700
T22
X264008Y48565
X240030Y49530
X276860Y46990
X203403Y45237
X121920Y45085
T23
X177013Y31750
X177013Y29210
X270180Y24232
X272263Y24257
X270180Y26010
X273863Y24282
X266649Y29337
X266624Y27280
X266624Y25375
X270180Y28245
X144145Y36195
X145367Y36243
X144780Y36830
X143510Y36830
X60376Y28164
X130810Y32899
X135255Y36830
X125730Y35179
X247244Y38583
X248539Y40157
X249784Y41834
X251130Y43739
X274498Y43434
X273253Y41808
X272009Y40132
X270713Y38608
X183083Y32766
X184785Y32766
X186487Y32766
X271882Y27178
X272288Y22733
X262407Y29566
X262433Y31445
X40005Y43854
X40005Y43066
X34925Y47664
X34925Y46876
X69850Y6629
X45771Y6731
X57658Y8661
X45720Y15240
X69850Y8890
X251460Y11670
X258242Y3810
X102133Y38082
X102133Y38737
X208915Y43815
X210820Y48260
X215265Y42545
X96520Y46990
X99060Y53340
X93348Y53324
X108585Y46990
X109855Y53340
X102235Y53340
X224485Y43536
X103226Y41910
X100127Y39726
X250190Y43659
X247664Y40485
X156210Y12040
X156845Y34925
X156845Y33655
X155575Y33655
X155575Y34925
X156845Y11430
X155575Y11430
X155575Y10160
X156845Y10160
X156210Y34290
X156210Y10775
X100330Y53340
X59360Y16815
X68199Y16154
X242926Y11709
X177013Y30480
X177165Y34250
X266395Y21850
X177165Y34900
X271145Y23827
X180975Y31428
X272429Y42173
X269889Y38985
X177292Y21895
X176642Y21895
X269875Y38252
X271131Y39755
X271159Y40485
X272401Y41443
X273685Y42957
X273685Y43676
X246394Y38255
X246394Y38985
X247664Y39755
X248920Y41457
X177165Y24275
X248920Y42159
X177165Y24925
X177165Y25575
X250190Y42957
X177165Y26225
X177165Y26875
X177165Y27525
X271145Y23172
X180975Y30772
X271170Y24696
X189230Y31972
X271170Y25351
X189230Y32628
X271145Y26829
X180975Y33172
X88900Y46634
X172441Y33960
X271145Y27485
X180975Y33828
X177165Y33600
X266395Y23150
X266395Y22500
X177165Y35550
X129134Y17958
X142875Y22758
X142240Y19286
X186535Y45085
X142240Y18636
X187185Y45085
X41000Y47905
X142824Y16686
X69211Y46355
X85725Y53975
X66040Y33655
X156210Y55245
X41000Y46635
X142824Y17336
X142850Y17986
X69850Y51435
X142875Y20838
X185035Y45085
X142850Y20188
X185685Y45085
X143510Y29860
X147955Y30488
X149890Y30474
X163195Y5080
X142875Y29388
X149240Y30477
X158115Y2540
X142875Y30510
X147305Y30482
X41000Y49175
X255270Y3810
T24
X153619Y7818
X173939Y21016
X201879Y38613
X199339Y38613
X271729Y36413
X177749Y45212
X196799Y38613
X194259Y38613
X191719Y29814
X148539Y38613
X145999Y38613
X204419Y16617
X143459Y38613
X138379Y38613
X133299Y38613
X77419Y38613
X20269Y54010
X133299Y47412
X74879Y38613
X72339Y38613
X147269Y54010
X243789Y36413
X39319Y38613
X246329Y14417
X29159Y38613
X304749Y36413
X212039Y16617
X83769Y54010
X223469Y1219
X281889Y36413
X288239Y47412
X279349Y36413
X289509Y18816
X276809Y36413
X238709Y36413
X236169Y36413
X138379Y43012
X233629Y36413
X177749Y54010
X161239Y38613
X163779Y38613
X303479Y51811
X152349Y36413
X149809Y36413
X147269Y36413
X186639Y16617
X134569Y36413
X162509Y5618
X121869Y36413
X284429Y32014
X219659Y38613
X233629Y5618
X168859Y38613
X40589Y27615
X109169Y36413
X171399Y47412
X298399Y51811
X106629Y36413
X104089Y36413
X101549Y36413
X266649Y40813
X93929Y36413
X86309Y36413
X259029Y40813
X274269Y32014
X63449Y36413
X40589Y36413
X280619Y25415
X38049Y36413
X134569Y54010
X90119Y43012
X22809Y36413
X177749Y49611
X20269Y36413
X311099Y34214
X303479Y34214
X279349Y27615
X295859Y34214
X280619Y34214
X272999Y34214
X293319Y51811
X148539Y7818
X231089Y45212
X184099Y43012
X191719Y34214
X40589Y45212
X189179Y3419
X101549Y32014
X239979Y3419
X69799Y34214
X39319Y34214
X304749Y40813
X29159Y34214
X302209Y36413
X24079Y34214
X21539Y34214
X18999Y34214
X281889Y32014
X279349Y32014
X309829Y36413
X276809Y32014
X271729Y32014
X269189Y32014
X179019Y3419
X288239Y16617
X298399Y34214
X208229Y45212
X139649Y40813
X195529Y45212
X199339Y25415
X250139Y38613
X140919Y3419
X200609Y49611
X196799Y21016
X166319Y3419
X194259Y3419
X163779Y43012
X129489Y54010
X204419Y3419
X182829Y54010
X269189Y36413
X126949Y32014
X114249Y32014
X297129Y54010
X109169Y32014
X238709Y40813
X246329Y36413
X106629Y32014
X104089Y32014
X96469Y32014
X307289Y40813
X93929Y32014
X88849Y32014
X83769Y32014
X81229Y32014
X76149Y32014
X71069Y32014
X218389Y54010
X30429Y40813
X91389Y32014
X38049Y32014
X35509Y32014
X32969Y32014
X152349Y1219
X223469Y54010
X204419Y43012
X25349Y32014
X20269Y32014
X128219Y51811
X285699Y29814
X35509Y49611
X280619Y29814
X270459Y29814
X257759Y29814
X214579Y29814
X255219Y29814
X250139Y29814
X242519Y29814
X189179Y29814
X239979Y29814
X229819Y29814
X224739Y29814
X86309Y40813
X222199Y29814
X219659Y29814
X138379Y29814
X217119Y29814
X88849Y36413
X256489Y23216
X278079Y29814
X163779Y29814
X286969Y10018
X17729Y36413
X191719Y38613
X242519Y12217
X229819Y16617
X71069Y40813
X182829Y27615
X168859Y16617
X83769Y23216
X34239Y29814
X26619Y29814
X276809Y27615
X209499Y21016
X180289Y27615
X256489Y27615
X248869Y27615
X246329Y27615
X153619Y51811
X173939Y25415
X223469Y27615
X91389Y23216
X215849Y27615
X208229Y27615
X190449Y27615
X167589Y5618
X289509Y10018
X219659Y3419
X203149Y5618
X151079Y7818
X227279Y16617
X34239Y34214
X234899Y21016
X201879Y43012
X224739Y25415
X109169Y23216
X185369Y49611
X88849Y49611
X36779Y29814
X154889Y45212
X275539Y12217
X250139Y51811
X166319Y51811
X281889Y27615
X38049Y27615
X227279Y21016
X22809Y27615
X147269Y1219
X67259Y29814
X182829Y5618
X232359Y21016
X246329Y54010
X245059Y25415
X222199Y38613
X256489Y45212
X237439Y25415
X234899Y25415
X201879Y29814
X219659Y25415
X206959Y25415
X247599Y29814
X168859Y3419
X158699Y7818
X213309Y23216
X283159Y29814
X226009Y23216
X233629Y27615
X72339Y43012
X238709Y1219
X237439Y7818
X214579Y7818
X222199Y7818
X274269Y14417
X271729Y54010
X116789Y23216
X292049Y36413
X209499Y38613
X124409Y36413
X203149Y40813
X147269Y23216
X76149Y40813
X147269Y5618
X238709Y5618
X231089Y5618
X31699Y47412
X22809Y32014
X236169Y27615
X41859Y25415
X276809Y23216
X181559Y29814
X303479Y38613
X229819Y3419
X309829Y45212
X248869Y23216
X243789Y23216
X238709Y23216
X121869Y54010
X217119Y38613
X239979Y21016
X21539Y38613
X217119Y25415
X218389Y23216
X215849Y23216
X272999Y51811
X285699Y16617
X226009Y27615
X91389Y36413
X300939Y34214
X288239Y38613
X259029Y54010
X227279Y3419
X165049Y23216
X179019Y47412
X119329Y23216
X104089Y23216
X101549Y23216
X96469Y23216
X90119Y47412
X142189Y40813
X276809Y40813
X93929Y23216
X81229Y23216
X78689Y32014
X274269Y10018
X151079Y38613
X255219Y51811
X251409Y40813
X125679Y51811
X276809Y14417
X232359Y16617
X130759Y29814
X45669Y23216
X43129Y23216
X166319Y43012
X32969Y23216
X34239Y43012
X203149Y36413
X248869Y54010
X214579Y38613
X24079Y29814
X200609Y40813
X204419Y21016
X242519Y21016
X142189Y54010
X229819Y21016
X149809Y40813
X139649Y1219
X222199Y21016
X111709Y49611
X212039Y21016
X206959Y21016
X201879Y21016
X21539Y29814
X227279Y43012
X17729Y27615
X39319Y25415
X245059Y51811
X99009Y23216
X102819Y47412
X63449Y40813
X40589Y23216
X187909Y27615
X227279Y38613
X21539Y51811
X232359Y38613
X286969Y18816
X238709Y14417
X284429Y18816
X154889Y5618
X83769Y36413
X176479Y43012
X278079Y25415
X73609Y40813
X278079Y34214
X158699Y3419
X285699Y51811
X199339Y3419
X165049Y18816
X148539Y43012
X206959Y7818
X162509Y18816
X281889Y10018
X283159Y16617
X239979Y51811
X278079Y16617
X163779Y7818
X190449Y49611
X135839Y43012
X236169Y23216
X68529Y54010
X227279Y29814
X99009Y45212
X224739Y21016
X279349Y49611
X247599Y16617
X284429Y10018
X272999Y16617
X96469Y36413
X111709Y45212
X234899Y16617
X124409Y54010
X78689Y23216
X224739Y16617
X217119Y16617
X214579Y16617
X208229Y23216
X206959Y16617
X199339Y16617
X272999Y12217
X196799Y16617
X279349Y54010
X194259Y16617
X191719Y16617
X214579Y21016
X224739Y7818
X166319Y16617
X88849Y23216
X161239Y16617
X161239Y3419
X151079Y16617
X308559Y34214
X284429Y36413
X286969Y32014
X286969Y14417
X86309Y23216
X140919Y51811
X209499Y7818
X220929Y1219
X114249Y23216
X223469Y23216
X184099Y16617
X158699Y16617
X137109Y40813
X204419Y7818
X153619Y16617
X236169Y49611
X86309Y49611
X250139Y16617
X145999Y3419
X161239Y7818
X236169Y1219
X123139Y38613
X222199Y16617
X241249Y1219
X125679Y29814
X171399Y3419
X17729Y32014
X220929Y27615
X283159Y12217
X148539Y16617
X215849Y1219
X137109Y27615
X173939Y16617
X280619Y38613
X270459Y34214
X232359Y29814
X288239Y21016
X201879Y16617
X219659Y21016
X144729Y1219
X229819Y38613
X281889Y54010
X220929Y23216
X308559Y51811
X278079Y38613
X284429Y14417
X31699Y25415
X220929Y5618
X213309Y5618
X184099Y3419
X275539Y38613
X233629Y54010
X156159Y3419
X166319Y7818
X276809Y10018
X281889Y14417
X299669Y36413
X126949Y49611
X86309Y32014
X209499Y16617
X194259Y29814
X243789Y10018
X31699Y38613
X181559Y3419
X76149Y23216
X201879Y7818
X106629Y23216
X226009Y1219
X159969Y5618
X68529Y36413
X185369Y5618
X172669Y36413
X289509Y23216
X278079Y12217
X203149Y23216
X285699Y12217
X246329Y10018
X262839Y51811
X167589Y18816
X226009Y5618
X71069Y45212
X181559Y16617
X163779Y3419
X289509Y27615
X217119Y21016
X228549Y5618
X172669Y45212
X281889Y49611
X79959Y47412
X69799Y29814
X157429Y5618
X173939Y3419
X251409Y23216
X140919Y7818
X73609Y36413
X139649Y10018
X283159Y38613
X81229Y36413
X154889Y1219
X203149Y1219
X253949Y27615
X118059Y51811
X200609Y36413
X222199Y3419
X200609Y1219
X170129Y5618
X253949Y49611
X217119Y3419
X218389Y5618
X245059Y29814
X215849Y5618
X205689Y5618
X192989Y5618
X256489Y36413
X283159Y21016
X205689Y1219
X212039Y38613
X162509Y36413
X288239Y12217
X195529Y5618
X187909Y5618
X163779Y16617
X190449Y5618
X289509Y40813
X180289Y5618
X198069Y1219
X168859Y43012
X232359Y3419
X209499Y29814
X210769Y5618
X111709Y23216
X152349Y5618
X241249Y10018
X224739Y3419
X27889Y27615
X140919Y38613
X210769Y1219
X274269Y27615
X286969Y49611
X214579Y3419
X50749Y27615
X143459Y7818
X231089Y1219
X233629Y23216
X195529Y1219
X208229Y1219
X238709Y27615
X18999Y38613
X237439Y16617
X145999Y7818
X283159Y34214
X17729Y40813
X311099Y38613
X185369Y27615
X149809Y1219
X176479Y29814
X218389Y1219
X213309Y1219
X210769Y49611
X222199Y25415
X44399Y25415
X180289Y49611
X269189Y14417
X243789Y1219
X212039Y3419
X123139Y51811
X233629Y1219
X234899Y29814
X142189Y1219
X192989Y1219
X219659Y16617
X212039Y7818
X81229Y40813
X143332Y32512
X120946Y23226
X136525Y15240
X133350Y5080
X140335Y31750
X121623Y23234
X135890Y15275
X129896Y9474
X146050Y32385
X228549Y23216
X186639Y3419
X252679Y38613
X306019Y38613
X65989Y40813
X88849Y40813
X237439Y29814
X109169Y40813
X146482Y29718
X140335Y27940
X161290Y29076
X254000Y22121
X143510Y27940
X160690Y27276
X253400Y20321
X305435Y41859
X140335Y27305
X160690Y28476
X253400Y21521
X143510Y27305
X161290Y26676
X254000Y19721
X304165Y41859
X143510Y26670
X160690Y26076
X253400Y19121
X302911Y41859
X140335Y25695
X142392Y27340
X161290Y27876
X254000Y20921
X300355Y41910
X143510Y26035
X161290Y25476
X254000Y18521
X301625Y39954
X143510Y25400
X160690Y24876
X253400Y17921
X300355Y38735
X199339Y43012
X132029Y40813
X142875Y24765
X161290Y24276
X254000Y17321
X299085Y37465
X140335Y24591
X140335Y29890
X160690Y29676
X253400Y22721
X143557Y24548
X160690Y23676
X253400Y16721
X297815Y36195
X140335Y23991
X140335Y30490
X161290Y30276
X254000Y23321
X143510Y23948
X161290Y23076
X254000Y16121
X296545Y34925
X199390Y6350
X212039Y29814
X147269Y40813
X30429Y54010
X159969Y40813
X145669Y19050
X145669Y18390
X147066Y18390
X147066Y19075
X190424Y7493
X159690Y18745
X164465Y46355
X160655Y36195
X71755Y19050
X52172Y15291
X153670Y18745
X134620Y45085
X118110Y45085
X175209Y54010
X126975Y47422
X115570Y41275
X118110Y36830
X132715Y50165
X124155Y41275
X124155Y43282
X65800Y52705
X44450Y3810
X120795Y36830
X124181Y45085
X150495Y18745
X133350Y8255
X135153Y14503
X154051Y19228
X154051Y18313
X153289Y18313
X153289Y19228
X135255Y45085
X135890Y45085
X146355Y18390
X146355Y19075
X99009Y49611
X146583Y15342
X149200Y13030
X162509Y40813
X187325Y15147
X281940Y48269
X18999Y51811
X187325Y14547
X281940Y47669
X198069Y40813
X205689Y23216
X144729Y40813
X159969Y54010
X72339Y34214
X233629Y40813
X187325Y13947
X281940Y47069
X110439Y43012
X68529Y32014
X246329Y40813
X142875Y15240
X187325Y13347
X281940Y46469
X248869Y40813
X272999Y29814
X142875Y23660
X160690Y22476
X253400Y15521
X295275Y33655
X199990Y6950
X142875Y21463
X137160Y20320
X137160Y17780
X135306Y2743
X271729Y40813
X39319Y29814
X176530Y35560
X302209Y40813
X159969Y36413
X135839Y38613
X288239Y51811
X71069Y54010
X74879Y43012
X228549Y1219
X25349Y27615
X133299Y43012
X140919Y43012
X143459Y43012
X145999Y43012
X184099Y47412
X289509Y14417
X153619Y43012
X223469Y5618
X171399Y43012
X76149Y36413
X206959Y43012
X201879Y3419
X217119Y43012
X185369Y54010
X290779Y38613
X232359Y7818
X255219Y43012
X224739Y38613
X99009Y32014
X20269Y27615
X275539Y43012
X238709Y49611
X293319Y43012
X99009Y36413
X256489Y54010
X18999Y29814
X311099Y43012
X237439Y21016
X30429Y45212
X173939Y43012
X35509Y45212
X163779Y51811
X198069Y36413
X213309Y54010
X67259Y34214
X81229Y45212
X252679Y43012
X257175Y24130
X139065Y20320
X139065Y17780
X140335Y17780
X139700Y19685
X140335Y19050
X139065Y19050
X139700Y18415
X140335Y20320
X260680Y2083
X261950Y2083
X263220Y2083
X264490Y2083
X265760Y2083
X62941Y16789
X62941Y17475
X153619Y3419
X88849Y45212
X72339Y51811
X210769Y23216
X85039Y51811
X234899Y7818
X112979Y51811
X101549Y49611
X267030Y2083
X115519Y51811
X57582Y12624
X149809Y45212
X190449Y54010
X152349Y45212
X145999Y51811
X165049Y45212
X167589Y45212
X170129Y45212
X175209Y45212
X142875Y10795
X180289Y45212
X182829Y45212
X129489Y49611
X138379Y51811
X158699Y51811
X198069Y45212
X200609Y45212
X205689Y45212
X187909Y49611
X233629Y45212
X226009Y54010
X238709Y45212
X253949Y45212
X259029Y45212
X261569Y45212
X274269Y45212
X276809Y45212
X281889Y45212
X307289Y45212
X39319Y47412
X44399Y47412
X80289Y13589
X83058Y6553
X242519Y51811
X72339Y47412
X210769Y54010
X82499Y47412
X205689Y49611
X107899Y47412
X115519Y47412
X128219Y47412
X163779Y47412
X161239Y51811
X173939Y51811
X35509Y54010
X234899Y51811
X247599Y51811
X252679Y51811
X265379Y51811
X267919Y51811
X270459Y51811
X264109Y54010
X290779Y51811
X295859Y51811
X300939Y51811
X306019Y51811
X311099Y51811
X22809Y54010
X25349Y54010
X27889Y54010
X32969Y54010
X38049Y54010
X40589Y54010
X45669Y54010
X65989Y54010
X286969Y54010
X119329Y54010
X126949Y54010
X132029Y54010
X139649Y54010
X144729Y54010
X152349Y54010
X157429Y54010
X162509Y54010
X165049Y54010
X167589Y54010
X170129Y54010
X192989Y54010
X195529Y54010
X205689Y54010
X215849Y54010
X220929Y54010
X228549Y54010
X238709Y54010
X241249Y54010
X243789Y54010
X253949Y54010
X266649Y54010
X269189Y54010
X276809Y54010
X284429Y54010
X289509Y54010
X294589Y54010
X299669Y54010
X302209Y54010
X304749Y54010
X307289Y54010
X309829Y54010
X173076Y24232
X173050Y26543
X172085Y25400
X172618Y34950
X175260Y41587
X171708Y41624
X175895Y40005
X173990Y40005
X166319Y47412
X168859Y47412
X173939Y47412
X176479Y47412
X181559Y47412
X43129Y54010
X212039Y47412
X190348Y31707
X190310Y32893
X217119Y47412
X229819Y47412
X292049Y54010
X234899Y47412
X252679Y47412
X272999Y47412
X179019Y51811
X76149Y49611
X96469Y49611
X114249Y49611
X139649Y49611
X124308Y28499
X121031Y28499
X123495Y31140
X121793Y31166
X116637Y29820
X119761Y29794
X131108Y28379
X128905Y29711
X131445Y30480
X134976Y28550
X133833Y27457
X133629Y29083
X132022Y27490
X135941Y31369
X137668Y31267
X139116Y32690
X142189Y49611
X144729Y49611
X147269Y49611
X168859Y51811
X172669Y49611
X118120Y54500
X139776Y35656
X145372Y32365
X152685Y27940
X152095Y28600
X149860Y27940
X149225Y28575
X146050Y27940
X146685Y28575
X145415Y28575
X140335Y28905
X137795Y22860
X139065Y22860
X142250Y21031
X142240Y24740
X142265Y23190
X271145Y48260
X269240Y48260
X267335Y48260
X265430Y48895
X265430Y48260
X119380Y41275
X119380Y40005
X121285Y40005
X121285Y41275
X121285Y42545
X119380Y42545
X119964Y37434
X119101Y37434
X50800Y5715
X48260Y5715
X49530Y5080
X49530Y3810
X49530Y2540
X51435Y2540
X47625Y2540
X44450Y12065
X44450Y10795
X46990Y10795
X46200Y31750
X46200Y33655
X46200Y35560
X127635Y54490
X137160Y54238
X146050Y54490
X108585Y54490
X132715Y41910
X176160Y34925
X142392Y27940
X142900Y25679
X67945Y53340
X69215Y54610
X67945Y54610
X66675Y53340
X66675Y54610
X145415Y16510
X145415Y15240
X143510Y15240
X142240Y15240
X185217Y41529
X186106Y44450
X119990Y47168
X119990Y48082
X57150Y27940
X55880Y27940
X58420Y27940
X54610Y27940
X97790Y48133
X109855Y48184
X208839Y46838
X220758Y46812
X175209Y49611
X192989Y49611
X218389Y49611
X228549Y49611
X231089Y49611
X156159Y51811
X259029Y49611
X17729Y54010
X285699Y34214
X218389Y27615
X172669Y54010
M30