G04 EAGLE Gerber RS-274X export*
G75*
%MOMM*%
%FSLAX34Y34*%
%LPD*%
%IN*%
%IPPOS*%
%AMOC8*
5,1,8,0,0,1.08239X$1,22.5*%
G01*
G04 Define Apertures*
%ADD10C,0.254000*%
D10*
X0Y230000D02*
X114Y227385D01*
X456Y224791D01*
X1022Y222235D01*
X1809Y219739D01*
X2811Y217321D01*
X4019Y215000D01*
X5425Y212793D01*
X7019Y210716D01*
X8787Y208787D01*
X10716Y207019D01*
X12793Y205425D01*
X15000Y204019D01*
X17321Y202811D01*
X19739Y201809D01*
X22235Y201022D01*
X24791Y200456D01*
X27385Y200114D01*
X30000Y200000D01*
X240000Y200000D01*
X243486Y199848D01*
X246946Y199392D01*
X250353Y198637D01*
X253681Y197588D01*
X256905Y196252D01*
X260000Y194641D01*
X262943Y192766D01*
X265712Y190642D01*
X268284Y188284D01*
X270642Y185712D01*
X272766Y182943D01*
X274641Y180000D01*
X276252Y176905D01*
X277588Y173681D01*
X278637Y170353D01*
X279392Y166946D01*
X279848Y163486D01*
X280000Y160000D01*
X280000Y30000D01*
X280114Y27385D01*
X280456Y24791D01*
X281022Y22235D01*
X281809Y19739D01*
X282811Y17321D01*
X284019Y15000D01*
X285425Y12793D01*
X287019Y10716D01*
X288787Y8787D01*
X290716Y7019D01*
X292793Y5425D01*
X295000Y4019D01*
X297321Y2811D01*
X299739Y1809D01*
X302235Y1022D01*
X304791Y456D01*
X307385Y114D01*
X310000Y0D01*
X2890000Y0D01*
X2892615Y114D01*
X2895209Y456D01*
X2897765Y1022D01*
X2900261Y1809D01*
X2902679Y2811D01*
X2905000Y4019D01*
X2907207Y5425D01*
X2909284Y7019D01*
X2911213Y8787D01*
X2912981Y10716D01*
X2914575Y12793D01*
X2915981Y15000D01*
X2917189Y17321D01*
X2918191Y19739D01*
X2918978Y22235D01*
X2919544Y24791D01*
X2919886Y27385D01*
X2920000Y30000D01*
X2920000Y160000D01*
X2920152Y163486D01*
X2920608Y166946D01*
X2921363Y170353D01*
X2922412Y173681D01*
X2923748Y176905D01*
X2925359Y180000D01*
X2927234Y182943D01*
X2929358Y185712D01*
X2931716Y188284D01*
X2934289Y190642D01*
X2937057Y192766D01*
X2940000Y194641D01*
X2943095Y196252D01*
X2946319Y197588D01*
X2949647Y198637D01*
X2953054Y199392D01*
X2956514Y199848D01*
X2960000Y200000D01*
X3170000Y200000D01*
X3172615Y200114D01*
X3175209Y200456D01*
X3177765Y201022D01*
X3180261Y201809D01*
X3182679Y202811D01*
X3185000Y204019D01*
X3187207Y205425D01*
X3189284Y207019D01*
X3191213Y208787D01*
X3192981Y210716D01*
X3194575Y212793D01*
X3195981Y215000D01*
X3197189Y217321D01*
X3198191Y219739D01*
X3198978Y222235D01*
X3199544Y224791D01*
X3199886Y227385D01*
X3200000Y230000D01*
X3200000Y530000D01*
X3200175Y532350D01*
X3200144Y534706D01*
X3199908Y537051D01*
X3199468Y539366D01*
X3198829Y541634D01*
X3197994Y543838D01*
X3196970Y545960D01*
X3195765Y547986D01*
X3194388Y549898D01*
X3192850Y551683D01*
X3191162Y553328D01*
X3189337Y554819D01*
X3187389Y556145D01*
X3185333Y557296D01*
X3183185Y558264D01*
X3180960Y559041D01*
X3178676Y559621D01*
X3176350Y560000D01*
X830007Y560000D01*
X830007Y509782D01*
X829989Y509359D01*
X829934Y508940D01*
X829842Y508527D01*
X829715Y508123D01*
X829553Y507732D01*
X829357Y507356D01*
X829130Y506999D01*
X828872Y506664D01*
X828586Y506352D01*
X828274Y506066D01*
X827938Y505808D01*
X827581Y505580D01*
X827206Y505385D01*
X826815Y505223D01*
X826411Y505096D01*
X825998Y505004D01*
X825578Y504949D01*
X825156Y504930D01*
X824733Y504949D01*
X824313Y505004D01*
X823900Y505096D01*
X823496Y505223D01*
X823105Y505385D01*
X822730Y505580D01*
X822373Y505808D01*
X822037Y506066D01*
X821725Y506352D01*
X821439Y506664D01*
X821181Y506999D01*
X820954Y507356D01*
X820758Y507732D01*
X820596Y508123D01*
X820469Y508527D01*
X820377Y508940D01*
X820322Y509359D01*
X820304Y509782D01*
X740018Y509782D01*
X740000Y509359D01*
X739945Y508940D01*
X739853Y508527D01*
X739726Y508123D01*
X739564Y507732D01*
X739368Y507356D01*
X739141Y506999D01*
X738883Y506664D01*
X738597Y506352D01*
X738285Y506066D01*
X737949Y505808D01*
X737592Y505580D01*
X737217Y505385D01*
X736826Y505223D01*
X736422Y505096D01*
X736009Y505004D01*
X735589Y504949D01*
X735166Y504930D01*
X734744Y504949D01*
X734324Y505004D01*
X733911Y505096D01*
X733507Y505223D01*
X733116Y505385D01*
X732741Y505580D01*
X732384Y505808D01*
X732048Y506066D01*
X731736Y506352D01*
X731450Y506664D01*
X731192Y506999D01*
X730965Y507356D01*
X730769Y507732D01*
X730607Y508123D01*
X730480Y508527D01*
X730388Y508940D01*
X730333Y509359D01*
X730315Y509782D01*
X730315Y560000D01*
X650000Y560000D01*
X650000Y545000D01*
X625000Y545000D01*
X625000Y370000D01*
X624962Y369128D01*
X624848Y368264D01*
X624659Y367412D01*
X624397Y366580D01*
X624063Y365774D01*
X623660Y365000D01*
X623192Y364264D01*
X622660Y363572D01*
X622071Y362929D01*
X621428Y362340D01*
X620736Y361808D01*
X620000Y361340D01*
X619226Y360937D01*
X618420Y360603D01*
X617588Y360341D01*
X616736Y360152D01*
X615872Y360038D01*
X615000Y360000D01*
X505000Y360000D01*
X504128Y360038D01*
X503264Y360152D01*
X502412Y360341D01*
X501580Y360603D01*
X500774Y360937D01*
X500000Y361340D01*
X499264Y361808D01*
X498572Y362340D01*
X497929Y362929D01*
X497340Y363572D01*
X496808Y364264D01*
X496340Y365000D01*
X495937Y365774D01*
X495603Y366580D01*
X495341Y367412D01*
X495152Y368264D01*
X495038Y369128D01*
X495000Y370000D01*
X495000Y545000D01*
X470000Y545000D01*
X470000Y560000D01*
X30000Y560000D01*
X27385Y559886D01*
X24791Y559544D01*
X22235Y558978D01*
X19739Y558191D01*
X17321Y557189D01*
X15000Y555981D01*
X12793Y554575D01*
X10716Y552981D01*
X8787Y551213D01*
X7019Y549284D01*
X5425Y547207D01*
X4019Y545000D01*
X2811Y542679D01*
X1809Y540261D01*
X1022Y537765D01*
X456Y535209D01*
X114Y532615D01*
X0Y530000D01*
X0Y230000D01*
X1042700Y494000D02*
X1042711Y493739D01*
X1042746Y493479D01*
X1042802Y493224D01*
X1042881Y492974D01*
X1042981Y492732D01*
X1043102Y492500D01*
X1043243Y492279D01*
X1043402Y492072D01*
X1043579Y491879D01*
X1043772Y491702D01*
X1043979Y491543D01*
X1044200Y491402D01*
X1044432Y491281D01*
X1044674Y491181D01*
X1044924Y491102D01*
X1045179Y491046D01*
X1045439Y491011D01*
X1045700Y491000D01*
X1045961Y491011D01*
X1046221Y491046D01*
X1046476Y491102D01*
X1046726Y491181D01*
X1046968Y491281D01*
X1047200Y491402D01*
X1047421Y491543D01*
X1047628Y491702D01*
X1047821Y491879D01*
X1047998Y492072D01*
X1048157Y492279D01*
X1048298Y492500D01*
X1048419Y492732D01*
X1048519Y492974D01*
X1048598Y493224D01*
X1048654Y493479D01*
X1048689Y493739D01*
X1048700Y494000D01*
X1048700Y504000D01*
X1048689Y504261D01*
X1048654Y504521D01*
X1048598Y504776D01*
X1048519Y505026D01*
X1048419Y505268D01*
X1048298Y505500D01*
X1048157Y505721D01*
X1047998Y505928D01*
X1047821Y506121D01*
X1047628Y506298D01*
X1047421Y506457D01*
X1047200Y506598D01*
X1046968Y506719D01*
X1046726Y506819D01*
X1046476Y506898D01*
X1046221Y506954D01*
X1045961Y506989D01*
X1045700Y507000D01*
X1045439Y506989D01*
X1045179Y506954D01*
X1044924Y506898D01*
X1044674Y506819D01*
X1044432Y506719D01*
X1044200Y506598D01*
X1043979Y506457D01*
X1043772Y506298D01*
X1043579Y506121D01*
X1043402Y505928D01*
X1043243Y505721D01*
X1043102Y505500D01*
X1042981Y505268D01*
X1042881Y505026D01*
X1042802Y504776D01*
X1042746Y504521D01*
X1042711Y504261D01*
X1042700Y504000D01*
X1042700Y494000D01*
X2151300Y494000D02*
X2151311Y493739D01*
X2151346Y493479D01*
X2151402Y493224D01*
X2151481Y492974D01*
X2151581Y492732D01*
X2151702Y492500D01*
X2151843Y492279D01*
X2152002Y492072D01*
X2152179Y491879D01*
X2152372Y491702D01*
X2152579Y491543D01*
X2152800Y491402D01*
X2153032Y491281D01*
X2153274Y491181D01*
X2153524Y491102D01*
X2153779Y491046D01*
X2154039Y491011D01*
X2154300Y491000D01*
X2154561Y491011D01*
X2154821Y491046D01*
X2155076Y491102D01*
X2155326Y491181D01*
X2155568Y491281D01*
X2155800Y491402D01*
X2156021Y491543D01*
X2156228Y491702D01*
X2156421Y491879D01*
X2156598Y492072D01*
X2156757Y492279D01*
X2156898Y492500D01*
X2157019Y492732D01*
X2157119Y492974D01*
X2157198Y493224D01*
X2157254Y493479D01*
X2157289Y493739D01*
X2157300Y494000D01*
X2157300Y504000D01*
X2157289Y504261D01*
X2157254Y504521D01*
X2157198Y504776D01*
X2157119Y505026D01*
X2157019Y505268D01*
X2156898Y505500D01*
X2156757Y505721D01*
X2156598Y505928D01*
X2156421Y506121D01*
X2156228Y506298D01*
X2156021Y506457D01*
X2155800Y506598D01*
X2155568Y506719D01*
X2155326Y506819D01*
X2155076Y506898D01*
X2154821Y506954D01*
X2154561Y506989D01*
X2154300Y507000D01*
X2154039Y506989D01*
X2153779Y506954D01*
X2153524Y506898D01*
X2153274Y506819D01*
X2153032Y506719D01*
X2152800Y506598D01*
X2152579Y506457D01*
X2152372Y506298D01*
X2152179Y506121D01*
X2152002Y505928D01*
X2151843Y505721D01*
X2151702Y505500D01*
X2151581Y505268D01*
X2151481Y505026D01*
X2151402Y504776D01*
X2151346Y504521D01*
X2151311Y504261D01*
X2151300Y504000D01*
X2151300Y494000D01*
X2122700Y494000D02*
X2122711Y493739D01*
X2122746Y493479D01*
X2122802Y493224D01*
X2122881Y492974D01*
X2122981Y492732D01*
X2123102Y492500D01*
X2123243Y492279D01*
X2123402Y492072D01*
X2123579Y491879D01*
X2123772Y491702D01*
X2123979Y491543D01*
X2124200Y491402D01*
X2124432Y491281D01*
X2124674Y491181D01*
X2124924Y491102D01*
X2125179Y491046D01*
X2125439Y491011D01*
X2125700Y491000D01*
X2125961Y491011D01*
X2126221Y491046D01*
X2126476Y491102D01*
X2126726Y491181D01*
X2126968Y491281D01*
X2127200Y491402D01*
X2127421Y491543D01*
X2127628Y491702D01*
X2127821Y491879D01*
X2127998Y492072D01*
X2128157Y492279D01*
X2128298Y492500D01*
X2128419Y492732D01*
X2128519Y492974D01*
X2128598Y493224D01*
X2128654Y493479D01*
X2128689Y493739D01*
X2128700Y494000D01*
X2128700Y504000D01*
X2128689Y504261D01*
X2128654Y504521D01*
X2128598Y504776D01*
X2128519Y505026D01*
X2128419Y505268D01*
X2128298Y505500D01*
X2128157Y505721D01*
X2127998Y505928D01*
X2127821Y506121D01*
X2127628Y506298D01*
X2127421Y506457D01*
X2127200Y506598D01*
X2126968Y506719D01*
X2126726Y506819D01*
X2126476Y506898D01*
X2126221Y506954D01*
X2125961Y506989D01*
X2125700Y507000D01*
X2125439Y506989D01*
X2125179Y506954D01*
X2124924Y506898D01*
X2124674Y506819D01*
X2124432Y506719D01*
X2124200Y506598D01*
X2123979Y506457D01*
X2123772Y506298D01*
X2123579Y506121D01*
X2123402Y505928D01*
X2123243Y505721D01*
X2123102Y505500D01*
X2122981Y505268D01*
X2122881Y505026D01*
X2122802Y504776D01*
X2122746Y504521D01*
X2122711Y504261D01*
X2122700Y504000D01*
X2122700Y494000D01*
X2162300Y446000D02*
X2162311Y445739D01*
X2162346Y445479D01*
X2162402Y445224D01*
X2162481Y444974D01*
X2162581Y444732D01*
X2162702Y444500D01*
X2162843Y444279D01*
X2163002Y444072D01*
X2163179Y443879D01*
X2163372Y443702D01*
X2163579Y443543D01*
X2163800Y443402D01*
X2164032Y443281D01*
X2164274Y443181D01*
X2164524Y443102D01*
X2164779Y443046D01*
X2165039Y443011D01*
X2165300Y443000D01*
X2165561Y443011D01*
X2165821Y443046D01*
X2166076Y443102D01*
X2166326Y443181D01*
X2166568Y443281D01*
X2166800Y443402D01*
X2167021Y443543D01*
X2167228Y443702D01*
X2167421Y443879D01*
X2167598Y444072D01*
X2167757Y444279D01*
X2167898Y444500D01*
X2168019Y444732D01*
X2168119Y444974D01*
X2168198Y445224D01*
X2168254Y445479D01*
X2168289Y445739D01*
X2168300Y446000D01*
X2168300Y456000D01*
X2168289Y456261D01*
X2168254Y456521D01*
X2168198Y456776D01*
X2168119Y457026D01*
X2168019Y457268D01*
X2167898Y457500D01*
X2167757Y457721D01*
X2167598Y457928D01*
X2167421Y458121D01*
X2167228Y458298D01*
X2167021Y458457D01*
X2166800Y458598D01*
X2166568Y458719D01*
X2166326Y458819D01*
X2166076Y458898D01*
X2165821Y458954D01*
X2165561Y458989D01*
X2165300Y459000D01*
X2165039Y458989D01*
X2164779Y458954D01*
X2164524Y458898D01*
X2164274Y458819D01*
X2164032Y458719D01*
X2163800Y458598D01*
X2163579Y458457D01*
X2163372Y458298D01*
X2163179Y458121D01*
X2163002Y457928D01*
X2162843Y457721D01*
X2162702Y457500D01*
X2162581Y457268D01*
X2162481Y457026D01*
X2162402Y456776D01*
X2162346Y456521D01*
X2162311Y456261D01*
X2162300Y456000D01*
X2162300Y446000D01*
X2111700Y446000D02*
X2111711Y445739D01*
X2111746Y445479D01*
X2111802Y445224D01*
X2111881Y444974D01*
X2111981Y444732D01*
X2112102Y444500D01*
X2112243Y444279D01*
X2112402Y444072D01*
X2112579Y443879D01*
X2112772Y443702D01*
X2112979Y443543D01*
X2113200Y443402D01*
X2113432Y443281D01*
X2113674Y443181D01*
X2113924Y443102D01*
X2114179Y443046D01*
X2114439Y443011D01*
X2114700Y443000D01*
X2114961Y443011D01*
X2115221Y443046D01*
X2115476Y443102D01*
X2115726Y443181D01*
X2115968Y443281D01*
X2116200Y443402D01*
X2116421Y443543D01*
X2116628Y443702D01*
X2116821Y443879D01*
X2116998Y444072D01*
X2117157Y444279D01*
X2117298Y444500D01*
X2117419Y444732D01*
X2117519Y444974D01*
X2117598Y445224D01*
X2117654Y445479D01*
X2117689Y445739D01*
X2117700Y446000D01*
X2117700Y456000D01*
X2117689Y456261D01*
X2117654Y456521D01*
X2117598Y456776D01*
X2117519Y457026D01*
X2117419Y457268D01*
X2117298Y457500D01*
X2117157Y457721D01*
X2116998Y457928D01*
X2116821Y458121D01*
X2116628Y458298D01*
X2116421Y458457D01*
X2116200Y458598D01*
X2115968Y458719D01*
X2115726Y458819D01*
X2115476Y458898D01*
X2115221Y458954D01*
X2114961Y458989D01*
X2114700Y459000D01*
X2114439Y458989D01*
X2114179Y458954D01*
X2113924Y458898D01*
X2113674Y458819D01*
X2113432Y458719D01*
X2113200Y458598D01*
X2112979Y458457D01*
X2112772Y458298D01*
X2112579Y458121D01*
X2112402Y457928D01*
X2112243Y457721D01*
X2112102Y457500D01*
X2111981Y457268D01*
X2111881Y457026D01*
X2111802Y456776D01*
X2111746Y456521D01*
X2111711Y456261D01*
X2111700Y456000D01*
X2111700Y446000D01*
X2271300Y494000D02*
X2271311Y493739D01*
X2271346Y493479D01*
X2271402Y493224D01*
X2271481Y492974D01*
X2271581Y492732D01*
X2271702Y492500D01*
X2271843Y492279D01*
X2272002Y492072D01*
X2272179Y491879D01*
X2272372Y491702D01*
X2272579Y491543D01*
X2272800Y491402D01*
X2273032Y491281D01*
X2273274Y491181D01*
X2273524Y491102D01*
X2273779Y491046D01*
X2274039Y491011D01*
X2274300Y491000D01*
X2274561Y491011D01*
X2274821Y491046D01*
X2275076Y491102D01*
X2275326Y491181D01*
X2275568Y491281D01*
X2275800Y491402D01*
X2276021Y491543D01*
X2276228Y491702D01*
X2276421Y491879D01*
X2276598Y492072D01*
X2276757Y492279D01*
X2276898Y492500D01*
X2277019Y492732D01*
X2277119Y492974D01*
X2277198Y493224D01*
X2277254Y493479D01*
X2277289Y493739D01*
X2277300Y494000D01*
X2277300Y504000D01*
X2277289Y504261D01*
X2277254Y504521D01*
X2277198Y504776D01*
X2277119Y505026D01*
X2277019Y505268D01*
X2276898Y505500D01*
X2276757Y505721D01*
X2276598Y505928D01*
X2276421Y506121D01*
X2276228Y506298D01*
X2276021Y506457D01*
X2275800Y506598D01*
X2275568Y506719D01*
X2275326Y506819D01*
X2275076Y506898D01*
X2274821Y506954D01*
X2274561Y506989D01*
X2274300Y507000D01*
X2274039Y506989D01*
X2273779Y506954D01*
X2273524Y506898D01*
X2273274Y506819D01*
X2273032Y506719D01*
X2272800Y506598D01*
X2272579Y506457D01*
X2272372Y506298D01*
X2272179Y506121D01*
X2272002Y505928D01*
X2271843Y505721D01*
X2271702Y505500D01*
X2271581Y505268D01*
X2271481Y505026D01*
X2271402Y504776D01*
X2271346Y504521D01*
X2271311Y504261D01*
X2271300Y504000D01*
X2271300Y494000D01*
X2242700Y494000D02*
X2242711Y493739D01*
X2242746Y493479D01*
X2242802Y493224D01*
X2242881Y492974D01*
X2242981Y492732D01*
X2243102Y492500D01*
X2243243Y492279D01*
X2243402Y492072D01*
X2243579Y491879D01*
X2243772Y491702D01*
X2243979Y491543D01*
X2244200Y491402D01*
X2244432Y491281D01*
X2244674Y491181D01*
X2244924Y491102D01*
X2245179Y491046D01*
X2245439Y491011D01*
X2245700Y491000D01*
X2245961Y491011D01*
X2246221Y491046D01*
X2246476Y491102D01*
X2246726Y491181D01*
X2246968Y491281D01*
X2247200Y491402D01*
X2247421Y491543D01*
X2247628Y491702D01*
X2247821Y491879D01*
X2247998Y492072D01*
X2248157Y492279D01*
X2248298Y492500D01*
X2248419Y492732D01*
X2248519Y492974D01*
X2248598Y493224D01*
X2248654Y493479D01*
X2248689Y493739D01*
X2248700Y494000D01*
X2248700Y504000D01*
X2248689Y504261D01*
X2248654Y504521D01*
X2248598Y504776D01*
X2248519Y505026D01*
X2248419Y505268D01*
X2248298Y505500D01*
X2248157Y505721D01*
X2247998Y505928D01*
X2247821Y506121D01*
X2247628Y506298D01*
X2247421Y506457D01*
X2247200Y506598D01*
X2246968Y506719D01*
X2246726Y506819D01*
X2246476Y506898D01*
X2246221Y506954D01*
X2245961Y506989D01*
X2245700Y507000D01*
X2245439Y506989D01*
X2245179Y506954D01*
X2244924Y506898D01*
X2244674Y506819D01*
X2244432Y506719D01*
X2244200Y506598D01*
X2243979Y506457D01*
X2243772Y506298D01*
X2243579Y506121D01*
X2243402Y505928D01*
X2243243Y505721D01*
X2243102Y505500D01*
X2242981Y505268D01*
X2242881Y505026D01*
X2242802Y504776D01*
X2242746Y504521D01*
X2242711Y504261D01*
X2242700Y504000D01*
X2242700Y494000D01*
X2282300Y446000D02*
X2282311Y445739D01*
X2282346Y445479D01*
X2282402Y445224D01*
X2282481Y444974D01*
X2282581Y444732D01*
X2282702Y444500D01*
X2282843Y444279D01*
X2283002Y444072D01*
X2283179Y443879D01*
X2283372Y443702D01*
X2283579Y443543D01*
X2283800Y443402D01*
X2284032Y443281D01*
X2284274Y443181D01*
X2284524Y443102D01*
X2284779Y443046D01*
X2285039Y443011D01*
X2285300Y443000D01*
X2285561Y443011D01*
X2285821Y443046D01*
X2286076Y443102D01*
X2286326Y443181D01*
X2286568Y443281D01*
X2286800Y443402D01*
X2287021Y443543D01*
X2287228Y443702D01*
X2287421Y443879D01*
X2287598Y444072D01*
X2287757Y444279D01*
X2287898Y444500D01*
X2288019Y444732D01*
X2288119Y444974D01*
X2288198Y445224D01*
X2288254Y445479D01*
X2288289Y445739D01*
X2288300Y446000D01*
X2288300Y456000D01*
X2288289Y456261D01*
X2288254Y456521D01*
X2288198Y456776D01*
X2288119Y457026D01*
X2288019Y457268D01*
X2287898Y457500D01*
X2287757Y457721D01*
X2287598Y457928D01*
X2287421Y458121D01*
X2287228Y458298D01*
X2287021Y458457D01*
X2286800Y458598D01*
X2286568Y458719D01*
X2286326Y458819D01*
X2286076Y458898D01*
X2285821Y458954D01*
X2285561Y458989D01*
X2285300Y459000D01*
X2285039Y458989D01*
X2284779Y458954D01*
X2284524Y458898D01*
X2284274Y458819D01*
X2284032Y458719D01*
X2283800Y458598D01*
X2283579Y458457D01*
X2283372Y458298D01*
X2283179Y458121D01*
X2283002Y457928D01*
X2282843Y457721D01*
X2282702Y457500D01*
X2282581Y457268D01*
X2282481Y457026D01*
X2282402Y456776D01*
X2282346Y456521D01*
X2282311Y456261D01*
X2282300Y456000D01*
X2282300Y446000D01*
X2231700Y446000D02*
X2231711Y445739D01*
X2231746Y445479D01*
X2231802Y445224D01*
X2231881Y444974D01*
X2231981Y444732D01*
X2232102Y444500D01*
X2232243Y444279D01*
X2232402Y444072D01*
X2232579Y443879D01*
X2232772Y443702D01*
X2232979Y443543D01*
X2233200Y443402D01*
X2233432Y443281D01*
X2233674Y443181D01*
X2233924Y443102D01*
X2234179Y443046D01*
X2234439Y443011D01*
X2234700Y443000D01*
X2234961Y443011D01*
X2235221Y443046D01*
X2235476Y443102D01*
X2235726Y443181D01*
X2235968Y443281D01*
X2236200Y443402D01*
X2236421Y443543D01*
X2236628Y443702D01*
X2236821Y443879D01*
X2236998Y444072D01*
X2237157Y444279D01*
X2237298Y444500D01*
X2237419Y444732D01*
X2237519Y444974D01*
X2237598Y445224D01*
X2237654Y445479D01*
X2237689Y445739D01*
X2237700Y446000D01*
X2237700Y456000D01*
X2237689Y456261D01*
X2237654Y456521D01*
X2237598Y456776D01*
X2237519Y457026D01*
X2237419Y457268D01*
X2237298Y457500D01*
X2237157Y457721D01*
X2236998Y457928D01*
X2236821Y458121D01*
X2236628Y458298D01*
X2236421Y458457D01*
X2236200Y458598D01*
X2235968Y458719D01*
X2235726Y458819D01*
X2235476Y458898D01*
X2235221Y458954D01*
X2234961Y458989D01*
X2234700Y459000D01*
X2234439Y458989D01*
X2234179Y458954D01*
X2233924Y458898D01*
X2233674Y458819D01*
X2233432Y458719D01*
X2233200Y458598D01*
X2232979Y458457D01*
X2232772Y458298D01*
X2232579Y458121D01*
X2232402Y457928D01*
X2232243Y457721D01*
X2232102Y457500D01*
X2231981Y457268D01*
X2231881Y457026D01*
X2231802Y456776D01*
X2231746Y456521D01*
X2231711Y456261D01*
X2231700Y456000D01*
X2231700Y446000D01*
X951300Y494000D02*
X951311Y493739D01*
X951346Y493479D01*
X951402Y493224D01*
X951481Y492974D01*
X951581Y492732D01*
X951702Y492500D01*
X951843Y492279D01*
X952002Y492072D01*
X952179Y491879D01*
X952372Y491702D01*
X952579Y491543D01*
X952800Y491402D01*
X953032Y491281D01*
X953274Y491181D01*
X953524Y491102D01*
X953779Y491046D01*
X954039Y491011D01*
X954300Y491000D01*
X954561Y491011D01*
X954821Y491046D01*
X955076Y491102D01*
X955326Y491181D01*
X955568Y491281D01*
X955800Y491402D01*
X956021Y491543D01*
X956228Y491702D01*
X956421Y491879D01*
X956598Y492072D01*
X956757Y492279D01*
X956898Y492500D01*
X957019Y492732D01*
X957119Y492974D01*
X957198Y493224D01*
X957254Y493479D01*
X957289Y493739D01*
X957300Y494000D01*
X957300Y504000D01*
X957289Y504261D01*
X957254Y504521D01*
X957198Y504776D01*
X957119Y505026D01*
X957019Y505268D01*
X956898Y505500D01*
X956757Y505721D01*
X956598Y505928D01*
X956421Y506121D01*
X956228Y506298D01*
X956021Y506457D01*
X955800Y506598D01*
X955568Y506719D01*
X955326Y506819D01*
X955076Y506898D01*
X954821Y506954D01*
X954561Y506989D01*
X954300Y507000D01*
X954039Y506989D01*
X953779Y506954D01*
X953524Y506898D01*
X953274Y506819D01*
X953032Y506719D01*
X952800Y506598D01*
X952579Y506457D01*
X952372Y506298D01*
X952179Y506121D01*
X952002Y505928D01*
X951843Y505721D01*
X951702Y505500D01*
X951581Y505268D01*
X951481Y505026D01*
X951402Y504776D01*
X951346Y504521D01*
X951311Y504261D01*
X951300Y504000D01*
X951300Y494000D01*
X922700Y494000D02*
X922711Y493739D01*
X922746Y493479D01*
X922802Y493224D01*
X922881Y492974D01*
X922981Y492732D01*
X923102Y492500D01*
X923243Y492279D01*
X923402Y492072D01*
X923579Y491879D01*
X923772Y491702D01*
X923979Y491543D01*
X924200Y491402D01*
X924432Y491281D01*
X924674Y491181D01*
X924924Y491102D01*
X925179Y491046D01*
X925439Y491011D01*
X925700Y491000D01*
X925961Y491011D01*
X926221Y491046D01*
X926476Y491102D01*
X926726Y491181D01*
X926968Y491281D01*
X927200Y491402D01*
X927421Y491543D01*
X927628Y491702D01*
X927821Y491879D01*
X927998Y492072D01*
X928157Y492279D01*
X928298Y492500D01*
X928419Y492732D01*
X928519Y492974D01*
X928598Y493224D01*
X928654Y493479D01*
X928689Y493739D01*
X928700Y494000D01*
X928700Y504000D01*
X928689Y504261D01*
X928654Y504521D01*
X928598Y504776D01*
X928519Y505026D01*
X928419Y505268D01*
X928298Y505500D01*
X928157Y505721D01*
X927998Y505928D01*
X927821Y506121D01*
X927628Y506298D01*
X927421Y506457D01*
X927200Y506598D01*
X926968Y506719D01*
X926726Y506819D01*
X926476Y506898D01*
X926221Y506954D01*
X925961Y506989D01*
X925700Y507000D01*
X925439Y506989D01*
X925179Y506954D01*
X924924Y506898D01*
X924674Y506819D01*
X924432Y506719D01*
X924200Y506598D01*
X923979Y506457D01*
X923772Y506298D01*
X923579Y506121D01*
X923402Y505928D01*
X923243Y505721D01*
X923102Y505500D01*
X922981Y505268D01*
X922881Y505026D01*
X922802Y504776D01*
X922746Y504521D01*
X922711Y504261D01*
X922700Y504000D01*
X922700Y494000D01*
X1071300Y494000D02*
X1071311Y493739D01*
X1071346Y493479D01*
X1071402Y493224D01*
X1071481Y492974D01*
X1071581Y492732D01*
X1071702Y492500D01*
X1071843Y492279D01*
X1072002Y492072D01*
X1072179Y491879D01*
X1072372Y491702D01*
X1072579Y491543D01*
X1072800Y491402D01*
X1073032Y491281D01*
X1073274Y491181D01*
X1073524Y491102D01*
X1073779Y491046D01*
X1074039Y491011D01*
X1074300Y491000D01*
X1074561Y491011D01*
X1074821Y491046D01*
X1075076Y491102D01*
X1075326Y491181D01*
X1075568Y491281D01*
X1075800Y491402D01*
X1076021Y491543D01*
X1076228Y491702D01*
X1076421Y491879D01*
X1076598Y492072D01*
X1076757Y492279D01*
X1076898Y492500D01*
X1077019Y492732D01*
X1077119Y492974D01*
X1077198Y493224D01*
X1077254Y493479D01*
X1077289Y493739D01*
X1077300Y494000D01*
X1077300Y504000D01*
X1077289Y504261D01*
X1077254Y504521D01*
X1077198Y504776D01*
X1077119Y505026D01*
X1077019Y505268D01*
X1076898Y505500D01*
X1076757Y505721D01*
X1076598Y505928D01*
X1076421Y506121D01*
X1076228Y506298D01*
X1076021Y506457D01*
X1075800Y506598D01*
X1075568Y506719D01*
X1075326Y506819D01*
X1075076Y506898D01*
X1074821Y506954D01*
X1074561Y506989D01*
X1074300Y507000D01*
X1074039Y506989D01*
X1073779Y506954D01*
X1073524Y506898D01*
X1073274Y506819D01*
X1073032Y506719D01*
X1072800Y506598D01*
X1072579Y506457D01*
X1072372Y506298D01*
X1072179Y506121D01*
X1072002Y505928D01*
X1071843Y505721D01*
X1071702Y505500D01*
X1071581Y505268D01*
X1071481Y505026D01*
X1071402Y504776D01*
X1071346Y504521D01*
X1071311Y504261D01*
X1071300Y504000D01*
X1071300Y494000D01*
X962300Y446000D02*
X962311Y445739D01*
X962346Y445479D01*
X962402Y445224D01*
X962481Y444974D01*
X962581Y444732D01*
X962702Y444500D01*
X962843Y444279D01*
X963002Y444072D01*
X963179Y443879D01*
X963372Y443702D01*
X963579Y443543D01*
X963800Y443402D01*
X964032Y443281D01*
X964274Y443181D01*
X964524Y443102D01*
X964779Y443046D01*
X965039Y443011D01*
X965300Y443000D01*
X965561Y443011D01*
X965821Y443046D01*
X966076Y443102D01*
X966326Y443181D01*
X966568Y443281D01*
X966800Y443402D01*
X967021Y443543D01*
X967228Y443702D01*
X967421Y443879D01*
X967598Y444072D01*
X967757Y444279D01*
X967898Y444500D01*
X968019Y444732D01*
X968119Y444974D01*
X968198Y445224D01*
X968254Y445479D01*
X968289Y445739D01*
X968300Y446000D01*
X968300Y456000D01*
X968289Y456261D01*
X968254Y456521D01*
X968198Y456776D01*
X968119Y457026D01*
X968019Y457268D01*
X967898Y457500D01*
X967757Y457721D01*
X967598Y457928D01*
X967421Y458121D01*
X967228Y458298D01*
X967021Y458457D01*
X966800Y458598D01*
X966568Y458719D01*
X966326Y458819D01*
X966076Y458898D01*
X965821Y458954D01*
X965561Y458989D01*
X965300Y459000D01*
X965039Y458989D01*
X964779Y458954D01*
X964524Y458898D01*
X964274Y458819D01*
X964032Y458719D01*
X963800Y458598D01*
X963579Y458457D01*
X963372Y458298D01*
X963179Y458121D01*
X963002Y457928D01*
X962843Y457721D01*
X962702Y457500D01*
X962581Y457268D01*
X962481Y457026D01*
X962402Y456776D01*
X962346Y456521D01*
X962311Y456261D01*
X962300Y456000D01*
X962300Y446000D01*
X911700Y446000D02*
X911711Y445739D01*
X911746Y445479D01*
X911802Y445224D01*
X911881Y444974D01*
X911981Y444732D01*
X912102Y444500D01*
X912243Y444279D01*
X912402Y444072D01*
X912579Y443879D01*
X912772Y443702D01*
X912979Y443543D01*
X913200Y443402D01*
X913432Y443281D01*
X913674Y443181D01*
X913924Y443102D01*
X914179Y443046D01*
X914439Y443011D01*
X914700Y443000D01*
X914961Y443011D01*
X915221Y443046D01*
X915476Y443102D01*
X915726Y443181D01*
X915968Y443281D01*
X916200Y443402D01*
X916421Y443543D01*
X916628Y443702D01*
X916821Y443879D01*
X916998Y444072D01*
X917157Y444279D01*
X917298Y444500D01*
X917419Y444732D01*
X917519Y444974D01*
X917598Y445224D01*
X917654Y445479D01*
X917689Y445739D01*
X917700Y446000D01*
X917700Y456000D01*
X917689Y456261D01*
X917654Y456521D01*
X917598Y456776D01*
X917519Y457026D01*
X917419Y457268D01*
X917298Y457500D01*
X917157Y457721D01*
X916998Y457928D01*
X916821Y458121D01*
X916628Y458298D01*
X916421Y458457D01*
X916200Y458598D01*
X915968Y458719D01*
X915726Y458819D01*
X915476Y458898D01*
X915221Y458954D01*
X914961Y458989D01*
X914700Y459000D01*
X914439Y458989D01*
X914179Y458954D01*
X913924Y458898D01*
X913674Y458819D01*
X913432Y458719D01*
X913200Y458598D01*
X912979Y458457D01*
X912772Y458298D01*
X912579Y458121D01*
X912402Y457928D01*
X912243Y457721D01*
X912102Y457500D01*
X911981Y457268D01*
X911881Y457026D01*
X911802Y456776D01*
X911746Y456521D01*
X911711Y456261D01*
X911700Y456000D01*
X911700Y446000D01*
X2363000Y524000D02*
X2363017Y523608D01*
X2363068Y523219D01*
X2363153Y522835D01*
X2363271Y522461D01*
X2363422Y522098D01*
X2363603Y521750D01*
X2363814Y521419D01*
X2364053Y521107D01*
X2364318Y520818D01*
X2364607Y520553D01*
X2364919Y520314D01*
X2365250Y520103D01*
X2365598Y519922D01*
X2365961Y519771D01*
X2366335Y519653D01*
X2366719Y519568D01*
X2367108Y519517D01*
X2367500Y519500D01*
X2367892Y519517D01*
X2368281Y519568D01*
X2368665Y519653D01*
X2369039Y519771D01*
X2369402Y519922D01*
X2369750Y520103D01*
X2370081Y520314D01*
X2370393Y520553D01*
X2370682Y520818D01*
X2370947Y521107D01*
X2371186Y521419D01*
X2371397Y521750D01*
X2371578Y522098D01*
X2371729Y522461D01*
X2371847Y522835D01*
X2371932Y523219D01*
X2371983Y523608D01*
X2372000Y524000D01*
X2372000Y536000D01*
X2371983Y536392D01*
X2371932Y536781D01*
X2371847Y537165D01*
X2371729Y537539D01*
X2371578Y537902D01*
X2371397Y538250D01*
X2371186Y538581D01*
X2370947Y538893D01*
X2370682Y539182D01*
X2370393Y539447D01*
X2370081Y539686D01*
X2369750Y539897D01*
X2369402Y540078D01*
X2369039Y540229D01*
X2368665Y540347D01*
X2368281Y540432D01*
X2367892Y540483D01*
X2367500Y540500D01*
X2367108Y540483D01*
X2366719Y540432D01*
X2366335Y540347D01*
X2365961Y540229D01*
X2365598Y540078D01*
X2365250Y539897D01*
X2364919Y539686D01*
X2364607Y539447D01*
X2364318Y539182D01*
X2364053Y538893D01*
X2363814Y538581D01*
X2363603Y538250D01*
X2363422Y537902D01*
X2363271Y537539D01*
X2363153Y537165D01*
X2363068Y536781D01*
X2363017Y536392D01*
X2363000Y536000D01*
X2363000Y524000D01*
X1082300Y446000D02*
X1082311Y445739D01*
X1082346Y445479D01*
X1082402Y445224D01*
X1082481Y444974D01*
X1082581Y444732D01*
X1082702Y444500D01*
X1082843Y444279D01*
X1083002Y444072D01*
X1083179Y443879D01*
X1083372Y443702D01*
X1083579Y443543D01*
X1083800Y443402D01*
X1084032Y443281D01*
X1084274Y443181D01*
X1084524Y443102D01*
X1084779Y443046D01*
X1085039Y443011D01*
X1085300Y443000D01*
X1085561Y443011D01*
X1085821Y443046D01*
X1086076Y443102D01*
X1086326Y443181D01*
X1086568Y443281D01*
X1086800Y443402D01*
X1087021Y443543D01*
X1087228Y443702D01*
X1087421Y443879D01*
X1087598Y444072D01*
X1087757Y444279D01*
X1087898Y444500D01*
X1088019Y444732D01*
X1088119Y444974D01*
X1088198Y445224D01*
X1088254Y445479D01*
X1088289Y445739D01*
X1088300Y446000D01*
X1088300Y456000D01*
X1088289Y456261D01*
X1088254Y456521D01*
X1088198Y456776D01*
X1088119Y457026D01*
X1088019Y457268D01*
X1087898Y457500D01*
X1087757Y457721D01*
X1087598Y457928D01*
X1087421Y458121D01*
X1087228Y458298D01*
X1087021Y458457D01*
X1086800Y458598D01*
X1086568Y458719D01*
X1086326Y458819D01*
X1086076Y458898D01*
X1085821Y458954D01*
X1085561Y458989D01*
X1085300Y459000D01*
X1085039Y458989D01*
X1084779Y458954D01*
X1084524Y458898D01*
X1084274Y458819D01*
X1084032Y458719D01*
X1083800Y458598D01*
X1083579Y458457D01*
X1083372Y458298D01*
X1083179Y458121D01*
X1083002Y457928D01*
X1082843Y457721D01*
X1082702Y457500D01*
X1082581Y457268D01*
X1082481Y457026D01*
X1082402Y456776D01*
X1082346Y456521D01*
X1082311Y456261D01*
X1082300Y456000D01*
X1082300Y446000D01*
X2508000Y461400D02*
X2508017Y461008D01*
X2508068Y460619D01*
X2508153Y460235D01*
X2508271Y459861D01*
X2508422Y459498D01*
X2508603Y459150D01*
X2508814Y458819D01*
X2509053Y458507D01*
X2509318Y458218D01*
X2509607Y457953D01*
X2509919Y457714D01*
X2510250Y457503D01*
X2510598Y457322D01*
X2510961Y457171D01*
X2511335Y457053D01*
X2511719Y456968D01*
X2512108Y456917D01*
X2512500Y456900D01*
X2512892Y456917D01*
X2513281Y456968D01*
X2513665Y457053D01*
X2514039Y457171D01*
X2514402Y457322D01*
X2514750Y457503D01*
X2515081Y457714D01*
X2515393Y457953D01*
X2515682Y458218D01*
X2515947Y458507D01*
X2516186Y458819D01*
X2516397Y459150D01*
X2516578Y459498D01*
X2516729Y459861D01*
X2516847Y460235D01*
X2516932Y460619D01*
X2516983Y461008D01*
X2517000Y461400D01*
X2517000Y479400D01*
X2516983Y479792D01*
X2516932Y480181D01*
X2516847Y480565D01*
X2516729Y480939D01*
X2516578Y481302D01*
X2516397Y481650D01*
X2516186Y481981D01*
X2515947Y482293D01*
X2515682Y482582D01*
X2515393Y482847D01*
X2515081Y483086D01*
X2514750Y483297D01*
X2514402Y483478D01*
X2514039Y483629D01*
X2513665Y483747D01*
X2513281Y483832D01*
X2512892Y483883D01*
X2512500Y483900D01*
X2512108Y483883D01*
X2511719Y483832D01*
X2511335Y483747D01*
X2510961Y483629D01*
X2510598Y483478D01*
X2510250Y483297D01*
X2509919Y483086D01*
X2509607Y482847D01*
X2509318Y482582D01*
X2509053Y482293D01*
X2508814Y481981D01*
X2508603Y481650D01*
X2508422Y481302D01*
X2508271Y480939D01*
X2508153Y480565D01*
X2508068Y480181D01*
X2508017Y479792D01*
X2508000Y479400D01*
X2508000Y461400D01*
X2508000Y524000D02*
X2508017Y523608D01*
X2508068Y523219D01*
X2508153Y522835D01*
X2508271Y522461D01*
X2508422Y522098D01*
X2508603Y521750D01*
X2508814Y521419D01*
X2509053Y521107D01*
X2509318Y520818D01*
X2509607Y520553D01*
X2509919Y520314D01*
X2510250Y520103D01*
X2510598Y519922D01*
X2510961Y519771D01*
X2511335Y519653D01*
X2511719Y519568D01*
X2512108Y519517D01*
X2512500Y519500D01*
X2512892Y519517D01*
X2513281Y519568D01*
X2513665Y519653D01*
X2514039Y519771D01*
X2514402Y519922D01*
X2514750Y520103D01*
X2515081Y520314D01*
X2515393Y520553D01*
X2515682Y520818D01*
X2515947Y521107D01*
X2516186Y521419D01*
X2516397Y521750D01*
X2516578Y522098D01*
X2516729Y522461D01*
X2516847Y522835D01*
X2516932Y523219D01*
X2516983Y523608D01*
X2517000Y524000D01*
X2517000Y536000D01*
X2516983Y536392D01*
X2516932Y536781D01*
X2516847Y537165D01*
X2516729Y537539D01*
X2516578Y537902D01*
X2516397Y538250D01*
X2516186Y538581D01*
X2515947Y538893D01*
X2515682Y539182D01*
X2515393Y539447D01*
X2515081Y539686D01*
X2514750Y539897D01*
X2514402Y540078D01*
X2514039Y540229D01*
X2513665Y540347D01*
X2513281Y540432D01*
X2512892Y540483D01*
X2512500Y540500D01*
X2512108Y540483D01*
X2511719Y540432D01*
X2511335Y540347D01*
X2510961Y540229D01*
X2510598Y540078D01*
X2510250Y539897D01*
X2509919Y539686D01*
X2509607Y539447D01*
X2509318Y539182D01*
X2509053Y538893D01*
X2508814Y538581D01*
X2508603Y538250D01*
X2508422Y537902D01*
X2508271Y537539D01*
X2508153Y537165D01*
X2508068Y536781D01*
X2508017Y536392D01*
X2508000Y536000D01*
X2508000Y524000D01*
X2363000Y461400D02*
X2363017Y461008D01*
X2363068Y460619D01*
X2363153Y460235D01*
X2363271Y459861D01*
X2363422Y459498D01*
X2363603Y459150D01*
X2363814Y458819D01*
X2364053Y458507D01*
X2364318Y458218D01*
X2364607Y457953D01*
X2364919Y457714D01*
X2365250Y457503D01*
X2365598Y457322D01*
X2365961Y457171D01*
X2366335Y457053D01*
X2366719Y456968D01*
X2367108Y456917D01*
X2367500Y456900D01*
X2367892Y456917D01*
X2368281Y456968D01*
X2368665Y457053D01*
X2369039Y457171D01*
X2369402Y457322D01*
X2369750Y457503D01*
X2370081Y457714D01*
X2370393Y457953D01*
X2370682Y458218D01*
X2370947Y458507D01*
X2371186Y458819D01*
X2371397Y459150D01*
X2371578Y459498D01*
X2371729Y459861D01*
X2371847Y460235D01*
X2371932Y460619D01*
X2371983Y461008D01*
X2372000Y461400D01*
X2372000Y479400D01*
X2371983Y479792D01*
X2371932Y480181D01*
X2371847Y480565D01*
X2371729Y480939D01*
X2371578Y481302D01*
X2371397Y481650D01*
X2371186Y481981D01*
X2370947Y482293D01*
X2370682Y482582D01*
X2370393Y482847D01*
X2370081Y483086D01*
X2369750Y483297D01*
X2369402Y483478D01*
X2369039Y483629D01*
X2368665Y483747D01*
X2368281Y483832D01*
X2367892Y483883D01*
X2367500Y483900D01*
X2367108Y483883D01*
X2366719Y483832D01*
X2366335Y483747D01*
X2365961Y483629D01*
X2365598Y483478D01*
X2365250Y483297D01*
X2364919Y483086D01*
X2364607Y482847D01*
X2364318Y482582D01*
X2364053Y482293D01*
X2363814Y481981D01*
X2363603Y481650D01*
X2363422Y481302D01*
X2363271Y480939D01*
X2363153Y480565D01*
X2363068Y480181D01*
X2363017Y479792D01*
X2363000Y479400D01*
X2363000Y461400D01*
X1031700Y446000D02*
X1031711Y445739D01*
X1031746Y445479D01*
X1031802Y445224D01*
X1031881Y444974D01*
X1031981Y444732D01*
X1032102Y444500D01*
X1032243Y444279D01*
X1032402Y444072D01*
X1032579Y443879D01*
X1032772Y443702D01*
X1032979Y443543D01*
X1033200Y443402D01*
X1033432Y443281D01*
X1033674Y443181D01*
X1033924Y443102D01*
X1034179Y443046D01*
X1034439Y443011D01*
X1034700Y443000D01*
X1034961Y443011D01*
X1035221Y443046D01*
X1035476Y443102D01*
X1035726Y443181D01*
X1035968Y443281D01*
X1036200Y443402D01*
X1036421Y443543D01*
X1036628Y443702D01*
X1036821Y443879D01*
X1036998Y444072D01*
X1037157Y444279D01*
X1037298Y444500D01*
X1037419Y444732D01*
X1037519Y444974D01*
X1037598Y445224D01*
X1037654Y445479D01*
X1037689Y445739D01*
X1037700Y446000D01*
X1037700Y456000D01*
X1037689Y456261D01*
X1037654Y456521D01*
X1037598Y456776D01*
X1037519Y457026D01*
X1037419Y457268D01*
X1037298Y457500D01*
X1037157Y457721D01*
X1036998Y457928D01*
X1036821Y458121D01*
X1036628Y458298D01*
X1036421Y458457D01*
X1036200Y458598D01*
X1035968Y458719D01*
X1035726Y458819D01*
X1035476Y458898D01*
X1035221Y458954D01*
X1034961Y458989D01*
X1034700Y459000D01*
X1034439Y458989D01*
X1034179Y458954D01*
X1033924Y458898D01*
X1033674Y458819D01*
X1033432Y458719D01*
X1033200Y458598D01*
X1032979Y458457D01*
X1032772Y458298D01*
X1032579Y458121D01*
X1032402Y457928D01*
X1032243Y457721D01*
X1032102Y457500D01*
X1031981Y457268D01*
X1031881Y457026D01*
X1031802Y456776D01*
X1031746Y456521D01*
X1031711Y456261D01*
X1031700Y456000D01*
X1031700Y446000D01*
X2603000Y524000D02*
X2603017Y523608D01*
X2603068Y523219D01*
X2603153Y522835D01*
X2603271Y522461D01*
X2603422Y522098D01*
X2603603Y521750D01*
X2603814Y521419D01*
X2604053Y521107D01*
X2604318Y520818D01*
X2604607Y520553D01*
X2604919Y520314D01*
X2605250Y520103D01*
X2605598Y519922D01*
X2605961Y519771D01*
X2606335Y519653D01*
X2606719Y519568D01*
X2607108Y519517D01*
X2607500Y519500D01*
X2607892Y519517D01*
X2608281Y519568D01*
X2608665Y519653D01*
X2609039Y519771D01*
X2609402Y519922D01*
X2609750Y520103D01*
X2610081Y520314D01*
X2610393Y520553D01*
X2610682Y520818D01*
X2610947Y521107D01*
X2611186Y521419D01*
X2611397Y521750D01*
X2611578Y522098D01*
X2611729Y522461D01*
X2611847Y522835D01*
X2611932Y523219D01*
X2611983Y523608D01*
X2612000Y524000D01*
X2612000Y536000D01*
X2611983Y536392D01*
X2611932Y536781D01*
X2611847Y537165D01*
X2611729Y537539D01*
X2611578Y537902D01*
X2611397Y538250D01*
X2611186Y538581D01*
X2610947Y538893D01*
X2610682Y539182D01*
X2610393Y539447D01*
X2610081Y539686D01*
X2609750Y539897D01*
X2609402Y540078D01*
X2609039Y540229D01*
X2608665Y540347D01*
X2608281Y540432D01*
X2607892Y540483D01*
X2607500Y540500D01*
X2607108Y540483D01*
X2606719Y540432D01*
X2606335Y540347D01*
X2605961Y540229D01*
X2605598Y540078D01*
X2605250Y539897D01*
X2604919Y539686D01*
X2604607Y539447D01*
X2604318Y539182D01*
X2604053Y538893D01*
X2603814Y538581D01*
X2603603Y538250D01*
X2603422Y537902D01*
X2603271Y537539D01*
X2603153Y537165D01*
X2603068Y536781D01*
X2603017Y536392D01*
X2603000Y536000D01*
X2603000Y524000D01*
X2748000Y524000D02*
X2748017Y523608D01*
X2748068Y523219D01*
X2748153Y522835D01*
X2748271Y522461D01*
X2748422Y522098D01*
X2748603Y521750D01*
X2748814Y521419D01*
X2749053Y521107D01*
X2749318Y520818D01*
X2749607Y520553D01*
X2749919Y520314D01*
X2750250Y520103D01*
X2750598Y519922D01*
X2750961Y519771D01*
X2751335Y519653D01*
X2751719Y519568D01*
X2752108Y519517D01*
X2752500Y519500D01*
X2752892Y519517D01*
X2753281Y519568D01*
X2753665Y519653D01*
X2754039Y519771D01*
X2754402Y519922D01*
X2754750Y520103D01*
X2755081Y520314D01*
X2755393Y520553D01*
X2755682Y520818D01*
X2755947Y521107D01*
X2756186Y521419D01*
X2756397Y521750D01*
X2756578Y522098D01*
X2756729Y522461D01*
X2756847Y522835D01*
X2756932Y523219D01*
X2756983Y523608D01*
X2757000Y524000D01*
X2757000Y536000D01*
X2756983Y536392D01*
X2756932Y536781D01*
X2756847Y537165D01*
X2756729Y537539D01*
X2756578Y537902D01*
X2756397Y538250D01*
X2756186Y538581D01*
X2755947Y538893D01*
X2755682Y539182D01*
X2755393Y539447D01*
X2755081Y539686D01*
X2754750Y539897D01*
X2754402Y540078D01*
X2754039Y540229D01*
X2753665Y540347D01*
X2753281Y540432D01*
X2752892Y540483D01*
X2752500Y540500D01*
X2752108Y540483D01*
X2751719Y540432D01*
X2751335Y540347D01*
X2750961Y540229D01*
X2750598Y540078D01*
X2750250Y539897D01*
X2749919Y539686D01*
X2749607Y539447D01*
X2749318Y539182D01*
X2749053Y538893D01*
X2748814Y538581D01*
X2748603Y538250D01*
X2748422Y537902D01*
X2748271Y537539D01*
X2748153Y537165D01*
X2748068Y536781D01*
X2748017Y536392D01*
X2748000Y536000D01*
X2748000Y524000D01*
X2603000Y461400D02*
X2603017Y461008D01*
X2603068Y460619D01*
X2603153Y460235D01*
X2603271Y459861D01*
X2603422Y459498D01*
X2603603Y459150D01*
X2603814Y458819D01*
X2604053Y458507D01*
X2604318Y458218D01*
X2604607Y457953D01*
X2604919Y457714D01*
X2605250Y457503D01*
X2605598Y457322D01*
X2605961Y457171D01*
X2606335Y457053D01*
X2606719Y456968D01*
X2607108Y456917D01*
X2607500Y456900D01*
X2607892Y456917D01*
X2608281Y456968D01*
X2608665Y457053D01*
X2609039Y457171D01*
X2609402Y457322D01*
X2609750Y457503D01*
X2610081Y457714D01*
X2610393Y457953D01*
X2610682Y458218D01*
X2610947Y458507D01*
X2611186Y458819D01*
X2611397Y459150D01*
X2611578Y459498D01*
X2611729Y459861D01*
X2611847Y460235D01*
X2611932Y460619D01*
X2611983Y461008D01*
X2612000Y461400D01*
X2612000Y479400D01*
X2611983Y479792D01*
X2611932Y480181D01*
X2611847Y480565D01*
X2611729Y480939D01*
X2611578Y481302D01*
X2611397Y481650D01*
X2611186Y481981D01*
X2610947Y482293D01*
X2610682Y482582D01*
X2610393Y482847D01*
X2610081Y483086D01*
X2609750Y483297D01*
X2609402Y483478D01*
X2609039Y483629D01*
X2608665Y483747D01*
X2608281Y483832D01*
X2607892Y483883D01*
X2607500Y483900D01*
X2607108Y483883D01*
X2606719Y483832D01*
X2606335Y483747D01*
X2605961Y483629D01*
X2605598Y483478D01*
X2605250Y483297D01*
X2604919Y483086D01*
X2604607Y482847D01*
X2604318Y482582D01*
X2604053Y482293D01*
X2603814Y481981D01*
X2603603Y481650D01*
X2603422Y481302D01*
X2603271Y480939D01*
X2603153Y480565D01*
X2603068Y480181D01*
X2603017Y479792D01*
X2603000Y479400D01*
X2603000Y461400D01*
X2748000Y461400D02*
X2748017Y461008D01*
X2748068Y460619D01*
X2748153Y460235D01*
X2748271Y459861D01*
X2748422Y459498D01*
X2748603Y459150D01*
X2748814Y458819D01*
X2749053Y458507D01*
X2749318Y458218D01*
X2749607Y457953D01*
X2749919Y457714D01*
X2750250Y457503D01*
X2750598Y457322D01*
X2750961Y457171D01*
X2751335Y457053D01*
X2751719Y456968D01*
X2752108Y456917D01*
X2752500Y456900D01*
X2752892Y456917D01*
X2753281Y456968D01*
X2753665Y457053D01*
X2754039Y457171D01*
X2754402Y457322D01*
X2754750Y457503D01*
X2755081Y457714D01*
X2755393Y457953D01*
X2755682Y458218D01*
X2755947Y458507D01*
X2756186Y458819D01*
X2756397Y459150D01*
X2756578Y459498D01*
X2756729Y459861D01*
X2756847Y460235D01*
X2756932Y460619D01*
X2756983Y461008D01*
X2757000Y461400D01*
X2757000Y479400D01*
X2756983Y479792D01*
X2756932Y480181D01*
X2756847Y480565D01*
X2756729Y480939D01*
X2756578Y481302D01*
X2756397Y481650D01*
X2756186Y481981D01*
X2755947Y482293D01*
X2755682Y482582D01*
X2755393Y482847D01*
X2755081Y483086D01*
X2754750Y483297D01*
X2754402Y483478D01*
X2754039Y483629D01*
X2753665Y483747D01*
X2753281Y483832D01*
X2752892Y483883D01*
X2752500Y483900D01*
X2752108Y483883D01*
X2751719Y483832D01*
X2751335Y483747D01*
X2750961Y483629D01*
X2750598Y483478D01*
X2750250Y483297D01*
X2749919Y483086D01*
X2749607Y482847D01*
X2749318Y482582D01*
X2749053Y482293D01*
X2748814Y481981D01*
X2748603Y481650D01*
X2748422Y481302D01*
X2748271Y480939D01*
X2748153Y480565D01*
X2748068Y480181D01*
X2748017Y479792D01*
X2748000Y479400D01*
X2748000Y461400D01*
X36000Y352500D02*
X44000Y352500D01*
X44000Y367500D01*
X36000Y367500D01*
X36000Y352500D01*
X82500Y306000D02*
X97500Y306000D01*
X97500Y314000D01*
X82500Y314000D01*
X82500Y306000D01*
X82500Y406000D02*
X97500Y406000D01*
X97500Y414000D01*
X82500Y414000D01*
X82500Y406000D01*
M02*
