G04 EAGLE Gerber RS-274X export*
G75*
%MOMM*%
%FSLAX34Y34*%
%LPD*%
%INSilkscreen Bottom*%
%IPPOS*%
%AMOC8*
5,1,8,0,0,1.08239X$1,22.5*%
G01*
G04 Define Apertures*
%ADD10C,0.508000*%
%ADD11C,0.200000*%
%ADD12C,0.127000*%
%ADD13C,0.400000*%
G36*
X167097Y275207D02*
X164980Y275207D01*
X164980Y284426D01*
X164988Y284805D01*
X165011Y285153D01*
X165051Y285472D01*
X165110Y285763D01*
X165189Y286026D01*
X165290Y286262D01*
X165413Y286473D01*
X165561Y286657D01*
X165735Y286818D01*
X165936Y286954D01*
X166166Y287067D01*
X166426Y287158D01*
X166718Y287228D01*
X167042Y287276D01*
X167401Y287305D01*
X167797Y287314D01*
X169070Y287314D01*
X169070Y285198D01*
X167976Y285198D01*
X167753Y285185D01*
X167566Y285146D01*
X167414Y285079D01*
X167294Y284982D01*
X167205Y284856D01*
X167144Y284698D01*
X167108Y284508D01*
X167097Y284283D01*
X167097Y275207D01*
G37*
G36*
X2816356Y374950D02*
X2806706Y374950D01*
X2806706Y377067D01*
X2815011Y377067D01*
X2815115Y377078D01*
X2815188Y377118D01*
X2815230Y377195D01*
X2815244Y377318D01*
X2815244Y377928D01*
X2815236Y378172D01*
X2815206Y378395D01*
X2815149Y378595D01*
X2815058Y378773D01*
X2814928Y378928D01*
X2814752Y379060D01*
X2814525Y379169D01*
X2814240Y379255D01*
X2809199Y380385D01*
X2808845Y380476D01*
X2808517Y380580D01*
X2808213Y380697D01*
X2807934Y380829D01*
X2807680Y380975D01*
X2807449Y381136D01*
X2807242Y381312D01*
X2807058Y381504D01*
X2806897Y381711D01*
X2806759Y381934D01*
X2806642Y382174D01*
X2806548Y382431D01*
X2806475Y382704D01*
X2806424Y382996D01*
X2806393Y383305D01*
X2806383Y383632D01*
X2806398Y384037D01*
X2806444Y384418D01*
X2806519Y384774D01*
X2806624Y385105D01*
X2806758Y385412D01*
X2806920Y385693D01*
X2807111Y385949D01*
X2807329Y386179D01*
X2807575Y386383D01*
X2807847Y386560D01*
X2808146Y386711D01*
X2808472Y386835D01*
X2808822Y386932D01*
X2809198Y387002D01*
X2809599Y387044D01*
X2810024Y387058D01*
X2816966Y387058D01*
X2816966Y384941D01*
X2809970Y384941D01*
X2809794Y384935D01*
X2809628Y384916D01*
X2809329Y384844D01*
X2809074Y384728D01*
X2808863Y384571D01*
X2808697Y384376D01*
X2808578Y384147D01*
X2808506Y383885D01*
X2808482Y383596D01*
X2808495Y383388D01*
X2808537Y383196D01*
X2808612Y383021D01*
X2808724Y382863D01*
X2808876Y382722D01*
X2809072Y382600D01*
X2809316Y382496D01*
X2809612Y382412D01*
X2814706Y381246D01*
X2815076Y381152D01*
X2815412Y381044D01*
X2815717Y380921D01*
X2815991Y380783D01*
X2816236Y380630D01*
X2816452Y380460D01*
X2816642Y380274D01*
X2816807Y380071D01*
X2816947Y379850D01*
X2817065Y379611D01*
X2817160Y379354D01*
X2817236Y379077D01*
X2817292Y378780D01*
X2817331Y378463D01*
X2817354Y378125D01*
X2817361Y377766D01*
X2817361Y375937D01*
X2817346Y375704D01*
X2817300Y375502D01*
X2817223Y375333D01*
X2817114Y375194D01*
X2816974Y375087D01*
X2816801Y375011D01*
X2816595Y374965D01*
X2816356Y374950D01*
G37*
G36*
X1943857Y150368D02*
X1942366Y150368D01*
X1941975Y150383D01*
X1941614Y150429D01*
X1941283Y150502D01*
X1940981Y150603D01*
X1940707Y150729D01*
X1940461Y150879D01*
X1940241Y151052D01*
X1940047Y151247D01*
X1939879Y151461D01*
X1939735Y151693D01*
X1939616Y151943D01*
X1939519Y152208D01*
X1939446Y152487D01*
X1939394Y152779D01*
X1939363Y153082D01*
X1939353Y153395D01*
X1939363Y153702D01*
X1939393Y153994D01*
X1939443Y154271D01*
X1939513Y154531D01*
X1939602Y154774D01*
X1939712Y154999D01*
X1939842Y155206D01*
X1939992Y155394D01*
X1940162Y155562D01*
X1940352Y155710D01*
X1940563Y155837D01*
X1940794Y155942D01*
X1941045Y156025D01*
X1941316Y156085D01*
X1941608Y156122D01*
X1941921Y156134D01*
X1944245Y156134D01*
X1944245Y154657D01*
X1942093Y154657D01*
X1941815Y154636D01*
X1941574Y154573D01*
X1941370Y154471D01*
X1941202Y154330D01*
X1941071Y154154D01*
X1940978Y153943D01*
X1940921Y153699D01*
X1940902Y153423D01*
X1940922Y153138D01*
X1940980Y152877D01*
X1941079Y152645D01*
X1941222Y152446D01*
X1941408Y152284D01*
X1941641Y152163D01*
X1941775Y152119D01*
X1941921Y152087D01*
X1942080Y152067D01*
X1942251Y152061D01*
X1943857Y152061D01*
X1944197Y152072D01*
X1944512Y152105D01*
X1944803Y152161D01*
X1945069Y152241D01*
X1945312Y152344D01*
X1945532Y152472D01*
X1945729Y152625D01*
X1945903Y152803D01*
X1946056Y153007D01*
X1946186Y153237D01*
X1946296Y153494D01*
X1946385Y153779D01*
X1946453Y154092D01*
X1946501Y154433D01*
X1946530Y154803D01*
X1946540Y155202D01*
X1946530Y155604D01*
X1946501Y155976D01*
X1946452Y156319D01*
X1946383Y156633D01*
X1946293Y156919D01*
X1946183Y157177D01*
X1946051Y157409D01*
X1945898Y157613D01*
X1945723Y157792D01*
X1945525Y157945D01*
X1945306Y158073D01*
X1945063Y158177D01*
X1944797Y158257D01*
X1944508Y158313D01*
X1944195Y158346D01*
X1943857Y158357D01*
X1939870Y158357D01*
X1939870Y160050D01*
X1943857Y160050D01*
X1944370Y160031D01*
X1944852Y159975D01*
X1945305Y159882D01*
X1945727Y159750D01*
X1946118Y159581D01*
X1946477Y159375D01*
X1946804Y159130D01*
X1947099Y158847D01*
X1947361Y158526D01*
X1947589Y158167D01*
X1947784Y157769D01*
X1947944Y157333D01*
X1948069Y156858D01*
X1948159Y156345D01*
X1948214Y155793D01*
X1948232Y155202D01*
X1948214Y154613D01*
X1948160Y154063D01*
X1948071Y153552D01*
X1947946Y153079D01*
X1947787Y152644D01*
X1947593Y152248D01*
X1947365Y151890D01*
X1947104Y151569D01*
X1946810Y151287D01*
X1946483Y151043D01*
X1946124Y150836D01*
X1945733Y150667D01*
X1945310Y150536D01*
X1944857Y150443D01*
X1944372Y150387D01*
X1943857Y150368D01*
G37*
G36*
X1871221Y514351D02*
X1863117Y514351D01*
X1862931Y514363D01*
X1862770Y514400D01*
X1862634Y514461D01*
X1862523Y514548D01*
X1862438Y514661D01*
X1862377Y514799D01*
X1862340Y514963D01*
X1862328Y515154D01*
X1862328Y518568D01*
X1862347Y519085D01*
X1862402Y519571D01*
X1862495Y520025D01*
X1862625Y520448D01*
X1862793Y520838D01*
X1862999Y521196D01*
X1863242Y521521D01*
X1863524Y521813D01*
X1863844Y522072D01*
X1864202Y522298D01*
X1864598Y522489D01*
X1865033Y522647D01*
X1865507Y522769D01*
X1866019Y522858D01*
X1866571Y522911D01*
X1867162Y522929D01*
X1867755Y522911D01*
X1868309Y522857D01*
X1868824Y522768D01*
X1869299Y522645D01*
X1869735Y522486D01*
X1870133Y522294D01*
X1870492Y522068D01*
X1870812Y521808D01*
X1871094Y521515D01*
X1871338Y521189D01*
X1871544Y520831D01*
X1871712Y520441D01*
X1871843Y520020D01*
X1871936Y519567D01*
X1871992Y519083D01*
X1872010Y518568D01*
X1872010Y515154D01*
X1871998Y514963D01*
X1871961Y514799D01*
X1871900Y514661D01*
X1871815Y514548D01*
X1871704Y514461D01*
X1871568Y514400D01*
X1871407Y514363D01*
X1871221Y514351D01*
G37*
%LPC*%
G36*
X1870145Y516044D02*
X1870227Y516055D01*
X1870280Y516088D01*
X1870309Y516146D01*
X1870317Y516230D01*
X1870317Y518568D01*
X1870306Y518908D01*
X1870273Y519222D01*
X1870217Y519512D01*
X1870137Y519778D01*
X1870034Y520019D01*
X1869906Y520238D01*
X1869753Y520434D01*
X1869575Y520607D01*
X1869371Y520758D01*
X1869141Y520887D01*
X1868884Y520996D01*
X1868599Y521083D01*
X1868286Y521151D01*
X1867945Y521198D01*
X1867575Y521227D01*
X1867176Y521236D01*
X1866774Y521227D01*
X1866402Y521198D01*
X1866059Y521151D01*
X1865745Y521083D01*
X1865459Y520996D01*
X1865201Y520887D01*
X1864969Y520758D01*
X1864765Y520607D01*
X1864586Y520434D01*
X1864433Y520238D01*
X1864305Y520019D01*
X1864201Y519778D01*
X1864121Y519512D01*
X1864065Y519222D01*
X1864032Y518908D01*
X1864021Y518568D01*
X1864021Y516230D01*
X1864029Y516146D01*
X1864058Y516088D01*
X1864111Y516055D01*
X1864193Y516044D01*
X1870145Y516044D01*
G37*
%LPD*%
G36*
X1870074Y501712D02*
X1862328Y501712D01*
X1862328Y503404D01*
X1869988Y503404D01*
X1870110Y503414D01*
X1870220Y503442D01*
X1870316Y503488D01*
X1870396Y503553D01*
X1870461Y503636D01*
X1870508Y503737D01*
X1870537Y503856D01*
X1870547Y503992D01*
X1870541Y504099D01*
X1870522Y504195D01*
X1870491Y504281D01*
X1870447Y504358D01*
X1870317Y504488D01*
X1870131Y504595D01*
X1863949Y507420D01*
X1863555Y507582D01*
X1863203Y507770D01*
X1862896Y507990D01*
X1862638Y508249D01*
X1862528Y508394D01*
X1862432Y508552D01*
X1862349Y508722D01*
X1862281Y508905D01*
X1862227Y509102D01*
X1862188Y509315D01*
X1862164Y509543D01*
X1862156Y509787D01*
X1862166Y510058D01*
X1862195Y510311D01*
X1862242Y510546D01*
X1862308Y510764D01*
X1862391Y510964D01*
X1862491Y511146D01*
X1862607Y511311D01*
X1862739Y511458D01*
X1862885Y511588D01*
X1863046Y511700D01*
X1863221Y511795D01*
X1863408Y511873D01*
X1863609Y511933D01*
X1863821Y511976D01*
X1864045Y512002D01*
X1864279Y512010D01*
X1872010Y512010D01*
X1872010Y510304D01*
X1864350Y510304D01*
X1864232Y510294D01*
X1864126Y510264D01*
X1864033Y510217D01*
X1863954Y510151D01*
X1863891Y510069D01*
X1863844Y509971D01*
X1863815Y509857D01*
X1863805Y509730D01*
X1863813Y509617D01*
X1863836Y509516D01*
X1863920Y509346D01*
X1864047Y509213D01*
X1864207Y509113D01*
X1870389Y506287D01*
X1870783Y506126D01*
X1871135Y505940D01*
X1871442Y505722D01*
X1871700Y505466D01*
X1871810Y505322D01*
X1871906Y505166D01*
X1871989Y504997D01*
X1872057Y504815D01*
X1872111Y504618D01*
X1872150Y504407D01*
X1872174Y504179D01*
X1872182Y503935D01*
X1872172Y503662D01*
X1872143Y503407D01*
X1872096Y503170D01*
X1872030Y502952D01*
X1871947Y502752D01*
X1871848Y502570D01*
X1871732Y502405D01*
X1871601Y502258D01*
X1871455Y502129D01*
X1871295Y502018D01*
X1871122Y501924D01*
X1870936Y501847D01*
X1870737Y501788D01*
X1870527Y501745D01*
X1870305Y501720D01*
X1870074Y501712D01*
G37*
G36*
X1867162Y490930D02*
X1866573Y490948D01*
X1866023Y491002D01*
X1865512Y491091D01*
X1865039Y491216D01*
X1864604Y491375D01*
X1864208Y491569D01*
X1863850Y491797D01*
X1863529Y492058D01*
X1863247Y492352D01*
X1863003Y492679D01*
X1862796Y493038D01*
X1862627Y493429D01*
X1862496Y493852D01*
X1862403Y494305D01*
X1862347Y494790D01*
X1862328Y495305D01*
X1862328Y496796D01*
X1862343Y497187D01*
X1862389Y497548D01*
X1862462Y497879D01*
X1862563Y498181D01*
X1862689Y498455D01*
X1862839Y498701D01*
X1863012Y498921D01*
X1863207Y499115D01*
X1863421Y499283D01*
X1863653Y499427D01*
X1863903Y499546D01*
X1864168Y499643D01*
X1864447Y499716D01*
X1864739Y499768D01*
X1865042Y499799D01*
X1865355Y499809D01*
X1865662Y499799D01*
X1865954Y499769D01*
X1866231Y499719D01*
X1866491Y499650D01*
X1866734Y499560D01*
X1866959Y499450D01*
X1867166Y499320D01*
X1867354Y499170D01*
X1867522Y499000D01*
X1867670Y498810D01*
X1867797Y498599D01*
X1867902Y498368D01*
X1867985Y498117D01*
X1868045Y497846D01*
X1868082Y497554D01*
X1868094Y497241D01*
X1868094Y494917D01*
X1866617Y494917D01*
X1866617Y497069D01*
X1866596Y497347D01*
X1866533Y497588D01*
X1866431Y497792D01*
X1866290Y497960D01*
X1866114Y498091D01*
X1865903Y498184D01*
X1865659Y498241D01*
X1865383Y498260D01*
X1865098Y498240D01*
X1864837Y498182D01*
X1864605Y498083D01*
X1864406Y497940D01*
X1864244Y497754D01*
X1864123Y497521D01*
X1864079Y497387D01*
X1864047Y497241D01*
X1864027Y497082D01*
X1864021Y496911D01*
X1864021Y495305D01*
X1864032Y494965D01*
X1864065Y494650D01*
X1864121Y494359D01*
X1864201Y494093D01*
X1864304Y493850D01*
X1864432Y493630D01*
X1864585Y493433D01*
X1864763Y493259D01*
X1864967Y493107D01*
X1865197Y492976D01*
X1865454Y492866D01*
X1865739Y492777D01*
X1866052Y492709D01*
X1866393Y492661D01*
X1866763Y492632D01*
X1867162Y492622D01*
X1867564Y492632D01*
X1867936Y492661D01*
X1868279Y492710D01*
X1868593Y492779D01*
X1868879Y492869D01*
X1869137Y492979D01*
X1869369Y493111D01*
X1869573Y493264D01*
X1869752Y493439D01*
X1869905Y493637D01*
X1870033Y493856D01*
X1870137Y494099D01*
X1870217Y494365D01*
X1870273Y494654D01*
X1870306Y494967D01*
X1870317Y495305D01*
X1870317Y499292D01*
X1872010Y499292D01*
X1872010Y495305D01*
X1871991Y494792D01*
X1871935Y494310D01*
X1871842Y493857D01*
X1871710Y493435D01*
X1871541Y493044D01*
X1871335Y492685D01*
X1871090Y492358D01*
X1870807Y492063D01*
X1870486Y491801D01*
X1870127Y491573D01*
X1869729Y491378D01*
X1869293Y491218D01*
X1868818Y491093D01*
X1868305Y491003D01*
X1867753Y490948D01*
X1867162Y490930D01*
G37*
G36*
X1733807Y93835D02*
X1725703Y93835D01*
X1725517Y93847D01*
X1725356Y93884D01*
X1725220Y93945D01*
X1725109Y94032D01*
X1725024Y94144D01*
X1724963Y94282D01*
X1724926Y94447D01*
X1724914Y94638D01*
X1724914Y98052D01*
X1724933Y98569D01*
X1724988Y99055D01*
X1725081Y99509D01*
X1725211Y99931D01*
X1725379Y100322D01*
X1725585Y100680D01*
X1725828Y101005D01*
X1726110Y101297D01*
X1726430Y101556D01*
X1726788Y101781D01*
X1727184Y101973D01*
X1727619Y102130D01*
X1728093Y102253D01*
X1728605Y102341D01*
X1729157Y102394D01*
X1729748Y102412D01*
X1730341Y102394D01*
X1730895Y102341D01*
X1731410Y102252D01*
X1731885Y102128D01*
X1732321Y101970D01*
X1732719Y101778D01*
X1733078Y101551D01*
X1733398Y101292D01*
X1733680Y100999D01*
X1733924Y100673D01*
X1734130Y100315D01*
X1734298Y99925D01*
X1734429Y99503D01*
X1734522Y99050D01*
X1734578Y98566D01*
X1734596Y98052D01*
X1734596Y94638D01*
X1734584Y94447D01*
X1734547Y94282D01*
X1734486Y94144D01*
X1734401Y94032D01*
X1734290Y93945D01*
X1734154Y93884D01*
X1733993Y93847D01*
X1733807Y93835D01*
G37*
%LPC*%
G36*
X1732731Y95527D02*
X1732813Y95538D01*
X1732866Y95572D01*
X1732895Y95630D01*
X1732903Y95714D01*
X1732903Y98052D01*
X1732892Y98391D01*
X1732859Y98706D01*
X1732803Y98996D01*
X1732723Y99261D01*
X1732620Y99503D01*
X1732492Y99722D01*
X1732339Y99917D01*
X1732161Y100090D01*
X1731957Y100241D01*
X1731727Y100371D01*
X1731470Y100479D01*
X1731185Y100567D01*
X1730872Y100634D01*
X1730531Y100682D01*
X1730161Y100710D01*
X1729762Y100720D01*
X1729360Y100710D01*
X1728988Y100682D01*
X1728645Y100634D01*
X1728331Y100567D01*
X1728045Y100479D01*
X1727787Y100371D01*
X1727555Y100241D01*
X1727351Y100090D01*
X1727172Y99917D01*
X1727019Y99722D01*
X1726891Y99503D01*
X1726787Y99261D01*
X1726707Y98996D01*
X1726651Y98706D01*
X1726618Y98391D01*
X1726607Y98052D01*
X1726607Y95714D01*
X1726615Y95630D01*
X1726644Y95572D01*
X1726697Y95538D01*
X1726779Y95527D01*
X1732731Y95527D01*
G37*
%LPD*%
G36*
X1732660Y81195D02*
X1724914Y81195D01*
X1724914Y82888D01*
X1732574Y82888D01*
X1732696Y82897D01*
X1732806Y82925D01*
X1732902Y82972D01*
X1732982Y83037D01*
X1733047Y83120D01*
X1733094Y83221D01*
X1733123Y83340D01*
X1733133Y83476D01*
X1733127Y83583D01*
X1733108Y83679D01*
X1733077Y83765D01*
X1733033Y83842D01*
X1732903Y83972D01*
X1732717Y84078D01*
X1726535Y86904D01*
X1726141Y87066D01*
X1725789Y87254D01*
X1725482Y87474D01*
X1725224Y87733D01*
X1725114Y87878D01*
X1725018Y88035D01*
X1724935Y88205D01*
X1724867Y88389D01*
X1724813Y88586D01*
X1724774Y88799D01*
X1724750Y89027D01*
X1724742Y89271D01*
X1724752Y89542D01*
X1724781Y89795D01*
X1724828Y90030D01*
X1724894Y90248D01*
X1724977Y90448D01*
X1725077Y90630D01*
X1725193Y90795D01*
X1725325Y90942D01*
X1725471Y91072D01*
X1725632Y91184D01*
X1725807Y91279D01*
X1725994Y91357D01*
X1726195Y91417D01*
X1726407Y91460D01*
X1726631Y91486D01*
X1726865Y91494D01*
X1734596Y91494D01*
X1734596Y89787D01*
X1726936Y89787D01*
X1726818Y89777D01*
X1726712Y89748D01*
X1726619Y89700D01*
X1726540Y89635D01*
X1726477Y89553D01*
X1726430Y89454D01*
X1726401Y89341D01*
X1726391Y89214D01*
X1726399Y89101D01*
X1726422Y89000D01*
X1726506Y88830D01*
X1726633Y88697D01*
X1726793Y88597D01*
X1732975Y85771D01*
X1733369Y85610D01*
X1733721Y85424D01*
X1734028Y85206D01*
X1734286Y84950D01*
X1734396Y84806D01*
X1734492Y84650D01*
X1734575Y84481D01*
X1734643Y84299D01*
X1734697Y84102D01*
X1734736Y83890D01*
X1734760Y83663D01*
X1734768Y83419D01*
X1734758Y83145D01*
X1734729Y82891D01*
X1734682Y82654D01*
X1734616Y82436D01*
X1734533Y82236D01*
X1734434Y82053D01*
X1734318Y81889D01*
X1734187Y81742D01*
X1734041Y81613D01*
X1733881Y81502D01*
X1733708Y81408D01*
X1733522Y81331D01*
X1733323Y81271D01*
X1733113Y81229D01*
X1732891Y81204D01*
X1732660Y81195D01*
G37*
G36*
X1729748Y70414D02*
X1729159Y70432D01*
X1728609Y70486D01*
X1728098Y70575D01*
X1727625Y70700D01*
X1727190Y70859D01*
X1726794Y71053D01*
X1726436Y71280D01*
X1726115Y71541D01*
X1725833Y71836D01*
X1725589Y72162D01*
X1725382Y72522D01*
X1725213Y72913D01*
X1725082Y73335D01*
X1724989Y73789D01*
X1724933Y74274D01*
X1724914Y74788D01*
X1724914Y76280D01*
X1724929Y76671D01*
X1724975Y77031D01*
X1725048Y77362D01*
X1725149Y77665D01*
X1725275Y77939D01*
X1725425Y78185D01*
X1725598Y78405D01*
X1725793Y78598D01*
X1726007Y78767D01*
X1726239Y78910D01*
X1726489Y79030D01*
X1726754Y79126D01*
X1727033Y79200D01*
X1727325Y79252D01*
X1727628Y79282D01*
X1727941Y79292D01*
X1728248Y79282D01*
X1728540Y79253D01*
X1728817Y79203D01*
X1729077Y79133D01*
X1729320Y79044D01*
X1729545Y78934D01*
X1729752Y78804D01*
X1729940Y78654D01*
X1730108Y78484D01*
X1730256Y78294D01*
X1730383Y78083D01*
X1730488Y77852D01*
X1730571Y77601D01*
X1730631Y77329D01*
X1730668Y77037D01*
X1730680Y76725D01*
X1730680Y74401D01*
X1729203Y74401D01*
X1729203Y76553D01*
X1729182Y76830D01*
X1729119Y77072D01*
X1729017Y77276D01*
X1728876Y77444D01*
X1728700Y77575D01*
X1728489Y77668D01*
X1728245Y77724D01*
X1727969Y77743D01*
X1727684Y77724D01*
X1727423Y77666D01*
X1727191Y77566D01*
X1726992Y77424D01*
X1726830Y77238D01*
X1726709Y77005D01*
X1726665Y76871D01*
X1726633Y76725D01*
X1726613Y76566D01*
X1726607Y76395D01*
X1726607Y74788D01*
X1726618Y74449D01*
X1726651Y74134D01*
X1726707Y73843D01*
X1726787Y73577D01*
X1726890Y73334D01*
X1727018Y73114D01*
X1727171Y72917D01*
X1727349Y72743D01*
X1727553Y72590D01*
X1727783Y72459D01*
X1728040Y72350D01*
X1728325Y72261D01*
X1728638Y72193D01*
X1728979Y72144D01*
X1729349Y72116D01*
X1729748Y72106D01*
X1730150Y72116D01*
X1730522Y72145D01*
X1730865Y72194D01*
X1731179Y72263D01*
X1731465Y72353D01*
X1731723Y72463D01*
X1731955Y72595D01*
X1732159Y72748D01*
X1732338Y72923D01*
X1732491Y73120D01*
X1732619Y73340D01*
X1732723Y73583D01*
X1732803Y73848D01*
X1732859Y74138D01*
X1732892Y74451D01*
X1732903Y74788D01*
X1732903Y78776D01*
X1734596Y78776D01*
X1734596Y74788D01*
X1734577Y74276D01*
X1734521Y73793D01*
X1734428Y73341D01*
X1734296Y72919D01*
X1734127Y72528D01*
X1733921Y72169D01*
X1733676Y71842D01*
X1733393Y71547D01*
X1733072Y71285D01*
X1732713Y71057D01*
X1732315Y70862D01*
X1731879Y70702D01*
X1731404Y70576D01*
X1730891Y70486D01*
X1730339Y70432D01*
X1729748Y70414D01*
G37*
G36*
X1653026Y94378D02*
X1652437Y94396D01*
X1651888Y94450D01*
X1651377Y94540D01*
X1650905Y94665D01*
X1650471Y94824D01*
X1650076Y95018D01*
X1649719Y95245D01*
X1649400Y95506D01*
X1649119Y95800D01*
X1648876Y96127D01*
X1648671Y96486D01*
X1648503Y96878D01*
X1648373Y97300D01*
X1648280Y97754D01*
X1648225Y98238D01*
X1648206Y98753D01*
X1648206Y100073D01*
X1648225Y100588D01*
X1648280Y101072D01*
X1648373Y101526D01*
X1648503Y101948D01*
X1648671Y102340D01*
X1648876Y102699D01*
X1649119Y103026D01*
X1649400Y103320D01*
X1649719Y103581D01*
X1650076Y103808D01*
X1650471Y104002D01*
X1650905Y104161D01*
X1651377Y104286D01*
X1651888Y104376D01*
X1652437Y104430D01*
X1653026Y104448D01*
X1653617Y104429D01*
X1654169Y104375D01*
X1654683Y104285D01*
X1655159Y104159D01*
X1655596Y103999D01*
X1655995Y103805D01*
X1656355Y103576D01*
X1656678Y103315D01*
X1656962Y103020D01*
X1657208Y102693D01*
X1657416Y102333D01*
X1657586Y101942D01*
X1657718Y101521D01*
X1657813Y101068D01*
X1657869Y100585D01*
X1657888Y100073D01*
X1657888Y98753D01*
X1657869Y98241D01*
X1657813Y97758D01*
X1657718Y97305D01*
X1657586Y96884D01*
X1657416Y96493D01*
X1657208Y96133D01*
X1656962Y95806D01*
X1656678Y95512D01*
X1656355Y95250D01*
X1655995Y95021D01*
X1655596Y94827D01*
X1655159Y94667D01*
X1654683Y94541D01*
X1654169Y94451D01*
X1653617Y94397D01*
X1653026Y94378D01*
G37*
%LPC*%
G36*
X1653026Y96071D02*
X1653427Y96081D01*
X1653800Y96110D01*
X1654144Y96159D01*
X1654459Y96228D01*
X1654746Y96317D01*
X1655006Y96428D01*
X1655238Y96560D01*
X1655444Y96713D01*
X1655624Y96888D01*
X1655779Y97085D01*
X1655908Y97305D01*
X1656013Y97547D01*
X1656093Y97813D01*
X1656150Y98103D01*
X1656184Y98416D01*
X1656195Y98753D01*
X1656195Y100073D01*
X1656184Y100410D01*
X1656150Y100723D01*
X1656094Y101011D01*
X1656013Y101276D01*
X1655908Y101518D01*
X1655779Y101736D01*
X1655625Y101932D01*
X1655446Y102106D01*
X1655241Y102258D01*
X1655009Y102388D01*
X1654751Y102498D01*
X1654465Y102586D01*
X1654151Y102654D01*
X1653810Y102703D01*
X1653439Y102731D01*
X1653040Y102741D01*
X1652638Y102731D01*
X1652267Y102703D01*
X1651924Y102654D01*
X1651611Y102586D01*
X1651326Y102498D01*
X1651069Y102388D01*
X1650839Y102258D01*
X1650635Y102106D01*
X1650458Y101932D01*
X1650306Y101736D01*
X1650179Y101518D01*
X1650077Y101276D01*
X1649998Y101011D01*
X1649942Y100723D01*
X1649909Y100410D01*
X1649899Y100073D01*
X1649899Y98753D01*
X1649909Y98413D01*
X1649942Y98098D01*
X1649998Y97808D01*
X1650077Y97541D01*
X1650179Y97298D01*
X1650306Y97079D01*
X1650457Y96882D01*
X1650634Y96707D01*
X1650836Y96555D01*
X1651065Y96424D01*
X1651321Y96315D01*
X1651605Y96226D01*
X1651917Y96157D01*
X1652257Y96109D01*
X1652626Y96080D01*
X1653026Y96071D01*
G37*
%LPD*%
G36*
X1653040Y106066D02*
X1652451Y106084D01*
X1651901Y106137D01*
X1651390Y106225D01*
X1650917Y106346D01*
X1650482Y106500D01*
X1650086Y106685D01*
X1649728Y106900D01*
X1649407Y107145D01*
X1649125Y107419D01*
X1648881Y107720D01*
X1648674Y108048D01*
X1648505Y108402D01*
X1648374Y108780D01*
X1648281Y109182D01*
X1648225Y109607D01*
X1648206Y110053D01*
X1648206Y111703D01*
X1648222Y112091D01*
X1648267Y112450D01*
X1648342Y112780D01*
X1648444Y113081D01*
X1648572Y113355D01*
X1648724Y113602D01*
X1648900Y113822D01*
X1649097Y114016D01*
X1649315Y114185D01*
X1649551Y114329D01*
X1649806Y114450D01*
X1650076Y114547D01*
X1650361Y114622D01*
X1650659Y114674D01*
X1650969Y114705D01*
X1651290Y114715D01*
X1651612Y114705D01*
X1651913Y114674D01*
X1652193Y114621D01*
X1652450Y114547D01*
X1652687Y114452D01*
X1652902Y114334D01*
X1653096Y114193D01*
X1653269Y114030D01*
X1653422Y113844D01*
X1653553Y113634D01*
X1653664Y113400D01*
X1653755Y113142D01*
X1653825Y112859D01*
X1653875Y112552D01*
X1653905Y112219D01*
X1653915Y111861D01*
X1653915Y107801D01*
X1654203Y107847D01*
X1654470Y107907D01*
X1654717Y107982D01*
X1654943Y108073D01*
X1655149Y108179D01*
X1655336Y108301D01*
X1655504Y108439D01*
X1655652Y108594D01*
X1655782Y108765D01*
X1655894Y108953D01*
X1655987Y109157D01*
X1656063Y109379D01*
X1656121Y109618D01*
X1656163Y109874D01*
X1656187Y110149D01*
X1656195Y110441D01*
X1656195Y114156D01*
X1657888Y114156D01*
X1657888Y110441D01*
X1657869Y109928D01*
X1657813Y109446D01*
X1657720Y108993D01*
X1657588Y108571D01*
X1657419Y108180D01*
X1657213Y107821D01*
X1656968Y107494D01*
X1656685Y107199D01*
X1656364Y106937D01*
X1656005Y106709D01*
X1655607Y106514D01*
X1655171Y106354D01*
X1654696Y106229D01*
X1654183Y106139D01*
X1653631Y106084D01*
X1653040Y106066D01*
G37*
%LPC*%
G36*
X1652552Y107773D02*
X1652552Y111689D01*
X1652534Y111998D01*
X1652478Y112271D01*
X1652384Y112504D01*
X1652251Y112698D01*
X1652077Y112851D01*
X1651862Y112961D01*
X1651605Y113029D01*
X1651304Y113051D01*
X1651005Y113030D01*
X1650734Y112965D01*
X1650494Y112855D01*
X1650289Y112702D01*
X1650124Y112503D01*
X1650001Y112259D01*
X1649957Y112119D01*
X1649925Y111968D01*
X1649905Y111806D01*
X1649899Y111631D01*
X1649899Y110283D01*
X1649908Y109994D01*
X1649936Y109723D01*
X1649984Y109470D01*
X1650051Y109235D01*
X1650138Y109018D01*
X1650247Y108819D01*
X1650376Y108638D01*
X1650526Y108474D01*
X1650698Y108327D01*
X1650893Y108198D01*
X1651110Y108085D01*
X1651351Y107989D01*
X1651615Y107911D01*
X1651903Y107848D01*
X1652215Y107802D01*
X1652552Y107773D01*
G37*
%LPD*%
G36*
X1653040Y70160D02*
X1652451Y70178D01*
X1651901Y70232D01*
X1651390Y70321D01*
X1650917Y70446D01*
X1650482Y70605D01*
X1650086Y70799D01*
X1649728Y71026D01*
X1649407Y71287D01*
X1649125Y71582D01*
X1648881Y71908D01*
X1648674Y72268D01*
X1648505Y72659D01*
X1648374Y73081D01*
X1648281Y73535D01*
X1648225Y74020D01*
X1648206Y74534D01*
X1648206Y76026D01*
X1648221Y76417D01*
X1648267Y76777D01*
X1648340Y77108D01*
X1648441Y77411D01*
X1648567Y77685D01*
X1648717Y77931D01*
X1648890Y78151D01*
X1649085Y78344D01*
X1649299Y78513D01*
X1649531Y78656D01*
X1649781Y78776D01*
X1650046Y78872D01*
X1650325Y78946D01*
X1650617Y78998D01*
X1650920Y79028D01*
X1651233Y79038D01*
X1651540Y79028D01*
X1651832Y78999D01*
X1652109Y78949D01*
X1652369Y78879D01*
X1652612Y78790D01*
X1652837Y78680D01*
X1653044Y78550D01*
X1653232Y78400D01*
X1653400Y78230D01*
X1653548Y78040D01*
X1653675Y77829D01*
X1653780Y77598D01*
X1653863Y77347D01*
X1653923Y77075D01*
X1653960Y76783D01*
X1653972Y76471D01*
X1653972Y74147D01*
X1652495Y74147D01*
X1652495Y76299D01*
X1652474Y76576D01*
X1652411Y76818D01*
X1652309Y77022D01*
X1652168Y77190D01*
X1651992Y77321D01*
X1651781Y77414D01*
X1651537Y77470D01*
X1651261Y77489D01*
X1650976Y77470D01*
X1650715Y77412D01*
X1650483Y77312D01*
X1650284Y77170D01*
X1650122Y76984D01*
X1650001Y76751D01*
X1649957Y76617D01*
X1649925Y76471D01*
X1649905Y76312D01*
X1649899Y76141D01*
X1649899Y74534D01*
X1649910Y74195D01*
X1649943Y73880D01*
X1649999Y73589D01*
X1650079Y73323D01*
X1650182Y73080D01*
X1650310Y72860D01*
X1650463Y72663D01*
X1650641Y72489D01*
X1650845Y72336D01*
X1651075Y72205D01*
X1651332Y72096D01*
X1651617Y72007D01*
X1651930Y71939D01*
X1652271Y71890D01*
X1652641Y71862D01*
X1653040Y71852D01*
X1653442Y71862D01*
X1653814Y71891D01*
X1654157Y71940D01*
X1654471Y72009D01*
X1654757Y72099D01*
X1655015Y72209D01*
X1655247Y72341D01*
X1655451Y72494D01*
X1655630Y72669D01*
X1655783Y72866D01*
X1655911Y73086D01*
X1656015Y73329D01*
X1656095Y73594D01*
X1656151Y73884D01*
X1656184Y74197D01*
X1656195Y74534D01*
X1656195Y78522D01*
X1657888Y78522D01*
X1657888Y74534D01*
X1657869Y74022D01*
X1657813Y73539D01*
X1657720Y73087D01*
X1657588Y72665D01*
X1657419Y72274D01*
X1657213Y71915D01*
X1656968Y71588D01*
X1656685Y71293D01*
X1656364Y71031D01*
X1656005Y70803D01*
X1655607Y70608D01*
X1655171Y70448D01*
X1654696Y70322D01*
X1654183Y70232D01*
X1653631Y70178D01*
X1653040Y70160D01*
G37*
G36*
X1657888Y80927D02*
X1656195Y80927D01*
X1656195Y85962D01*
X1656189Y86128D01*
X1656169Y86283D01*
X1656093Y86557D01*
X1655972Y86787D01*
X1655814Y86973D01*
X1655622Y87116D01*
X1655403Y87216D01*
X1655162Y87276D01*
X1654905Y87296D01*
X1654654Y87277D01*
X1654412Y87220D01*
X1654186Y87122D01*
X1653985Y86982D01*
X1653815Y86796D01*
X1653684Y86563D01*
X1653636Y86429D01*
X1653600Y86281D01*
X1653578Y86121D01*
X1653571Y85947D01*
X1653571Y82462D01*
X1653549Y82092D01*
X1653484Y81776D01*
X1653434Y81639D01*
X1653372Y81514D01*
X1653298Y81403D01*
X1653212Y81304D01*
X1653113Y81217D01*
X1653000Y81143D01*
X1652875Y81080D01*
X1652735Y81030D01*
X1652582Y80991D01*
X1652415Y80963D01*
X1652036Y80941D01*
X1648206Y80941D01*
X1648206Y82634D01*
X1651706Y82634D01*
X1651817Y82650D01*
X1651892Y82697D01*
X1651936Y82773D01*
X1651950Y82878D01*
X1651950Y85890D01*
X1651968Y86298D01*
X1652020Y86674D01*
X1652105Y87019D01*
X1652219Y87332D01*
X1652360Y87616D01*
X1652526Y87871D01*
X1652714Y88097D01*
X1652922Y88296D01*
X1653146Y88469D01*
X1653385Y88615D01*
X1653637Y88737D01*
X1653898Y88835D01*
X1654167Y88909D01*
X1654440Y88962D01*
X1654715Y88992D01*
X1654991Y89003D01*
X1655278Y88992D01*
X1655560Y88958D01*
X1655833Y88902D01*
X1656097Y88823D01*
X1656349Y88720D01*
X1656588Y88593D01*
X1656812Y88441D01*
X1657020Y88264D01*
X1657210Y88061D01*
X1657380Y87833D01*
X1657528Y87578D01*
X1657653Y87296D01*
X1657753Y86987D01*
X1657827Y86650D01*
X1657873Y86284D01*
X1657888Y85890D01*
X1657888Y80927D01*
G37*
G36*
X1657888Y90706D02*
X1648206Y90706D01*
X1648206Y92398D01*
X1657888Y92398D01*
X1657888Y90706D01*
G37*
G36*
X1602480Y67962D02*
X1601891Y67980D01*
X1601342Y68034D01*
X1600831Y68124D01*
X1600359Y68249D01*
X1599925Y68408D01*
X1599530Y68602D01*
X1599173Y68829D01*
X1598854Y69090D01*
X1598573Y69384D01*
X1598330Y69711D01*
X1598125Y70070D01*
X1597957Y70462D01*
X1597827Y70884D01*
X1597734Y71338D01*
X1597679Y71822D01*
X1597660Y72337D01*
X1597660Y73657D01*
X1597679Y74172D01*
X1597734Y74656D01*
X1597827Y75110D01*
X1597957Y75532D01*
X1598125Y75924D01*
X1598330Y76283D01*
X1598573Y76610D01*
X1598854Y76904D01*
X1599173Y77165D01*
X1599530Y77392D01*
X1599925Y77586D01*
X1600359Y77745D01*
X1600831Y77870D01*
X1601342Y77960D01*
X1601891Y78014D01*
X1602480Y78032D01*
X1603071Y78013D01*
X1603623Y77959D01*
X1604137Y77869D01*
X1604613Y77743D01*
X1605050Y77583D01*
X1605449Y77389D01*
X1605809Y77160D01*
X1606132Y76899D01*
X1606416Y76604D01*
X1606662Y76277D01*
X1606870Y75917D01*
X1607040Y75526D01*
X1607172Y75105D01*
X1607267Y74652D01*
X1607323Y74169D01*
X1607342Y73657D01*
X1607342Y72337D01*
X1607323Y71825D01*
X1607267Y71342D01*
X1607172Y70889D01*
X1607040Y70468D01*
X1606870Y70077D01*
X1606662Y69717D01*
X1606416Y69390D01*
X1606132Y69096D01*
X1605809Y68834D01*
X1605449Y68605D01*
X1605050Y68411D01*
X1604613Y68251D01*
X1604137Y68125D01*
X1603623Y68035D01*
X1603071Y67981D01*
X1602480Y67962D01*
G37*
%LPC*%
G36*
X1602480Y69655D02*
X1602881Y69665D01*
X1603254Y69694D01*
X1603598Y69743D01*
X1603913Y69812D01*
X1604200Y69901D01*
X1604460Y70012D01*
X1604692Y70144D01*
X1604898Y70297D01*
X1605078Y70472D01*
X1605233Y70669D01*
X1605362Y70889D01*
X1605467Y71131D01*
X1605547Y71397D01*
X1605604Y71687D01*
X1605638Y72000D01*
X1605649Y72337D01*
X1605649Y73657D01*
X1605638Y73994D01*
X1605604Y74307D01*
X1605548Y74595D01*
X1605467Y74860D01*
X1605362Y75102D01*
X1605233Y75320D01*
X1605079Y75516D01*
X1604900Y75690D01*
X1604695Y75842D01*
X1604463Y75972D01*
X1604205Y76082D01*
X1603919Y76170D01*
X1603605Y76238D01*
X1603264Y76287D01*
X1602893Y76315D01*
X1602494Y76325D01*
X1602092Y76315D01*
X1601721Y76287D01*
X1601378Y76238D01*
X1601065Y76170D01*
X1600780Y76082D01*
X1600523Y75972D01*
X1600293Y75842D01*
X1600089Y75690D01*
X1599912Y75516D01*
X1599760Y75320D01*
X1599633Y75102D01*
X1599531Y74860D01*
X1599452Y74595D01*
X1599396Y74307D01*
X1599363Y73994D01*
X1599353Y73657D01*
X1599353Y72337D01*
X1599363Y71997D01*
X1599396Y71682D01*
X1599452Y71392D01*
X1599531Y71125D01*
X1599633Y70882D01*
X1599760Y70663D01*
X1599911Y70466D01*
X1600088Y70291D01*
X1600290Y70139D01*
X1600519Y70008D01*
X1600775Y69899D01*
X1601059Y69810D01*
X1601371Y69741D01*
X1601711Y69693D01*
X1602080Y69664D01*
X1602480Y69655D01*
G37*
%LPD*%
G36*
X1602494Y84494D02*
X1601905Y84512D01*
X1601355Y84565D01*
X1600844Y84653D01*
X1600371Y84774D01*
X1599936Y84927D01*
X1599540Y85112D01*
X1599182Y85328D01*
X1598861Y85573D01*
X1598579Y85847D01*
X1598335Y86148D01*
X1598128Y86476D01*
X1597959Y86829D01*
X1597828Y87208D01*
X1597735Y87610D01*
X1597679Y88035D01*
X1597660Y88481D01*
X1597660Y90131D01*
X1597676Y90519D01*
X1597721Y90878D01*
X1597796Y91208D01*
X1597898Y91509D01*
X1598026Y91783D01*
X1598178Y92029D01*
X1598354Y92249D01*
X1598551Y92444D01*
X1598769Y92613D01*
X1599005Y92757D01*
X1599260Y92878D01*
X1599530Y92975D01*
X1599815Y93049D01*
X1600113Y93102D01*
X1600423Y93133D01*
X1600744Y93143D01*
X1601066Y93133D01*
X1601367Y93101D01*
X1601647Y93049D01*
X1601904Y92975D01*
X1602141Y92880D01*
X1602356Y92762D01*
X1602550Y92621D01*
X1602723Y92458D01*
X1602876Y92271D01*
X1603007Y92061D01*
X1603118Y91828D01*
X1603209Y91570D01*
X1603279Y91287D01*
X1603329Y90979D01*
X1603359Y90647D01*
X1603369Y90288D01*
X1603369Y86229D01*
X1603657Y86274D01*
X1603924Y86334D01*
X1604171Y86410D01*
X1604397Y86500D01*
X1604603Y86607D01*
X1604790Y86729D01*
X1604958Y86867D01*
X1605106Y87022D01*
X1605236Y87193D01*
X1605348Y87380D01*
X1605441Y87585D01*
X1605517Y87807D01*
X1605575Y88046D01*
X1605617Y88302D01*
X1605641Y88576D01*
X1605649Y88868D01*
X1605649Y92583D01*
X1607342Y92583D01*
X1607342Y88868D01*
X1607323Y88356D01*
X1607267Y87873D01*
X1607174Y87421D01*
X1607042Y86999D01*
X1606873Y86608D01*
X1606667Y86249D01*
X1606422Y85922D01*
X1606139Y85627D01*
X1605818Y85365D01*
X1605459Y85137D01*
X1605061Y84942D01*
X1604625Y84782D01*
X1604150Y84656D01*
X1603637Y84566D01*
X1603085Y84512D01*
X1602494Y84494D01*
G37*
%LPC*%
G36*
X1602006Y86201D02*
X1602006Y90116D01*
X1601988Y90426D01*
X1601932Y90698D01*
X1601838Y90932D01*
X1601705Y91126D01*
X1601531Y91279D01*
X1601316Y91389D01*
X1601059Y91456D01*
X1600758Y91479D01*
X1600459Y91457D01*
X1600188Y91392D01*
X1599948Y91283D01*
X1599743Y91129D01*
X1599578Y90931D01*
X1599455Y90686D01*
X1599411Y90547D01*
X1599379Y90396D01*
X1599359Y90233D01*
X1599353Y90059D01*
X1599353Y88711D01*
X1599362Y88421D01*
X1599390Y88150D01*
X1599438Y87898D01*
X1599505Y87663D01*
X1599592Y87446D01*
X1599701Y87247D01*
X1599830Y87066D01*
X1599980Y86902D01*
X1600152Y86755D01*
X1600347Y86625D01*
X1600564Y86513D01*
X1600805Y86417D01*
X1601069Y86338D01*
X1601357Y86276D01*
X1601669Y86230D01*
X1602006Y86201D01*
G37*
%LPD*%
G36*
X1602494Y43744D02*
X1601905Y43762D01*
X1601355Y43816D01*
X1600844Y43905D01*
X1600371Y44030D01*
X1599936Y44189D01*
X1599540Y44383D01*
X1599182Y44610D01*
X1598861Y44871D01*
X1598579Y45166D01*
X1598335Y45492D01*
X1598128Y45852D01*
X1597959Y46243D01*
X1597828Y46665D01*
X1597735Y47119D01*
X1597679Y47604D01*
X1597660Y48118D01*
X1597660Y49610D01*
X1597675Y50001D01*
X1597721Y50361D01*
X1597794Y50692D01*
X1597895Y50995D01*
X1598021Y51269D01*
X1598171Y51515D01*
X1598344Y51735D01*
X1598539Y51928D01*
X1598753Y52097D01*
X1598985Y52240D01*
X1599235Y52360D01*
X1599500Y52456D01*
X1599779Y52530D01*
X1600071Y52582D01*
X1600374Y52612D01*
X1600687Y52622D01*
X1600994Y52612D01*
X1601286Y52583D01*
X1601563Y52533D01*
X1601823Y52463D01*
X1602066Y52374D01*
X1602291Y52264D01*
X1602498Y52134D01*
X1602686Y51984D01*
X1602854Y51814D01*
X1603002Y51624D01*
X1603129Y51413D01*
X1603234Y51182D01*
X1603317Y50931D01*
X1603377Y50659D01*
X1603414Y50367D01*
X1603426Y50055D01*
X1603426Y47731D01*
X1601949Y47731D01*
X1601949Y49883D01*
X1601928Y50160D01*
X1601865Y50402D01*
X1601763Y50606D01*
X1601622Y50774D01*
X1601446Y50905D01*
X1601235Y50998D01*
X1600991Y51054D01*
X1600715Y51073D01*
X1600430Y51054D01*
X1600169Y50996D01*
X1599937Y50896D01*
X1599738Y50754D01*
X1599576Y50568D01*
X1599455Y50335D01*
X1599411Y50201D01*
X1599379Y50055D01*
X1599359Y49896D01*
X1599353Y49725D01*
X1599353Y48118D01*
X1599364Y47779D01*
X1599397Y47464D01*
X1599453Y47173D01*
X1599533Y46907D01*
X1599636Y46664D01*
X1599764Y46444D01*
X1599917Y46247D01*
X1600095Y46073D01*
X1600299Y45920D01*
X1600529Y45789D01*
X1600786Y45680D01*
X1601071Y45591D01*
X1601384Y45523D01*
X1601725Y45474D01*
X1602095Y45446D01*
X1602494Y45436D01*
X1602896Y45446D01*
X1603268Y45475D01*
X1603611Y45524D01*
X1603925Y45593D01*
X1604211Y45683D01*
X1604469Y45793D01*
X1604701Y45925D01*
X1604905Y46078D01*
X1605084Y46253D01*
X1605237Y46450D01*
X1605365Y46670D01*
X1605469Y46913D01*
X1605549Y47178D01*
X1605605Y47468D01*
X1605638Y47781D01*
X1605649Y48118D01*
X1605649Y52106D01*
X1607342Y52106D01*
X1607342Y48118D01*
X1607323Y47606D01*
X1607267Y47123D01*
X1607174Y46671D01*
X1607042Y46249D01*
X1606873Y45858D01*
X1606667Y45499D01*
X1606422Y45172D01*
X1606139Y44877D01*
X1605818Y44615D01*
X1605459Y44387D01*
X1605061Y44192D01*
X1604625Y44032D01*
X1604150Y43906D01*
X1603637Y43816D01*
X1603085Y43762D01*
X1602494Y43744D01*
G37*
G36*
X1607342Y54511D02*
X1605649Y54511D01*
X1605649Y59546D01*
X1605643Y59712D01*
X1605623Y59867D01*
X1605547Y60141D01*
X1605426Y60371D01*
X1605268Y60557D01*
X1605076Y60700D01*
X1604857Y60800D01*
X1604616Y60860D01*
X1604359Y60880D01*
X1604108Y60861D01*
X1603866Y60804D01*
X1603640Y60706D01*
X1603439Y60566D01*
X1603269Y60380D01*
X1603138Y60147D01*
X1603090Y60013D01*
X1603054Y59865D01*
X1603032Y59705D01*
X1603025Y59531D01*
X1603025Y56046D01*
X1603003Y55676D01*
X1602938Y55360D01*
X1602888Y55223D01*
X1602826Y55098D01*
X1602752Y54987D01*
X1602666Y54888D01*
X1602567Y54801D01*
X1602454Y54727D01*
X1602329Y54664D01*
X1602189Y54614D01*
X1602036Y54575D01*
X1601869Y54547D01*
X1601490Y54525D01*
X1597660Y54525D01*
X1597660Y56218D01*
X1601160Y56218D01*
X1601271Y56234D01*
X1601346Y56281D01*
X1601390Y56357D01*
X1601404Y56462D01*
X1601404Y59474D01*
X1601422Y59882D01*
X1601474Y60258D01*
X1601559Y60603D01*
X1601673Y60916D01*
X1601814Y61200D01*
X1601980Y61455D01*
X1602168Y61681D01*
X1602376Y61880D01*
X1602600Y62053D01*
X1602839Y62199D01*
X1603091Y62321D01*
X1603352Y62419D01*
X1603621Y62493D01*
X1603894Y62546D01*
X1604169Y62576D01*
X1604445Y62587D01*
X1604732Y62576D01*
X1605014Y62542D01*
X1605287Y62486D01*
X1605551Y62407D01*
X1605803Y62304D01*
X1606042Y62177D01*
X1606266Y62025D01*
X1606474Y61848D01*
X1606664Y61645D01*
X1606834Y61417D01*
X1606982Y61162D01*
X1607107Y60880D01*
X1607207Y60571D01*
X1607281Y60234D01*
X1607327Y59868D01*
X1607342Y59474D01*
X1607342Y54511D01*
G37*
G36*
X1607342Y79248D02*
X1605649Y79248D01*
X1605649Y80123D01*
X1605639Y80302D01*
X1605608Y80451D01*
X1605554Y80572D01*
X1605477Y80668D01*
X1605376Y80740D01*
X1605250Y80789D01*
X1605098Y80817D01*
X1604918Y80826D01*
X1597660Y80826D01*
X1597660Y82519D01*
X1605033Y82519D01*
X1605335Y82513D01*
X1605614Y82494D01*
X1605869Y82462D01*
X1606102Y82415D01*
X1606312Y82352D01*
X1606501Y82271D01*
X1606669Y82172D01*
X1606817Y82054D01*
X1606945Y81915D01*
X1607054Y81754D01*
X1607144Y81571D01*
X1607217Y81363D01*
X1607273Y81130D01*
X1607312Y80870D01*
X1607335Y80583D01*
X1607342Y80267D01*
X1607342Y79248D01*
G37*
G36*
X1607342Y64290D02*
X1597660Y64290D01*
X1597660Y65982D01*
X1607342Y65982D01*
X1607342Y64290D01*
G37*
G36*
X1982718Y94632D02*
X1982129Y94650D01*
X1981580Y94704D01*
X1981069Y94794D01*
X1980597Y94919D01*
X1980163Y95078D01*
X1979768Y95272D01*
X1979411Y95499D01*
X1979092Y95760D01*
X1978811Y96054D01*
X1978568Y96381D01*
X1978363Y96740D01*
X1978195Y97132D01*
X1978065Y97554D01*
X1977972Y98008D01*
X1977917Y98492D01*
X1977898Y99007D01*
X1977898Y100327D01*
X1977917Y100842D01*
X1977972Y101326D01*
X1978065Y101780D01*
X1978195Y102202D01*
X1978363Y102594D01*
X1978568Y102953D01*
X1978811Y103280D01*
X1979092Y103574D01*
X1979411Y103835D01*
X1979768Y104062D01*
X1980163Y104256D01*
X1980597Y104415D01*
X1981069Y104540D01*
X1981580Y104630D01*
X1982129Y104684D01*
X1982718Y104702D01*
X1983309Y104683D01*
X1983861Y104629D01*
X1984375Y104539D01*
X1984851Y104413D01*
X1985288Y104253D01*
X1985687Y104059D01*
X1986047Y103830D01*
X1986370Y103569D01*
X1986654Y103274D01*
X1986900Y102947D01*
X1987108Y102587D01*
X1987278Y102196D01*
X1987410Y101775D01*
X1987505Y101322D01*
X1987561Y100839D01*
X1987580Y100327D01*
X1987580Y99007D01*
X1987561Y98495D01*
X1987505Y98012D01*
X1987410Y97559D01*
X1987278Y97138D01*
X1987108Y96747D01*
X1986900Y96387D01*
X1986654Y96060D01*
X1986370Y95766D01*
X1986047Y95504D01*
X1985687Y95275D01*
X1985288Y95081D01*
X1984851Y94921D01*
X1984375Y94795D01*
X1983861Y94705D01*
X1983309Y94651D01*
X1982718Y94632D01*
G37*
%LPC*%
G36*
X1982718Y96325D02*
X1983119Y96335D01*
X1983492Y96364D01*
X1983836Y96413D01*
X1984151Y96482D01*
X1984438Y96571D01*
X1984698Y96682D01*
X1984930Y96814D01*
X1985136Y96967D01*
X1985316Y97142D01*
X1985471Y97339D01*
X1985600Y97559D01*
X1985705Y97801D01*
X1985785Y98067D01*
X1985842Y98357D01*
X1985876Y98670D01*
X1985887Y99007D01*
X1985887Y100327D01*
X1985876Y100664D01*
X1985842Y100977D01*
X1985786Y101265D01*
X1985705Y101530D01*
X1985600Y101772D01*
X1985471Y101990D01*
X1985317Y102186D01*
X1985138Y102360D01*
X1984933Y102512D01*
X1984701Y102642D01*
X1984443Y102752D01*
X1984157Y102840D01*
X1983843Y102908D01*
X1983502Y102957D01*
X1983131Y102985D01*
X1982732Y102995D01*
X1982330Y102985D01*
X1981959Y102957D01*
X1981616Y102908D01*
X1981303Y102840D01*
X1981018Y102752D01*
X1980761Y102642D01*
X1980531Y102512D01*
X1980327Y102360D01*
X1980150Y102186D01*
X1979998Y101990D01*
X1979871Y101772D01*
X1979769Y101530D01*
X1979690Y101265D01*
X1979634Y100977D01*
X1979601Y100664D01*
X1979591Y100327D01*
X1979591Y99007D01*
X1979601Y98667D01*
X1979634Y98352D01*
X1979690Y98062D01*
X1979769Y97795D01*
X1979871Y97552D01*
X1979998Y97333D01*
X1980149Y97136D01*
X1980326Y96961D01*
X1980528Y96809D01*
X1980757Y96678D01*
X1981013Y96569D01*
X1981297Y96480D01*
X1981609Y96411D01*
X1981949Y96363D01*
X1982318Y96334D01*
X1982718Y96325D01*
G37*
%LPD*%
G36*
X1982732Y70414D02*
X1982143Y70432D01*
X1981593Y70486D01*
X1981082Y70575D01*
X1980609Y70700D01*
X1980174Y70859D01*
X1979778Y71053D01*
X1979420Y71280D01*
X1979099Y71541D01*
X1978817Y71836D01*
X1978573Y72162D01*
X1978366Y72522D01*
X1978197Y72913D01*
X1978066Y73335D01*
X1977973Y73789D01*
X1977917Y74274D01*
X1977898Y74788D01*
X1977898Y76280D01*
X1977913Y76671D01*
X1977959Y77031D01*
X1978032Y77362D01*
X1978133Y77665D01*
X1978259Y77939D01*
X1978409Y78185D01*
X1978582Y78405D01*
X1978777Y78598D01*
X1978991Y78767D01*
X1979223Y78910D01*
X1979473Y79030D01*
X1979738Y79126D01*
X1980017Y79200D01*
X1980309Y79252D01*
X1980612Y79282D01*
X1980925Y79292D01*
X1981232Y79282D01*
X1981524Y79253D01*
X1981801Y79203D01*
X1982061Y79133D01*
X1982304Y79044D01*
X1982529Y78934D01*
X1982736Y78804D01*
X1982924Y78654D01*
X1983092Y78484D01*
X1983240Y78294D01*
X1983367Y78083D01*
X1983472Y77852D01*
X1983555Y77601D01*
X1983615Y77329D01*
X1983652Y77037D01*
X1983664Y76725D01*
X1983664Y74401D01*
X1982187Y74401D01*
X1982187Y76553D01*
X1982166Y76830D01*
X1982103Y77072D01*
X1982001Y77276D01*
X1981860Y77444D01*
X1981684Y77575D01*
X1981473Y77668D01*
X1981229Y77724D01*
X1980953Y77743D01*
X1980668Y77724D01*
X1980407Y77666D01*
X1980175Y77566D01*
X1979976Y77424D01*
X1979814Y77238D01*
X1979693Y77005D01*
X1979649Y76871D01*
X1979617Y76725D01*
X1979597Y76566D01*
X1979591Y76395D01*
X1979591Y74788D01*
X1979602Y74449D01*
X1979635Y74134D01*
X1979691Y73843D01*
X1979771Y73577D01*
X1979874Y73334D01*
X1980002Y73114D01*
X1980155Y72917D01*
X1980333Y72743D01*
X1980537Y72590D01*
X1980767Y72459D01*
X1981024Y72350D01*
X1981309Y72261D01*
X1981622Y72193D01*
X1981963Y72144D01*
X1982333Y72116D01*
X1982732Y72106D01*
X1983134Y72116D01*
X1983506Y72145D01*
X1983849Y72194D01*
X1984163Y72263D01*
X1984449Y72353D01*
X1984707Y72463D01*
X1984939Y72595D01*
X1985143Y72748D01*
X1985322Y72923D01*
X1985475Y73120D01*
X1985603Y73340D01*
X1985707Y73583D01*
X1985787Y73848D01*
X1985843Y74138D01*
X1985876Y74451D01*
X1985887Y74788D01*
X1985887Y78776D01*
X1987580Y78776D01*
X1987580Y74788D01*
X1987561Y74276D01*
X1987505Y73793D01*
X1987412Y73341D01*
X1987280Y72919D01*
X1987111Y72528D01*
X1986905Y72169D01*
X1986660Y71842D01*
X1986377Y71547D01*
X1986056Y71285D01*
X1985697Y71057D01*
X1985299Y70862D01*
X1984863Y70702D01*
X1984388Y70576D01*
X1983875Y70486D01*
X1983323Y70432D01*
X1982732Y70414D01*
G37*
G36*
X1979591Y106349D02*
X1977898Y106349D01*
X1977898Y111240D01*
X1977911Y111652D01*
X1977950Y112033D01*
X1978013Y112384D01*
X1978100Y112706D01*
X1978208Y112999D01*
X1978337Y113263D01*
X1978486Y113500D01*
X1978653Y113709D01*
X1978837Y113891D01*
X1979036Y114047D01*
X1979250Y114178D01*
X1979477Y114284D01*
X1979717Y114365D01*
X1979967Y114422D01*
X1980226Y114456D01*
X1980494Y114467D01*
X1980909Y114444D01*
X1981284Y114377D01*
X1981620Y114264D01*
X1981918Y114109D01*
X1982180Y113910D01*
X1982406Y113668D01*
X1982600Y113385D01*
X1982761Y113061D01*
X1982916Y113376D01*
X1983104Y113652D01*
X1983325Y113888D01*
X1983582Y114083D01*
X1983874Y114237D01*
X1984205Y114348D01*
X1984574Y114416D01*
X1984984Y114438D01*
X1985259Y114427D01*
X1985524Y114393D01*
X1985777Y114335D01*
X1986019Y114253D01*
X1986247Y114146D01*
X1986461Y114014D01*
X1986659Y113857D01*
X1986841Y113673D01*
X1987006Y113462D01*
X1987152Y113225D01*
X1987278Y112959D01*
X1987384Y112665D01*
X1987468Y112343D01*
X1987530Y111991D01*
X1987567Y111609D01*
X1987580Y111197D01*
X1987580Y106363D01*
X1985887Y106363D01*
X1985887Y111197D01*
X1985866Y111552D01*
X1985802Y111855D01*
X1985699Y112107D01*
X1985559Y112310D01*
X1985385Y112465D01*
X1985179Y112574D01*
X1984944Y112639D01*
X1984683Y112660D01*
X1984402Y112637D01*
X1984162Y112568D01*
X1983962Y112453D01*
X1983800Y112292D01*
X1983677Y112085D01*
X1983589Y111831D01*
X1983538Y111530D01*
X1983521Y111182D01*
X1983521Y108242D01*
X1981986Y108242D01*
X1981986Y111225D01*
X1981968Y111569D01*
X1981913Y111868D01*
X1981823Y112121D01*
X1981696Y112330D01*
X1981532Y112493D01*
X1981332Y112609D01*
X1981096Y112679D01*
X1980824Y112703D01*
X1980549Y112681D01*
X1980305Y112613D01*
X1980093Y112501D01*
X1979917Y112342D01*
X1979777Y112138D01*
X1979674Y111886D01*
X1979612Y111587D01*
X1979591Y111240D01*
X1979591Y106349D01*
G37*
G36*
X1987580Y81181D02*
X1985887Y81181D01*
X1985887Y86216D01*
X1985881Y86382D01*
X1985861Y86537D01*
X1985785Y86811D01*
X1985664Y87041D01*
X1985506Y87227D01*
X1985314Y87370D01*
X1985095Y87470D01*
X1984854Y87530D01*
X1984597Y87550D01*
X1984346Y87531D01*
X1984104Y87474D01*
X1983878Y87376D01*
X1983677Y87236D01*
X1983507Y87050D01*
X1983376Y86817D01*
X1983328Y86683D01*
X1983292Y86535D01*
X1983270Y86375D01*
X1983263Y86201D01*
X1983263Y82716D01*
X1983241Y82346D01*
X1983176Y82030D01*
X1983126Y81893D01*
X1983064Y81768D01*
X1982990Y81657D01*
X1982904Y81558D01*
X1982805Y81471D01*
X1982692Y81397D01*
X1982567Y81334D01*
X1982427Y81284D01*
X1982274Y81245D01*
X1982107Y81217D01*
X1981728Y81195D01*
X1977898Y81195D01*
X1977898Y82888D01*
X1981398Y82888D01*
X1981509Y82904D01*
X1981584Y82951D01*
X1981628Y83027D01*
X1981642Y83132D01*
X1981642Y86144D01*
X1981660Y86552D01*
X1981712Y86928D01*
X1981797Y87273D01*
X1981911Y87586D01*
X1982052Y87870D01*
X1982218Y88125D01*
X1982406Y88351D01*
X1982614Y88550D01*
X1982838Y88723D01*
X1983077Y88869D01*
X1983329Y88991D01*
X1983590Y89089D01*
X1983859Y89163D01*
X1984132Y89216D01*
X1984407Y89246D01*
X1984683Y89257D01*
X1984970Y89246D01*
X1985252Y89212D01*
X1985525Y89156D01*
X1985789Y89077D01*
X1986041Y88974D01*
X1986280Y88847D01*
X1986504Y88695D01*
X1986712Y88518D01*
X1986902Y88315D01*
X1987072Y88087D01*
X1987220Y87832D01*
X1987345Y87550D01*
X1987445Y87241D01*
X1987519Y86904D01*
X1987565Y86538D01*
X1987580Y86144D01*
X1987580Y81181D01*
G37*
G36*
X1987580Y90960D02*
X1977898Y90960D01*
X1977898Y92652D01*
X1987580Y92652D01*
X1987580Y90960D01*
G37*
G36*
X2009388Y94886D02*
X2008799Y94904D01*
X2008250Y94958D01*
X2007739Y95048D01*
X2007267Y95173D01*
X2006833Y95332D01*
X2006438Y95526D01*
X2006081Y95753D01*
X2005762Y96014D01*
X2005481Y96308D01*
X2005238Y96635D01*
X2005033Y96994D01*
X2004865Y97386D01*
X2004735Y97808D01*
X2004642Y98262D01*
X2004587Y98746D01*
X2004568Y99261D01*
X2004568Y100581D01*
X2004587Y101096D01*
X2004642Y101580D01*
X2004735Y102034D01*
X2004865Y102456D01*
X2005033Y102848D01*
X2005238Y103207D01*
X2005481Y103534D01*
X2005762Y103828D01*
X2006081Y104089D01*
X2006438Y104316D01*
X2006833Y104510D01*
X2007267Y104669D01*
X2007739Y104794D01*
X2008250Y104884D01*
X2008799Y104938D01*
X2009388Y104956D01*
X2009979Y104937D01*
X2010531Y104883D01*
X2011045Y104793D01*
X2011521Y104667D01*
X2011958Y104507D01*
X2012357Y104313D01*
X2012717Y104084D01*
X2013040Y103823D01*
X2013324Y103528D01*
X2013570Y103201D01*
X2013778Y102841D01*
X2013948Y102450D01*
X2014080Y102029D01*
X2014175Y101576D01*
X2014231Y101093D01*
X2014250Y100581D01*
X2014250Y99261D01*
X2014231Y98749D01*
X2014175Y98266D01*
X2014080Y97813D01*
X2013948Y97392D01*
X2013778Y97001D01*
X2013570Y96641D01*
X2013324Y96314D01*
X2013040Y96020D01*
X2012717Y95758D01*
X2012357Y95529D01*
X2011958Y95335D01*
X2011521Y95175D01*
X2011045Y95049D01*
X2010531Y94959D01*
X2009979Y94905D01*
X2009388Y94886D01*
G37*
%LPC*%
G36*
X2009388Y96579D02*
X2009789Y96589D01*
X2010162Y96618D01*
X2010506Y96667D01*
X2010821Y96736D01*
X2011108Y96825D01*
X2011368Y96936D01*
X2011600Y97068D01*
X2011806Y97221D01*
X2011986Y97396D01*
X2012141Y97593D01*
X2012270Y97813D01*
X2012375Y98055D01*
X2012455Y98321D01*
X2012512Y98611D01*
X2012546Y98924D01*
X2012557Y99261D01*
X2012557Y100581D01*
X2012546Y100918D01*
X2012512Y101231D01*
X2012456Y101519D01*
X2012375Y101784D01*
X2012270Y102026D01*
X2012141Y102244D01*
X2011987Y102440D01*
X2011808Y102614D01*
X2011603Y102766D01*
X2011371Y102896D01*
X2011113Y103006D01*
X2010827Y103094D01*
X2010513Y103162D01*
X2010172Y103211D01*
X2009801Y103239D01*
X2009402Y103249D01*
X2009000Y103239D01*
X2008629Y103211D01*
X2008286Y103162D01*
X2007973Y103094D01*
X2007688Y103006D01*
X2007431Y102896D01*
X2007201Y102766D01*
X2006997Y102614D01*
X2006820Y102440D01*
X2006668Y102244D01*
X2006541Y102026D01*
X2006439Y101784D01*
X2006360Y101519D01*
X2006304Y101231D01*
X2006271Y100918D01*
X2006261Y100581D01*
X2006261Y99261D01*
X2006271Y98921D01*
X2006304Y98606D01*
X2006360Y98316D01*
X2006439Y98049D01*
X2006541Y97806D01*
X2006668Y97587D01*
X2006819Y97390D01*
X2006996Y97215D01*
X2007198Y97063D01*
X2007427Y96932D01*
X2007683Y96823D01*
X2007967Y96734D01*
X2008279Y96665D01*
X2008619Y96617D01*
X2008988Y96588D01*
X2009388Y96579D01*
G37*
%LPD*%
G36*
X2006820Y106717D02*
X2005357Y106717D01*
X2005171Y106729D01*
X2005010Y106766D01*
X2004874Y106828D01*
X2004763Y106915D01*
X2004678Y107027D01*
X2004617Y107165D01*
X2004580Y107330D01*
X2004568Y107521D01*
X2004568Y115237D01*
X2006261Y115237D01*
X2006261Y108596D01*
X2006270Y108513D01*
X2006302Y108455D01*
X2006363Y108421D01*
X2006461Y108410D01*
X2006949Y108410D01*
X2007145Y108417D01*
X2007323Y108441D01*
X2007483Y108486D01*
X2007625Y108559D01*
X2007749Y108663D01*
X2007855Y108803D01*
X2007942Y108985D01*
X2008011Y109213D01*
X2008914Y113244D01*
X2008987Y113527D01*
X2009070Y113789D01*
X2009164Y114032D01*
X2009269Y114255D01*
X2009386Y114459D01*
X2009515Y114643D01*
X2009656Y114809D01*
X2009809Y114956D01*
X2009975Y115085D01*
X2010153Y115195D01*
X2010345Y115288D01*
X2010550Y115364D01*
X2010769Y115422D01*
X2011002Y115463D01*
X2011249Y115488D01*
X2011510Y115496D01*
X2011834Y115483D01*
X2012139Y115447D01*
X2012424Y115387D01*
X2012689Y115303D01*
X2012934Y115196D01*
X2013159Y115066D01*
X2013363Y114914D01*
X2013547Y114739D01*
X2013710Y114543D01*
X2013852Y114325D01*
X2013973Y114085D01*
X2014072Y113826D01*
X2014150Y113545D01*
X2014205Y113244D01*
X2014239Y112924D01*
X2014250Y112584D01*
X2014250Y107033D01*
X2012557Y107033D01*
X2012557Y112627D01*
X2012538Y112900D01*
X2012480Y113140D01*
X2012387Y113344D01*
X2012262Y113513D01*
X2012106Y113645D01*
X2011922Y113740D01*
X2011713Y113798D01*
X2011482Y113817D01*
X2011316Y113807D01*
X2011162Y113773D01*
X2011022Y113713D01*
X2010895Y113624D01*
X2010783Y113502D01*
X2010685Y113345D01*
X2010602Y113150D01*
X2010535Y112914D01*
X2009603Y108840D01*
X2009527Y108544D01*
X2009441Y108275D01*
X2009343Y108032D01*
X2009232Y107813D01*
X2009110Y107617D01*
X2008974Y107444D01*
X2008826Y107292D01*
X2008663Y107160D01*
X2008487Y107048D01*
X2008295Y106954D01*
X2008089Y106877D01*
X2007868Y106817D01*
X2007631Y106772D01*
X2007377Y106741D01*
X2007107Y106723D01*
X2006820Y106717D01*
G37*
G36*
X2009402Y70668D02*
X2008813Y70686D01*
X2008263Y70740D01*
X2007752Y70829D01*
X2007279Y70954D01*
X2006844Y71113D01*
X2006448Y71307D01*
X2006090Y71534D01*
X2005769Y71795D01*
X2005487Y72090D01*
X2005243Y72416D01*
X2005036Y72776D01*
X2004867Y73167D01*
X2004736Y73589D01*
X2004643Y74043D01*
X2004587Y74528D01*
X2004568Y75042D01*
X2004568Y76534D01*
X2004583Y76925D01*
X2004629Y77285D01*
X2004702Y77616D01*
X2004803Y77919D01*
X2004929Y78193D01*
X2005079Y78439D01*
X2005252Y78659D01*
X2005447Y78852D01*
X2005661Y79021D01*
X2005893Y79164D01*
X2006143Y79284D01*
X2006408Y79380D01*
X2006687Y79454D01*
X2006979Y79506D01*
X2007282Y79536D01*
X2007595Y79546D01*
X2007902Y79536D01*
X2008194Y79507D01*
X2008471Y79457D01*
X2008731Y79387D01*
X2008974Y79298D01*
X2009199Y79188D01*
X2009406Y79058D01*
X2009594Y78908D01*
X2009762Y78738D01*
X2009910Y78548D01*
X2010037Y78337D01*
X2010142Y78106D01*
X2010225Y77855D01*
X2010285Y77583D01*
X2010322Y77291D01*
X2010334Y76979D01*
X2010334Y74655D01*
X2008857Y74655D01*
X2008857Y76807D01*
X2008836Y77084D01*
X2008773Y77326D01*
X2008671Y77530D01*
X2008530Y77698D01*
X2008354Y77829D01*
X2008143Y77922D01*
X2007899Y77978D01*
X2007623Y77997D01*
X2007338Y77978D01*
X2007077Y77920D01*
X2006845Y77820D01*
X2006646Y77678D01*
X2006484Y77492D01*
X2006363Y77259D01*
X2006319Y77125D01*
X2006287Y76979D01*
X2006267Y76820D01*
X2006261Y76649D01*
X2006261Y75042D01*
X2006272Y74703D01*
X2006305Y74388D01*
X2006361Y74097D01*
X2006441Y73831D01*
X2006544Y73588D01*
X2006672Y73368D01*
X2006825Y73171D01*
X2007003Y72997D01*
X2007207Y72844D01*
X2007437Y72713D01*
X2007694Y72604D01*
X2007979Y72515D01*
X2008292Y72447D01*
X2008633Y72398D01*
X2009003Y72370D01*
X2009402Y72360D01*
X2009804Y72370D01*
X2010176Y72399D01*
X2010519Y72448D01*
X2010833Y72517D01*
X2011119Y72607D01*
X2011377Y72717D01*
X2011609Y72849D01*
X2011813Y73002D01*
X2011992Y73177D01*
X2012145Y73374D01*
X2012273Y73594D01*
X2012377Y73837D01*
X2012457Y74102D01*
X2012513Y74392D01*
X2012546Y74705D01*
X2012557Y75042D01*
X2012557Y79030D01*
X2014250Y79030D01*
X2014250Y75042D01*
X2014231Y74530D01*
X2014175Y74047D01*
X2014082Y73595D01*
X2013950Y73173D01*
X2013781Y72782D01*
X2013575Y72423D01*
X2013330Y72096D01*
X2013047Y71801D01*
X2012726Y71539D01*
X2012367Y71311D01*
X2011969Y71116D01*
X2011533Y70956D01*
X2011058Y70830D01*
X2010545Y70740D01*
X2009993Y70686D01*
X2009402Y70668D01*
G37*
G36*
X2014250Y81435D02*
X2012557Y81435D01*
X2012557Y86470D01*
X2012551Y86636D01*
X2012531Y86791D01*
X2012455Y87065D01*
X2012334Y87295D01*
X2012176Y87481D01*
X2011984Y87624D01*
X2011765Y87724D01*
X2011524Y87784D01*
X2011267Y87804D01*
X2011016Y87785D01*
X2010774Y87728D01*
X2010548Y87630D01*
X2010347Y87490D01*
X2010177Y87304D01*
X2010046Y87071D01*
X2009998Y86937D01*
X2009962Y86789D01*
X2009940Y86629D01*
X2009933Y86455D01*
X2009933Y82970D01*
X2009911Y82600D01*
X2009846Y82284D01*
X2009796Y82147D01*
X2009734Y82022D01*
X2009660Y81911D01*
X2009574Y81812D01*
X2009475Y81725D01*
X2009362Y81651D01*
X2009237Y81588D01*
X2009097Y81538D01*
X2008944Y81499D01*
X2008777Y81471D01*
X2008398Y81449D01*
X2004568Y81449D01*
X2004568Y83142D01*
X2008068Y83142D01*
X2008179Y83158D01*
X2008254Y83205D01*
X2008298Y83281D01*
X2008312Y83386D01*
X2008312Y86398D01*
X2008330Y86806D01*
X2008382Y87182D01*
X2008467Y87527D01*
X2008581Y87840D01*
X2008722Y88124D01*
X2008888Y88379D01*
X2009076Y88605D01*
X2009284Y88804D01*
X2009508Y88977D01*
X2009747Y89123D01*
X2009999Y89245D01*
X2010260Y89343D01*
X2010529Y89417D01*
X2010802Y89470D01*
X2011077Y89500D01*
X2011353Y89511D01*
X2011640Y89500D01*
X2011922Y89466D01*
X2012195Y89410D01*
X2012459Y89331D01*
X2012711Y89228D01*
X2012950Y89101D01*
X2013174Y88949D01*
X2013382Y88772D01*
X2013572Y88569D01*
X2013742Y88341D01*
X2013890Y88086D01*
X2014015Y87804D01*
X2014115Y87495D01*
X2014189Y87158D01*
X2014235Y86792D01*
X2014250Y86398D01*
X2014250Y81435D01*
G37*
G36*
X2014250Y91214D02*
X2004568Y91214D01*
X2004568Y92906D01*
X2014250Y92906D01*
X2014250Y91214D01*
G37*
G36*
X1920663Y54565D02*
X1918970Y54565D01*
X1918970Y59456D01*
X1918983Y59868D01*
X1919022Y60250D01*
X1919085Y60601D01*
X1919172Y60923D01*
X1919280Y61215D01*
X1919409Y61480D01*
X1919558Y61716D01*
X1919725Y61925D01*
X1919909Y62108D01*
X1920108Y62264D01*
X1920322Y62394D01*
X1920549Y62500D01*
X1920789Y62581D01*
X1921039Y62638D01*
X1921298Y62672D01*
X1921566Y62684D01*
X1921981Y62661D01*
X1922356Y62593D01*
X1922692Y62481D01*
X1922990Y62325D01*
X1923252Y62126D01*
X1923478Y61885D01*
X1923672Y61602D01*
X1923833Y61278D01*
X1923988Y61592D01*
X1924176Y61868D01*
X1924397Y62104D01*
X1924654Y62300D01*
X1924946Y62454D01*
X1925277Y62565D01*
X1925646Y62632D01*
X1926056Y62655D01*
X1926331Y62644D01*
X1926596Y62609D01*
X1926849Y62551D01*
X1927091Y62469D01*
X1927319Y62362D01*
X1927533Y62231D01*
X1927731Y62073D01*
X1927913Y61889D01*
X1928078Y61679D01*
X1928224Y61441D01*
X1928350Y61176D01*
X1928456Y60882D01*
X1928540Y60559D01*
X1928602Y60207D01*
X1928639Y59825D01*
X1928652Y59413D01*
X1928652Y54579D01*
X1926959Y54579D01*
X1926959Y59413D01*
X1926938Y59768D01*
X1926874Y60071D01*
X1926771Y60324D01*
X1926631Y60527D01*
X1926457Y60682D01*
X1926251Y60791D01*
X1926016Y60855D01*
X1925755Y60876D01*
X1925474Y60853D01*
X1925234Y60785D01*
X1925034Y60670D01*
X1924872Y60509D01*
X1924749Y60301D01*
X1924661Y60047D01*
X1924610Y59747D01*
X1924593Y59399D01*
X1924593Y56458D01*
X1923058Y56458D01*
X1923058Y59442D01*
X1923040Y59785D01*
X1922985Y60084D01*
X1922895Y60338D01*
X1922768Y60546D01*
X1922604Y60709D01*
X1922404Y60826D01*
X1922168Y60896D01*
X1921896Y60919D01*
X1921621Y60897D01*
X1921377Y60830D01*
X1921165Y60717D01*
X1920989Y60559D01*
X1920849Y60354D01*
X1920746Y60102D01*
X1920684Y59803D01*
X1920663Y59456D01*
X1920663Y54565D01*
G37*
G36*
X1920663Y33565D02*
X1918970Y33565D01*
X1918970Y38456D01*
X1918983Y38868D01*
X1919022Y39250D01*
X1919085Y39601D01*
X1919172Y39923D01*
X1919280Y40215D01*
X1919409Y40480D01*
X1919558Y40716D01*
X1919725Y40925D01*
X1919909Y41108D01*
X1920108Y41264D01*
X1920322Y41394D01*
X1920549Y41500D01*
X1920789Y41581D01*
X1921039Y41638D01*
X1921298Y41672D01*
X1921566Y41684D01*
X1921981Y41661D01*
X1922356Y41593D01*
X1922692Y41481D01*
X1922990Y41325D01*
X1923252Y41126D01*
X1923478Y40885D01*
X1923672Y40602D01*
X1923833Y40278D01*
X1923988Y40592D01*
X1924176Y40868D01*
X1924397Y41104D01*
X1924654Y41300D01*
X1924946Y41454D01*
X1925277Y41565D01*
X1925646Y41632D01*
X1926056Y41655D01*
X1926331Y41644D01*
X1926596Y41609D01*
X1926849Y41551D01*
X1927091Y41469D01*
X1927319Y41362D01*
X1927533Y41231D01*
X1927731Y41073D01*
X1927913Y40889D01*
X1928078Y40679D01*
X1928224Y40441D01*
X1928350Y40176D01*
X1928456Y39882D01*
X1928540Y39559D01*
X1928602Y39207D01*
X1928639Y38825D01*
X1928652Y38413D01*
X1928652Y33579D01*
X1926959Y33579D01*
X1926959Y38413D01*
X1926938Y38768D01*
X1926874Y39071D01*
X1926771Y39324D01*
X1926631Y39527D01*
X1926457Y39682D01*
X1926251Y39791D01*
X1926016Y39855D01*
X1925755Y39876D01*
X1925474Y39853D01*
X1925234Y39785D01*
X1925034Y39670D01*
X1924872Y39509D01*
X1924749Y39301D01*
X1924661Y39047D01*
X1924610Y38747D01*
X1924593Y38399D01*
X1924593Y35458D01*
X1923058Y35458D01*
X1923058Y38442D01*
X1923040Y38785D01*
X1922985Y39084D01*
X1922895Y39338D01*
X1922768Y39546D01*
X1922604Y39709D01*
X1922404Y39826D01*
X1922168Y39896D01*
X1921896Y39919D01*
X1921621Y39897D01*
X1921377Y39830D01*
X1921165Y39717D01*
X1920989Y39559D01*
X1920849Y39354D01*
X1920746Y39102D01*
X1920684Y38803D01*
X1920663Y38456D01*
X1920663Y33565D01*
G37*
G36*
X1928652Y42741D02*
X1920046Y45983D01*
X1919720Y46135D01*
X1919451Y46319D01*
X1919235Y46535D01*
X1919067Y46781D01*
X1918943Y47054D01*
X1918860Y47353D01*
X1918813Y47675D01*
X1918798Y48020D01*
X1918814Y48380D01*
X1918866Y48709D01*
X1918954Y49006D01*
X1919083Y49273D01*
X1919254Y49509D01*
X1919470Y49716D01*
X1919733Y49894D01*
X1920046Y50042D01*
X1928652Y53456D01*
X1928652Y51577D01*
X1920863Y48493D01*
X1920715Y48409D01*
X1920612Y48305D01*
X1920553Y48176D01*
X1920533Y48020D01*
X1920553Y47861D01*
X1920612Y47729D01*
X1920715Y47624D01*
X1920863Y47546D01*
X1928652Y44606D01*
X1928652Y42741D01*
G37*
G36*
X1985013Y507070D02*
X1981255Y507070D01*
X1981069Y507082D01*
X1980908Y507119D01*
X1980772Y507180D01*
X1980662Y507267D01*
X1980576Y507379D01*
X1980515Y507518D01*
X1980478Y507682D01*
X1980466Y507873D01*
X1980466Y511904D01*
X1980460Y512107D01*
X1980443Y512293D01*
X1980415Y512462D01*
X1980376Y512615D01*
X1980266Y512874D01*
X1980118Y513074D01*
X1979934Y513222D01*
X1979716Y513322D01*
X1979467Y513378D01*
X1979190Y513395D01*
X1978892Y513377D01*
X1978623Y513320D01*
X1978388Y513222D01*
X1978189Y513082D01*
X1978029Y512896D01*
X1977911Y512663D01*
X1977868Y512528D01*
X1977838Y512381D01*
X1977819Y512221D01*
X1977813Y512047D01*
X1977813Y507113D01*
X1976120Y507113D01*
X1976120Y511990D01*
X1976135Y512391D01*
X1976178Y512761D01*
X1976249Y513101D01*
X1976347Y513412D01*
X1976470Y513693D01*
X1976617Y513947D01*
X1976787Y514173D01*
X1976979Y514373D01*
X1977191Y514546D01*
X1977423Y514694D01*
X1977674Y514817D01*
X1977941Y514917D01*
X1978225Y514993D01*
X1978524Y515046D01*
X1978836Y515078D01*
X1979161Y515088D01*
X1979448Y515080D01*
X1979728Y515055D01*
X1979998Y515010D01*
X1980258Y514944D01*
X1980506Y514855D01*
X1980740Y514742D01*
X1980959Y514601D01*
X1981162Y514432D01*
X1981346Y514232D01*
X1981511Y514000D01*
X1981654Y513733D01*
X1981775Y513430D01*
X1981872Y513089D01*
X1981942Y512708D01*
X1981986Y512285D01*
X1982001Y511818D01*
X1982001Y508949D01*
X1982012Y508865D01*
X1982044Y508807D01*
X1982098Y508773D01*
X1982173Y508762D01*
X1983937Y508762D01*
X1984019Y508773D01*
X1984072Y508807D01*
X1984101Y508865D01*
X1984109Y508949D01*
X1984109Y514557D01*
X1985802Y514557D01*
X1985802Y507873D01*
X1985790Y507682D01*
X1985753Y507518D01*
X1985692Y507379D01*
X1985607Y507267D01*
X1985496Y507180D01*
X1985360Y507119D01*
X1985199Y507082D01*
X1985013Y507070D01*
G37*
G36*
X1985802Y516065D02*
X1977196Y519306D01*
X1976870Y519458D01*
X1976601Y519643D01*
X1976385Y519859D01*
X1976217Y520104D01*
X1976093Y520377D01*
X1976010Y520676D01*
X1975963Y520999D01*
X1975948Y521343D01*
X1975964Y521704D01*
X1976016Y522032D01*
X1976104Y522330D01*
X1976233Y522597D01*
X1976404Y522833D01*
X1976620Y523040D01*
X1976883Y523217D01*
X1977196Y523366D01*
X1985802Y526780D01*
X1985802Y524900D01*
X1978013Y521817D01*
X1977865Y521733D01*
X1977762Y521628D01*
X1977703Y521500D01*
X1977683Y521343D01*
X1977703Y521185D01*
X1977762Y521053D01*
X1977865Y520948D01*
X1978013Y520870D01*
X1985802Y517929D01*
X1985802Y516065D01*
G37*
G36*
X1952247Y478703D02*
X1944143Y478703D01*
X1943957Y478715D01*
X1943796Y478752D01*
X1943660Y478814D01*
X1943549Y478900D01*
X1943464Y479013D01*
X1943403Y479151D01*
X1943366Y479315D01*
X1943354Y479507D01*
X1943354Y483810D01*
X1943367Y484222D01*
X1943405Y484604D01*
X1943467Y484956D01*
X1943553Y485278D01*
X1943661Y485572D01*
X1943790Y485838D01*
X1943939Y486075D01*
X1944107Y486286D01*
X1944293Y486469D01*
X1944497Y486627D01*
X1944717Y486759D01*
X1944952Y486866D01*
X1945200Y486948D01*
X1945463Y487006D01*
X1945737Y487040D01*
X1946022Y487051D01*
X1946227Y487045D01*
X1946423Y487027D01*
X1946787Y486956D01*
X1947114Y486840D01*
X1947406Y486678D01*
X1947663Y486474D01*
X1947886Y486228D01*
X1948075Y485942D01*
X1948231Y485617D01*
X1948380Y485936D01*
X1948561Y486216D01*
X1948774Y486454D01*
X1949022Y486651D01*
X1949305Y486806D01*
X1949625Y486918D01*
X1949983Y486986D01*
X1950382Y487008D01*
X1950672Y486997D01*
X1950949Y486963D01*
X1951213Y486905D01*
X1951463Y486822D01*
X1951697Y486716D01*
X1951915Y486584D01*
X1952117Y486426D01*
X1952301Y486243D01*
X1952466Y486032D01*
X1952612Y485795D01*
X1952738Y485529D01*
X1952843Y485235D01*
X1952926Y484913D01*
X1952987Y484561D01*
X1953024Y484179D01*
X1953036Y483767D01*
X1953036Y479507D01*
X1953024Y479315D01*
X1952987Y479151D01*
X1952926Y479013D01*
X1952841Y478900D01*
X1952730Y478814D01*
X1952594Y478752D01*
X1952433Y478715D01*
X1952247Y478703D01*
G37*
%LPC*%
G36*
X1947542Y480367D02*
X1947542Y483853D01*
X1947522Y484201D01*
X1947462Y484503D01*
X1947363Y484760D01*
X1947225Y484970D01*
X1947049Y485133D01*
X1946834Y485250D01*
X1946583Y485321D01*
X1946294Y485344D01*
X1946014Y485322D01*
X1945764Y485255D01*
X1945548Y485141D01*
X1945368Y484980D01*
X1945224Y484772D01*
X1945119Y484515D01*
X1945054Y484209D01*
X1945032Y483853D01*
X1945032Y480554D01*
X1945041Y480476D01*
X1945068Y480417D01*
X1945117Y480380D01*
X1945190Y480367D01*
X1947542Y480367D01*
G37*
G36*
X1951200Y480367D02*
X1951275Y480380D01*
X1951329Y480417D01*
X1951361Y480476D01*
X1951372Y480554D01*
X1951372Y483824D01*
X1951349Y484184D01*
X1951282Y484491D01*
X1951173Y484745D01*
X1951026Y484950D01*
X1950843Y485106D01*
X1950628Y485216D01*
X1950382Y485280D01*
X1950110Y485301D01*
X1949833Y485278D01*
X1949596Y485209D01*
X1949396Y485094D01*
X1949233Y484932D01*
X1949108Y484723D01*
X1949019Y484466D01*
X1948966Y484162D01*
X1948948Y483810D01*
X1948948Y480367D01*
X1951200Y480367D01*
G37*
%LPD*%
G36*
X1953036Y448924D02*
X1945376Y449756D01*
X1944907Y449830D01*
X1944689Y449885D01*
X1944483Y449951D01*
X1944289Y450031D01*
X1944108Y450124D01*
X1943942Y450232D01*
X1943790Y450354D01*
X1943653Y450493D01*
X1943532Y450648D01*
X1943428Y450820D01*
X1943341Y451010D01*
X1943273Y451219D01*
X1943223Y451447D01*
X1943192Y451695D01*
X1943182Y451964D01*
X1943189Y452200D01*
X1943212Y452422D01*
X1943250Y452632D01*
X1943303Y452829D01*
X1943372Y453013D01*
X1943456Y453185D01*
X1943555Y453345D01*
X1943670Y453492D01*
X1943800Y453627D01*
X1943945Y453750D01*
X1944106Y453862D01*
X1944283Y453961D01*
X1944476Y454049D01*
X1944684Y454126D01*
X1944907Y454191D01*
X1945147Y454245D01*
X1951057Y455378D01*
X1951178Y455411D01*
X1951283Y455456D01*
X1951371Y455513D01*
X1951444Y455581D01*
X1951500Y455661D01*
X1951541Y455751D01*
X1951565Y455853D01*
X1951573Y455966D01*
X1951565Y456080D01*
X1951541Y456183D01*
X1951500Y456276D01*
X1951444Y456357D01*
X1951371Y456426D01*
X1951283Y456483D01*
X1951178Y456526D01*
X1951057Y456554D01*
X1945147Y457616D01*
X1944900Y457668D01*
X1944671Y457731D01*
X1944460Y457807D01*
X1944265Y457895D01*
X1944087Y457994D01*
X1943926Y458105D01*
X1943782Y458228D01*
X1943653Y458362D01*
X1943541Y458507D01*
X1943444Y458664D01*
X1943363Y458832D01*
X1943297Y459012D01*
X1943246Y459202D01*
X1943210Y459404D01*
X1943189Y459616D01*
X1943182Y459839D01*
X1943193Y460114D01*
X1943224Y460367D01*
X1943275Y460601D01*
X1943345Y460815D01*
X1943434Y461010D01*
X1943540Y461187D01*
X1943662Y461346D01*
X1943800Y461489D01*
X1943954Y461615D01*
X1944121Y461726D01*
X1944302Y461823D01*
X1944495Y461905D01*
X1944700Y461973D01*
X1944916Y462029D01*
X1945376Y462105D01*
X1953036Y463009D01*
X1953036Y461245D01*
X1945477Y460427D01*
X1945330Y460405D01*
X1945201Y460370D01*
X1945090Y460321D01*
X1944998Y460257D01*
X1944926Y460178D01*
X1944874Y460082D01*
X1944842Y459970D01*
X1944831Y459839D01*
X1944840Y459716D01*
X1944866Y459606D01*
X1944909Y459508D01*
X1944968Y459423D01*
X1945043Y459352D01*
X1945134Y459295D01*
X1945240Y459251D01*
X1945362Y459222D01*
X1951300Y458147D01*
X1951741Y458039D01*
X1951940Y457970D01*
X1952125Y457889D01*
X1952296Y457797D01*
X1952452Y457693D01*
X1952595Y457578D01*
X1952722Y457451D01*
X1952835Y457312D01*
X1952934Y457160D01*
X1953017Y456996D01*
X1953086Y456819D01*
X1953139Y456630D01*
X1953177Y456427D01*
X1953200Y456211D01*
X1953208Y455981D01*
X1953200Y455750D01*
X1953177Y455533D01*
X1953139Y455328D01*
X1953086Y455135D01*
X1953017Y454955D01*
X1952934Y454787D01*
X1952835Y454631D01*
X1952722Y454487D01*
X1952595Y454355D01*
X1952452Y454235D01*
X1952296Y454127D01*
X1952125Y454030D01*
X1951940Y453945D01*
X1951741Y453871D01*
X1951528Y453809D01*
X1951300Y453757D01*
X1945362Y452610D01*
X1945236Y452577D01*
X1945128Y452532D01*
X1945037Y452475D01*
X1944962Y452406D01*
X1944905Y452324D01*
X1944864Y452231D01*
X1944840Y452125D01*
X1944831Y452007D01*
X1944842Y451877D01*
X1944874Y451764D01*
X1944926Y451669D01*
X1944998Y451590D01*
X1945090Y451526D01*
X1945201Y451477D01*
X1945330Y451442D01*
X1945477Y451419D01*
X1953036Y450702D01*
X1953036Y448924D01*
G37*
G36*
X1951100Y497033D02*
X1943354Y497033D01*
X1943354Y498725D01*
X1951014Y498725D01*
X1951136Y498735D01*
X1951246Y498763D01*
X1951342Y498809D01*
X1951422Y498874D01*
X1951487Y498957D01*
X1951534Y499058D01*
X1951563Y499177D01*
X1951573Y499313D01*
X1951567Y499420D01*
X1951548Y499516D01*
X1951517Y499602D01*
X1951473Y499679D01*
X1951343Y499810D01*
X1951157Y499916D01*
X1944975Y502741D01*
X1944581Y502903D01*
X1944229Y503091D01*
X1943922Y503311D01*
X1943664Y503570D01*
X1943554Y503715D01*
X1943458Y503873D01*
X1943375Y504043D01*
X1943307Y504226D01*
X1943253Y504424D01*
X1943214Y504636D01*
X1943190Y504864D01*
X1943182Y505108D01*
X1943192Y505379D01*
X1943221Y505632D01*
X1943268Y505867D01*
X1943334Y506085D01*
X1943417Y506285D01*
X1943517Y506467D01*
X1943633Y506632D01*
X1943765Y506779D01*
X1943911Y506909D01*
X1944072Y507021D01*
X1944247Y507116D01*
X1944434Y507194D01*
X1944635Y507254D01*
X1944847Y507297D01*
X1945071Y507323D01*
X1945305Y507331D01*
X1953036Y507331D01*
X1953036Y505625D01*
X1945376Y505625D01*
X1945258Y505615D01*
X1945152Y505585D01*
X1945059Y505538D01*
X1944980Y505472D01*
X1944917Y505390D01*
X1944870Y505292D01*
X1944841Y505178D01*
X1944831Y505051D01*
X1944839Y504938D01*
X1944862Y504837D01*
X1944946Y504667D01*
X1945073Y504534D01*
X1945233Y504434D01*
X1951415Y501608D01*
X1951809Y501447D01*
X1952161Y501261D01*
X1952468Y501043D01*
X1952726Y500787D01*
X1952836Y500643D01*
X1952932Y500487D01*
X1953015Y500318D01*
X1953083Y500136D01*
X1953137Y499939D01*
X1953176Y499728D01*
X1953200Y499500D01*
X1953208Y499256D01*
X1953198Y498983D01*
X1953169Y498728D01*
X1953122Y498491D01*
X1953056Y498273D01*
X1952973Y498073D01*
X1952874Y497891D01*
X1952758Y497726D01*
X1952627Y497580D01*
X1952481Y497450D01*
X1952321Y497339D01*
X1952148Y497245D01*
X1951962Y497168D01*
X1951763Y497109D01*
X1951553Y497066D01*
X1951331Y497041D01*
X1951100Y497033D01*
G37*
G36*
X1953036Y464612D02*
X1951343Y464612D01*
X1951343Y469919D01*
X1951337Y470088D01*
X1951317Y470245D01*
X1951241Y470523D01*
X1951121Y470756D01*
X1950963Y470943D01*
X1950773Y471087D01*
X1950557Y471188D01*
X1950319Y471248D01*
X1950067Y471268D01*
X1949811Y471249D01*
X1949566Y471192D01*
X1949338Y471094D01*
X1949135Y470954D01*
X1948964Y470768D01*
X1948832Y470535D01*
X1948784Y470401D01*
X1948748Y470253D01*
X1948726Y470093D01*
X1948719Y469919D01*
X1948719Y466147D01*
X1948697Y465777D01*
X1948632Y465461D01*
X1948582Y465324D01*
X1948520Y465199D01*
X1948446Y465088D01*
X1948360Y464989D01*
X1948261Y464902D01*
X1948148Y464828D01*
X1948023Y464765D01*
X1947883Y464715D01*
X1947730Y464676D01*
X1947563Y464648D01*
X1947184Y464626D01*
X1943354Y464626D01*
X1943354Y466319D01*
X1946854Y466319D01*
X1946965Y466335D01*
X1947040Y466382D01*
X1947084Y466458D01*
X1947098Y466563D01*
X1947098Y469087D01*
X1943354Y471296D01*
X1943354Y473175D01*
X1947227Y470923D01*
X1947315Y471190D01*
X1947422Y471436D01*
X1947547Y471661D01*
X1947688Y471867D01*
X1947844Y472054D01*
X1948013Y472222D01*
X1948195Y472371D01*
X1948387Y472503D01*
X1948588Y472617D01*
X1948797Y472715D01*
X1949013Y472796D01*
X1949234Y472862D01*
X1949458Y472912D01*
X1949685Y472947D01*
X1949912Y472968D01*
X1950139Y472974D01*
X1950426Y472963D01*
X1950708Y472930D01*
X1950981Y472874D01*
X1951245Y472795D01*
X1951497Y472692D01*
X1951736Y472564D01*
X1951960Y472413D01*
X1952168Y472236D01*
X1952358Y472033D01*
X1952528Y471805D01*
X1952676Y471550D01*
X1952801Y471268D01*
X1952901Y470959D01*
X1952975Y470622D01*
X1953021Y470256D01*
X1953036Y469862D01*
X1953036Y464612D01*
G37*
G36*
X1953036Y440018D02*
X1951343Y440018D01*
X1951343Y445053D01*
X1951337Y445219D01*
X1951317Y445374D01*
X1951241Y445649D01*
X1951120Y445878D01*
X1950962Y446064D01*
X1950770Y446207D01*
X1950551Y446308D01*
X1950310Y446367D01*
X1950053Y446387D01*
X1949802Y446368D01*
X1949560Y446311D01*
X1949334Y446214D01*
X1949133Y446073D01*
X1948963Y445888D01*
X1948832Y445655D01*
X1948784Y445520D01*
X1948748Y445372D01*
X1948726Y445212D01*
X1948719Y445039D01*
X1948719Y441553D01*
X1948697Y441183D01*
X1948632Y440868D01*
X1948582Y440730D01*
X1948520Y440606D01*
X1948446Y440494D01*
X1948360Y440395D01*
X1948261Y440308D01*
X1948148Y440234D01*
X1948023Y440172D01*
X1947883Y440121D01*
X1947730Y440082D01*
X1947563Y440054D01*
X1947184Y440033D01*
X1943354Y440033D01*
X1943354Y441725D01*
X1946854Y441725D01*
X1946965Y441741D01*
X1947040Y441788D01*
X1947084Y441864D01*
X1947098Y441969D01*
X1947098Y444981D01*
X1947116Y445390D01*
X1947168Y445766D01*
X1947253Y446110D01*
X1947367Y446424D01*
X1947508Y446707D01*
X1947674Y446962D01*
X1947862Y447188D01*
X1948070Y447387D01*
X1948294Y447560D01*
X1948533Y447707D01*
X1948785Y447828D01*
X1949046Y447926D01*
X1949315Y448001D01*
X1949588Y448053D01*
X1949863Y448084D01*
X1950139Y448094D01*
X1950426Y448083D01*
X1950708Y448050D01*
X1950981Y447993D01*
X1951245Y447914D01*
X1951497Y447811D01*
X1951736Y447684D01*
X1951960Y447532D01*
X1952168Y447355D01*
X1952358Y447153D01*
X1952528Y446924D01*
X1952676Y446669D01*
X1952801Y446387D01*
X1952901Y446078D01*
X1952975Y445741D01*
X1953021Y445376D01*
X1953036Y444981D01*
X1953036Y440018D01*
G37*
G36*
X1953036Y488256D02*
X1951343Y488256D01*
X1951343Y491081D01*
X1943354Y491081D01*
X1943354Y492788D01*
X1951343Y492788D01*
X1951343Y495614D01*
X1953036Y495614D01*
X1953036Y488256D01*
G37*
G36*
X2033781Y506816D02*
X2030023Y506816D01*
X2029837Y506828D01*
X2029676Y506865D01*
X2029540Y506926D01*
X2029430Y507013D01*
X2029344Y507125D01*
X2029283Y507264D01*
X2029246Y507428D01*
X2029234Y507619D01*
X2029234Y511650D01*
X2029228Y511853D01*
X2029211Y512039D01*
X2029183Y512208D01*
X2029144Y512361D01*
X2029034Y512620D01*
X2028886Y512820D01*
X2028702Y512968D01*
X2028484Y513068D01*
X2028235Y513124D01*
X2027958Y513141D01*
X2027660Y513123D01*
X2027391Y513066D01*
X2027156Y512968D01*
X2026957Y512828D01*
X2026797Y512642D01*
X2026679Y512409D01*
X2026636Y512274D01*
X2026606Y512127D01*
X2026587Y511967D01*
X2026581Y511793D01*
X2026581Y506859D01*
X2024888Y506859D01*
X2024888Y511736D01*
X2024903Y512137D01*
X2024946Y512507D01*
X2025017Y512847D01*
X2025115Y513158D01*
X2025238Y513439D01*
X2025385Y513693D01*
X2025555Y513919D01*
X2025747Y514119D01*
X2025959Y514292D01*
X2026191Y514440D01*
X2026442Y514563D01*
X2026709Y514663D01*
X2026993Y514739D01*
X2027292Y514792D01*
X2027604Y514824D01*
X2027929Y514834D01*
X2028216Y514826D01*
X2028496Y514801D01*
X2028766Y514756D01*
X2029026Y514690D01*
X2029274Y514601D01*
X2029508Y514488D01*
X2029727Y514347D01*
X2029930Y514178D01*
X2030114Y513978D01*
X2030279Y513746D01*
X2030422Y513479D01*
X2030543Y513176D01*
X2030640Y512835D01*
X2030710Y512454D01*
X2030754Y512031D01*
X2030769Y511564D01*
X2030769Y508695D01*
X2030780Y508611D01*
X2030812Y508553D01*
X2030866Y508519D01*
X2030941Y508508D01*
X2032705Y508508D01*
X2032787Y508519D01*
X2032840Y508553D01*
X2032869Y508611D01*
X2032877Y508695D01*
X2032877Y514303D01*
X2034570Y514303D01*
X2034570Y507619D01*
X2034558Y507428D01*
X2034521Y507264D01*
X2034460Y507125D01*
X2034375Y507013D01*
X2034264Y506926D01*
X2034128Y506865D01*
X2033967Y506828D01*
X2033781Y506816D01*
G37*
G36*
X2034570Y515811D02*
X2025964Y519052D01*
X2025638Y519204D01*
X2025369Y519389D01*
X2025153Y519605D01*
X2024985Y519850D01*
X2024861Y520123D01*
X2024778Y520422D01*
X2024731Y520745D01*
X2024716Y521089D01*
X2024732Y521450D01*
X2024784Y521778D01*
X2024872Y522076D01*
X2025001Y522343D01*
X2025172Y522579D01*
X2025388Y522786D01*
X2025651Y522963D01*
X2025964Y523112D01*
X2034570Y526526D01*
X2034570Y524646D01*
X2026781Y521563D01*
X2026633Y521479D01*
X2026530Y521374D01*
X2026471Y521246D01*
X2026451Y521089D01*
X2026471Y520931D01*
X2026530Y520799D01*
X2026633Y520694D01*
X2026781Y520616D01*
X2034570Y517675D01*
X2034570Y515811D01*
G37*
G36*
X1924008Y150368D02*
X1920594Y150368D01*
X1920077Y150387D01*
X1919591Y150442D01*
X1919137Y150535D01*
X1918715Y150665D01*
X1918324Y150833D01*
X1917966Y151039D01*
X1917641Y151282D01*
X1917349Y151564D01*
X1917090Y151884D01*
X1916864Y152242D01*
X1916673Y152638D01*
X1916515Y153073D01*
X1916393Y153547D01*
X1916304Y154059D01*
X1916251Y154611D01*
X1916233Y155202D01*
X1916251Y155795D01*
X1916305Y156349D01*
X1916394Y156864D01*
X1916517Y157339D01*
X1916676Y157775D01*
X1916868Y158173D01*
X1917094Y158532D01*
X1917354Y158852D01*
X1917647Y159134D01*
X1917973Y159378D01*
X1918331Y159584D01*
X1918721Y159752D01*
X1919142Y159883D01*
X1919595Y159976D01*
X1920079Y160032D01*
X1920594Y160050D01*
X1924008Y160050D01*
X1924199Y160038D01*
X1924363Y160001D01*
X1924501Y159940D01*
X1924614Y159855D01*
X1924701Y159744D01*
X1924762Y159608D01*
X1924799Y159447D01*
X1924811Y159261D01*
X1924811Y151157D01*
X1924799Y150971D01*
X1924762Y150810D01*
X1924701Y150674D01*
X1924614Y150563D01*
X1924501Y150478D01*
X1924363Y150417D01*
X1924199Y150380D01*
X1924008Y150368D01*
G37*
%LPC*%
G36*
X1922932Y152061D02*
X1923016Y152069D01*
X1923074Y152098D01*
X1923108Y152151D01*
X1923118Y152233D01*
X1923118Y158185D01*
X1923108Y158267D01*
X1923074Y158320D01*
X1923016Y158349D01*
X1922932Y158357D01*
X1920594Y158357D01*
X1920254Y158346D01*
X1919940Y158313D01*
X1919650Y158257D01*
X1919384Y158177D01*
X1919143Y158074D01*
X1918924Y157946D01*
X1918729Y157793D01*
X1918555Y157615D01*
X1918404Y157411D01*
X1918275Y157181D01*
X1918166Y156924D01*
X1918079Y156639D01*
X1918011Y156326D01*
X1917964Y155985D01*
X1917935Y155615D01*
X1917926Y155216D01*
X1917935Y154814D01*
X1917964Y154442D01*
X1918011Y154099D01*
X1918079Y153785D01*
X1918166Y153499D01*
X1918275Y153241D01*
X1918404Y153009D01*
X1918555Y152805D01*
X1918729Y152626D01*
X1918924Y152473D01*
X1919143Y152345D01*
X1919384Y152241D01*
X1919650Y152161D01*
X1919940Y152105D01*
X1920254Y152072D01*
X1920594Y152061D01*
X1922932Y152061D01*
G37*
%LPD*%
G36*
X1929375Y150196D02*
X1929104Y150206D01*
X1928851Y150235D01*
X1928616Y150282D01*
X1928398Y150348D01*
X1928198Y150431D01*
X1928016Y150531D01*
X1927851Y150647D01*
X1927704Y150779D01*
X1927574Y150925D01*
X1927462Y151086D01*
X1927367Y151261D01*
X1927289Y151448D01*
X1927229Y151649D01*
X1927186Y151861D01*
X1927160Y152085D01*
X1927152Y152319D01*
X1927152Y160050D01*
X1928858Y160050D01*
X1928858Y152390D01*
X1928868Y152272D01*
X1928898Y152166D01*
X1928945Y152073D01*
X1929011Y151994D01*
X1929093Y151931D01*
X1929191Y151884D01*
X1929305Y151855D01*
X1929432Y151845D01*
X1929545Y151853D01*
X1929646Y151876D01*
X1929816Y151960D01*
X1929949Y152087D01*
X1930049Y152247D01*
X1932875Y158429D01*
X1933036Y158823D01*
X1933222Y159175D01*
X1933440Y159482D01*
X1933696Y159740D01*
X1933840Y159850D01*
X1933996Y159946D01*
X1934165Y160029D01*
X1934347Y160097D01*
X1934544Y160151D01*
X1934755Y160190D01*
X1934983Y160214D01*
X1935227Y160222D01*
X1935500Y160212D01*
X1935755Y160183D01*
X1935992Y160136D01*
X1936210Y160070D01*
X1936410Y159987D01*
X1936592Y159888D01*
X1936757Y159772D01*
X1936904Y159641D01*
X1937033Y159495D01*
X1937144Y159335D01*
X1937238Y159162D01*
X1937315Y158976D01*
X1937374Y158777D01*
X1937417Y158567D01*
X1937442Y158345D01*
X1937450Y158114D01*
X1937450Y150368D01*
X1935758Y150368D01*
X1935758Y158028D01*
X1935748Y158150D01*
X1935720Y158260D01*
X1935674Y158356D01*
X1935609Y158436D01*
X1935526Y158501D01*
X1935425Y158548D01*
X1935306Y158577D01*
X1935170Y158587D01*
X1935063Y158581D01*
X1934967Y158562D01*
X1934881Y158531D01*
X1934804Y158487D01*
X1934674Y158357D01*
X1934567Y158171D01*
X1931742Y151989D01*
X1931580Y151595D01*
X1931392Y151243D01*
X1931172Y150936D01*
X1930913Y150678D01*
X1930768Y150568D01*
X1930610Y150472D01*
X1930440Y150389D01*
X1930257Y150321D01*
X1930060Y150267D01*
X1929847Y150228D01*
X1929619Y150204D01*
X1929375Y150196D01*
G37*
G36*
X179508Y275207D02*
X175400Y275207D01*
X174821Y275227D01*
X174286Y275287D01*
X173794Y275385D01*
X173345Y275519D01*
X172937Y275688D01*
X172570Y275890D01*
X172243Y276124D01*
X171954Y276388D01*
X171703Y276680D01*
X171488Y276999D01*
X171309Y277344D01*
X171165Y277711D01*
X171054Y278101D01*
X170977Y278511D01*
X170931Y278940D01*
X170916Y279386D01*
X170916Y287314D01*
X173050Y287314D01*
X173050Y279404D01*
X173057Y279188D01*
X173079Y278980D01*
X173116Y278779D01*
X173170Y278587D01*
X173241Y278405D01*
X173332Y278233D01*
X173443Y278073D01*
X173575Y277926D01*
X173729Y277793D01*
X173907Y277674D01*
X174109Y277571D01*
X174337Y277484D01*
X174591Y277415D01*
X174873Y277365D01*
X175184Y277334D01*
X175526Y277323D01*
X179508Y277323D01*
X179508Y275207D01*
G37*
G36*
X161357Y275207D02*
X158703Y275207D01*
X153501Y282274D01*
X153257Y282629D01*
X153049Y282970D01*
X152876Y283298D01*
X152736Y283617D01*
X152630Y283928D01*
X152555Y284234D01*
X152511Y284537D01*
X152496Y284839D01*
X152504Y285062D01*
X152529Y285285D01*
X152573Y285507D01*
X152635Y285725D01*
X152719Y285938D01*
X152826Y286142D01*
X152956Y286337D01*
X153111Y286521D01*
X153292Y286690D01*
X153502Y286843D01*
X153741Y286979D01*
X154010Y287094D01*
X154311Y287187D01*
X154646Y287257D01*
X155015Y287300D01*
X155420Y287314D01*
X163008Y287314D01*
X163008Y285198D01*
X155671Y285198D01*
X155444Y285181D01*
X155257Y285133D01*
X155107Y285059D01*
X154992Y284962D01*
X154908Y284848D01*
X154852Y284721D01*
X154820Y284585D01*
X154810Y284444D01*
X154828Y284255D01*
X154882Y284063D01*
X154977Y283864D01*
X155115Y283655D01*
X161357Y275207D01*
G37*
G36*
X97524Y524679D02*
X95407Y524679D01*
X95407Y533899D01*
X95415Y534277D01*
X95438Y534626D01*
X95478Y534945D01*
X95537Y535235D01*
X95616Y535499D01*
X95717Y535735D01*
X95840Y535945D01*
X95988Y536130D01*
X96162Y536290D01*
X96363Y536426D01*
X96593Y536540D01*
X96853Y536631D01*
X97144Y536700D01*
X97469Y536749D01*
X97828Y536777D01*
X98224Y536787D01*
X99497Y536787D01*
X99497Y534670D01*
X98403Y534670D01*
X98180Y534657D01*
X97993Y534618D01*
X97841Y534551D01*
X97721Y534455D01*
X97632Y534329D01*
X97571Y534171D01*
X97535Y533980D01*
X97524Y533755D01*
X97524Y524679D01*
G37*
G36*
X109935Y524679D02*
X105827Y524679D01*
X105248Y524699D01*
X104712Y524759D01*
X104221Y524857D01*
X103772Y524992D01*
X103364Y525161D01*
X102997Y525363D01*
X102670Y525597D01*
X102381Y525861D01*
X102130Y526153D01*
X101915Y526472D01*
X101736Y526816D01*
X101592Y527184D01*
X101481Y527574D01*
X101404Y527984D01*
X101358Y528412D01*
X101343Y528858D01*
X101343Y536787D01*
X103477Y536787D01*
X103477Y528876D01*
X103484Y528661D01*
X103506Y528452D01*
X103543Y528251D01*
X103597Y528059D01*
X103668Y527877D01*
X103759Y527706D01*
X103870Y527546D01*
X104002Y527399D01*
X104156Y527265D01*
X104334Y527147D01*
X104536Y527043D01*
X104764Y526957D01*
X105018Y526888D01*
X105300Y526837D01*
X105611Y526806D01*
X105953Y526796D01*
X109935Y526796D01*
X109935Y524679D01*
G37*
G36*
X88932Y524679D02*
X85973Y524679D01*
X85457Y524695D01*
X84980Y524743D01*
X84540Y524821D01*
X84136Y524928D01*
X83769Y525063D01*
X83437Y525224D01*
X83139Y525410D01*
X82876Y525621D01*
X82646Y525854D01*
X82450Y526108D01*
X82285Y526383D01*
X82151Y526677D01*
X82049Y526988D01*
X81976Y527316D01*
X81933Y527659D01*
X81919Y528015D01*
X81926Y528272D01*
X81949Y528516D01*
X81986Y528748D01*
X82037Y528969D01*
X82103Y529178D01*
X82183Y529376D01*
X82276Y529562D01*
X82383Y529737D01*
X82503Y529902D01*
X82636Y530055D01*
X82940Y530331D01*
X83294Y530565D01*
X83695Y530760D01*
X83301Y530948D01*
X82956Y531178D01*
X82661Y531450D01*
X82532Y531602D01*
X82417Y531764D01*
X82314Y531938D01*
X82224Y532123D01*
X82148Y532318D01*
X82085Y532526D01*
X82036Y532744D01*
X82001Y532974D01*
X81980Y533215D01*
X81973Y533468D01*
X81987Y533831D01*
X82030Y534177D01*
X82102Y534507D01*
X82205Y534819D01*
X82338Y535112D01*
X82503Y535385D01*
X82700Y535638D01*
X82930Y535868D01*
X83193Y536074D01*
X83491Y536257D01*
X83823Y536415D01*
X84190Y536546D01*
X84593Y536650D01*
X85033Y536725D01*
X85511Y536771D01*
X86027Y536787D01*
X88879Y536787D01*
X89394Y536771D01*
X89872Y536725D01*
X90312Y536650D01*
X90715Y536546D01*
X91083Y536415D01*
X91415Y536257D01*
X91712Y536074D01*
X91975Y535868D01*
X92205Y535638D01*
X92402Y535385D01*
X92567Y535112D01*
X92700Y534819D01*
X92803Y534507D01*
X92875Y534177D01*
X92918Y533831D01*
X92932Y533468D01*
X92925Y533215D01*
X92904Y532974D01*
X92869Y532744D01*
X92820Y532526D01*
X92757Y532318D01*
X92681Y532123D01*
X92591Y531938D01*
X92489Y531764D01*
X92373Y531602D01*
X92244Y531450D01*
X91949Y531178D01*
X91604Y530948D01*
X91210Y530760D01*
X91610Y530565D01*
X91962Y530331D01*
X92263Y530055D01*
X92395Y529902D01*
X92513Y529737D01*
X92618Y529562D01*
X92710Y529376D01*
X92788Y529178D01*
X92853Y528969D01*
X92903Y528748D01*
X92939Y528516D01*
X92961Y528272D01*
X92968Y528015D01*
X92954Y527659D01*
X92912Y527316D01*
X92840Y526988D01*
X92739Y526677D01*
X92607Y526383D01*
X92443Y526108D01*
X92248Y525854D01*
X92020Y525621D01*
X91758Y525410D01*
X91463Y525224D01*
X91132Y525063D01*
X90766Y524928D01*
X90364Y524821D01*
X89925Y524743D01*
X89448Y524695D01*
X88932Y524679D01*
G37*
%LPC*%
G36*
X88986Y526778D02*
X89214Y526784D01*
X89427Y526804D01*
X89625Y526837D01*
X89807Y526883D01*
X89975Y526941D01*
X90128Y527011D01*
X90266Y527094D01*
X90390Y527188D01*
X90499Y527294D01*
X90593Y527411D01*
X90672Y527539D01*
X90737Y527678D01*
X90787Y527828D01*
X90823Y527988D01*
X90845Y528158D01*
X90852Y528338D01*
X90844Y528518D01*
X90822Y528686D01*
X90784Y528844D01*
X90732Y528990D01*
X90665Y529125D01*
X90583Y529249D01*
X90487Y529361D01*
X90376Y529462D01*
X90252Y529551D01*
X90112Y529628D01*
X89959Y529694D01*
X89792Y529748D01*
X89611Y529790D01*
X89417Y529821D01*
X89208Y529839D01*
X88986Y529845D01*
X85919Y529845D01*
X85694Y529839D01*
X85483Y529821D01*
X85287Y529790D01*
X85105Y529748D01*
X84938Y529694D01*
X84785Y529628D01*
X84646Y529551D01*
X84522Y529462D01*
X84412Y529361D01*
X84317Y529249D01*
X84237Y529125D01*
X84171Y528990D01*
X84120Y528844D01*
X84083Y528686D01*
X84061Y528518D01*
X84053Y528338D01*
X84060Y528158D01*
X84081Y527988D01*
X84116Y527828D01*
X84166Y527678D01*
X84230Y527539D01*
X84308Y527411D01*
X84401Y527294D01*
X84509Y527188D01*
X84631Y527094D01*
X84769Y527011D01*
X84922Y526941D01*
X85090Y526883D01*
X85274Y526837D01*
X85473Y526804D01*
X85688Y526784D01*
X85919Y526778D01*
X88986Y526778D01*
G37*
G36*
X88914Y531675D02*
X88934Y531676D01*
X89356Y531697D01*
X89555Y531724D01*
X89738Y531763D01*
X89908Y531813D01*
X90062Y531875D01*
X90202Y531948D01*
X90327Y532033D01*
X90437Y532130D01*
X90533Y532239D01*
X90614Y532359D01*
X90680Y532492D01*
X90732Y532637D01*
X90768Y532794D01*
X90791Y532963D01*
X90798Y533146D01*
X90791Y533317D01*
X90771Y533480D01*
X90736Y533636D01*
X90688Y533783D01*
X90625Y533921D01*
X90548Y534049D01*
X90456Y534168D01*
X90349Y534276D01*
X90228Y534373D01*
X90090Y534458D01*
X89937Y534532D01*
X89769Y534593D01*
X89584Y534642D01*
X89383Y534677D01*
X89166Y534699D01*
X88932Y534706D01*
X85955Y534706D01*
X85721Y534699D01*
X85505Y534677D01*
X85305Y534642D01*
X85121Y534593D01*
X84954Y534532D01*
X84803Y534458D01*
X84667Y534373D01*
X84547Y534276D01*
X84442Y534168D01*
X84351Y534049D01*
X84276Y533921D01*
X84214Y533783D01*
X84167Y533636D01*
X84134Y533480D01*
X84114Y533317D01*
X84107Y533146D01*
X84114Y532963D01*
X84136Y532794D01*
X84172Y532637D01*
X84222Y532492D01*
X84287Y532359D01*
X84366Y532239D01*
X84460Y532130D01*
X84569Y532033D01*
X84693Y531948D01*
X84831Y531875D01*
X84984Y531813D01*
X85152Y531763D01*
X85334Y531724D01*
X85532Y531697D01*
X85973Y531675D01*
X88914Y531675D01*
G37*
%LPD*%
G36*
X403425Y533832D02*
X401309Y533832D01*
X401309Y543052D01*
X401316Y543430D01*
X401339Y543779D01*
X401379Y544098D01*
X401438Y544388D01*
X401517Y544652D01*
X401618Y544888D01*
X401741Y545098D01*
X401889Y545283D01*
X402063Y545443D01*
X402264Y545579D01*
X402494Y545693D01*
X402754Y545784D01*
X403046Y545853D01*
X403370Y545902D01*
X403730Y545930D01*
X404125Y545940D01*
X405398Y545940D01*
X405398Y543823D01*
X404304Y543823D01*
X404081Y543810D01*
X403894Y543771D01*
X403742Y543704D01*
X403623Y543608D01*
X403533Y543482D01*
X403472Y543324D01*
X403436Y543133D01*
X403425Y542908D01*
X403425Y533832D01*
G37*
G36*
X415836Y533832D02*
X411728Y533832D01*
X411149Y533852D01*
X410614Y533912D01*
X410122Y534010D01*
X409673Y534145D01*
X409265Y534314D01*
X408898Y534516D01*
X408571Y534750D01*
X408282Y535014D01*
X408031Y535306D01*
X407816Y535625D01*
X407637Y535969D01*
X407493Y536337D01*
X407382Y536727D01*
X407305Y537137D01*
X407259Y537565D01*
X407244Y538011D01*
X407244Y545940D01*
X409378Y545940D01*
X409378Y538029D01*
X409385Y537814D01*
X409407Y537605D01*
X409444Y537404D01*
X409498Y537212D01*
X409569Y537030D01*
X409660Y536859D01*
X409771Y536699D01*
X409903Y536552D01*
X410057Y536418D01*
X410235Y536300D01*
X410437Y536196D01*
X410665Y536110D01*
X410919Y536041D01*
X411201Y535990D01*
X411513Y535959D01*
X411854Y535949D01*
X415836Y535949D01*
X415836Y533832D01*
G37*
G36*
X393847Y533832D02*
X391784Y533832D01*
X391298Y533851D01*
X390850Y533909D01*
X390437Y534002D01*
X390060Y534129D01*
X389718Y534289D01*
X389410Y534480D01*
X389135Y534700D01*
X388892Y534946D01*
X388680Y535219D01*
X388500Y535515D01*
X388349Y535832D01*
X388227Y536170D01*
X388134Y536527D01*
X388069Y536900D01*
X388030Y537288D01*
X388017Y537689D01*
X388030Y538092D01*
X388069Y538468D01*
X388135Y538817D01*
X388227Y539140D01*
X388347Y539435D01*
X388494Y539705D01*
X388670Y539947D01*
X388874Y540164D01*
X389107Y540354D01*
X389370Y540519D01*
X389662Y540658D01*
X389985Y540771D01*
X390338Y540859D01*
X390723Y540921D01*
X391139Y540959D01*
X391587Y540971D01*
X396663Y540971D01*
X396607Y541331D01*
X396532Y541665D01*
X396437Y541974D01*
X396324Y542257D01*
X396191Y542515D01*
X396038Y542749D01*
X395865Y542958D01*
X395672Y543144D01*
X395458Y543306D01*
X395224Y543446D01*
X394968Y543563D01*
X394691Y543658D01*
X394392Y543731D01*
X394071Y543782D01*
X393728Y543813D01*
X393363Y543823D01*
X388717Y543823D01*
X388717Y545940D01*
X393363Y545940D01*
X394003Y545916D01*
X394607Y545846D01*
X395173Y545729D01*
X395701Y545565D01*
X396189Y545354D01*
X396639Y545095D01*
X397048Y544789D01*
X397417Y544435D01*
X397744Y544034D01*
X398030Y543585D01*
X398273Y543087D01*
X398473Y542542D01*
X398630Y541948D01*
X398743Y541307D01*
X398811Y540616D01*
X398834Y539877D01*
X398811Y539141D01*
X398744Y538453D01*
X398635Y537814D01*
X398483Y537222D01*
X398291Y536679D01*
X398060Y536183D01*
X397790Y535735D01*
X397484Y535334D01*
X397142Y534981D01*
X396765Y534676D01*
X396355Y534418D01*
X395913Y534206D01*
X395440Y534042D01*
X394937Y533925D01*
X394405Y533855D01*
X393847Y533832D01*
G37*
%LPC*%
G36*
X393560Y535949D02*
X393922Y535960D01*
X394261Y535996D01*
X394577Y536055D01*
X394870Y536139D01*
X395141Y536249D01*
X395390Y536384D01*
X395617Y536545D01*
X395822Y536733D01*
X396006Y536949D01*
X396168Y537192D01*
X396308Y537464D01*
X396428Y537765D01*
X396527Y538095D01*
X396605Y538455D01*
X396662Y538846D01*
X396699Y539267D01*
X391802Y539267D01*
X391415Y539244D01*
X391239Y539215D01*
X391074Y539175D01*
X390922Y539122D01*
X390782Y539057D01*
X390655Y538980D01*
X390540Y538890D01*
X390438Y538788D01*
X390349Y538673D01*
X390273Y538545D01*
X390210Y538404D01*
X390162Y538250D01*
X390126Y538083D01*
X390105Y537901D01*
X390098Y537707D01*
X390105Y537515D01*
X390125Y537332D01*
X390159Y537158D01*
X390206Y536993D01*
X390268Y536838D01*
X390343Y536693D01*
X390432Y536559D01*
X390535Y536437D01*
X390652Y536328D01*
X390784Y536231D01*
X390929Y536147D01*
X391089Y536077D01*
X391264Y536022D01*
X391452Y535981D01*
X391656Y535957D01*
X391874Y535949D01*
X393560Y535949D01*
G37*
%LPD*%
G36*
X2802913Y374950D02*
X2800796Y374950D01*
X2800796Y384170D01*
X2800804Y384548D01*
X2800827Y384897D01*
X2800867Y385216D01*
X2800926Y385506D01*
X2801005Y385770D01*
X2801106Y386006D01*
X2801229Y386216D01*
X2801377Y386401D01*
X2801551Y386561D01*
X2801752Y386697D01*
X2801982Y386811D01*
X2802242Y386902D01*
X2802533Y386971D01*
X2802858Y387020D01*
X2803217Y387048D01*
X2803613Y387058D01*
X2804886Y387058D01*
X2804886Y384941D01*
X2803792Y384941D01*
X2803569Y384928D01*
X2803382Y384889D01*
X2803230Y384822D01*
X2803110Y384726D01*
X2803021Y384600D01*
X2802959Y384442D01*
X2802924Y384251D01*
X2802913Y384026D01*
X2802913Y374950D01*
G37*
G36*
X2828480Y374950D02*
X2824372Y374950D01*
X2823793Y374970D01*
X2823258Y375030D01*
X2822766Y375128D01*
X2822317Y375263D01*
X2821909Y375432D01*
X2821542Y375634D01*
X2821215Y375868D01*
X2820926Y376132D01*
X2820675Y376424D01*
X2820460Y376743D01*
X2820281Y377087D01*
X2820137Y377455D01*
X2820026Y377845D01*
X2819949Y378255D01*
X2819903Y378683D01*
X2819888Y379129D01*
X2819888Y387058D01*
X2822022Y387058D01*
X2822022Y379147D01*
X2822029Y378932D01*
X2822051Y378723D01*
X2822088Y378522D01*
X2822142Y378330D01*
X2822213Y378148D01*
X2822304Y377977D01*
X2822415Y377817D01*
X2822547Y377670D01*
X2822701Y377536D01*
X2822879Y377418D01*
X2823081Y377314D01*
X2823309Y377228D01*
X2823563Y377159D01*
X2823845Y377108D01*
X2824157Y377077D01*
X2824498Y377067D01*
X2828480Y377067D01*
X2828480Y374950D01*
G37*
G36*
X551926Y287121D02*
X551599Y287127D01*
X551282Y287146D01*
X550975Y287178D01*
X550676Y287222D01*
X550388Y287279D01*
X550109Y287348D01*
X549580Y287523D01*
X549091Y287748D01*
X548642Y288021D01*
X548233Y288343D01*
X547865Y288713D01*
X547539Y289130D01*
X547254Y289594D01*
X547012Y290105D01*
X546813Y290662D01*
X546657Y291265D01*
X546545Y291914D01*
X546478Y292607D01*
X546455Y293345D01*
X546478Y294086D01*
X546546Y294782D01*
X546659Y295433D01*
X546816Y296038D01*
X547016Y296597D01*
X547259Y297109D01*
X547545Y297575D01*
X547872Y297993D01*
X548241Y298363D01*
X548650Y298686D01*
X549099Y298960D01*
X549588Y299184D01*
X550116Y299360D01*
X550394Y299429D01*
X550682Y299486D01*
X550979Y299530D01*
X551285Y299562D01*
X551601Y299581D01*
X551926Y299587D01*
X552251Y299581D01*
X552567Y299562D01*
X552873Y299530D01*
X553171Y299486D01*
X553458Y299429D01*
X553736Y299360D01*
X554264Y299184D01*
X554753Y298960D01*
X555202Y298686D01*
X555611Y298363D01*
X555980Y297993D01*
X556307Y297575D01*
X556593Y297109D01*
X556836Y296597D01*
X557037Y296038D01*
X557193Y295433D01*
X557306Y294782D01*
X557374Y294086D01*
X557397Y293345D01*
X557374Y292607D01*
X557307Y291914D01*
X557195Y291265D01*
X557039Y290662D01*
X556840Y290105D01*
X556598Y289594D01*
X556313Y289130D01*
X555987Y288713D01*
X555619Y288343D01*
X555210Y288021D01*
X554761Y287748D01*
X554272Y287523D01*
X553743Y287348D01*
X553464Y287279D01*
X553176Y287222D01*
X552878Y287178D01*
X552570Y287146D01*
X552253Y287127D01*
X551926Y287121D01*
G37*
%LPC*%
G36*
X551926Y289237D02*
X552354Y289253D01*
X552752Y289300D01*
X553118Y289380D01*
X553455Y289491D01*
X553762Y289634D01*
X554039Y289810D01*
X554288Y290017D01*
X554509Y290257D01*
X554702Y290530D01*
X554868Y290836D01*
X555007Y291174D01*
X555119Y291545D01*
X555206Y291950D01*
X555268Y292387D01*
X555304Y292858D01*
X555316Y293363D01*
X555304Y293864D01*
X555268Y294332D01*
X555206Y294768D01*
X555119Y295170D01*
X555007Y295540D01*
X554868Y295877D01*
X554702Y296181D01*
X554509Y296453D01*
X554288Y296692D01*
X554039Y296899D01*
X553762Y297074D01*
X553455Y297217D01*
X553118Y297328D01*
X552752Y297407D01*
X552354Y297455D01*
X551926Y297471D01*
X551501Y297455D01*
X551107Y297407D01*
X550742Y297328D01*
X550408Y297217D01*
X550103Y297074D01*
X549826Y296899D01*
X549579Y296692D01*
X549359Y296453D01*
X549166Y296181D01*
X549001Y295877D01*
X548863Y295540D01*
X548750Y295170D01*
X548664Y294768D01*
X548602Y294332D01*
X548566Y293864D01*
X548554Y293363D01*
X548566Y292858D01*
X548602Y292387D01*
X548662Y291950D01*
X548748Y291545D01*
X548859Y291174D01*
X548997Y290836D01*
X549161Y290530D01*
X549352Y290257D01*
X549571Y290017D01*
X549819Y289810D01*
X550095Y289634D01*
X550400Y289491D01*
X550736Y289380D01*
X551101Y289300D01*
X551498Y289253D01*
X551926Y289237D01*
G37*
%LPD*%
G36*
X574399Y287300D02*
X570292Y287300D01*
X569712Y287320D01*
X569177Y287380D01*
X568685Y287478D01*
X568236Y287613D01*
X567829Y287782D01*
X567462Y287984D01*
X567134Y288218D01*
X566845Y288482D01*
X566594Y288774D01*
X566379Y289093D01*
X566201Y289437D01*
X566056Y289805D01*
X565946Y290195D01*
X565868Y290605D01*
X565822Y291033D01*
X565807Y291479D01*
X565807Y299408D01*
X567942Y299408D01*
X567942Y291497D01*
X567949Y291282D01*
X567970Y291073D01*
X568007Y290872D01*
X568061Y290680D01*
X568133Y290498D01*
X568224Y290327D01*
X568334Y290167D01*
X568466Y290020D01*
X568621Y289886D01*
X568798Y289768D01*
X569000Y289664D01*
X569228Y289578D01*
X569483Y289509D01*
X569765Y289458D01*
X570076Y289427D01*
X570417Y289417D01*
X574399Y289417D01*
X574399Y287300D01*
G37*
G36*
X561989Y287300D02*
X559872Y287300D01*
X559872Y296520D01*
X559879Y296898D01*
X559903Y297247D01*
X559943Y297566D01*
X560002Y297856D01*
X560081Y298120D01*
X560181Y298356D01*
X560305Y298566D01*
X560453Y298751D01*
X560626Y298911D01*
X560828Y299047D01*
X561057Y299161D01*
X561317Y299252D01*
X561609Y299321D01*
X561934Y299370D01*
X562293Y299398D01*
X562688Y299408D01*
X563962Y299408D01*
X563962Y297291D01*
X562868Y297291D01*
X562644Y297278D01*
X562458Y297239D01*
X562306Y297172D01*
X562186Y297076D01*
X562096Y296950D01*
X562035Y296792D01*
X562000Y296601D01*
X561989Y296376D01*
X561989Y287300D01*
G37*
G36*
X1070458Y527410D02*
X1066350Y527410D01*
X1065770Y527430D01*
X1065235Y527490D01*
X1064744Y527588D01*
X1064295Y527723D01*
X1063887Y527892D01*
X1063520Y528094D01*
X1063192Y528328D01*
X1062904Y528592D01*
X1062652Y528884D01*
X1062438Y529203D01*
X1062259Y529547D01*
X1062115Y529915D01*
X1062004Y530305D01*
X1061926Y530715D01*
X1061881Y531143D01*
X1061865Y531589D01*
X1061865Y539518D01*
X1064000Y539518D01*
X1064000Y531607D01*
X1064007Y531392D01*
X1064028Y531183D01*
X1064066Y530982D01*
X1064119Y530790D01*
X1064191Y530608D01*
X1064282Y530437D01*
X1064393Y530277D01*
X1064525Y530130D01*
X1064679Y529996D01*
X1064857Y529878D01*
X1065059Y529774D01*
X1065286Y529688D01*
X1065541Y529619D01*
X1065823Y529568D01*
X1066134Y529537D01*
X1066475Y529527D01*
X1070458Y529527D01*
X1070458Y527410D01*
G37*
G36*
X1058047Y527410D02*
X1055930Y527410D01*
X1055930Y536630D01*
X1055938Y537008D01*
X1055961Y537357D01*
X1056001Y537676D01*
X1056060Y537966D01*
X1056139Y538230D01*
X1056240Y538466D01*
X1056363Y538676D01*
X1056511Y538861D01*
X1056685Y539021D01*
X1056886Y539157D01*
X1057116Y539271D01*
X1057376Y539362D01*
X1057667Y539431D01*
X1057992Y539480D01*
X1058351Y539508D01*
X1058746Y539518D01*
X1060020Y539518D01*
X1060020Y537401D01*
X1058926Y537401D01*
X1058703Y537388D01*
X1058516Y537349D01*
X1058364Y537282D01*
X1058244Y537186D01*
X1058155Y537060D01*
X1058093Y536902D01*
X1058058Y536711D01*
X1058047Y536486D01*
X1058047Y527410D01*
G37*
G36*
X1051984Y527410D02*
X1049868Y527410D01*
X1049868Y536630D01*
X1049875Y537008D01*
X1049898Y537357D01*
X1049939Y537676D01*
X1049998Y537966D01*
X1050077Y538230D01*
X1050177Y538466D01*
X1050301Y538676D01*
X1050448Y538861D01*
X1050622Y539021D01*
X1050823Y539157D01*
X1051053Y539271D01*
X1051313Y539362D01*
X1051605Y539431D01*
X1051929Y539480D01*
X1052289Y539508D01*
X1052684Y539518D01*
X1053957Y539518D01*
X1053957Y537401D01*
X1052863Y537401D01*
X1052640Y537388D01*
X1052454Y537349D01*
X1052301Y537282D01*
X1052182Y537186D01*
X1052092Y537060D01*
X1052031Y536902D01*
X1051996Y536711D01*
X1051984Y536486D01*
X1051984Y527410D01*
G37*
G36*
X2680750Y522710D02*
X2671099Y522710D01*
X2671099Y524827D01*
X2679404Y524827D01*
X2679509Y524838D01*
X2679582Y524878D01*
X2679624Y524955D01*
X2679638Y525078D01*
X2679638Y525688D01*
X2679629Y525932D01*
X2679599Y526155D01*
X2679542Y526355D01*
X2679452Y526533D01*
X2679321Y526688D01*
X2679146Y526820D01*
X2678918Y526929D01*
X2678633Y527015D01*
X2673593Y528145D01*
X2673239Y528236D01*
X2672910Y528340D01*
X2672607Y528457D01*
X2672328Y528589D01*
X2672073Y528735D01*
X2671842Y528896D01*
X2671635Y529072D01*
X2671451Y529264D01*
X2671290Y529471D01*
X2671152Y529694D01*
X2671036Y529934D01*
X2670942Y530191D01*
X2670869Y530464D01*
X2670817Y530756D01*
X2670787Y531065D01*
X2670776Y531392D01*
X2670792Y531797D01*
X2670837Y532178D01*
X2670913Y532534D01*
X2671018Y532865D01*
X2671151Y533172D01*
X2671314Y533453D01*
X2671504Y533709D01*
X2671723Y533939D01*
X2671968Y534143D01*
X2672241Y534320D01*
X2672540Y534471D01*
X2672865Y534595D01*
X2673216Y534692D01*
X2673592Y534762D01*
X2673993Y534804D01*
X2674418Y534818D01*
X2681360Y534818D01*
X2681360Y532701D01*
X2674364Y532701D01*
X2674188Y532695D01*
X2674022Y532676D01*
X2673723Y532604D01*
X2673467Y532488D01*
X2673256Y532331D01*
X2673091Y532136D01*
X2672972Y531907D01*
X2672899Y531645D01*
X2672875Y531356D01*
X2672888Y531148D01*
X2672931Y530956D01*
X2673006Y530781D01*
X2673117Y530623D01*
X2673269Y530482D01*
X2673465Y530360D01*
X2673709Y530256D01*
X2674005Y530172D01*
X2679100Y529006D01*
X2679469Y528912D01*
X2679806Y528804D01*
X2680110Y528681D01*
X2680385Y528543D01*
X2680629Y528390D01*
X2680846Y528220D01*
X2681036Y528034D01*
X2681200Y527831D01*
X2681341Y527610D01*
X2681458Y527371D01*
X2681554Y527114D01*
X2681630Y526837D01*
X2681686Y526540D01*
X2681725Y526223D01*
X2681747Y525885D01*
X2681754Y525526D01*
X2681754Y523697D01*
X2681739Y523464D01*
X2681693Y523262D01*
X2681616Y523093D01*
X2681508Y522954D01*
X2681367Y522847D01*
X2681194Y522771D01*
X2680989Y522725D01*
X2680750Y522710D01*
G37*
G36*
X2692873Y522710D02*
X2688766Y522710D01*
X2688186Y522730D01*
X2687651Y522790D01*
X2687160Y522888D01*
X2686710Y523023D01*
X2686303Y523192D01*
X2685936Y523394D01*
X2685608Y523628D01*
X2685319Y523892D01*
X2685068Y524184D01*
X2684854Y524503D01*
X2684675Y524847D01*
X2684530Y525215D01*
X2684420Y525605D01*
X2684342Y526015D01*
X2684296Y526443D01*
X2684281Y526889D01*
X2684281Y534818D01*
X2686416Y534818D01*
X2686416Y526907D01*
X2686423Y526692D01*
X2686444Y526483D01*
X2686481Y526282D01*
X2686535Y526090D01*
X2686607Y525908D01*
X2686698Y525737D01*
X2686809Y525577D01*
X2686941Y525430D01*
X2687095Y525296D01*
X2687272Y525178D01*
X2687475Y525074D01*
X2687702Y524988D01*
X2687957Y524919D01*
X2688239Y524868D01*
X2688550Y524837D01*
X2688891Y524827D01*
X2692873Y524827D01*
X2692873Y522710D01*
G37*
G36*
X2436804Y522500D02*
X2430688Y522500D01*
X2430172Y522517D01*
X2429695Y522565D01*
X2429256Y522644D01*
X2428854Y522753D01*
X2428488Y522888D01*
X2428157Y523050D01*
X2427862Y523235D01*
X2427600Y523444D01*
X2427372Y523674D01*
X2427177Y523923D01*
X2427013Y524191D01*
X2426881Y524475D01*
X2426780Y524774D01*
X2426708Y525087D01*
X2426666Y525412D01*
X2426652Y525747D01*
X2426659Y526013D01*
X2426680Y526266D01*
X2426715Y526506D01*
X2426765Y526734D01*
X2426828Y526950D01*
X2426905Y527154D01*
X2426996Y527346D01*
X2427100Y527527D01*
X2427218Y527696D01*
X2427349Y527854D01*
X2427493Y528002D01*
X2427650Y528138D01*
X2428004Y528380D01*
X2428409Y528581D01*
X2428016Y528775D01*
X2427671Y529010D01*
X2427376Y529287D01*
X2427247Y529442D01*
X2427131Y529608D01*
X2427029Y529785D01*
X2426939Y529974D01*
X2426863Y530174D01*
X2426800Y530387D01*
X2426751Y530612D01*
X2426716Y530849D01*
X2426695Y531099D01*
X2426687Y531361D01*
X2426702Y531705D01*
X2426745Y532036D01*
X2426817Y532353D01*
X2426920Y532655D01*
X2427053Y532941D01*
X2427218Y533208D01*
X2427415Y533456D01*
X2427645Y533684D01*
X2427908Y533890D01*
X2428205Y534072D01*
X2428537Y534231D01*
X2428905Y534363D01*
X2429308Y534468D01*
X2429748Y534545D01*
X2430226Y534592D01*
X2430741Y534608D01*
X2436786Y534608D01*
X2436786Y532491D01*
X2430741Y532491D01*
X2430511Y532484D01*
X2430297Y532464D01*
X2430100Y532431D01*
X2429918Y532384D01*
X2429753Y532326D01*
X2429603Y532256D01*
X2429468Y532174D01*
X2429349Y532081D01*
X2429245Y531977D01*
X2429155Y531863D01*
X2429080Y531739D01*
X2429019Y531606D01*
X2428971Y531463D01*
X2428938Y531312D01*
X2428918Y531152D01*
X2428912Y530984D01*
X2428919Y530803D01*
X2428940Y530634D01*
X2428976Y530477D01*
X2429026Y530334D01*
X2429091Y530202D01*
X2429170Y530083D01*
X2429263Y529976D01*
X2429371Y529881D01*
X2429494Y529798D01*
X2429631Y529726D01*
X2429782Y529666D01*
X2429948Y529617D01*
X2430325Y529553D01*
X2430759Y529531D01*
X2434436Y529531D01*
X2434436Y527612D01*
X2430705Y527612D01*
X2430276Y527589D01*
X2430082Y527561D01*
X2429902Y527521D01*
X2429736Y527470D01*
X2429585Y527408D01*
X2429447Y527334D01*
X2429324Y527249D01*
X2429215Y527152D01*
X2429121Y527045D01*
X2429041Y526925D01*
X2428975Y526795D01*
X2428924Y526653D01*
X2428887Y526500D01*
X2428865Y526335D01*
X2428858Y526159D01*
X2428865Y525982D01*
X2428886Y525815D01*
X2428921Y525657D01*
X2428970Y525510D01*
X2429033Y525372D01*
X2429110Y525245D01*
X2429202Y525130D01*
X2429309Y525025D01*
X2429429Y524931D01*
X2429565Y524849D01*
X2429715Y524779D01*
X2429880Y524721D01*
X2430059Y524676D01*
X2430254Y524643D01*
X2430463Y524623D01*
X2430688Y524617D01*
X2436804Y524617D01*
X2436804Y522500D01*
G37*
G36*
X2447780Y522500D02*
X2443672Y522500D01*
X2443093Y522520D01*
X2442558Y522580D01*
X2442066Y522678D01*
X2441617Y522813D01*
X2441209Y522982D01*
X2440842Y523184D01*
X2440515Y523418D01*
X2440226Y523682D01*
X2439975Y523974D01*
X2439760Y524293D01*
X2439581Y524637D01*
X2439437Y525005D01*
X2439326Y525395D01*
X2439249Y525805D01*
X2439203Y526233D01*
X2439188Y526679D01*
X2439188Y534608D01*
X2441322Y534608D01*
X2441322Y526697D01*
X2441329Y526482D01*
X2441351Y526273D01*
X2441388Y526072D01*
X2441442Y525880D01*
X2441513Y525698D01*
X2441604Y525527D01*
X2441715Y525367D01*
X2441847Y525220D01*
X2442001Y525086D01*
X2442179Y524968D01*
X2442381Y524864D01*
X2442609Y524778D01*
X2442863Y524709D01*
X2443145Y524658D01*
X2443457Y524627D01*
X2443798Y524617D01*
X2447780Y524617D01*
X2447780Y522500D01*
G37*
G36*
X930213Y477532D02*
X929022Y477532D01*
X929022Y479766D01*
X927636Y479766D01*
X927636Y480761D01*
X929022Y480761D01*
X929022Y487400D01*
X930346Y487400D01*
X934864Y480747D01*
X934864Y479766D01*
X930213Y479766D01*
X930213Y477532D01*
G37*
%LPC*%
G36*
X933701Y480761D02*
X933589Y480901D01*
X933211Y481419D01*
X930682Y485145D01*
X930409Y485607D01*
X930213Y485979D01*
X930213Y480761D01*
X933701Y480761D01*
G37*
%LPD*%
G36*
X939148Y477392D02*
X938819Y477405D01*
X938508Y477443D01*
X938215Y477508D01*
X937940Y477598D01*
X937683Y477713D01*
X937444Y477855D01*
X937222Y478022D01*
X937019Y478215D01*
X936837Y478430D01*
X936679Y478665D01*
X936545Y478918D01*
X936436Y479191D01*
X936351Y479483D01*
X936290Y479794D01*
X936254Y480124D01*
X936242Y480474D01*
X936242Y487400D01*
X939470Y487400D01*
X939470Y486308D01*
X937572Y486308D01*
X937572Y480446D01*
X937579Y480211D01*
X937599Y479991D01*
X937631Y479786D01*
X937677Y479595D01*
X937737Y479419D01*
X937809Y479258D01*
X937894Y479111D01*
X937993Y478978D01*
X938102Y478861D01*
X938222Y478759D01*
X938351Y478673D01*
X938490Y478603D01*
X938638Y478548D01*
X938796Y478509D01*
X938964Y478485D01*
X939141Y478478D01*
X939304Y478485D01*
X939460Y478506D01*
X939609Y478542D01*
X939751Y478591D01*
X940013Y478734D01*
X940248Y478933D01*
X940449Y479183D01*
X940610Y479477D01*
X940732Y479817D01*
X940815Y480200D01*
X942125Y479983D01*
X942058Y479670D01*
X941976Y479376D01*
X941877Y479103D01*
X941763Y478850D01*
X941632Y478617D01*
X941486Y478404D01*
X941324Y478212D01*
X941146Y478040D01*
X940952Y477888D01*
X940742Y477756D01*
X940516Y477645D01*
X940275Y477554D01*
X940017Y477483D01*
X939743Y477432D01*
X939454Y477402D01*
X939148Y477392D01*
G37*
G36*
X938968Y529950D02*
X932869Y529950D01*
X932367Y529968D01*
X931904Y530023D01*
X931479Y530112D01*
X931091Y530234D01*
X930738Y530388D01*
X930421Y530571D01*
X930139Y530784D01*
X929889Y531024D01*
X929672Y531290D01*
X929487Y531580D01*
X929333Y531893D01*
X929209Y532228D01*
X929114Y532583D01*
X929047Y532956D01*
X929007Y533346D01*
X928995Y533753D01*
X929005Y534112D01*
X929036Y534462D01*
X929092Y534800D01*
X929174Y535125D01*
X929286Y535435D01*
X929428Y535728D01*
X929604Y536002D01*
X929815Y536255D01*
X930065Y536486D01*
X930356Y536691D01*
X930689Y536871D01*
X931068Y537022D01*
X931495Y537143D01*
X931971Y537231D01*
X932500Y537286D01*
X933084Y537304D01*
X936672Y537304D01*
X936776Y537318D01*
X936849Y537358D01*
X936891Y537425D01*
X936905Y537520D01*
X936905Y539726D01*
X936891Y539828D01*
X936849Y539894D01*
X936776Y539930D01*
X936672Y539941D01*
X929658Y539941D01*
X929658Y542058D01*
X938017Y542058D01*
X938256Y542043D01*
X938462Y541997D01*
X938634Y541921D01*
X938775Y541813D01*
X938883Y541675D01*
X938960Y541505D01*
X939006Y541304D01*
X939022Y541071D01*
X939022Y536372D01*
X939006Y536139D01*
X938960Y535937D01*
X938883Y535768D01*
X938775Y535629D01*
X938634Y535522D01*
X938462Y535446D01*
X938256Y535400D01*
X938017Y535385D01*
X932977Y535385D01*
X932722Y535378D01*
X932490Y535356D01*
X932278Y535321D01*
X932087Y535272D01*
X931916Y535210D01*
X931764Y535135D01*
X931629Y535049D01*
X931513Y534950D01*
X931412Y534840D01*
X931328Y534719D01*
X931258Y534588D01*
X931203Y534447D01*
X931162Y534296D01*
X931133Y534135D01*
X931111Y533789D01*
X931134Y533416D01*
X931164Y533243D01*
X931206Y533081D01*
X931260Y532928D01*
X931328Y532787D01*
X931409Y532656D01*
X931504Y532537D01*
X931612Y532431D01*
X931736Y532337D01*
X931874Y532256D01*
X932027Y532189D01*
X932195Y532136D01*
X932380Y532098D01*
X932580Y532075D01*
X932797Y532067D01*
X938968Y532067D01*
X938968Y529950D01*
G37*
G36*
X950302Y529950D02*
X946194Y529950D01*
X945615Y529970D01*
X945080Y530030D01*
X944588Y530128D01*
X944139Y530263D01*
X943732Y530432D01*
X943365Y530634D01*
X943037Y530868D01*
X942748Y531132D01*
X942497Y531424D01*
X942282Y531743D01*
X942103Y532087D01*
X941959Y532455D01*
X941849Y532845D01*
X941771Y533255D01*
X941725Y533683D01*
X941710Y534129D01*
X941710Y542058D01*
X943845Y542058D01*
X943845Y534147D01*
X943852Y533932D01*
X943873Y533723D01*
X943910Y533522D01*
X943964Y533330D01*
X944036Y533148D01*
X944127Y532977D01*
X944237Y532817D01*
X944369Y532670D01*
X944524Y532536D01*
X944701Y532418D01*
X944903Y532314D01*
X945131Y532228D01*
X945386Y532159D01*
X945668Y532108D01*
X945979Y532077D01*
X946320Y532067D01*
X950302Y532067D01*
X950302Y529950D01*
G37*
G36*
X2256927Y530500D02*
X2254864Y530500D01*
X2254378Y530519D01*
X2253930Y530577D01*
X2253517Y530670D01*
X2253140Y530797D01*
X2252798Y530957D01*
X2252490Y531148D01*
X2252214Y531368D01*
X2251972Y531614D01*
X2251760Y531887D01*
X2251579Y532183D01*
X2251429Y532500D01*
X2251307Y532838D01*
X2251214Y533195D01*
X2251149Y533568D01*
X2251110Y533956D01*
X2251097Y534357D01*
X2251110Y534760D01*
X2251149Y535136D01*
X2251214Y535485D01*
X2251307Y535808D01*
X2251426Y536103D01*
X2251574Y536373D01*
X2251749Y536615D01*
X2251954Y536832D01*
X2252187Y537022D01*
X2252449Y537187D01*
X2252742Y537326D01*
X2253065Y537439D01*
X2253418Y537527D01*
X2253803Y537589D01*
X2254219Y537627D01*
X2254667Y537639D01*
X2259743Y537639D01*
X2259687Y537999D01*
X2259611Y538333D01*
X2259517Y538642D01*
X2259404Y538925D01*
X2259271Y539183D01*
X2259118Y539417D01*
X2258945Y539626D01*
X2258752Y539812D01*
X2258538Y539974D01*
X2258303Y540114D01*
X2258048Y540231D01*
X2257770Y540326D01*
X2257472Y540399D01*
X2257151Y540450D01*
X2256808Y540481D01*
X2256442Y540491D01*
X2251797Y540491D01*
X2251797Y542608D01*
X2256442Y542608D01*
X2257083Y542584D01*
X2257687Y542514D01*
X2258253Y542397D01*
X2258780Y542233D01*
X2259269Y542022D01*
X2259718Y541763D01*
X2260128Y541457D01*
X2260496Y541103D01*
X2260824Y540702D01*
X2261109Y540253D01*
X2261353Y539755D01*
X2261553Y539210D01*
X2261710Y538616D01*
X2261822Y537975D01*
X2261891Y537284D01*
X2261913Y536545D01*
X2261891Y535809D01*
X2261824Y535121D01*
X2261714Y534482D01*
X2261563Y533890D01*
X2261371Y533347D01*
X2261140Y532851D01*
X2260870Y532403D01*
X2260564Y532002D01*
X2260221Y531649D01*
X2259845Y531344D01*
X2259435Y531086D01*
X2258992Y530874D01*
X2258519Y530710D01*
X2258017Y530593D01*
X2257485Y530523D01*
X2256927Y530500D01*
G37*
%LPC*%
G36*
X2256640Y532617D02*
X2257002Y532628D01*
X2257340Y532664D01*
X2257656Y532723D01*
X2257950Y532807D01*
X2258221Y532917D01*
X2258470Y533052D01*
X2258697Y533213D01*
X2258902Y533401D01*
X2259086Y533617D01*
X2259248Y533860D01*
X2259388Y534132D01*
X2259508Y534433D01*
X2259606Y534763D01*
X2259684Y535123D01*
X2259742Y535514D01*
X2259779Y535935D01*
X2254882Y535935D01*
X2254495Y535912D01*
X2254318Y535883D01*
X2254154Y535843D01*
X2254002Y535790D01*
X2253862Y535725D01*
X2253734Y535648D01*
X2253620Y535558D01*
X2253517Y535456D01*
X2253428Y535341D01*
X2253353Y535213D01*
X2253290Y535072D01*
X2253241Y534918D01*
X2253206Y534751D01*
X2253185Y534569D01*
X2253178Y534375D01*
X2253185Y534183D01*
X2253205Y534000D01*
X2253239Y533826D01*
X2253286Y533661D01*
X2253348Y533506D01*
X2253423Y533361D01*
X2253512Y533227D01*
X2253615Y533105D01*
X2253732Y532996D01*
X2253864Y532899D01*
X2254009Y532815D01*
X2254169Y532745D01*
X2254343Y532690D01*
X2254532Y532649D01*
X2254736Y532625D01*
X2254954Y532617D01*
X2256640Y532617D01*
G37*
%LPD*%
G36*
X2272853Y530500D02*
X2268745Y530500D01*
X2268166Y530520D01*
X2267631Y530580D01*
X2267139Y530678D01*
X2266690Y530813D01*
X2266283Y530982D01*
X2265916Y531184D01*
X2265588Y531418D01*
X2265299Y531682D01*
X2265048Y531974D01*
X2264833Y532293D01*
X2264654Y532637D01*
X2264510Y533005D01*
X2264400Y533395D01*
X2264322Y533805D01*
X2264276Y534233D01*
X2264261Y534679D01*
X2264261Y542608D01*
X2266396Y542608D01*
X2266396Y534697D01*
X2266403Y534482D01*
X2266424Y534273D01*
X2266461Y534072D01*
X2266515Y533880D01*
X2266587Y533698D01*
X2266678Y533527D01*
X2266788Y533367D01*
X2266920Y533220D01*
X2267075Y533086D01*
X2267252Y532968D01*
X2267454Y532864D01*
X2267682Y532778D01*
X2267937Y532709D01*
X2268219Y532658D01*
X2268530Y532627D01*
X2268871Y532617D01*
X2272853Y532617D01*
X2272853Y530500D01*
G37*
G36*
X2139322Y530500D02*
X2135340Y530500D01*
X2135015Y530506D01*
X2134699Y530524D01*
X2134095Y530595D01*
X2133529Y530713D01*
X2133002Y530880D01*
X2132513Y531095D01*
X2132064Y531359D01*
X2131654Y531672D01*
X2131286Y532034D01*
X2130958Y532445D01*
X2130673Y532907D01*
X2130430Y533419D01*
X2130229Y533981D01*
X2130072Y534594D01*
X2129960Y535259D01*
X2129892Y535975D01*
X2129869Y536742D01*
X2129891Y537497D01*
X2129958Y538194D01*
X2130066Y538836D01*
X2130216Y539422D01*
X2130405Y539955D01*
X2130631Y540435D01*
X2130894Y540864D01*
X2131192Y541242D01*
X2131523Y541572D01*
X2131885Y541854D01*
X2132278Y542089D01*
X2132699Y542279D01*
X2133147Y542425D01*
X2133621Y542527D01*
X2134120Y542588D01*
X2134640Y542608D01*
X2136667Y542608D01*
X2137200Y542588D01*
X2137690Y542531D01*
X2138137Y542438D01*
X2138544Y542310D01*
X2138911Y542151D01*
X2139239Y541960D01*
X2139531Y541740D01*
X2139786Y541493D01*
X2140007Y541221D01*
X2140194Y540925D01*
X2140349Y540607D01*
X2140474Y540269D01*
X2140568Y539913D01*
X2140634Y539540D01*
X2140673Y539152D01*
X2140685Y538751D01*
X2140672Y538348D01*
X2140633Y537972D01*
X2140568Y537622D01*
X2140476Y537300D01*
X2140356Y537004D01*
X2140209Y536735D01*
X2140034Y536492D01*
X2139831Y536276D01*
X2139599Y536085D01*
X2139337Y535921D01*
X2139046Y535782D01*
X2138725Y535669D01*
X2138374Y535581D01*
X2137992Y535519D01*
X2137578Y535481D01*
X2137134Y535469D01*
X2132057Y535469D01*
X2132120Y535106D01*
X2132201Y534769D01*
X2132301Y534459D01*
X2132419Y534176D01*
X2132556Y533917D01*
X2132711Y533683D01*
X2132886Y533474D01*
X2133080Y533289D01*
X2133293Y533128D01*
X2133525Y532989D01*
X2133778Y532873D01*
X2134050Y532780D01*
X2134342Y532708D01*
X2134654Y532657D01*
X2134987Y532627D01*
X2135340Y532617D01*
X2139322Y532617D01*
X2139322Y530500D01*
G37*
%LPC*%
G36*
X2136918Y537173D02*
X2137306Y537196D01*
X2137482Y537225D01*
X2137646Y537265D01*
X2137798Y537318D01*
X2137938Y537383D01*
X2138066Y537460D01*
X2138181Y537549D01*
X2138283Y537652D01*
X2138372Y537767D01*
X2138447Y537894D01*
X2138510Y538035D01*
X2138559Y538190D01*
X2138594Y538357D01*
X2138615Y538538D01*
X2138622Y538733D01*
X2138615Y538925D01*
X2138595Y539108D01*
X2138560Y539282D01*
X2138511Y539447D01*
X2138448Y539602D01*
X2138372Y539747D01*
X2138281Y539880D01*
X2138176Y540002D01*
X2138057Y540112D01*
X2137924Y540209D01*
X2137859Y540247D01*
X2137777Y540293D01*
X2137616Y540363D01*
X2137440Y540418D01*
X2137251Y540458D01*
X2137047Y540483D01*
X2136829Y540491D01*
X2135142Y540491D01*
X2134775Y540479D01*
X2134431Y540443D01*
X2134111Y540382D01*
X2133815Y540296D01*
X2133542Y540184D01*
X2133292Y540047D01*
X2133064Y539883D01*
X2132860Y539693D01*
X2132678Y539476D01*
X2132517Y539232D01*
X2132379Y538960D01*
X2132262Y538660D01*
X2132166Y538332D01*
X2132091Y537975D01*
X2132037Y537588D01*
X2132003Y537173D01*
X2136918Y537173D01*
G37*
%LPD*%
G36*
X2151553Y530500D02*
X2147445Y530500D01*
X2146866Y530520D01*
X2146331Y530580D01*
X2145839Y530678D01*
X2145390Y530813D01*
X2144983Y530982D01*
X2144616Y531184D01*
X2144288Y531418D01*
X2143999Y531682D01*
X2143748Y531974D01*
X2143533Y532293D01*
X2143354Y532637D01*
X2143210Y533005D01*
X2143100Y533395D01*
X2143022Y533805D01*
X2142976Y534233D01*
X2142961Y534679D01*
X2142961Y542608D01*
X2145096Y542608D01*
X2145096Y534697D01*
X2145103Y534482D01*
X2145124Y534273D01*
X2145161Y534072D01*
X2145215Y533880D01*
X2145287Y533698D01*
X2145378Y533527D01*
X2145488Y533367D01*
X2145620Y533220D01*
X2145775Y533086D01*
X2145952Y532968D01*
X2146154Y532864D01*
X2146382Y532778D01*
X2146637Y532709D01*
X2146919Y532658D01*
X2147230Y532627D01*
X2147571Y532617D01*
X2151553Y532617D01*
X2151553Y530500D01*
G37*
G36*
X3107356Y535771D02*
X3103374Y535771D01*
X3103049Y535777D01*
X3102733Y535795D01*
X3102129Y535866D01*
X3101564Y535984D01*
X3101036Y536151D01*
X3100547Y536366D01*
X3100098Y536630D01*
X3099689Y536943D01*
X3099320Y537305D01*
X3098993Y537716D01*
X3098707Y538178D01*
X3098464Y538690D01*
X3098263Y539252D01*
X3098107Y539865D01*
X3097994Y540530D01*
X3097926Y541246D01*
X3097903Y542013D01*
X3097925Y542768D01*
X3097992Y543465D01*
X3098100Y544107D01*
X3098250Y544693D01*
X3098439Y545226D01*
X3098665Y545706D01*
X3098928Y546135D01*
X3099226Y546513D01*
X3099557Y546843D01*
X3099919Y547125D01*
X3100312Y547360D01*
X3100733Y547550D01*
X3101182Y547696D01*
X3101656Y547798D01*
X3102154Y547859D01*
X3102674Y547879D01*
X3104701Y547879D01*
X3105234Y547859D01*
X3105724Y547802D01*
X3106171Y547709D01*
X3106578Y547581D01*
X3106945Y547422D01*
X3107273Y547231D01*
X3107565Y547011D01*
X3107820Y546764D01*
X3108041Y546492D01*
X3108228Y546196D01*
X3108384Y545878D01*
X3108508Y545540D01*
X3108602Y545184D01*
X3108668Y544811D01*
X3108707Y544423D01*
X3108719Y544022D01*
X3108706Y543619D01*
X3108668Y543243D01*
X3108602Y542893D01*
X3108510Y542571D01*
X3108391Y542275D01*
X3108244Y542006D01*
X3108069Y541763D01*
X3107865Y541547D01*
X3107633Y541356D01*
X3107371Y541192D01*
X3107080Y541053D01*
X3106759Y540940D01*
X3106408Y540852D01*
X3106026Y540790D01*
X3105613Y540752D01*
X3105168Y540740D01*
X3100091Y540740D01*
X3100154Y540377D01*
X3100235Y540040D01*
X3100335Y539730D01*
X3100453Y539447D01*
X3100590Y539188D01*
X3100745Y538954D01*
X3100920Y538745D01*
X3101114Y538560D01*
X3101327Y538399D01*
X3101560Y538260D01*
X3101812Y538144D01*
X3102084Y538051D01*
X3102376Y537979D01*
X3102688Y537928D01*
X3103021Y537898D01*
X3103374Y537888D01*
X3107356Y537888D01*
X3107356Y535771D01*
G37*
%LPC*%
G36*
X3104952Y542444D02*
X3105340Y542467D01*
X3105516Y542496D01*
X3105680Y542536D01*
X3105833Y542589D01*
X3105972Y542654D01*
X3106100Y542731D01*
X3106215Y542820D01*
X3106317Y542923D01*
X3106406Y543038D01*
X3106482Y543165D01*
X3106544Y543306D01*
X3106593Y543461D01*
X3106628Y543628D01*
X3106649Y543809D01*
X3106657Y544004D01*
X3106650Y544196D01*
X3106629Y544379D01*
X3106594Y544553D01*
X3106545Y544718D01*
X3106483Y544873D01*
X3106406Y545018D01*
X3106315Y545151D01*
X3106210Y545273D01*
X3106091Y545383D01*
X3105958Y545480D01*
X3105893Y545518D01*
X3105811Y545564D01*
X3105650Y545634D01*
X3105475Y545689D01*
X3105285Y545729D01*
X3105081Y545754D01*
X3104863Y545762D01*
X3103177Y545762D01*
X3102809Y545750D01*
X3102465Y545714D01*
X3102145Y545653D01*
X3101849Y545567D01*
X3101576Y545455D01*
X3101326Y545318D01*
X3101099Y545154D01*
X3100894Y544964D01*
X3100712Y544747D01*
X3100552Y544503D01*
X3100413Y544231D01*
X3100296Y543931D01*
X3100200Y543603D01*
X3100125Y543246D01*
X3100071Y542859D01*
X3100038Y542444D01*
X3104952Y542444D01*
G37*
%LPD*%
G36*
X3125650Y535771D02*
X3121542Y535771D01*
X3120963Y535791D01*
X3120428Y535851D01*
X3119936Y535949D01*
X3119487Y536084D01*
X3119079Y536253D01*
X3118712Y536455D01*
X3118385Y536689D01*
X3118096Y536953D01*
X3117845Y537245D01*
X3117630Y537564D01*
X3117451Y537908D01*
X3117307Y538276D01*
X3117196Y538666D01*
X3117119Y539076D01*
X3117073Y539504D01*
X3117058Y539950D01*
X3117058Y547879D01*
X3119192Y547879D01*
X3119192Y539968D01*
X3119199Y539753D01*
X3119221Y539544D01*
X3119258Y539343D01*
X3119312Y539151D01*
X3119383Y538969D01*
X3119474Y538798D01*
X3119585Y538638D01*
X3119717Y538491D01*
X3119871Y538357D01*
X3120049Y538239D01*
X3120251Y538135D01*
X3120479Y538049D01*
X3120733Y537980D01*
X3121015Y537929D01*
X3121327Y537898D01*
X3121668Y537888D01*
X3125650Y537888D01*
X3125650Y535771D01*
G37*
G36*
X3113239Y535771D02*
X3111123Y535771D01*
X3111123Y544991D01*
X3111130Y545369D01*
X3111153Y545718D01*
X3111193Y546037D01*
X3111252Y546327D01*
X3111331Y546591D01*
X3111432Y546827D01*
X3111555Y547037D01*
X3111703Y547222D01*
X3111877Y547382D01*
X3112078Y547518D01*
X3112308Y547632D01*
X3112568Y547723D01*
X3112860Y547792D01*
X3113184Y547841D01*
X3113544Y547869D01*
X3113939Y547879D01*
X3115212Y547879D01*
X3115212Y545762D01*
X3114118Y545762D01*
X3113895Y545749D01*
X3113708Y545710D01*
X3113556Y545643D01*
X3113437Y545547D01*
X3113347Y545421D01*
X3113286Y545263D01*
X3113250Y545072D01*
X3113239Y544847D01*
X3113239Y535771D01*
G37*
G36*
X1135910Y228671D02*
X1238251Y228671D01*
X1238251Y177483D01*
X1135910Y177483D01*
X1135910Y228671D01*
G37*
G36*
X2382346Y331012D02*
X2433534Y331012D01*
X2433534Y177483D01*
X2382346Y177483D01*
X2382346Y331012D01*
G37*
G36*
X669926Y382517D02*
X721114Y382517D01*
X721114Y228706D01*
X669926Y228706D01*
X669926Y382517D01*
G37*
G36*
X1039320Y228671D02*
X1039320Y177483D01*
X766481Y177483D01*
X766481Y228671D01*
X1039320Y228671D01*
G37*
G36*
X1556492Y228671D02*
X1829331Y228671D01*
X1829331Y177483D01*
X1556492Y177483D01*
X1556492Y228671D01*
G37*
G36*
X2751740Y331012D02*
X2478902Y331012D01*
X2478901Y382200D01*
X2751740Y382200D01*
X2751740Y331012D01*
G37*
G36*
X2802928Y331012D02*
X2802928Y228671D01*
X2751740Y177483D01*
X2478902Y177483D01*
X2478902Y228671D01*
X2751740Y228671D01*
X2751740Y331012D01*
X2802928Y331012D01*
G37*
G36*
X1039320Y331012D02*
X766481Y331012D01*
X766481Y382200D01*
X1039320Y382200D01*
X1090508Y331012D01*
X1090508Y228671D01*
X1039320Y228671D01*
X1039320Y331012D01*
G37*
G36*
X1505304Y228671D02*
X1505304Y331012D01*
X1556492Y382200D01*
X1829331Y382200D01*
X1829331Y331012D01*
X1556492Y331012D01*
X1556492Y228671D01*
X1505304Y228671D01*
G37*
G36*
X448240Y382517D02*
X448240Y338350D01*
X557919Y228671D01*
X669926Y228671D01*
X669926Y177483D01*
X536858Y177483D01*
X470465Y243593D01*
X448240Y221368D01*
X448240Y177518D01*
X397052Y177518D01*
X397052Y242429D01*
X434481Y279859D01*
X397052Y317289D01*
X397052Y382517D01*
X448240Y382517D01*
G37*
G36*
X2280005Y331012D02*
X2280005Y177483D01*
X2228817Y177483D01*
X2228817Y331012D01*
X2126476Y331012D01*
X2126476Y177483D01*
X2075288Y177483D01*
X2075288Y331012D01*
X2126476Y382200D01*
X2382346Y382200D01*
X2382346Y331012D01*
X2280005Y331012D01*
G37*
G36*
X1408749Y382200D02*
X1459937Y331012D01*
X1459937Y279824D01*
X1408749Y279824D01*
X1408749Y331012D01*
X1208124Y331012D01*
X1310465Y228671D01*
X1459902Y228671D01*
X1459902Y177483D01*
X1289404Y177483D01*
X1135875Y331012D01*
X1135875Y382200D01*
X1408714Y382200D01*
X1408749Y382200D01*
G37*
D10*
X1996926Y464796D02*
X1996924Y464918D01*
X1996918Y465040D01*
X1996908Y465162D01*
X1996895Y465283D01*
X1996877Y465404D01*
X1996856Y465524D01*
X1996830Y465644D01*
X1996801Y465762D01*
X1996769Y465880D01*
X1996732Y465997D01*
X1996692Y466112D01*
X1996648Y466226D01*
X1996600Y466338D01*
X1996549Y466449D01*
X1996494Y466558D01*
X1996436Y466666D01*
X1996374Y466771D01*
X1996309Y466874D01*
X1996241Y466976D01*
X1996169Y467075D01*
X1996095Y467171D01*
X1996017Y467266D01*
X1995936Y467357D01*
X1995853Y467447D01*
X1995767Y467533D01*
X1995677Y467616D01*
X1995586Y467697D01*
X1995491Y467775D01*
X1995395Y467849D01*
X1995296Y467921D01*
X1995194Y467989D01*
X1995091Y468054D01*
X1994986Y468116D01*
X1994878Y468174D01*
X1994769Y468229D01*
X1994658Y468280D01*
X1994546Y468328D01*
X1994432Y468372D01*
X1994317Y468412D01*
X1994200Y468449D01*
X1994082Y468481D01*
X1993964Y468510D01*
X1993844Y468536D01*
X1993724Y468557D01*
X1993603Y468575D01*
X1993482Y468588D01*
X1993360Y468598D01*
X1993238Y468604D01*
X1993116Y468606D01*
X1992994Y468604D01*
X1992872Y468598D01*
X1992750Y468588D01*
X1992629Y468575D01*
X1992508Y468557D01*
X1992388Y468536D01*
X1992268Y468510D01*
X1992150Y468481D01*
X1992032Y468449D01*
X1991915Y468412D01*
X1991800Y468372D01*
X1991686Y468328D01*
X1991574Y468280D01*
X1991463Y468229D01*
X1991354Y468174D01*
X1991246Y468116D01*
X1991141Y468054D01*
X1991038Y467989D01*
X1990936Y467921D01*
X1990837Y467849D01*
X1990741Y467775D01*
X1990646Y467697D01*
X1990555Y467616D01*
X1990465Y467533D01*
X1990379Y467447D01*
X1990296Y467357D01*
X1990215Y467266D01*
X1990137Y467171D01*
X1990063Y467075D01*
X1989991Y466976D01*
X1989923Y466874D01*
X1989858Y466771D01*
X1989796Y466666D01*
X1989738Y466558D01*
X1989683Y466449D01*
X1989632Y466338D01*
X1989584Y466226D01*
X1989540Y466112D01*
X1989500Y465997D01*
X1989463Y465880D01*
X1989431Y465762D01*
X1989402Y465644D01*
X1989376Y465524D01*
X1989355Y465404D01*
X1989337Y465283D01*
X1989324Y465162D01*
X1989314Y465040D01*
X1989308Y464918D01*
X1989306Y464796D01*
X1989308Y464674D01*
X1989314Y464552D01*
X1989324Y464430D01*
X1989337Y464309D01*
X1989355Y464188D01*
X1989376Y464068D01*
X1989402Y463948D01*
X1989431Y463830D01*
X1989463Y463712D01*
X1989500Y463595D01*
X1989540Y463480D01*
X1989584Y463366D01*
X1989632Y463254D01*
X1989683Y463143D01*
X1989738Y463034D01*
X1989796Y462926D01*
X1989858Y462821D01*
X1989923Y462718D01*
X1989991Y462616D01*
X1990063Y462517D01*
X1990137Y462421D01*
X1990215Y462326D01*
X1990296Y462235D01*
X1990379Y462145D01*
X1990465Y462059D01*
X1990555Y461976D01*
X1990646Y461895D01*
X1990741Y461817D01*
X1990837Y461743D01*
X1990936Y461671D01*
X1991038Y461603D01*
X1991141Y461538D01*
X1991246Y461476D01*
X1991354Y461418D01*
X1991463Y461363D01*
X1991574Y461312D01*
X1991686Y461264D01*
X1991800Y461220D01*
X1991915Y461180D01*
X1992032Y461143D01*
X1992150Y461111D01*
X1992268Y461082D01*
X1992388Y461056D01*
X1992508Y461035D01*
X1992629Y461017D01*
X1992750Y461004D01*
X1992872Y460994D01*
X1992994Y460988D01*
X1993116Y460986D01*
X1993238Y460988D01*
X1993360Y460994D01*
X1993482Y461004D01*
X1993603Y461017D01*
X1993724Y461035D01*
X1993844Y461056D01*
X1993964Y461082D01*
X1994082Y461111D01*
X1994200Y461143D01*
X1994317Y461180D01*
X1994432Y461220D01*
X1994546Y461264D01*
X1994658Y461312D01*
X1994769Y461363D01*
X1994878Y461418D01*
X1994986Y461476D01*
X1995091Y461538D01*
X1995194Y461603D01*
X1995296Y461671D01*
X1995395Y461743D01*
X1995491Y461817D01*
X1995586Y461895D01*
X1995677Y461976D01*
X1995767Y462059D01*
X1995853Y462145D01*
X1995936Y462235D01*
X1996017Y462326D01*
X1996095Y462421D01*
X1996169Y462517D01*
X1996241Y462616D01*
X1996309Y462718D01*
X1996374Y462821D01*
X1996436Y462926D01*
X1996494Y463034D01*
X1996549Y463143D01*
X1996600Y463254D01*
X1996648Y463366D01*
X1996692Y463480D01*
X1996732Y463595D01*
X1996769Y463712D01*
X1996801Y463830D01*
X1996830Y463948D01*
X1996856Y464068D01*
X1996877Y464188D01*
X1996895Y464309D01*
X1996908Y464430D01*
X1996918Y464552D01*
X1996924Y464674D01*
X1996926Y464796D01*
D11*
X653000Y338748D02*
X653002Y338811D01*
X653008Y338873D01*
X653018Y338935D01*
X653031Y338997D01*
X653049Y339057D01*
X653070Y339116D01*
X653095Y339174D01*
X653124Y339230D01*
X653156Y339284D01*
X653191Y339336D01*
X653229Y339385D01*
X653271Y339433D01*
X653315Y339477D01*
X653363Y339519D01*
X653412Y339557D01*
X653464Y339592D01*
X653518Y339624D01*
X653574Y339653D01*
X653632Y339678D01*
X653691Y339699D01*
X653751Y339717D01*
X653813Y339730D01*
X653875Y339740D01*
X653937Y339746D01*
X654000Y339748D01*
X654063Y339746D01*
X654125Y339740D01*
X654187Y339730D01*
X654249Y339717D01*
X654309Y339699D01*
X654368Y339678D01*
X654426Y339653D01*
X654482Y339624D01*
X654536Y339592D01*
X654588Y339557D01*
X654637Y339519D01*
X654685Y339477D01*
X654729Y339433D01*
X654771Y339385D01*
X654809Y339336D01*
X654844Y339284D01*
X654876Y339230D01*
X654905Y339174D01*
X654930Y339116D01*
X654951Y339057D01*
X654969Y338997D01*
X654982Y338935D01*
X654992Y338873D01*
X654998Y338811D01*
X655000Y338748D01*
X654998Y338685D01*
X654992Y338623D01*
X654982Y338561D01*
X654969Y338499D01*
X654951Y338439D01*
X654930Y338380D01*
X654905Y338322D01*
X654876Y338266D01*
X654844Y338212D01*
X654809Y338160D01*
X654771Y338111D01*
X654729Y338063D01*
X654685Y338019D01*
X654637Y337977D01*
X654588Y337939D01*
X654536Y337904D01*
X654482Y337872D01*
X654426Y337843D01*
X654368Y337818D01*
X654309Y337797D01*
X654249Y337779D01*
X654187Y337766D01*
X654125Y337756D01*
X654063Y337750D01*
X654000Y337748D01*
X653937Y337750D01*
X653875Y337756D01*
X653813Y337766D01*
X653751Y337779D01*
X653691Y337797D01*
X653632Y337818D01*
X653574Y337843D01*
X653518Y337872D01*
X653464Y337904D01*
X653412Y337939D01*
X653363Y337977D01*
X653315Y338019D01*
X653271Y338063D01*
X653229Y338111D01*
X653191Y338160D01*
X653156Y338212D01*
X653124Y338266D01*
X653095Y338322D01*
X653070Y338380D01*
X653049Y338439D01*
X653031Y338499D01*
X653018Y338561D01*
X653008Y338623D01*
X653002Y338685D01*
X653000Y338748D01*
D12*
X647900Y314400D02*
X472100Y314400D01*
X472100Y392100D01*
X472100Y419700D02*
X472100Y451543D01*
X472100Y490200D02*
X472100Y545000D01*
X647900Y363000D02*
X647900Y314400D01*
X647900Y401800D02*
X647900Y436000D01*
X647900Y464000D02*
X647900Y545000D01*
X1041200Y485000D02*
X1041200Y465000D01*
X1041200Y440000D02*
X1041200Y434500D01*
X1041200Y513000D02*
X1041200Y521800D01*
X1078800Y485000D02*
X1078800Y465000D01*
X1078800Y440000D02*
X1078800Y434500D01*
X1078800Y513000D02*
X1078800Y521800D01*
X1078800Y434500D02*
X1041200Y434500D01*
D11*
X1021700Y499500D02*
X1021702Y499563D01*
X1021708Y499625D01*
X1021718Y499687D01*
X1021731Y499749D01*
X1021749Y499809D01*
X1021770Y499868D01*
X1021795Y499926D01*
X1021824Y499982D01*
X1021856Y500036D01*
X1021891Y500088D01*
X1021929Y500137D01*
X1021971Y500185D01*
X1022015Y500229D01*
X1022063Y500271D01*
X1022112Y500309D01*
X1022164Y500344D01*
X1022218Y500376D01*
X1022274Y500405D01*
X1022332Y500430D01*
X1022391Y500451D01*
X1022451Y500469D01*
X1022513Y500482D01*
X1022575Y500492D01*
X1022637Y500498D01*
X1022700Y500500D01*
X1022763Y500498D01*
X1022825Y500492D01*
X1022887Y500482D01*
X1022949Y500469D01*
X1023009Y500451D01*
X1023068Y500430D01*
X1023126Y500405D01*
X1023182Y500376D01*
X1023236Y500344D01*
X1023288Y500309D01*
X1023337Y500271D01*
X1023385Y500229D01*
X1023429Y500185D01*
X1023471Y500137D01*
X1023509Y500088D01*
X1023544Y500036D01*
X1023576Y499982D01*
X1023605Y499926D01*
X1023630Y499868D01*
X1023651Y499809D01*
X1023669Y499749D01*
X1023682Y499687D01*
X1023692Y499625D01*
X1023698Y499563D01*
X1023700Y499500D01*
X1023698Y499437D01*
X1023692Y499375D01*
X1023682Y499313D01*
X1023669Y499251D01*
X1023651Y499191D01*
X1023630Y499132D01*
X1023605Y499074D01*
X1023576Y499018D01*
X1023544Y498964D01*
X1023509Y498912D01*
X1023471Y498863D01*
X1023429Y498815D01*
X1023385Y498771D01*
X1023337Y498729D01*
X1023288Y498691D01*
X1023236Y498656D01*
X1023182Y498624D01*
X1023126Y498595D01*
X1023068Y498570D01*
X1023009Y498549D01*
X1022949Y498531D01*
X1022887Y498518D01*
X1022825Y498508D01*
X1022763Y498502D01*
X1022700Y498500D01*
X1022637Y498502D01*
X1022575Y498508D01*
X1022513Y498518D01*
X1022451Y498531D01*
X1022391Y498549D01*
X1022332Y498570D01*
X1022274Y498595D01*
X1022218Y498624D01*
X1022164Y498656D01*
X1022112Y498691D01*
X1022063Y498729D01*
X1022015Y498771D01*
X1021971Y498815D01*
X1021929Y498863D01*
X1021891Y498912D01*
X1021856Y498964D01*
X1021824Y499018D01*
X1021795Y499074D01*
X1021770Y499132D01*
X1021749Y499191D01*
X1021731Y499251D01*
X1021718Y499313D01*
X1021708Y499375D01*
X1021702Y499437D01*
X1021700Y499500D01*
D12*
X2755000Y546700D02*
X2755000Y576000D01*
X2605000Y576000D01*
X2605000Y546700D01*
X2605000Y513300D02*
X2605000Y490100D01*
X2755000Y490100D02*
X2755000Y513300D01*
X2630400Y454600D02*
X2618500Y454600D01*
X2729600Y454600D02*
X2741800Y454600D01*
D11*
X2724000Y445000D02*
X2724002Y445063D01*
X2724008Y445125D01*
X2724018Y445187D01*
X2724031Y445249D01*
X2724049Y445309D01*
X2724070Y445368D01*
X2724095Y445426D01*
X2724124Y445482D01*
X2724156Y445536D01*
X2724191Y445588D01*
X2724229Y445637D01*
X2724271Y445685D01*
X2724315Y445729D01*
X2724363Y445771D01*
X2724412Y445809D01*
X2724464Y445844D01*
X2724518Y445876D01*
X2724574Y445905D01*
X2724632Y445930D01*
X2724691Y445951D01*
X2724751Y445969D01*
X2724813Y445982D01*
X2724875Y445992D01*
X2724937Y445998D01*
X2725000Y446000D01*
X2725063Y445998D01*
X2725125Y445992D01*
X2725187Y445982D01*
X2725249Y445969D01*
X2725309Y445951D01*
X2725368Y445930D01*
X2725426Y445905D01*
X2725482Y445876D01*
X2725536Y445844D01*
X2725588Y445809D01*
X2725637Y445771D01*
X2725685Y445729D01*
X2725729Y445685D01*
X2725771Y445637D01*
X2725809Y445588D01*
X2725844Y445536D01*
X2725876Y445482D01*
X2725905Y445426D01*
X2725930Y445368D01*
X2725951Y445309D01*
X2725969Y445249D01*
X2725982Y445187D01*
X2725992Y445125D01*
X2725998Y445063D01*
X2726000Y445000D01*
X2725998Y444937D01*
X2725992Y444875D01*
X2725982Y444813D01*
X2725969Y444751D01*
X2725951Y444691D01*
X2725930Y444632D01*
X2725905Y444574D01*
X2725876Y444518D01*
X2725844Y444464D01*
X2725809Y444412D01*
X2725771Y444363D01*
X2725729Y444315D01*
X2725685Y444271D01*
X2725637Y444229D01*
X2725588Y444191D01*
X2725536Y444156D01*
X2725482Y444124D01*
X2725426Y444095D01*
X2725368Y444070D01*
X2725309Y444049D01*
X2725249Y444031D01*
X2725187Y444018D01*
X2725125Y444008D01*
X2725063Y444002D01*
X2725000Y444000D01*
X2724937Y444002D01*
X2724875Y444008D01*
X2724813Y444018D01*
X2724751Y444031D01*
X2724691Y444049D01*
X2724632Y444070D01*
X2724574Y444095D01*
X2724518Y444124D01*
X2724464Y444156D01*
X2724412Y444191D01*
X2724363Y444229D01*
X2724315Y444271D01*
X2724271Y444315D01*
X2724229Y444363D01*
X2724191Y444412D01*
X2724156Y444464D01*
X2724124Y444518D01*
X2724095Y444574D01*
X2724070Y444632D01*
X2724049Y444691D01*
X2724031Y444751D01*
X2724018Y444813D01*
X2724008Y444875D01*
X2724002Y444937D01*
X2724000Y445000D01*
D12*
X2515000Y546700D02*
X2515000Y576000D01*
X2365000Y576000D01*
X2365000Y546700D01*
X2365000Y513300D02*
X2365000Y490100D01*
X2515000Y490100D02*
X2515000Y513300D01*
X2390400Y454600D02*
X2378500Y454600D01*
X2489600Y454600D02*
X2501800Y454600D01*
D11*
X2484000Y445000D02*
X2484002Y445063D01*
X2484008Y445125D01*
X2484018Y445187D01*
X2484031Y445249D01*
X2484049Y445309D01*
X2484070Y445368D01*
X2484095Y445426D01*
X2484124Y445482D01*
X2484156Y445536D01*
X2484191Y445588D01*
X2484229Y445637D01*
X2484271Y445685D01*
X2484315Y445729D01*
X2484363Y445771D01*
X2484412Y445809D01*
X2484464Y445844D01*
X2484518Y445876D01*
X2484574Y445905D01*
X2484632Y445930D01*
X2484691Y445951D01*
X2484751Y445969D01*
X2484813Y445982D01*
X2484875Y445992D01*
X2484937Y445998D01*
X2485000Y446000D01*
X2485063Y445998D01*
X2485125Y445992D01*
X2485187Y445982D01*
X2485249Y445969D01*
X2485309Y445951D01*
X2485368Y445930D01*
X2485426Y445905D01*
X2485482Y445876D01*
X2485536Y445844D01*
X2485588Y445809D01*
X2485637Y445771D01*
X2485685Y445729D01*
X2485729Y445685D01*
X2485771Y445637D01*
X2485809Y445588D01*
X2485844Y445536D01*
X2485876Y445482D01*
X2485905Y445426D01*
X2485930Y445368D01*
X2485951Y445309D01*
X2485969Y445249D01*
X2485982Y445187D01*
X2485992Y445125D01*
X2485998Y445063D01*
X2486000Y445000D01*
X2485998Y444937D01*
X2485992Y444875D01*
X2485982Y444813D01*
X2485969Y444751D01*
X2485951Y444691D01*
X2485930Y444632D01*
X2485905Y444574D01*
X2485876Y444518D01*
X2485844Y444464D01*
X2485809Y444412D01*
X2485771Y444363D01*
X2485729Y444315D01*
X2485685Y444271D01*
X2485637Y444229D01*
X2485588Y444191D01*
X2485536Y444156D01*
X2485482Y444124D01*
X2485426Y444095D01*
X2485368Y444070D01*
X2485309Y444049D01*
X2485249Y444031D01*
X2485187Y444018D01*
X2485125Y444008D01*
X2485063Y444002D01*
X2485000Y444000D01*
X2484937Y444002D01*
X2484875Y444008D01*
X2484813Y444018D01*
X2484751Y444031D01*
X2484691Y444049D01*
X2484632Y444070D01*
X2484574Y444095D01*
X2484518Y444124D01*
X2484464Y444156D01*
X2484412Y444191D01*
X2484363Y444229D01*
X2484315Y444271D01*
X2484271Y444315D01*
X2484229Y444363D01*
X2484191Y444412D01*
X2484156Y444464D01*
X2484124Y444518D01*
X2484095Y444574D01*
X2484070Y444632D01*
X2484049Y444691D01*
X2484031Y444751D01*
X2484018Y444813D01*
X2484008Y444875D01*
X2484002Y444937D01*
X2484000Y445000D01*
X735000Y479000D02*
X706000Y479000D01*
X706000Y506000D01*
X709000Y506000D01*
X716500Y510000D02*
X716500Y581000D01*
X843500Y581000D01*
X843500Y510000D01*
X854000Y479000D02*
X826000Y479000D01*
X854000Y479000D02*
X854000Y506000D01*
X851000Y506000D01*
D13*
X729000Y469000D02*
X729002Y469089D01*
X729008Y469178D01*
X729018Y469267D01*
X729032Y469355D01*
X729049Y469442D01*
X729071Y469528D01*
X729097Y469614D01*
X729126Y469698D01*
X729159Y469781D01*
X729195Y469862D01*
X729236Y469942D01*
X729279Y470019D01*
X729326Y470095D01*
X729377Y470168D01*
X729430Y470239D01*
X729487Y470308D01*
X729547Y470374D01*
X729610Y470438D01*
X729675Y470498D01*
X729743Y470556D01*
X729814Y470610D01*
X729887Y470661D01*
X729962Y470709D01*
X730039Y470754D01*
X730118Y470795D01*
X730199Y470832D01*
X730281Y470866D01*
X730365Y470897D01*
X730450Y470923D01*
X730536Y470946D01*
X730623Y470964D01*
X730711Y470979D01*
X730800Y470990D01*
X730889Y470997D01*
X730978Y471000D01*
X731067Y470999D01*
X731156Y470994D01*
X731244Y470985D01*
X731333Y470972D01*
X731420Y470955D01*
X731507Y470935D01*
X731593Y470910D01*
X731677Y470882D01*
X731760Y470850D01*
X731842Y470814D01*
X731922Y470775D01*
X732000Y470732D01*
X732076Y470686D01*
X732150Y470636D01*
X732222Y470583D01*
X732291Y470527D01*
X732358Y470468D01*
X732422Y470406D01*
X732483Y470342D01*
X732542Y470274D01*
X732597Y470204D01*
X732649Y470132D01*
X732698Y470057D01*
X732743Y469981D01*
X732785Y469902D01*
X732823Y469822D01*
X732858Y469740D01*
X732889Y469656D01*
X732917Y469571D01*
X732940Y469485D01*
X732960Y469398D01*
X732976Y469311D01*
X732988Y469222D01*
X732996Y469134D01*
X733000Y469045D01*
X733000Y468955D01*
X732996Y468866D01*
X732988Y468778D01*
X732976Y468689D01*
X732960Y468602D01*
X732940Y468515D01*
X732917Y468429D01*
X732889Y468344D01*
X732858Y468260D01*
X732823Y468178D01*
X732785Y468098D01*
X732743Y468019D01*
X732698Y467943D01*
X732649Y467868D01*
X732597Y467796D01*
X732542Y467726D01*
X732483Y467658D01*
X732422Y467594D01*
X732358Y467532D01*
X732291Y467473D01*
X732222Y467417D01*
X732150Y467364D01*
X732076Y467314D01*
X732000Y467268D01*
X731922Y467225D01*
X731842Y467186D01*
X731760Y467150D01*
X731677Y467118D01*
X731593Y467090D01*
X731507Y467065D01*
X731420Y467045D01*
X731333Y467028D01*
X731244Y467015D01*
X731156Y467006D01*
X731067Y467001D01*
X730978Y467000D01*
X730889Y467003D01*
X730800Y467010D01*
X730711Y467021D01*
X730623Y467036D01*
X730536Y467054D01*
X730450Y467077D01*
X730365Y467103D01*
X730281Y467134D01*
X730199Y467168D01*
X730118Y467205D01*
X730039Y467246D01*
X729962Y467291D01*
X729887Y467339D01*
X729814Y467390D01*
X729743Y467444D01*
X729675Y467502D01*
X729610Y467562D01*
X729547Y467626D01*
X729487Y467692D01*
X729430Y467761D01*
X729377Y467832D01*
X729326Y467905D01*
X729279Y467981D01*
X729236Y468058D01*
X729195Y468138D01*
X729159Y468219D01*
X729126Y468302D01*
X729097Y468386D01*
X729071Y468472D01*
X729049Y468558D01*
X729032Y468645D01*
X729018Y468733D01*
X729008Y468822D01*
X729002Y468911D01*
X729000Y469000D01*
D12*
X921200Y465000D02*
X921200Y485000D01*
X921200Y440000D02*
X921200Y434500D01*
X921200Y513000D02*
X921200Y521800D01*
X958800Y485000D02*
X958800Y465000D01*
X958800Y440000D02*
X958800Y434500D01*
X958800Y513000D02*
X958800Y521800D01*
X958800Y434500D02*
X921200Y434500D01*
D11*
X901700Y499500D02*
X901702Y499563D01*
X901708Y499625D01*
X901718Y499687D01*
X901731Y499749D01*
X901749Y499809D01*
X901770Y499868D01*
X901795Y499926D01*
X901824Y499982D01*
X901856Y500036D01*
X901891Y500088D01*
X901929Y500137D01*
X901971Y500185D01*
X902015Y500229D01*
X902063Y500271D01*
X902112Y500309D01*
X902164Y500344D01*
X902218Y500376D01*
X902274Y500405D01*
X902332Y500430D01*
X902391Y500451D01*
X902451Y500469D01*
X902513Y500482D01*
X902575Y500492D01*
X902637Y500498D01*
X902700Y500500D01*
X902763Y500498D01*
X902825Y500492D01*
X902887Y500482D01*
X902949Y500469D01*
X903009Y500451D01*
X903068Y500430D01*
X903126Y500405D01*
X903182Y500376D01*
X903236Y500344D01*
X903288Y500309D01*
X903337Y500271D01*
X903385Y500229D01*
X903429Y500185D01*
X903471Y500137D01*
X903509Y500088D01*
X903544Y500036D01*
X903576Y499982D01*
X903605Y499926D01*
X903630Y499868D01*
X903651Y499809D01*
X903669Y499749D01*
X903682Y499687D01*
X903692Y499625D01*
X903698Y499563D01*
X903700Y499500D01*
X903698Y499437D01*
X903692Y499375D01*
X903682Y499313D01*
X903669Y499251D01*
X903651Y499191D01*
X903630Y499132D01*
X903605Y499074D01*
X903576Y499018D01*
X903544Y498964D01*
X903509Y498912D01*
X903471Y498863D01*
X903429Y498815D01*
X903385Y498771D01*
X903337Y498729D01*
X903288Y498691D01*
X903236Y498656D01*
X903182Y498624D01*
X903126Y498595D01*
X903068Y498570D01*
X903009Y498549D01*
X902949Y498531D01*
X902887Y498518D01*
X902825Y498508D01*
X902763Y498502D01*
X902700Y498500D01*
X902637Y498502D01*
X902575Y498508D01*
X902513Y498518D01*
X902451Y498531D01*
X902391Y498549D01*
X902332Y498570D01*
X902274Y498595D01*
X902218Y498624D01*
X902164Y498656D01*
X902112Y498691D01*
X902063Y498729D01*
X902015Y498771D01*
X901971Y498815D01*
X901929Y498863D01*
X901891Y498912D01*
X901856Y498964D01*
X901824Y499018D01*
X901795Y499074D01*
X901770Y499132D01*
X901749Y499191D01*
X901731Y499251D01*
X901718Y499313D01*
X901708Y499375D01*
X901702Y499437D01*
X901700Y499500D01*
D12*
X2241200Y485000D02*
X2241200Y465000D01*
X2241200Y440000D02*
X2241200Y434500D01*
X2241200Y513000D02*
X2241200Y521800D01*
X2278800Y485000D02*
X2278800Y465000D01*
X2278800Y440000D02*
X2278800Y434500D01*
X2278800Y513000D02*
X2278800Y521800D01*
X2278800Y434500D02*
X2241200Y434500D01*
D11*
X2221700Y499500D02*
X2221702Y499563D01*
X2221708Y499625D01*
X2221718Y499687D01*
X2221731Y499749D01*
X2221749Y499809D01*
X2221770Y499868D01*
X2221795Y499926D01*
X2221824Y499982D01*
X2221856Y500036D01*
X2221891Y500088D01*
X2221929Y500137D01*
X2221971Y500185D01*
X2222015Y500229D01*
X2222063Y500271D01*
X2222112Y500309D01*
X2222164Y500344D01*
X2222218Y500376D01*
X2222274Y500405D01*
X2222332Y500430D01*
X2222391Y500451D01*
X2222451Y500469D01*
X2222513Y500482D01*
X2222575Y500492D01*
X2222637Y500498D01*
X2222700Y500500D01*
X2222763Y500498D01*
X2222825Y500492D01*
X2222887Y500482D01*
X2222949Y500469D01*
X2223009Y500451D01*
X2223068Y500430D01*
X2223126Y500405D01*
X2223182Y500376D01*
X2223236Y500344D01*
X2223288Y500309D01*
X2223337Y500271D01*
X2223385Y500229D01*
X2223429Y500185D01*
X2223471Y500137D01*
X2223509Y500088D01*
X2223544Y500036D01*
X2223576Y499982D01*
X2223605Y499926D01*
X2223630Y499868D01*
X2223651Y499809D01*
X2223669Y499749D01*
X2223682Y499687D01*
X2223692Y499625D01*
X2223698Y499563D01*
X2223700Y499500D01*
X2223698Y499437D01*
X2223692Y499375D01*
X2223682Y499313D01*
X2223669Y499251D01*
X2223651Y499191D01*
X2223630Y499132D01*
X2223605Y499074D01*
X2223576Y499018D01*
X2223544Y498964D01*
X2223509Y498912D01*
X2223471Y498863D01*
X2223429Y498815D01*
X2223385Y498771D01*
X2223337Y498729D01*
X2223288Y498691D01*
X2223236Y498656D01*
X2223182Y498624D01*
X2223126Y498595D01*
X2223068Y498570D01*
X2223009Y498549D01*
X2222949Y498531D01*
X2222887Y498518D01*
X2222825Y498508D01*
X2222763Y498502D01*
X2222700Y498500D01*
X2222637Y498502D01*
X2222575Y498508D01*
X2222513Y498518D01*
X2222451Y498531D01*
X2222391Y498549D01*
X2222332Y498570D01*
X2222274Y498595D01*
X2222218Y498624D01*
X2222164Y498656D01*
X2222112Y498691D01*
X2222063Y498729D01*
X2222015Y498771D01*
X2221971Y498815D01*
X2221929Y498863D01*
X2221891Y498912D01*
X2221856Y498964D01*
X2221824Y499018D01*
X2221795Y499074D01*
X2221770Y499132D01*
X2221749Y499191D01*
X2221731Y499251D01*
X2221718Y499313D01*
X2221708Y499375D01*
X2221702Y499437D01*
X2221700Y499500D01*
D10*
X1274428Y52735D02*
X1274426Y52857D01*
X1274420Y52979D01*
X1274410Y53101D01*
X1274397Y53222D01*
X1274379Y53343D01*
X1274358Y53463D01*
X1274332Y53583D01*
X1274303Y53701D01*
X1274271Y53819D01*
X1274234Y53936D01*
X1274194Y54051D01*
X1274150Y54165D01*
X1274102Y54277D01*
X1274051Y54388D01*
X1273996Y54497D01*
X1273938Y54605D01*
X1273876Y54710D01*
X1273811Y54813D01*
X1273743Y54915D01*
X1273671Y55014D01*
X1273597Y55110D01*
X1273519Y55205D01*
X1273438Y55296D01*
X1273355Y55386D01*
X1273269Y55472D01*
X1273179Y55555D01*
X1273088Y55636D01*
X1272993Y55714D01*
X1272897Y55788D01*
X1272798Y55860D01*
X1272696Y55928D01*
X1272593Y55993D01*
X1272488Y56055D01*
X1272380Y56113D01*
X1272271Y56168D01*
X1272160Y56219D01*
X1272048Y56267D01*
X1271934Y56311D01*
X1271819Y56351D01*
X1271702Y56388D01*
X1271584Y56420D01*
X1271466Y56449D01*
X1271346Y56475D01*
X1271226Y56496D01*
X1271105Y56514D01*
X1270984Y56527D01*
X1270862Y56537D01*
X1270740Y56543D01*
X1270618Y56545D01*
X1270496Y56543D01*
X1270374Y56537D01*
X1270252Y56527D01*
X1270131Y56514D01*
X1270010Y56496D01*
X1269890Y56475D01*
X1269770Y56449D01*
X1269652Y56420D01*
X1269534Y56388D01*
X1269417Y56351D01*
X1269302Y56311D01*
X1269188Y56267D01*
X1269076Y56219D01*
X1268965Y56168D01*
X1268856Y56113D01*
X1268748Y56055D01*
X1268643Y55993D01*
X1268540Y55928D01*
X1268438Y55860D01*
X1268339Y55788D01*
X1268243Y55714D01*
X1268148Y55636D01*
X1268057Y55555D01*
X1267967Y55472D01*
X1267881Y55386D01*
X1267798Y55296D01*
X1267717Y55205D01*
X1267639Y55110D01*
X1267565Y55014D01*
X1267493Y54915D01*
X1267425Y54813D01*
X1267360Y54710D01*
X1267298Y54605D01*
X1267240Y54497D01*
X1267185Y54388D01*
X1267134Y54277D01*
X1267086Y54165D01*
X1267042Y54051D01*
X1267002Y53936D01*
X1266965Y53819D01*
X1266933Y53701D01*
X1266904Y53583D01*
X1266878Y53463D01*
X1266857Y53343D01*
X1266839Y53222D01*
X1266826Y53101D01*
X1266816Y52979D01*
X1266810Y52857D01*
X1266808Y52735D01*
X1266810Y52613D01*
X1266816Y52491D01*
X1266826Y52369D01*
X1266839Y52248D01*
X1266857Y52127D01*
X1266878Y52007D01*
X1266904Y51887D01*
X1266933Y51769D01*
X1266965Y51651D01*
X1267002Y51534D01*
X1267042Y51419D01*
X1267086Y51305D01*
X1267134Y51193D01*
X1267185Y51082D01*
X1267240Y50973D01*
X1267298Y50865D01*
X1267360Y50760D01*
X1267425Y50657D01*
X1267493Y50555D01*
X1267565Y50456D01*
X1267639Y50360D01*
X1267717Y50265D01*
X1267798Y50174D01*
X1267881Y50084D01*
X1267967Y49998D01*
X1268057Y49915D01*
X1268148Y49834D01*
X1268243Y49756D01*
X1268339Y49682D01*
X1268438Y49610D01*
X1268540Y49542D01*
X1268643Y49477D01*
X1268748Y49415D01*
X1268856Y49357D01*
X1268965Y49302D01*
X1269076Y49251D01*
X1269188Y49203D01*
X1269302Y49159D01*
X1269417Y49119D01*
X1269534Y49082D01*
X1269652Y49050D01*
X1269770Y49021D01*
X1269890Y48995D01*
X1270010Y48974D01*
X1270131Y48956D01*
X1270252Y48943D01*
X1270374Y48933D01*
X1270496Y48927D01*
X1270618Y48925D01*
X1270740Y48927D01*
X1270862Y48933D01*
X1270984Y48943D01*
X1271105Y48956D01*
X1271226Y48974D01*
X1271346Y48995D01*
X1271466Y49021D01*
X1271584Y49050D01*
X1271702Y49082D01*
X1271819Y49119D01*
X1271934Y49159D01*
X1272048Y49203D01*
X1272160Y49251D01*
X1272271Y49302D01*
X1272380Y49357D01*
X1272488Y49415D01*
X1272593Y49477D01*
X1272696Y49542D01*
X1272798Y49610D01*
X1272897Y49682D01*
X1272993Y49756D01*
X1273088Y49834D01*
X1273179Y49915D01*
X1273269Y49998D01*
X1273355Y50084D01*
X1273438Y50174D01*
X1273519Y50265D01*
X1273597Y50360D01*
X1273671Y50456D01*
X1273743Y50555D01*
X1273811Y50657D01*
X1273876Y50760D01*
X1273938Y50865D01*
X1273996Y50973D01*
X1274051Y51082D01*
X1274102Y51193D01*
X1274150Y51305D01*
X1274194Y51419D01*
X1274234Y51534D01*
X1274271Y51651D01*
X1274303Y51769D01*
X1274332Y51887D01*
X1274358Y52007D01*
X1274379Y52127D01*
X1274397Y52248D01*
X1274410Y52369D01*
X1274420Y52491D01*
X1274426Y52613D01*
X1274428Y52735D01*
D12*
X2121200Y465000D02*
X2121200Y485000D01*
X2121200Y440000D02*
X2121200Y434500D01*
X2121200Y513000D02*
X2121200Y521800D01*
X2158800Y485000D02*
X2158800Y465000D01*
X2158800Y440000D02*
X2158800Y434500D01*
X2158800Y513000D02*
X2158800Y521800D01*
X2158800Y434500D02*
X2121200Y434500D01*
D11*
X2101700Y499500D02*
X2101702Y499563D01*
X2101708Y499625D01*
X2101718Y499687D01*
X2101731Y499749D01*
X2101749Y499809D01*
X2101770Y499868D01*
X2101795Y499926D01*
X2101824Y499982D01*
X2101856Y500036D01*
X2101891Y500088D01*
X2101929Y500137D01*
X2101971Y500185D01*
X2102015Y500229D01*
X2102063Y500271D01*
X2102112Y500309D01*
X2102164Y500344D01*
X2102218Y500376D01*
X2102274Y500405D01*
X2102332Y500430D01*
X2102391Y500451D01*
X2102451Y500469D01*
X2102513Y500482D01*
X2102575Y500492D01*
X2102637Y500498D01*
X2102700Y500500D01*
X2102763Y500498D01*
X2102825Y500492D01*
X2102887Y500482D01*
X2102949Y500469D01*
X2103009Y500451D01*
X2103068Y500430D01*
X2103126Y500405D01*
X2103182Y500376D01*
X2103236Y500344D01*
X2103288Y500309D01*
X2103337Y500271D01*
X2103385Y500229D01*
X2103429Y500185D01*
X2103471Y500137D01*
X2103509Y500088D01*
X2103544Y500036D01*
X2103576Y499982D01*
X2103605Y499926D01*
X2103630Y499868D01*
X2103651Y499809D01*
X2103669Y499749D01*
X2103682Y499687D01*
X2103692Y499625D01*
X2103698Y499563D01*
X2103700Y499500D01*
X2103698Y499437D01*
X2103692Y499375D01*
X2103682Y499313D01*
X2103669Y499251D01*
X2103651Y499191D01*
X2103630Y499132D01*
X2103605Y499074D01*
X2103576Y499018D01*
X2103544Y498964D01*
X2103509Y498912D01*
X2103471Y498863D01*
X2103429Y498815D01*
X2103385Y498771D01*
X2103337Y498729D01*
X2103288Y498691D01*
X2103236Y498656D01*
X2103182Y498624D01*
X2103126Y498595D01*
X2103068Y498570D01*
X2103009Y498549D01*
X2102949Y498531D01*
X2102887Y498518D01*
X2102825Y498508D01*
X2102763Y498502D01*
X2102700Y498500D01*
X2102637Y498502D01*
X2102575Y498508D01*
X2102513Y498518D01*
X2102451Y498531D01*
X2102391Y498549D01*
X2102332Y498570D01*
X2102274Y498595D01*
X2102218Y498624D01*
X2102164Y498656D01*
X2102112Y498691D01*
X2102063Y498729D01*
X2102015Y498771D01*
X2101971Y498815D01*
X2101929Y498863D01*
X2101891Y498912D01*
X2101856Y498964D01*
X2101824Y499018D01*
X2101795Y499074D01*
X2101770Y499132D01*
X2101749Y499191D01*
X2101731Y499251D01*
X2101718Y499313D01*
X2101708Y499375D01*
X2101702Y499437D01*
X2101700Y499500D01*
X2859100Y485000D02*
X2883750Y485000D01*
X2859100Y485000D02*
X2859100Y575250D01*
X3140900Y575250D01*
X3140900Y484750D01*
X3116250Y484750D01*
X3116250Y482250D01*
X2883750Y482000D02*
X2883750Y485000D01*
X2883750Y482000D02*
X2894250Y482000D01*
X2894250Y485000D01*
X2906900Y485000D01*
X2906900Y479000D01*
X3105750Y482250D02*
X3116250Y482250D01*
X3105750Y482250D02*
X3105750Y484750D01*
X3093100Y484750D01*
X3093100Y479000D01*
X2915300Y479000D02*
X2915300Y484750D01*
X2932300Y484750D01*
X2932300Y479000D01*
X2940700Y479000D02*
X2940700Y484750D01*
X2957700Y484750D01*
X2957700Y479000D01*
X2966100Y479000D02*
X2966100Y484750D01*
X2983100Y484750D01*
X2983100Y479000D01*
X3016900Y479000D02*
X3016900Y484750D01*
X3033900Y484750D01*
X3033900Y479000D01*
X3042300Y479000D02*
X3042300Y484750D01*
X3059300Y484750D01*
X3059300Y479000D01*
X3067700Y479000D02*
X3067700Y484750D01*
X3084700Y484750D01*
X3084700Y479000D01*
X2991500Y479000D02*
X2991500Y484750D01*
X2994750Y484750D01*
X2994750Y482250D01*
X3005250Y482250D01*
X3005250Y484750D01*
X3008500Y484750D01*
X3008500Y479000D01*
X3101600Y440000D02*
X3101602Y440063D01*
X3101608Y440125D01*
X3101618Y440187D01*
X3101631Y440249D01*
X3101649Y440309D01*
X3101670Y440368D01*
X3101695Y440426D01*
X3101724Y440482D01*
X3101756Y440536D01*
X3101791Y440588D01*
X3101829Y440637D01*
X3101871Y440685D01*
X3101915Y440729D01*
X3101963Y440771D01*
X3102012Y440809D01*
X3102064Y440844D01*
X3102118Y440876D01*
X3102174Y440905D01*
X3102232Y440930D01*
X3102291Y440951D01*
X3102351Y440969D01*
X3102413Y440982D01*
X3102475Y440992D01*
X3102537Y440998D01*
X3102600Y441000D01*
X3102663Y440998D01*
X3102725Y440992D01*
X3102787Y440982D01*
X3102849Y440969D01*
X3102909Y440951D01*
X3102968Y440930D01*
X3103026Y440905D01*
X3103082Y440876D01*
X3103136Y440844D01*
X3103188Y440809D01*
X3103237Y440771D01*
X3103285Y440729D01*
X3103329Y440685D01*
X3103371Y440637D01*
X3103409Y440588D01*
X3103444Y440536D01*
X3103476Y440482D01*
X3103505Y440426D01*
X3103530Y440368D01*
X3103551Y440309D01*
X3103569Y440249D01*
X3103582Y440187D01*
X3103592Y440125D01*
X3103598Y440063D01*
X3103600Y440000D01*
X3103598Y439937D01*
X3103592Y439875D01*
X3103582Y439813D01*
X3103569Y439751D01*
X3103551Y439691D01*
X3103530Y439632D01*
X3103505Y439574D01*
X3103476Y439518D01*
X3103444Y439464D01*
X3103409Y439412D01*
X3103371Y439363D01*
X3103329Y439315D01*
X3103285Y439271D01*
X3103237Y439229D01*
X3103188Y439191D01*
X3103136Y439156D01*
X3103082Y439124D01*
X3103026Y439095D01*
X3102968Y439070D01*
X3102909Y439049D01*
X3102849Y439031D01*
X3102787Y439018D01*
X3102725Y439008D01*
X3102663Y439002D01*
X3102600Y439000D01*
X3102537Y439002D01*
X3102475Y439008D01*
X3102413Y439018D01*
X3102351Y439031D01*
X3102291Y439049D01*
X3102232Y439070D01*
X3102174Y439095D01*
X3102118Y439124D01*
X3102064Y439156D01*
X3102012Y439191D01*
X3101963Y439229D01*
X3101915Y439271D01*
X3101871Y439315D01*
X3101829Y439363D01*
X3101791Y439412D01*
X3101756Y439464D01*
X3101724Y439518D01*
X3101695Y439574D01*
X3101670Y439632D01*
X3101649Y439691D01*
X3101631Y439751D01*
X3101618Y439813D01*
X3101608Y439875D01*
X3101602Y439937D01*
X3101600Y440000D01*
D12*
X2831000Y419000D02*
X2831000Y413000D01*
X2789000Y413000D02*
X2789000Y419000D01*
X2789000Y501000D02*
X2789000Y507000D01*
X2831000Y507000D02*
X2831000Y501000D01*
D11*
X2765000Y492000D02*
X2765002Y492063D01*
X2765008Y492125D01*
X2765018Y492187D01*
X2765031Y492249D01*
X2765049Y492309D01*
X2765070Y492368D01*
X2765095Y492426D01*
X2765124Y492482D01*
X2765156Y492536D01*
X2765191Y492588D01*
X2765229Y492637D01*
X2765271Y492685D01*
X2765315Y492729D01*
X2765363Y492771D01*
X2765412Y492809D01*
X2765464Y492844D01*
X2765518Y492876D01*
X2765574Y492905D01*
X2765632Y492930D01*
X2765691Y492951D01*
X2765751Y492969D01*
X2765813Y492982D01*
X2765875Y492992D01*
X2765937Y492998D01*
X2766000Y493000D01*
X2766063Y492998D01*
X2766125Y492992D01*
X2766187Y492982D01*
X2766249Y492969D01*
X2766309Y492951D01*
X2766368Y492930D01*
X2766426Y492905D01*
X2766482Y492876D01*
X2766536Y492844D01*
X2766588Y492809D01*
X2766637Y492771D01*
X2766685Y492729D01*
X2766729Y492685D01*
X2766771Y492637D01*
X2766809Y492588D01*
X2766844Y492536D01*
X2766876Y492482D01*
X2766905Y492426D01*
X2766930Y492368D01*
X2766951Y492309D01*
X2766969Y492249D01*
X2766982Y492187D01*
X2766992Y492125D01*
X2766998Y492063D01*
X2767000Y492000D01*
X2766998Y491937D01*
X2766992Y491875D01*
X2766982Y491813D01*
X2766969Y491751D01*
X2766951Y491691D01*
X2766930Y491632D01*
X2766905Y491574D01*
X2766876Y491518D01*
X2766844Y491464D01*
X2766809Y491412D01*
X2766771Y491363D01*
X2766729Y491315D01*
X2766685Y491271D01*
X2766637Y491229D01*
X2766588Y491191D01*
X2766536Y491156D01*
X2766482Y491124D01*
X2766426Y491095D01*
X2766368Y491070D01*
X2766309Y491049D01*
X2766249Y491031D01*
X2766187Y491018D01*
X2766125Y491008D01*
X2766063Y491002D01*
X2766000Y491000D01*
X2765937Y491002D01*
X2765875Y491008D01*
X2765813Y491018D01*
X2765751Y491031D01*
X2765691Y491049D01*
X2765632Y491070D01*
X2765574Y491095D01*
X2765518Y491124D01*
X2765464Y491156D01*
X2765412Y491191D01*
X2765363Y491229D01*
X2765315Y491271D01*
X2765271Y491315D01*
X2765229Y491363D01*
X2765191Y491412D01*
X2765156Y491464D01*
X2765124Y491518D01*
X2765095Y491574D01*
X2765070Y491632D01*
X2765049Y491691D01*
X2765031Y491751D01*
X2765018Y491813D01*
X2765008Y491875D01*
X2765002Y491937D01*
X2765000Y492000D01*
D12*
X421000Y419000D02*
X421000Y413000D01*
X379000Y413000D02*
X379000Y419000D01*
X379000Y501000D02*
X379000Y507000D01*
X421000Y507000D02*
X421000Y501000D01*
D11*
X355000Y492000D02*
X355002Y492063D01*
X355008Y492125D01*
X355018Y492187D01*
X355031Y492249D01*
X355049Y492309D01*
X355070Y492368D01*
X355095Y492426D01*
X355124Y492482D01*
X355156Y492536D01*
X355191Y492588D01*
X355229Y492637D01*
X355271Y492685D01*
X355315Y492729D01*
X355363Y492771D01*
X355412Y492809D01*
X355464Y492844D01*
X355518Y492876D01*
X355574Y492905D01*
X355632Y492930D01*
X355691Y492951D01*
X355751Y492969D01*
X355813Y492982D01*
X355875Y492992D01*
X355937Y492998D01*
X356000Y493000D01*
X356063Y492998D01*
X356125Y492992D01*
X356187Y492982D01*
X356249Y492969D01*
X356309Y492951D01*
X356368Y492930D01*
X356426Y492905D01*
X356482Y492876D01*
X356536Y492844D01*
X356588Y492809D01*
X356637Y492771D01*
X356685Y492729D01*
X356729Y492685D01*
X356771Y492637D01*
X356809Y492588D01*
X356844Y492536D01*
X356876Y492482D01*
X356905Y492426D01*
X356930Y492368D01*
X356951Y492309D01*
X356969Y492249D01*
X356982Y492187D01*
X356992Y492125D01*
X356998Y492063D01*
X357000Y492000D01*
X356998Y491937D01*
X356992Y491875D01*
X356982Y491813D01*
X356969Y491751D01*
X356951Y491691D01*
X356930Y491632D01*
X356905Y491574D01*
X356876Y491518D01*
X356844Y491464D01*
X356809Y491412D01*
X356771Y491363D01*
X356729Y491315D01*
X356685Y491271D01*
X356637Y491229D01*
X356588Y491191D01*
X356536Y491156D01*
X356482Y491124D01*
X356426Y491095D01*
X356368Y491070D01*
X356309Y491049D01*
X356249Y491031D01*
X356187Y491018D01*
X356125Y491008D01*
X356063Y491002D01*
X356000Y491000D01*
X355937Y491002D01*
X355875Y491008D01*
X355813Y491018D01*
X355751Y491031D01*
X355691Y491049D01*
X355632Y491070D01*
X355574Y491095D01*
X355518Y491124D01*
X355464Y491156D01*
X355412Y491191D01*
X355363Y491229D01*
X355315Y491271D01*
X355271Y491315D01*
X355229Y491363D01*
X355191Y491412D01*
X355156Y491464D01*
X355124Y491518D01*
X355095Y491574D01*
X355070Y491632D01*
X355049Y491691D01*
X355031Y491751D01*
X355018Y491813D01*
X355008Y491875D01*
X355002Y491937D01*
X355000Y492000D01*
X83750Y485000D02*
X59100Y485000D01*
X59100Y575250D01*
X340900Y575250D01*
X340900Y484750D01*
X316250Y484750D01*
X316250Y482250D01*
X83750Y482000D02*
X83750Y485000D01*
X83750Y482000D02*
X94250Y482000D01*
X94250Y485000D01*
X106900Y485000D01*
X106900Y479000D01*
X305750Y482250D02*
X316250Y482250D01*
X305750Y482250D02*
X305750Y484750D01*
X293100Y484750D01*
X293100Y479000D01*
X115300Y479000D02*
X115300Y484750D01*
X132300Y484750D01*
X132300Y479000D01*
X140700Y479000D02*
X140700Y484750D01*
X157700Y484750D01*
X157700Y479000D01*
X166100Y479000D02*
X166100Y484750D01*
X183100Y484750D01*
X183100Y479000D01*
X216900Y479000D02*
X216900Y484750D01*
X233900Y484750D01*
X233900Y479000D01*
X242300Y479000D02*
X242300Y484750D01*
X259300Y484750D01*
X259300Y479000D01*
X267700Y479000D02*
X267700Y484750D01*
X284700Y484750D01*
X284700Y479000D01*
X191500Y479000D02*
X191500Y484750D01*
X194750Y484750D01*
X194750Y482250D01*
X205250Y482250D01*
X205250Y484750D01*
X208500Y484750D01*
X208500Y479000D01*
X301600Y440000D02*
X301602Y440063D01*
X301608Y440125D01*
X301618Y440187D01*
X301631Y440249D01*
X301649Y440309D01*
X301670Y440368D01*
X301695Y440426D01*
X301724Y440482D01*
X301756Y440536D01*
X301791Y440588D01*
X301829Y440637D01*
X301871Y440685D01*
X301915Y440729D01*
X301963Y440771D01*
X302012Y440809D01*
X302064Y440844D01*
X302118Y440876D01*
X302174Y440905D01*
X302232Y440930D01*
X302291Y440951D01*
X302351Y440969D01*
X302413Y440982D01*
X302475Y440992D01*
X302537Y440998D01*
X302600Y441000D01*
X302663Y440998D01*
X302725Y440992D01*
X302787Y440982D01*
X302849Y440969D01*
X302909Y440951D01*
X302968Y440930D01*
X303026Y440905D01*
X303082Y440876D01*
X303136Y440844D01*
X303188Y440809D01*
X303237Y440771D01*
X303285Y440729D01*
X303329Y440685D01*
X303371Y440637D01*
X303409Y440588D01*
X303444Y440536D01*
X303476Y440482D01*
X303505Y440426D01*
X303530Y440368D01*
X303551Y440309D01*
X303569Y440249D01*
X303582Y440187D01*
X303592Y440125D01*
X303598Y440063D01*
X303600Y440000D01*
X303598Y439937D01*
X303592Y439875D01*
X303582Y439813D01*
X303569Y439751D01*
X303551Y439691D01*
X303530Y439632D01*
X303505Y439574D01*
X303476Y439518D01*
X303444Y439464D01*
X303409Y439412D01*
X303371Y439363D01*
X303329Y439315D01*
X303285Y439271D01*
X303237Y439229D01*
X303188Y439191D01*
X303136Y439156D01*
X303082Y439124D01*
X303026Y439095D01*
X302968Y439070D01*
X302909Y439049D01*
X302849Y439031D01*
X302787Y439018D01*
X302725Y439008D01*
X302663Y439002D01*
X302600Y439000D01*
X302537Y439002D01*
X302475Y439008D01*
X302413Y439018D01*
X302351Y439031D01*
X302291Y439049D01*
X302232Y439070D01*
X302174Y439095D01*
X302118Y439124D01*
X302064Y439156D01*
X302012Y439191D01*
X301963Y439229D01*
X301915Y439271D01*
X301871Y439315D01*
X301829Y439363D01*
X301791Y439412D01*
X301756Y439464D01*
X301724Y439518D01*
X301695Y439574D01*
X301670Y439632D01*
X301649Y439691D01*
X301631Y439751D01*
X301618Y439813D01*
X301608Y439875D01*
X301602Y439937D01*
X301600Y440000D01*
D12*
X182000Y420000D02*
X182000Y300000D01*
D11*
X39000Y296000D02*
X39002Y296063D01*
X39008Y296125D01*
X39018Y296187D01*
X39031Y296249D01*
X39049Y296309D01*
X39070Y296368D01*
X39095Y296426D01*
X39124Y296482D01*
X39156Y296536D01*
X39191Y296588D01*
X39229Y296637D01*
X39271Y296685D01*
X39315Y296729D01*
X39363Y296771D01*
X39412Y296809D01*
X39464Y296844D01*
X39518Y296876D01*
X39574Y296905D01*
X39632Y296930D01*
X39691Y296951D01*
X39751Y296969D01*
X39813Y296982D01*
X39875Y296992D01*
X39937Y296998D01*
X40000Y297000D01*
X40063Y296998D01*
X40125Y296992D01*
X40187Y296982D01*
X40249Y296969D01*
X40309Y296951D01*
X40368Y296930D01*
X40426Y296905D01*
X40482Y296876D01*
X40536Y296844D01*
X40588Y296809D01*
X40637Y296771D01*
X40685Y296729D01*
X40729Y296685D01*
X40771Y296637D01*
X40809Y296588D01*
X40844Y296536D01*
X40876Y296482D01*
X40905Y296426D01*
X40930Y296368D01*
X40951Y296309D01*
X40969Y296249D01*
X40982Y296187D01*
X40992Y296125D01*
X40998Y296063D01*
X41000Y296000D01*
X40998Y295937D01*
X40992Y295875D01*
X40982Y295813D01*
X40969Y295751D01*
X40951Y295691D01*
X40930Y295632D01*
X40905Y295574D01*
X40876Y295518D01*
X40844Y295464D01*
X40809Y295412D01*
X40771Y295363D01*
X40729Y295315D01*
X40685Y295271D01*
X40637Y295229D01*
X40588Y295191D01*
X40536Y295156D01*
X40482Y295124D01*
X40426Y295095D01*
X40368Y295070D01*
X40309Y295049D01*
X40249Y295031D01*
X40187Y295018D01*
X40125Y295008D01*
X40063Y295002D01*
X40000Y295000D01*
X39937Y295002D01*
X39875Y295008D01*
X39813Y295018D01*
X39751Y295031D01*
X39691Y295049D01*
X39632Y295070D01*
X39574Y295095D01*
X39518Y295124D01*
X39464Y295156D01*
X39412Y295191D01*
X39363Y295229D01*
X39315Y295271D01*
X39271Y295315D01*
X39229Y295363D01*
X39191Y295412D01*
X39156Y295464D01*
X39124Y295518D01*
X39095Y295574D01*
X39070Y295632D01*
X39049Y295691D01*
X39031Y295751D01*
X39018Y295813D01*
X39008Y295875D01*
X39002Y295937D01*
X39000Y296000D01*
D12*
X5000Y300000D02*
X182000Y300000D01*
X5000Y300000D02*
X5000Y315000D01*
X-5000Y315000D01*
X-5000Y405000D01*
X5000Y405000D01*
X5000Y420000D01*
X182000Y420000D01*
M02*
