G04 EAGLE Gerber RS-274X export*
G75*
%MOMM*%
%FSLAX34Y34*%
%LPD*%
%INSolderpaste Top*%
%IPPOS*%
%AMOC8*
5,1,8,0,0,1.08239X$1,22.5*%
G01*
G04 Define Apertures*
%ADD10R,5.080000X5.080000*%
%ADD11R,3.960000X3.960000*%
%ADD12R,1.465300X1.164600*%
%ADD13R,1.164600X1.815300*%
%ADD14R,1.164600X1.465300*%
%ADD15R,2.203600X1.795500*%
%ADD16R,1.815300X1.164600*%
%ADD17C,0.050000*%
%ADD18R,0.304800X1.295400*%
%ADD19R,1.803400X2.209800*%
%ADD20R,1.550000X0.300000*%
%ADD21R,2.750000X1.200000*%
%ADD22R,0.660400X1.549400*%
%ADD23R,1.295400X1.905000*%
%ADD24R,4.800000X1.300000*%
%ADD25R,1.031200X1.420200*%
%ADD26R,1.420200X1.031200*%
%ADD27R,0.700000X0.200000*%
%ADD28C,0.100000*%
%ADD29R,0.762000X0.254000*%
%ADD30R,0.990600X1.803400*%
%ADD31R,0.558800X1.320800*%
%ADD32C,0.147500*%
%ADD33R,1.066800X0.254000*%
%ADD34R,0.254000X1.066800*%
%ADD35C,0.140000*%
%ADD36R,1.400000X1.200000*%
%ADD37R,1.400000X1.000000*%
%ADD38C,0.350000*%
%ADD39C,0.250000*%
%ADD40R,0.700000X0.700000*%
%ADD41R,0.650000X0.250000*%
%ADD42R,0.250000X0.650000*%
%ADD43R,1.460000X1.080000*%
%ADD44C,0.055000*%
%ADD45R,0.300000X0.800000*%
%ADD46R,0.400000X0.800000*%
G36*
X2094600Y256394D02*
X2094546Y257050D01*
X2104842Y257050D01*
X2104949Y256461D01*
X2105148Y255714D01*
X2105447Y254767D01*
X2105846Y253770D01*
X2106494Y252474D01*
X2106942Y251727D01*
X2107490Y250930D01*
X2107989Y250281D01*
X2108587Y249584D01*
X2109784Y248387D01*
X2110331Y247940D01*
X2111129Y247341D01*
X2111876Y246843D01*
X2112574Y246444D01*
X2113571Y245945D01*
X2114270Y245646D01*
X2114916Y245397D01*
X2115714Y245148D01*
X2116461Y244949D01*
X2117050Y244842D01*
X2117050Y234546D01*
X2116394Y234600D01*
X2115742Y234701D01*
X2114890Y234851D01*
X2113988Y235051D01*
X2113237Y235252D01*
X2112486Y235452D01*
X2111734Y235703D01*
X2111032Y235953D01*
X2110281Y236254D01*
X2109580Y236554D01*
X2108828Y236905D01*
X2108327Y237156D01*
X2107476Y237606D01*
X2106774Y238007D01*
X2106073Y238458D01*
X2105321Y238959D01*
X2104370Y239660D01*
X2103418Y240412D01*
X2102816Y240963D01*
X2102115Y241614D01*
X2101514Y242215D01*
X2100913Y242866D01*
X2100412Y243418D01*
X2099861Y244119D01*
X2099360Y244770D01*
X2098859Y245472D01*
X2098358Y246223D01*
X2097957Y246875D01*
X2097506Y247676D01*
X2097106Y248427D01*
X2096705Y249229D01*
X2096354Y250031D01*
X2096053Y250782D01*
X2095803Y251433D01*
X2095502Y252385D01*
X2095202Y253387D01*
X2094951Y254389D01*
X2094801Y255141D01*
X2094701Y255742D01*
X2094600Y256394D01*
G37*
G36*
X2123539Y275051D02*
X2122950Y275158D01*
X2122950Y285454D01*
X2123606Y285400D01*
X2124258Y285299D01*
X2125110Y285149D01*
X2126012Y284949D01*
X2126763Y284748D01*
X2127514Y284548D01*
X2128266Y284297D01*
X2128968Y284047D01*
X2129719Y283746D01*
X2130420Y283446D01*
X2131172Y283095D01*
X2131673Y282844D01*
X2132524Y282394D01*
X2133226Y281993D01*
X2133927Y281542D01*
X2134679Y281041D01*
X2135630Y280340D01*
X2136582Y279588D01*
X2137184Y279037D01*
X2137885Y278386D01*
X2138486Y277785D01*
X2139087Y277134D01*
X2139588Y276582D01*
X2140139Y275881D01*
X2140640Y275230D01*
X2141141Y274528D01*
X2141642Y273777D01*
X2142043Y273125D01*
X2142494Y272324D01*
X2142894Y271573D01*
X2143295Y270771D01*
X2143646Y269969D01*
X2143947Y269218D01*
X2144197Y268567D01*
X2144498Y267615D01*
X2144798Y266613D01*
X2145049Y265611D01*
X2145199Y264859D01*
X2145299Y264258D01*
X2145400Y263606D01*
X2145454Y262950D01*
X2135158Y262950D01*
X2135051Y263539D01*
X2134852Y264286D01*
X2134553Y265233D01*
X2134154Y266230D01*
X2133506Y267526D01*
X2133058Y268273D01*
X2132510Y269070D01*
X2132011Y269719D01*
X2131413Y270416D01*
X2130216Y271613D01*
X2129669Y272060D01*
X2128871Y272659D01*
X2128124Y273157D01*
X2127427Y273556D01*
X2126429Y274055D01*
X2125730Y274354D01*
X2125084Y274603D01*
X2124286Y274852D01*
X2123539Y275051D01*
G37*
G36*
X2274600Y256394D02*
X2274546Y257050D01*
X2284842Y257050D01*
X2284949Y256461D01*
X2285148Y255714D01*
X2285447Y254767D01*
X2285846Y253770D01*
X2286494Y252474D01*
X2286942Y251727D01*
X2287490Y250930D01*
X2287989Y250281D01*
X2288587Y249584D01*
X2289784Y248387D01*
X2290331Y247940D01*
X2291129Y247341D01*
X2291876Y246843D01*
X2292574Y246444D01*
X2293571Y245945D01*
X2294270Y245646D01*
X2294916Y245397D01*
X2295714Y245148D01*
X2296461Y244949D01*
X2297050Y244842D01*
X2297050Y234546D01*
X2296394Y234600D01*
X2295742Y234701D01*
X2294890Y234851D01*
X2293988Y235051D01*
X2293237Y235252D01*
X2292486Y235452D01*
X2291734Y235703D01*
X2291032Y235953D01*
X2290281Y236254D01*
X2289580Y236554D01*
X2288828Y236905D01*
X2288327Y237156D01*
X2287476Y237606D01*
X2286774Y238007D01*
X2286073Y238458D01*
X2285321Y238959D01*
X2284370Y239660D01*
X2283418Y240412D01*
X2282816Y240963D01*
X2282115Y241614D01*
X2281514Y242215D01*
X2280913Y242866D01*
X2280412Y243418D01*
X2279861Y244119D01*
X2279360Y244770D01*
X2278859Y245472D01*
X2278358Y246223D01*
X2277957Y246875D01*
X2277506Y247676D01*
X2277106Y248427D01*
X2276705Y249229D01*
X2276354Y250031D01*
X2276053Y250782D01*
X2275803Y251433D01*
X2275502Y252385D01*
X2275202Y253387D01*
X2274951Y254389D01*
X2274801Y255141D01*
X2274701Y255742D01*
X2274600Y256394D01*
G37*
G36*
X2303539Y275051D02*
X2302950Y275158D01*
X2302950Y285454D01*
X2303606Y285400D01*
X2304258Y285299D01*
X2305110Y285149D01*
X2306012Y284949D01*
X2306763Y284748D01*
X2307514Y284548D01*
X2308266Y284297D01*
X2308968Y284047D01*
X2309719Y283746D01*
X2310420Y283446D01*
X2311172Y283095D01*
X2311673Y282844D01*
X2312524Y282394D01*
X2313226Y281993D01*
X2313927Y281542D01*
X2314679Y281041D01*
X2315630Y280340D01*
X2316582Y279588D01*
X2317184Y279037D01*
X2317885Y278386D01*
X2318486Y277785D01*
X2319087Y277134D01*
X2319588Y276582D01*
X2320139Y275881D01*
X2320640Y275230D01*
X2321141Y274528D01*
X2321642Y273777D01*
X2322043Y273125D01*
X2322494Y272324D01*
X2322894Y271573D01*
X2323295Y270771D01*
X2323646Y269969D01*
X2323947Y269218D01*
X2324197Y268567D01*
X2324498Y267615D01*
X2324798Y266613D01*
X2325049Y265611D01*
X2325199Y264859D01*
X2325299Y264258D01*
X2325400Y263606D01*
X2325454Y262950D01*
X2315158Y262950D01*
X2315051Y263539D01*
X2314852Y264286D01*
X2314553Y265233D01*
X2314154Y266230D01*
X2313506Y267526D01*
X2313058Y268273D01*
X2312510Y269070D01*
X2312011Y269719D01*
X2311413Y270416D01*
X2310216Y271613D01*
X2309669Y272060D01*
X2308871Y272659D01*
X2308124Y273157D01*
X2307427Y273556D01*
X2306429Y274055D01*
X2305730Y274354D01*
X2305084Y274603D01*
X2304286Y274852D01*
X2303539Y275051D01*
G37*
G36*
X2394600Y256394D02*
X2394546Y257050D01*
X2404842Y257050D01*
X2404949Y256461D01*
X2405148Y255714D01*
X2405447Y254767D01*
X2405846Y253770D01*
X2406494Y252474D01*
X2406942Y251727D01*
X2407490Y250930D01*
X2407989Y250281D01*
X2408587Y249584D01*
X2409784Y248387D01*
X2410331Y247940D01*
X2411129Y247341D01*
X2411876Y246843D01*
X2412574Y246444D01*
X2413571Y245945D01*
X2414270Y245646D01*
X2414916Y245397D01*
X2415714Y245148D01*
X2416461Y244949D01*
X2417050Y244842D01*
X2417050Y234546D01*
X2416394Y234600D01*
X2415742Y234701D01*
X2414890Y234851D01*
X2413988Y235051D01*
X2413237Y235252D01*
X2412486Y235452D01*
X2411734Y235703D01*
X2411032Y235953D01*
X2410281Y236254D01*
X2409580Y236554D01*
X2408828Y236905D01*
X2408327Y237156D01*
X2407476Y237606D01*
X2406774Y238007D01*
X2406073Y238458D01*
X2405321Y238959D01*
X2404370Y239660D01*
X2403418Y240412D01*
X2402816Y240963D01*
X2402115Y241614D01*
X2401514Y242215D01*
X2400913Y242866D01*
X2400412Y243418D01*
X2399861Y244119D01*
X2399360Y244770D01*
X2398859Y245472D01*
X2398358Y246223D01*
X2397957Y246875D01*
X2397506Y247676D01*
X2397106Y248427D01*
X2396705Y249229D01*
X2396354Y250031D01*
X2396053Y250782D01*
X2395803Y251433D01*
X2395502Y252385D01*
X2395202Y253387D01*
X2394951Y254389D01*
X2394801Y255141D01*
X2394701Y255742D01*
X2394600Y256394D01*
G37*
G36*
X2423539Y275051D02*
X2422950Y275158D01*
X2422950Y285454D01*
X2423606Y285400D01*
X2424258Y285299D01*
X2425110Y285149D01*
X2426012Y284949D01*
X2426763Y284748D01*
X2427514Y284548D01*
X2428266Y284297D01*
X2428968Y284047D01*
X2429719Y283746D01*
X2430420Y283446D01*
X2431172Y283095D01*
X2431673Y282844D01*
X2432524Y282394D01*
X2433226Y281993D01*
X2433927Y281542D01*
X2434679Y281041D01*
X2435630Y280340D01*
X2436582Y279588D01*
X2437184Y279037D01*
X2437885Y278386D01*
X2438486Y277785D01*
X2439087Y277134D01*
X2439588Y276582D01*
X2440139Y275881D01*
X2440640Y275230D01*
X2441141Y274528D01*
X2441642Y273777D01*
X2442043Y273125D01*
X2442494Y272324D01*
X2442894Y271573D01*
X2443295Y270771D01*
X2443646Y269969D01*
X2443947Y269218D01*
X2444197Y268567D01*
X2444498Y267615D01*
X2444798Y266613D01*
X2445049Y265611D01*
X2445199Y264859D01*
X2445299Y264258D01*
X2445400Y263606D01*
X2445454Y262950D01*
X2435158Y262950D01*
X2435051Y263539D01*
X2434852Y264286D01*
X2434553Y265233D01*
X2434154Y266230D01*
X2433506Y267526D01*
X2433058Y268273D01*
X2432510Y269070D01*
X2432011Y269719D01*
X2431413Y270416D01*
X2430216Y271613D01*
X2429669Y272060D01*
X2428871Y272659D01*
X2428124Y273157D01*
X2427427Y273556D01*
X2426429Y274055D01*
X2425730Y274354D01*
X2425084Y274603D01*
X2424286Y274852D01*
X2423539Y275051D01*
G37*
G36*
X2104842Y262950D02*
X2094546Y262950D01*
X2094600Y263606D01*
X2094701Y264258D01*
X2094851Y265110D01*
X2095051Y266012D01*
X2095252Y266763D01*
X2095452Y267514D01*
X2095703Y268266D01*
X2095953Y268968D01*
X2096254Y269719D01*
X2096554Y270420D01*
X2096905Y271172D01*
X2097156Y271673D01*
X2097606Y272524D01*
X2098007Y273226D01*
X2098458Y273927D01*
X2098959Y274679D01*
X2099660Y275630D01*
X2100412Y276582D01*
X2100963Y277184D01*
X2101614Y277885D01*
X2102215Y278486D01*
X2102866Y279087D01*
X2103418Y279588D01*
X2104119Y280139D01*
X2104770Y280640D01*
X2105472Y281141D01*
X2106223Y281642D01*
X2106875Y282043D01*
X2107676Y282494D01*
X2108427Y282894D01*
X2109229Y283295D01*
X2110031Y283646D01*
X2110782Y283947D01*
X2111433Y284197D01*
X2112385Y284498D01*
X2113387Y284798D01*
X2114389Y285049D01*
X2115141Y285199D01*
X2115742Y285299D01*
X2116394Y285400D01*
X2117050Y285454D01*
X2117050Y275158D01*
X2116461Y275051D01*
X2115714Y274852D01*
X2114767Y274553D01*
X2113770Y274154D01*
X2112474Y273506D01*
X2111727Y273058D01*
X2110930Y272510D01*
X2110281Y272011D01*
X2109584Y271413D01*
X2108387Y270216D01*
X2107940Y269669D01*
X2107341Y268871D01*
X2106843Y268124D01*
X2106444Y267427D01*
X2105945Y266429D01*
X2105646Y265731D01*
X2105397Y265084D01*
X2105148Y264286D01*
X2104949Y263539D01*
X2104842Y262950D01*
G37*
G36*
X2123606Y234600D02*
X2122950Y234546D01*
X2122950Y244842D01*
X2123539Y244949D01*
X2124286Y245148D01*
X2125233Y245447D01*
X2126230Y245846D01*
X2127526Y246494D01*
X2128273Y246942D01*
X2129070Y247490D01*
X2129719Y247989D01*
X2130416Y248587D01*
X2131613Y249784D01*
X2132060Y250331D01*
X2132659Y251129D01*
X2133157Y251876D01*
X2133556Y252574D01*
X2134055Y253571D01*
X2134354Y254269D01*
X2134603Y254916D01*
X2134852Y255714D01*
X2135051Y256461D01*
X2135158Y257050D01*
X2145454Y257050D01*
X2145400Y256394D01*
X2145299Y255742D01*
X2145149Y254890D01*
X2144949Y253988D01*
X2144748Y253237D01*
X2144548Y252486D01*
X2144297Y251734D01*
X2144047Y251032D01*
X2143746Y250281D01*
X2143446Y249580D01*
X2143095Y248828D01*
X2142844Y248327D01*
X2142394Y247476D01*
X2141993Y246774D01*
X2141542Y246073D01*
X2141041Y245321D01*
X2140340Y244370D01*
X2139588Y243418D01*
X2139037Y242816D01*
X2138386Y242115D01*
X2137785Y241514D01*
X2137134Y240913D01*
X2136582Y240412D01*
X2135881Y239861D01*
X2135230Y239360D01*
X2134528Y238859D01*
X2133777Y238358D01*
X2133125Y237957D01*
X2132324Y237506D01*
X2131573Y237106D01*
X2130771Y236705D01*
X2129969Y236354D01*
X2129218Y236053D01*
X2128567Y235803D01*
X2127615Y235502D01*
X2126613Y235202D01*
X2125611Y234951D01*
X2124859Y234801D01*
X2124258Y234701D01*
X2123606Y234600D01*
G37*
G36*
X2284842Y262950D02*
X2274546Y262950D01*
X2274600Y263606D01*
X2274701Y264258D01*
X2274851Y265110D01*
X2275051Y266012D01*
X2275252Y266763D01*
X2275452Y267514D01*
X2275703Y268266D01*
X2275953Y268968D01*
X2276254Y269719D01*
X2276554Y270420D01*
X2276905Y271172D01*
X2277156Y271673D01*
X2277606Y272524D01*
X2278007Y273226D01*
X2278458Y273927D01*
X2278959Y274679D01*
X2279660Y275630D01*
X2280412Y276582D01*
X2280963Y277184D01*
X2281614Y277885D01*
X2282215Y278486D01*
X2282866Y279087D01*
X2283418Y279588D01*
X2284119Y280139D01*
X2284770Y280640D01*
X2285472Y281141D01*
X2286223Y281642D01*
X2286875Y282043D01*
X2287676Y282494D01*
X2288427Y282894D01*
X2289229Y283295D01*
X2290031Y283646D01*
X2290782Y283947D01*
X2291433Y284197D01*
X2292385Y284498D01*
X2293387Y284798D01*
X2294389Y285049D01*
X2295141Y285199D01*
X2295742Y285299D01*
X2296394Y285400D01*
X2297050Y285454D01*
X2297050Y275158D01*
X2296461Y275051D01*
X2295714Y274852D01*
X2294767Y274553D01*
X2293770Y274154D01*
X2292474Y273506D01*
X2291727Y273058D01*
X2290930Y272510D01*
X2290281Y272011D01*
X2289584Y271413D01*
X2288387Y270216D01*
X2287940Y269669D01*
X2287341Y268871D01*
X2286843Y268124D01*
X2286444Y267427D01*
X2285945Y266429D01*
X2285646Y265731D01*
X2285397Y265084D01*
X2285148Y264286D01*
X2284949Y263539D01*
X2284842Y262950D01*
G37*
G36*
X2303606Y234600D02*
X2302950Y234546D01*
X2302950Y244842D01*
X2303539Y244949D01*
X2304286Y245148D01*
X2305233Y245447D01*
X2306230Y245846D01*
X2307526Y246494D01*
X2308273Y246942D01*
X2309070Y247490D01*
X2309719Y247989D01*
X2310416Y248587D01*
X2311613Y249784D01*
X2312060Y250331D01*
X2312659Y251129D01*
X2313157Y251876D01*
X2313556Y252574D01*
X2314055Y253571D01*
X2314354Y254269D01*
X2314603Y254916D01*
X2314852Y255714D01*
X2315051Y256461D01*
X2315158Y257050D01*
X2325454Y257050D01*
X2325400Y256394D01*
X2325299Y255742D01*
X2325149Y254890D01*
X2324949Y253988D01*
X2324748Y253237D01*
X2324548Y252486D01*
X2324297Y251734D01*
X2324047Y251032D01*
X2323746Y250281D01*
X2323446Y249580D01*
X2323095Y248828D01*
X2322844Y248327D01*
X2322394Y247476D01*
X2321993Y246774D01*
X2321542Y246073D01*
X2321041Y245321D01*
X2320340Y244370D01*
X2319588Y243418D01*
X2319037Y242816D01*
X2318386Y242115D01*
X2317785Y241514D01*
X2317134Y240913D01*
X2316582Y240412D01*
X2315881Y239861D01*
X2315230Y239360D01*
X2314528Y238859D01*
X2313777Y238358D01*
X2313125Y237957D01*
X2312324Y237506D01*
X2311573Y237106D01*
X2310771Y236705D01*
X2309969Y236354D01*
X2309218Y236053D01*
X2308567Y235803D01*
X2307615Y235502D01*
X2306613Y235202D01*
X2305611Y234951D01*
X2304859Y234801D01*
X2304258Y234701D01*
X2303606Y234600D01*
G37*
G36*
X2404842Y262950D02*
X2394546Y262950D01*
X2394600Y263606D01*
X2394701Y264258D01*
X2394851Y265110D01*
X2395051Y266012D01*
X2395252Y266763D01*
X2395452Y267514D01*
X2395703Y268266D01*
X2395953Y268968D01*
X2396254Y269719D01*
X2396554Y270420D01*
X2396905Y271172D01*
X2397156Y271673D01*
X2397606Y272524D01*
X2398007Y273226D01*
X2398458Y273927D01*
X2398959Y274679D01*
X2399660Y275630D01*
X2400412Y276582D01*
X2400963Y277184D01*
X2401614Y277885D01*
X2402215Y278486D01*
X2402866Y279087D01*
X2403418Y279588D01*
X2404119Y280139D01*
X2404770Y280640D01*
X2405472Y281141D01*
X2406223Y281642D01*
X2406875Y282043D01*
X2407676Y282494D01*
X2408427Y282894D01*
X2409229Y283295D01*
X2410031Y283646D01*
X2410782Y283947D01*
X2411433Y284197D01*
X2412385Y284498D01*
X2413387Y284798D01*
X2414389Y285049D01*
X2415141Y285199D01*
X2415742Y285299D01*
X2416394Y285400D01*
X2417050Y285454D01*
X2417050Y275158D01*
X2416461Y275051D01*
X2415714Y274852D01*
X2414767Y274553D01*
X2413770Y274154D01*
X2412474Y273506D01*
X2411727Y273058D01*
X2410930Y272510D01*
X2410281Y272011D01*
X2409584Y271413D01*
X2408387Y270216D01*
X2407940Y269669D01*
X2407341Y268871D01*
X2406843Y268124D01*
X2406444Y267427D01*
X2405945Y266429D01*
X2405646Y265731D01*
X2405397Y265084D01*
X2405148Y264286D01*
X2404949Y263539D01*
X2404842Y262950D01*
G37*
G36*
X2423606Y234600D02*
X2422950Y234546D01*
X2422950Y244842D01*
X2423539Y244949D01*
X2424286Y245148D01*
X2425233Y245447D01*
X2426230Y245846D01*
X2427526Y246494D01*
X2428273Y246942D01*
X2429070Y247490D01*
X2429719Y247989D01*
X2430416Y248587D01*
X2431613Y249784D01*
X2432060Y250331D01*
X2432659Y251129D01*
X2433157Y251876D01*
X2433556Y252574D01*
X2434055Y253571D01*
X2434354Y254269D01*
X2434603Y254916D01*
X2434852Y255714D01*
X2435051Y256461D01*
X2435158Y257050D01*
X2445454Y257050D01*
X2445400Y256394D01*
X2445299Y255742D01*
X2445149Y254890D01*
X2444949Y253988D01*
X2444748Y253237D01*
X2444548Y252486D01*
X2444297Y251734D01*
X2444047Y251032D01*
X2443746Y250281D01*
X2443446Y249580D01*
X2443095Y248828D01*
X2442844Y248327D01*
X2442394Y247476D01*
X2441993Y246774D01*
X2441542Y246073D01*
X2441041Y245321D01*
X2440340Y244370D01*
X2439588Y243418D01*
X2439037Y242816D01*
X2438386Y242115D01*
X2437785Y241514D01*
X2437134Y240913D01*
X2436582Y240412D01*
X2435881Y239861D01*
X2435230Y239360D01*
X2434528Y238859D01*
X2433777Y238358D01*
X2433125Y237957D01*
X2432324Y237506D01*
X2431573Y237106D01*
X2430771Y236705D01*
X2429969Y236354D01*
X2429218Y236053D01*
X2428567Y235803D01*
X2427615Y235502D01*
X2426613Y235202D01*
X2425611Y234951D01*
X2424859Y234801D01*
X2424258Y234701D01*
X2423606Y234600D01*
G37*
G36*
X1195727Y405527D02*
X1195727Y394573D01*
X1184773Y394573D01*
X1184773Y405527D01*
X1195727Y405527D01*
G37*
G36*
X1195727Y418227D02*
X1195727Y407273D01*
X1184773Y407273D01*
X1184773Y418227D01*
X1195727Y418227D01*
G37*
G36*
X1195727Y430927D02*
X1195727Y419973D01*
X1184773Y419973D01*
X1184773Y430927D01*
X1195727Y430927D01*
G37*
G36*
X1208427Y405527D02*
X1208427Y394573D01*
X1197473Y394573D01*
X1197473Y405527D01*
X1208427Y405527D01*
G37*
G36*
X1208427Y418227D02*
X1208427Y407273D01*
X1197473Y407273D01*
X1197473Y418227D01*
X1208427Y418227D01*
G37*
G36*
X1208427Y430927D02*
X1208427Y419973D01*
X1197473Y419973D01*
X1197473Y430927D01*
X1208427Y430927D01*
G37*
G36*
X1221127Y405527D02*
X1221127Y394573D01*
X1210173Y394573D01*
X1210173Y405527D01*
X1221127Y405527D01*
G37*
G36*
X1221127Y418227D02*
X1221127Y407273D01*
X1210173Y407273D01*
X1210173Y418227D01*
X1221127Y418227D01*
G37*
G36*
X1221127Y430927D02*
X1221127Y419973D01*
X1210173Y419973D01*
X1210173Y430927D01*
X1221127Y430927D01*
G37*
G36*
X525351Y291739D02*
X525310Y291945D01*
X525310Y296605D01*
X525351Y296811D01*
X525470Y296990D01*
X525649Y297109D01*
X525855Y297150D01*
X528465Y297150D01*
X528671Y297109D01*
X528850Y296990D01*
X528969Y296811D01*
X529010Y296605D01*
X529010Y291920D01*
X528971Y291724D01*
X528857Y291553D01*
X528686Y291439D01*
X528490Y291400D01*
X525855Y291400D01*
X525649Y291441D01*
X525470Y291560D01*
X525351Y291739D01*
G37*
G36*
X525351Y300089D02*
X525310Y300295D01*
X525310Y304955D01*
X525351Y305161D01*
X525470Y305340D01*
X525649Y305459D01*
X525855Y305500D01*
X528465Y305500D01*
X528671Y305459D01*
X528850Y305340D01*
X528969Y305161D01*
X529010Y304955D01*
X529010Y300270D01*
X528971Y300074D01*
X528857Y299903D01*
X528686Y299789D01*
X528490Y299750D01*
X525855Y299750D01*
X525649Y299791D01*
X525470Y299910D01*
X525351Y300089D01*
G37*
G36*
X601551Y291739D02*
X601510Y291945D01*
X601510Y296605D01*
X601551Y296811D01*
X601670Y296990D01*
X601849Y297109D01*
X602055Y297150D01*
X604665Y297150D01*
X604871Y297109D01*
X605050Y296990D01*
X605169Y296811D01*
X605210Y296605D01*
X605210Y291920D01*
X605171Y291724D01*
X605057Y291553D01*
X604886Y291439D01*
X604690Y291400D01*
X602055Y291400D01*
X601849Y291441D01*
X601670Y291560D01*
X601551Y291739D01*
G37*
G36*
X601551Y300089D02*
X601510Y300295D01*
X601510Y304955D01*
X601551Y305161D01*
X601670Y305340D01*
X601849Y305459D01*
X602055Y305500D01*
X604665Y305500D01*
X604871Y305459D01*
X605050Y305340D01*
X605169Y305161D01*
X605210Y304955D01*
X605210Y300270D01*
X605171Y300074D01*
X605057Y299903D01*
X604886Y299789D01*
X604690Y299750D01*
X602055Y299750D01*
X601849Y299791D01*
X601670Y299910D01*
X601551Y300089D01*
G37*
G36*
X2366889Y391891D02*
X2366683Y391850D01*
X2362023Y391850D01*
X2361817Y391891D01*
X2361638Y392010D01*
X2361519Y392189D01*
X2361478Y392395D01*
X2361478Y395005D01*
X2361519Y395211D01*
X2361638Y395390D01*
X2361817Y395509D01*
X2362023Y395550D01*
X2366708Y395550D01*
X2366904Y395511D01*
X2367075Y395397D01*
X2367189Y395226D01*
X2367228Y395030D01*
X2367228Y392395D01*
X2367187Y392189D01*
X2367068Y392010D01*
X2366889Y391891D01*
G37*
G36*
X2366889Y423768D02*
X2366683Y423727D01*
X2362023Y423727D01*
X2361817Y423768D01*
X2361638Y423887D01*
X2361519Y424066D01*
X2361478Y424272D01*
X2361478Y426882D01*
X2361519Y427088D01*
X2361638Y427267D01*
X2361817Y427386D01*
X2362023Y427427D01*
X2366708Y427427D01*
X2366904Y427388D01*
X2367075Y427274D01*
X2367189Y427103D01*
X2367228Y426907D01*
X2367228Y424272D01*
X2367187Y424066D01*
X2367068Y423887D01*
X2366889Y423768D01*
G37*
G36*
X2375239Y391891D02*
X2375033Y391850D01*
X2370373Y391850D01*
X2370167Y391891D01*
X2369988Y392010D01*
X2369869Y392189D01*
X2369828Y392395D01*
X2369828Y395005D01*
X2369869Y395211D01*
X2369988Y395390D01*
X2370167Y395509D01*
X2370373Y395550D01*
X2375058Y395550D01*
X2375254Y395511D01*
X2375425Y395397D01*
X2375539Y395226D01*
X2375578Y395030D01*
X2375578Y392395D01*
X2375537Y392189D01*
X2375418Y392010D01*
X2375239Y391891D01*
G37*
G36*
X2375239Y423768D02*
X2375033Y423727D01*
X2370373Y423727D01*
X2370167Y423768D01*
X2369988Y423887D01*
X2369869Y424066D01*
X2369828Y424272D01*
X2369828Y426882D01*
X2369869Y427088D01*
X2369988Y427267D01*
X2370167Y427386D01*
X2370373Y427427D01*
X2375058Y427427D01*
X2375254Y427388D01*
X2375425Y427274D01*
X2375539Y427103D01*
X2375578Y426907D01*
X2375578Y424272D01*
X2375537Y424066D01*
X2375418Y423887D01*
X2375239Y423768D01*
G37*
G36*
X2608189Y391891D02*
X2607983Y391850D01*
X2603323Y391850D01*
X2603117Y391891D01*
X2602938Y392010D01*
X2602819Y392189D01*
X2602778Y392395D01*
X2602778Y395005D01*
X2602819Y395211D01*
X2602938Y395390D01*
X2603117Y395509D01*
X2603323Y395550D01*
X2608008Y395550D01*
X2608204Y395511D01*
X2608375Y395397D01*
X2608489Y395226D01*
X2608528Y395030D01*
X2608528Y392395D01*
X2608487Y392189D01*
X2608368Y392010D01*
X2608189Y391891D01*
G37*
G36*
X2608189Y423768D02*
X2607983Y423727D01*
X2603323Y423727D01*
X2603117Y423768D01*
X2602938Y423887D01*
X2602819Y424066D01*
X2602778Y424272D01*
X2602778Y426882D01*
X2602819Y427088D01*
X2602938Y427267D01*
X2603117Y427386D01*
X2603323Y427427D01*
X2608008Y427427D01*
X2608204Y427388D01*
X2608375Y427274D01*
X2608489Y427103D01*
X2608528Y426907D01*
X2608528Y424272D01*
X2608487Y424066D01*
X2608368Y423887D01*
X2608189Y423768D01*
G37*
G36*
X2616539Y391891D02*
X2616333Y391850D01*
X2611673Y391850D01*
X2611467Y391891D01*
X2611288Y392010D01*
X2611169Y392189D01*
X2611128Y392395D01*
X2611128Y395005D01*
X2611169Y395211D01*
X2611288Y395390D01*
X2611467Y395509D01*
X2611673Y395550D01*
X2616358Y395550D01*
X2616554Y395511D01*
X2616725Y395397D01*
X2616839Y395226D01*
X2616878Y395030D01*
X2616878Y392395D01*
X2616837Y392189D01*
X2616718Y392010D01*
X2616539Y391891D01*
G37*
G36*
X2616539Y423768D02*
X2616333Y423727D01*
X2611673Y423727D01*
X2611467Y423768D01*
X2611288Y423887D01*
X2611169Y424066D01*
X2611128Y424272D01*
X2611128Y426882D01*
X2611169Y427088D01*
X2611288Y427267D01*
X2611467Y427386D01*
X2611673Y427427D01*
X2616358Y427427D01*
X2616554Y427388D01*
X2616725Y427274D01*
X2616839Y427103D01*
X2616878Y426907D01*
X2616878Y424272D01*
X2616837Y424066D01*
X2616718Y423887D01*
X2616539Y423768D01*
G37*
D10*
X1241950Y121280D03*
D11*
X1113700Y121280D03*
D10*
X985450Y121280D03*
D12*
X2541147Y529327D03*
X2541147Y511819D03*
D13*
X1210796Y349256D03*
X1240304Y349256D03*
D12*
X1298200Y403996D03*
X1298200Y421504D03*
D14*
X1186304Y476250D03*
X1168796Y476250D03*
X1213754Y476250D03*
X1231262Y476250D03*
D13*
X871982Y419100D03*
X842474Y419100D03*
X925024Y419100D03*
X954532Y419100D03*
X1045768Y419100D03*
X1075276Y419100D03*
X757654Y450850D03*
X728146Y450850D03*
D15*
X793006Y407571D03*
X793006Y378373D03*
D16*
X2616305Y36046D03*
X2616305Y65554D03*
D12*
X2576300Y529581D03*
X2576300Y512073D03*
D16*
X2641578Y36046D03*
X2641578Y65554D03*
D12*
X2673350Y35674D03*
X2673350Y53182D03*
D16*
X2565385Y116354D03*
X2565385Y86846D03*
X2590778Y116354D03*
X2590778Y86846D03*
X2616178Y116354D03*
X2616178Y86846D03*
X2641578Y116354D03*
X2641578Y86846D03*
D12*
X2527278Y99196D03*
X2527278Y116704D03*
D14*
X2690250Y76222D03*
X2707758Y76222D03*
X1166746Y455168D03*
X1149238Y455168D03*
X1141854Y412750D03*
X1124346Y412750D03*
X1165984Y369316D03*
X1148476Y369316D03*
D12*
X1187456Y358004D03*
X1187456Y340496D03*
D14*
X1257486Y444500D03*
X1274994Y444500D03*
D12*
X1317250Y511946D03*
X1317250Y529454D03*
D16*
X1253750Y474196D03*
X1253750Y503704D03*
D17*
X782734Y457084D02*
X782734Y452984D01*
X782734Y457084D02*
X784234Y457084D01*
X784234Y452984D01*
X782734Y452984D01*
X782734Y453459D02*
X784234Y453459D01*
X784234Y453934D02*
X782734Y453934D01*
X782734Y454409D02*
X784234Y454409D01*
X784234Y454884D02*
X782734Y454884D01*
X782734Y455359D02*
X784234Y455359D01*
X784234Y455834D02*
X782734Y455834D01*
X782734Y456309D02*
X784234Y456309D01*
X784234Y456784D02*
X782734Y456784D01*
X775734Y457084D02*
X775734Y452984D01*
X775734Y457084D02*
X777234Y457084D01*
X777234Y452984D01*
X775734Y452984D01*
X775734Y453459D02*
X777234Y453459D01*
X777234Y453934D02*
X775734Y453934D01*
X775734Y454409D02*
X777234Y454409D01*
X777234Y454884D02*
X775734Y454884D01*
X775734Y455359D02*
X777234Y455359D01*
X777234Y455834D02*
X775734Y455834D01*
X775734Y456309D02*
X777234Y456309D01*
X777234Y456784D02*
X775734Y456784D01*
X779234Y446684D02*
X779234Y442584D01*
X779234Y446684D02*
X780734Y446684D01*
X780734Y442584D01*
X779234Y442584D01*
X779234Y443059D02*
X780734Y443059D01*
X780734Y443534D02*
X779234Y443534D01*
X779234Y444009D02*
X780734Y444009D01*
X780734Y444484D02*
X779234Y444484D01*
X779234Y444959D02*
X780734Y444959D01*
X780734Y445434D02*
X779234Y445434D01*
X779234Y445909D02*
X780734Y445909D01*
X780734Y446384D02*
X779234Y446384D01*
X1101678Y478834D02*
X1105778Y478834D01*
X1105778Y477334D01*
X1101678Y477334D01*
X1101678Y478834D01*
X1101678Y477809D02*
X1105778Y477809D01*
X1105778Y478284D02*
X1101678Y478284D01*
X1101678Y478759D02*
X1105778Y478759D01*
X1105778Y485834D02*
X1101678Y485834D01*
X1105778Y485834D02*
X1105778Y484334D01*
X1101678Y484334D01*
X1101678Y485834D01*
X1101678Y484809D02*
X1105778Y484809D01*
X1105778Y485284D02*
X1101678Y485284D01*
X1101678Y485759D02*
X1105778Y485759D01*
X1095378Y482334D02*
X1091278Y482334D01*
X1095378Y482334D02*
X1095378Y480834D01*
X1091278Y480834D01*
X1091278Y482334D01*
X1091278Y481309D02*
X1095378Y481309D01*
X1095378Y481784D02*
X1091278Y481784D01*
X1091278Y482259D02*
X1095378Y482259D01*
X985128Y478580D02*
X981028Y478580D01*
X985128Y478580D02*
X985128Y477080D01*
X981028Y477080D01*
X981028Y478580D01*
X981028Y477555D02*
X985128Y477555D01*
X985128Y478030D02*
X981028Y478030D01*
X981028Y478505D02*
X985128Y478505D01*
X985128Y485580D02*
X981028Y485580D01*
X985128Y485580D02*
X985128Y484080D01*
X981028Y484080D01*
X981028Y485580D01*
X981028Y484555D02*
X985128Y484555D01*
X985128Y485030D02*
X981028Y485030D01*
X981028Y485505D02*
X985128Y485505D01*
X974728Y482080D02*
X970628Y482080D01*
X974728Y482080D02*
X974728Y480580D01*
X970628Y480580D01*
X970628Y482080D01*
X970628Y481055D02*
X974728Y481055D01*
X974728Y481530D02*
X970628Y481530D01*
X970628Y482005D02*
X974728Y482005D01*
X2210134Y465372D02*
X2214234Y465372D01*
X2214234Y463872D01*
X2210134Y463872D01*
X2210134Y465372D01*
X2210134Y464347D02*
X2214234Y464347D01*
X2214234Y464822D02*
X2210134Y464822D01*
X2210134Y465297D02*
X2214234Y465297D01*
X2214234Y472372D02*
X2210134Y472372D01*
X2214234Y472372D02*
X2214234Y470872D01*
X2210134Y470872D01*
X2210134Y472372D01*
X2210134Y471347D02*
X2214234Y471347D01*
X2214234Y471822D02*
X2210134Y471822D01*
X2210134Y472297D02*
X2214234Y472297D01*
X2203834Y468872D02*
X2199734Y468872D01*
X2203834Y468872D02*
X2203834Y467372D01*
X2199734Y467372D01*
X2199734Y468872D01*
X2199734Y467847D02*
X2203834Y467847D01*
X2203834Y468322D02*
X2199734Y468322D01*
X2199734Y468797D02*
X2203834Y468797D01*
X2095837Y465626D02*
X2091737Y465626D01*
X2095837Y465626D02*
X2095837Y464126D01*
X2091737Y464126D01*
X2091737Y465626D01*
X2091737Y464601D02*
X2095837Y464601D01*
X2095837Y465076D02*
X2091737Y465076D01*
X2091737Y465551D02*
X2095837Y465551D01*
X2095837Y472626D02*
X2091737Y472626D01*
X2095837Y472626D02*
X2095837Y471126D01*
X2091737Y471126D01*
X2091737Y472626D01*
X2091737Y471601D02*
X2095837Y471601D01*
X2095837Y472076D02*
X2091737Y472076D01*
X2091737Y472551D02*
X2095837Y472551D01*
X2085437Y469126D02*
X2081337Y469126D01*
X2085437Y469126D02*
X2085437Y467626D01*
X2081337Y467626D01*
X2081337Y469126D01*
X2081337Y468101D02*
X2085437Y468101D01*
X2085437Y468576D02*
X2081337Y468576D01*
X2081337Y469051D02*
X2085437Y469051D01*
D18*
X1951128Y464796D03*
X1946128Y464796D03*
X1941128Y464796D03*
X1936128Y464796D03*
X1931128Y464796D03*
X1926128Y464796D03*
X1921128Y464796D03*
X1916128Y464796D03*
X1911128Y464796D03*
X1906128Y464796D03*
X1901128Y464796D03*
X1896128Y464796D03*
X1891128Y464796D03*
X1886128Y464796D03*
X1881128Y464796D03*
X1876128Y464796D03*
X1871128Y464796D03*
X1866128Y464796D03*
X1861128Y464796D03*
X1856128Y464796D03*
X1851128Y464796D03*
X1846128Y464796D03*
D19*
X1970128Y497296D03*
X1827128Y497296D03*
D20*
X2755250Y352500D03*
D21*
X2747500Y363500D03*
X2747500Y156500D03*
D20*
X2755250Y347500D03*
X2755250Y342500D03*
X2755250Y337500D03*
X2755250Y332500D03*
X2755250Y327500D03*
X2755250Y322500D03*
X2755250Y317500D03*
X2755250Y312500D03*
X2755250Y307500D03*
X2755250Y302500D03*
X2755250Y297500D03*
X2755250Y292500D03*
X2755250Y287500D03*
X2755250Y282500D03*
X2755250Y277500D03*
X2755250Y272500D03*
X2755250Y267500D03*
X2755250Y262500D03*
X2755250Y257500D03*
X2755250Y252500D03*
X2755250Y247500D03*
X2755250Y242500D03*
X2755250Y237500D03*
X2755250Y232500D03*
X2755250Y227500D03*
X2755250Y222500D03*
X2755250Y217500D03*
X2755250Y212500D03*
X2755250Y187500D03*
X2755250Y182500D03*
X2755250Y177500D03*
X2755250Y172500D03*
X2755250Y167500D03*
X2679750Y350000D03*
X2679750Y345000D03*
X2679750Y340000D03*
X2679750Y335000D03*
X2679750Y330000D03*
X2679750Y325000D03*
X2679750Y320000D03*
X2679750Y315000D03*
X2679750Y310000D03*
X2679750Y305000D03*
X2679750Y300000D03*
X2679750Y295000D03*
X2679750Y290000D03*
X2679750Y285000D03*
X2679750Y280000D03*
X2679750Y275000D03*
X2679750Y270000D03*
X2679750Y265000D03*
X2679750Y260000D03*
X2679750Y255000D03*
X2679750Y250000D03*
X2679750Y245000D03*
X2679750Y240000D03*
X2679750Y235000D03*
X2679750Y230000D03*
X2679750Y225000D03*
X2679750Y220000D03*
X2679750Y215000D03*
X2679750Y210000D03*
X2679750Y185000D03*
X2679750Y180000D03*
X2679750Y175000D03*
X2679750Y170000D03*
D22*
X1293210Y52735D03*
X1303210Y52735D03*
X1313210Y52735D03*
X1323210Y52735D03*
D23*
X1336210Y13985D03*
X1280210Y13985D03*
D24*
X2508250Y34072D03*
X2508250Y67572D03*
D25*
X1298905Y82561D03*
X1317295Y82561D03*
X1155655Y501650D03*
X1174045Y501650D03*
X1257255Y368300D03*
X1275645Y368300D03*
X1257255Y393700D03*
X1275645Y393700D03*
X1257255Y419100D03*
X1275645Y419100D03*
X1295355Y444500D03*
X1313745Y444500D03*
X803605Y457178D03*
X821995Y457178D03*
D26*
X1342650Y511505D03*
X1342650Y529895D03*
X2451078Y117145D03*
X2451078Y98755D03*
X2476478Y117145D03*
X2476478Y98755D03*
X2501878Y98755D03*
X2501878Y117145D03*
X666772Y517195D03*
X666772Y498805D03*
D25*
X1050595Y533328D03*
X1032205Y533328D03*
X1070305Y533472D03*
X1088695Y533472D03*
X942645Y533422D03*
X924255Y533422D03*
X962355Y533378D03*
X980745Y533378D03*
X2079955Y438128D03*
X2098345Y438128D03*
X2194255Y514328D03*
X2212645Y514328D03*
D26*
X450651Y517355D03*
X450651Y498965D03*
D25*
X2194255Y488928D03*
X2212645Y488928D03*
D26*
X2212086Y447091D03*
X2212086Y428701D03*
X1368050Y529895D03*
X1368050Y511505D03*
X1298200Y365455D03*
X1298200Y383845D03*
D25*
X2124659Y425428D03*
X2143049Y425428D03*
D26*
X2186686Y428701D03*
X2186686Y447091D03*
D27*
X1414600Y353000D03*
X1445400Y353000D03*
X1414600Y349000D03*
X1445400Y349000D03*
X1414600Y345000D03*
X1445400Y345000D03*
X1414600Y341000D03*
X1445400Y341000D03*
X1414600Y337000D03*
X1445400Y337000D03*
X1414600Y333000D03*
X1445400Y333000D03*
X1414600Y329000D03*
X1445400Y329000D03*
X1414600Y325000D03*
X1445400Y325000D03*
X1414600Y321000D03*
X1445400Y321000D03*
X1414600Y317000D03*
X1445400Y317000D03*
X1414600Y313000D03*
X1445400Y313000D03*
X1414600Y309000D03*
X1445400Y309000D03*
X1414600Y305000D03*
X1445400Y305000D03*
X1414600Y301000D03*
X1445400Y301000D03*
X1414600Y297000D03*
X1445400Y297000D03*
X1414600Y293000D03*
X1445400Y293000D03*
X1414600Y289000D03*
X1445400Y289000D03*
X1414600Y285000D03*
X1445400Y285000D03*
X1414600Y281000D03*
X1445400Y281000D03*
X1414600Y277000D03*
X1445400Y277000D03*
X1414600Y273000D03*
X1445400Y273000D03*
X1414600Y269000D03*
X1445400Y269000D03*
X1414600Y265000D03*
X1445400Y265000D03*
X1414600Y261000D03*
X1445400Y261000D03*
X1414600Y257000D03*
X1445400Y257000D03*
X1414600Y253000D03*
X1445400Y253000D03*
X1414600Y249000D03*
X1445400Y249000D03*
X1414600Y245000D03*
X1445400Y245000D03*
X1414600Y241000D03*
X1445400Y241000D03*
X1414600Y237000D03*
X1445400Y237000D03*
X1414600Y233000D03*
X1445400Y233000D03*
X1414600Y229000D03*
X1445400Y229000D03*
X1414600Y225000D03*
X1445400Y225000D03*
X1414600Y221000D03*
X1445400Y221000D03*
X1414600Y217000D03*
X1445400Y217000D03*
X1414600Y213000D03*
X1445400Y213000D03*
X1414600Y209000D03*
X1445400Y209000D03*
X1414600Y205000D03*
X1445400Y205000D03*
X1414600Y201000D03*
X1445400Y201000D03*
X1414600Y197000D03*
X1445400Y197000D03*
X1414600Y193000D03*
X1445400Y193000D03*
X1414600Y189000D03*
X1445400Y189000D03*
X1414600Y185000D03*
X1445400Y185000D03*
X1414600Y181000D03*
X1445400Y181000D03*
X1414600Y177000D03*
X1445400Y177000D03*
X1414600Y173000D03*
X1445400Y173000D03*
X1414600Y169000D03*
X1445400Y169000D03*
X1414600Y165000D03*
X1445400Y165000D03*
X1414600Y161000D03*
X1445400Y161000D03*
X1414600Y157000D03*
X1445400Y157000D03*
X1754600Y353000D03*
X1785400Y353000D03*
X1754600Y349000D03*
X1785400Y349000D03*
X1754600Y345000D03*
X1785400Y345000D03*
X1754600Y341000D03*
X1785400Y341000D03*
X1754600Y337000D03*
X1785400Y337000D03*
X1754600Y333000D03*
X1785400Y333000D03*
X1754600Y329000D03*
X1785400Y329000D03*
X1754600Y325000D03*
X1785400Y325000D03*
X1754600Y321000D03*
X1785400Y321000D03*
X1754600Y317000D03*
X1785400Y317000D03*
X1754600Y313000D03*
X1785400Y313000D03*
X1754600Y309000D03*
X1785400Y309000D03*
X1754600Y305000D03*
X1785400Y305000D03*
X1754600Y301000D03*
X1785400Y301000D03*
X1754600Y297000D03*
X1785400Y297000D03*
X1754600Y293000D03*
X1785400Y293000D03*
X1754600Y289000D03*
X1785400Y289000D03*
X1754600Y285000D03*
X1785400Y285000D03*
X1754600Y281000D03*
X1785400Y281000D03*
X1754600Y277000D03*
X1785400Y277000D03*
X1754600Y273000D03*
X1785400Y273000D03*
X1754600Y269000D03*
X1785400Y269000D03*
X1754600Y265000D03*
X1785400Y265000D03*
X1754600Y261000D03*
X1785400Y261000D03*
X1754600Y257000D03*
X1785400Y257000D03*
X1754600Y253000D03*
X1785400Y253000D03*
X1754600Y249000D03*
X1785400Y249000D03*
X1754600Y245000D03*
X1785400Y245000D03*
X1754600Y241000D03*
X1785400Y241000D03*
X1754600Y237000D03*
X1785400Y237000D03*
X1754600Y233000D03*
X1785400Y233000D03*
X1754600Y229000D03*
X1785400Y229000D03*
X1754600Y225000D03*
X1785400Y225000D03*
X1754600Y221000D03*
X1785400Y221000D03*
X1754600Y217000D03*
X1785400Y217000D03*
X1754600Y213000D03*
X1785400Y213000D03*
X1754600Y209000D03*
X1785400Y209000D03*
X1754600Y205000D03*
X1785400Y205000D03*
X1754600Y201000D03*
X1785400Y201000D03*
X1754600Y197000D03*
X1785400Y197000D03*
X1754600Y193000D03*
X1785400Y193000D03*
X1754600Y189000D03*
X1785400Y189000D03*
X1754600Y185000D03*
X1785400Y185000D03*
X1754600Y181000D03*
X1785400Y181000D03*
X1754600Y177000D03*
X1785400Y177000D03*
X1754600Y173000D03*
X1785400Y173000D03*
X1754600Y169000D03*
X1785400Y169000D03*
X1754600Y165000D03*
X1785400Y165000D03*
X1754600Y161000D03*
X1785400Y161000D03*
X1754600Y157000D03*
X1785400Y157000D03*
D28*
X2362028Y403200D02*
X2366678Y403200D01*
X2362028Y403200D02*
X2362028Y404200D01*
X2366678Y404200D01*
X2366678Y403200D01*
X2366678Y404150D02*
X2362028Y404150D01*
X2362028Y398200D02*
X2366678Y398200D01*
X2362028Y398200D02*
X2362028Y399200D01*
X2366678Y399200D01*
X2366678Y398200D01*
X2366678Y399150D02*
X2362028Y399150D01*
X2362028Y388200D02*
X2366678Y388200D01*
X2362028Y388200D02*
X2362028Y389200D01*
X2366678Y389200D01*
X2366678Y388200D01*
X2366678Y389150D02*
X2362028Y389150D01*
X2362028Y383200D02*
X2366678Y383200D01*
X2362028Y383200D02*
X2362028Y384200D01*
X2366678Y384200D01*
X2366678Y383200D01*
X2366678Y384150D02*
X2362028Y384150D01*
X2370378Y383200D02*
X2375028Y383200D01*
X2370378Y383200D02*
X2370378Y384200D01*
X2375028Y384200D01*
X2375028Y383200D01*
X2375028Y384150D02*
X2370378Y384150D01*
X2370378Y388200D02*
X2375028Y388200D01*
X2370378Y388200D02*
X2370378Y389200D01*
X2375028Y389200D01*
X2375028Y388200D01*
X2375028Y389150D02*
X2370378Y389150D01*
X2370378Y398200D02*
X2375028Y398200D01*
X2370378Y398200D02*
X2370378Y399200D01*
X2375028Y399200D01*
X2375028Y398200D01*
X2375028Y399150D02*
X2370378Y399150D01*
X2370378Y403200D02*
X2375028Y403200D01*
X2370378Y403200D02*
X2370378Y404200D01*
X2375028Y404200D01*
X2375028Y403200D01*
X2375028Y404150D02*
X2370378Y404150D01*
X2366678Y435077D02*
X2362028Y435077D01*
X2362028Y436077D01*
X2366678Y436077D01*
X2366678Y435077D01*
X2366678Y436027D02*
X2362028Y436027D01*
X2362028Y430077D02*
X2366678Y430077D01*
X2362028Y430077D02*
X2362028Y431077D01*
X2366678Y431077D01*
X2366678Y430077D01*
X2366678Y431027D02*
X2362028Y431027D01*
X2362028Y420077D02*
X2366678Y420077D01*
X2362028Y420077D02*
X2362028Y421077D01*
X2366678Y421077D01*
X2366678Y420077D01*
X2366678Y421027D02*
X2362028Y421027D01*
X2362028Y415077D02*
X2366678Y415077D01*
X2362028Y415077D02*
X2362028Y416077D01*
X2366678Y416077D01*
X2366678Y415077D01*
X2366678Y416027D02*
X2362028Y416027D01*
X2370378Y415077D02*
X2375028Y415077D01*
X2370378Y415077D02*
X2370378Y416077D01*
X2375028Y416077D01*
X2375028Y415077D01*
X2375028Y416027D02*
X2370378Y416027D01*
X2370378Y420077D02*
X2375028Y420077D01*
X2370378Y420077D02*
X2370378Y421077D01*
X2375028Y421077D01*
X2375028Y420077D01*
X2375028Y421027D02*
X2370378Y421027D01*
X2370378Y430077D02*
X2375028Y430077D01*
X2370378Y430077D02*
X2370378Y431077D01*
X2375028Y431077D01*
X2375028Y430077D01*
X2375028Y431027D02*
X2370378Y431027D01*
X2370378Y435077D02*
X2375028Y435077D01*
X2370378Y435077D02*
X2370378Y436077D01*
X2375028Y436077D01*
X2375028Y435077D01*
X2375028Y436027D02*
X2370378Y436027D01*
D29*
X2582396Y43300D03*
X2582396Y48300D03*
X2582396Y53300D03*
X2582396Y58300D03*
X2561060Y58300D03*
X2561060Y53300D03*
X2561060Y48300D03*
X2561060Y43300D03*
D30*
X2571728Y50800D03*
D31*
X2568386Y488188D03*
X2549336Y488188D03*
X2558861Y464312D03*
D32*
X874541Y449913D02*
X862815Y449913D01*
X874541Y449913D02*
X874541Y445487D01*
X862815Y445487D01*
X862815Y449913D01*
X862815Y446888D02*
X874541Y446888D01*
X874541Y448289D02*
X862815Y448289D01*
X862815Y449690D02*
X874541Y449690D01*
X874541Y459413D02*
X862815Y459413D01*
X874541Y459413D02*
X874541Y454987D01*
X862815Y454987D01*
X862815Y459413D01*
X862815Y456388D02*
X874541Y456388D01*
X874541Y457789D02*
X862815Y457789D01*
X862815Y459190D02*
X874541Y459190D01*
X874541Y468913D02*
X862815Y468913D01*
X874541Y468913D02*
X874541Y464487D01*
X862815Y464487D01*
X862815Y468913D01*
X862815Y465888D02*
X874541Y465888D01*
X874541Y467289D02*
X862815Y467289D01*
X862815Y468690D02*
X874541Y468690D01*
X851641Y449913D02*
X839915Y449913D01*
X851641Y449913D02*
X851641Y445487D01*
X839915Y445487D01*
X839915Y449913D01*
X839915Y446888D02*
X851641Y446888D01*
X851641Y448289D02*
X839915Y448289D01*
X839915Y449690D02*
X851641Y449690D01*
X851641Y459413D02*
X839915Y459413D01*
X851641Y459413D02*
X851641Y454987D01*
X839915Y454987D01*
X839915Y459413D01*
X839915Y456388D02*
X851641Y456388D01*
X851641Y457789D02*
X839915Y457789D01*
X839915Y459190D02*
X851641Y459190D01*
X851641Y468913D02*
X839915Y468913D01*
X851641Y468913D02*
X851641Y464487D01*
X839915Y464487D01*
X839915Y468913D01*
X839915Y465888D02*
X851641Y465888D01*
X851641Y467289D02*
X839915Y467289D01*
X839915Y468690D02*
X851641Y468690D01*
D33*
X1174756Y432750D03*
X1174756Y427750D03*
X1174756Y422750D03*
X1174756Y417750D03*
X1174756Y412750D03*
X1174756Y407750D03*
X1174756Y402750D03*
X1174756Y397750D03*
X1174756Y392750D03*
D34*
X1182950Y384556D03*
X1187950Y384556D03*
X1192950Y384556D03*
X1197950Y384556D03*
X1202950Y384556D03*
X1207950Y384556D03*
X1212950Y384556D03*
X1217950Y384556D03*
X1222950Y384556D03*
D33*
X1231144Y392750D03*
X1231144Y397750D03*
X1231144Y402750D03*
X1231144Y407750D03*
X1231144Y412750D03*
X1231144Y417750D03*
X1231144Y422750D03*
X1231144Y427750D03*
X1231144Y432750D03*
D34*
X1222950Y440944D03*
X1217950Y440944D03*
X1212950Y440944D03*
X1207950Y440944D03*
X1202950Y440944D03*
X1197950Y440944D03*
X1192950Y440944D03*
X1187950Y440944D03*
X1182950Y440944D03*
D35*
X1314800Y491900D02*
X1328400Y491900D01*
X1314800Y491900D02*
X1314800Y493300D01*
X1328400Y493300D01*
X1328400Y491900D01*
X1328400Y493230D02*
X1314800Y493230D01*
X1314800Y486900D02*
X1328400Y486900D01*
X1314800Y486900D02*
X1314800Y488300D01*
X1328400Y488300D01*
X1328400Y486900D01*
X1328400Y488230D02*
X1314800Y488230D01*
X1314800Y481900D02*
X1328400Y481900D01*
X1314800Y481900D02*
X1314800Y483300D01*
X1328400Y483300D01*
X1328400Y481900D01*
X1328400Y483230D02*
X1314800Y483230D01*
X1314800Y476900D02*
X1328400Y476900D01*
X1314800Y476900D02*
X1314800Y478300D01*
X1328400Y478300D01*
X1328400Y476900D01*
X1328400Y478230D02*
X1314800Y478230D01*
X1314800Y471900D02*
X1328400Y471900D01*
X1314800Y471900D02*
X1314800Y473300D01*
X1328400Y473300D01*
X1328400Y471900D01*
X1328400Y473230D02*
X1314800Y473230D01*
X1356900Y471900D02*
X1370500Y471900D01*
X1356900Y471900D02*
X1356900Y473300D01*
X1370500Y473300D01*
X1370500Y471900D01*
X1370500Y473230D02*
X1356900Y473230D01*
X1356900Y476900D02*
X1370500Y476900D01*
X1356900Y476900D02*
X1356900Y478300D01*
X1370500Y478300D01*
X1370500Y476900D01*
X1370500Y478230D02*
X1356900Y478230D01*
X1356900Y481900D02*
X1370500Y481900D01*
X1356900Y481900D02*
X1356900Y483300D01*
X1370500Y483300D01*
X1370500Y481900D01*
X1370500Y483230D02*
X1356900Y483230D01*
X1356900Y486900D02*
X1370500Y486900D01*
X1356900Y486900D02*
X1356900Y488300D01*
X1370500Y488300D01*
X1370500Y486900D01*
X1370500Y488230D02*
X1356900Y488230D01*
X1356900Y491900D02*
X1370500Y491900D01*
X1356900Y491900D02*
X1356900Y493300D01*
X1370500Y493300D01*
X1370500Y491900D01*
X1370500Y493230D02*
X1356900Y493230D01*
D28*
X536660Y304950D02*
X536660Y300300D01*
X536660Y304950D02*
X537660Y304950D01*
X537660Y300300D01*
X536660Y300300D01*
X536660Y301250D02*
X537660Y301250D01*
X537660Y302200D02*
X536660Y302200D01*
X536660Y303150D02*
X537660Y303150D01*
X537660Y304100D02*
X536660Y304100D01*
X531660Y304950D02*
X531660Y300300D01*
X531660Y304950D02*
X532660Y304950D01*
X532660Y300300D01*
X531660Y300300D01*
X531660Y301250D02*
X532660Y301250D01*
X532660Y302200D02*
X531660Y302200D01*
X531660Y303150D02*
X532660Y303150D01*
X532660Y304100D02*
X531660Y304100D01*
X521660Y304950D02*
X521660Y300300D01*
X521660Y304950D02*
X522660Y304950D01*
X522660Y300300D01*
X521660Y300300D01*
X521660Y301250D02*
X522660Y301250D01*
X522660Y302200D02*
X521660Y302200D01*
X521660Y303150D02*
X522660Y303150D01*
X522660Y304100D02*
X521660Y304100D01*
X516660Y304950D02*
X516660Y300300D01*
X516660Y304950D02*
X517660Y304950D01*
X517660Y300300D01*
X516660Y300300D01*
X516660Y301250D02*
X517660Y301250D01*
X517660Y302200D02*
X516660Y302200D01*
X516660Y303150D02*
X517660Y303150D01*
X517660Y304100D02*
X516660Y304100D01*
X516660Y296600D02*
X516660Y291950D01*
X516660Y296600D02*
X517660Y296600D01*
X517660Y291950D01*
X516660Y291950D01*
X516660Y292900D02*
X517660Y292900D01*
X517660Y293850D02*
X516660Y293850D01*
X516660Y294800D02*
X517660Y294800D01*
X517660Y295750D02*
X516660Y295750D01*
X521660Y296600D02*
X521660Y291950D01*
X521660Y296600D02*
X522660Y296600D01*
X522660Y291950D01*
X521660Y291950D01*
X521660Y292900D02*
X522660Y292900D01*
X522660Y293850D02*
X521660Y293850D01*
X521660Y294800D02*
X522660Y294800D01*
X522660Y295750D02*
X521660Y295750D01*
X531660Y296600D02*
X531660Y291950D01*
X531660Y296600D02*
X532660Y296600D01*
X532660Y291950D01*
X531660Y291950D01*
X531660Y292900D02*
X532660Y292900D01*
X532660Y293850D02*
X531660Y293850D01*
X531660Y294800D02*
X532660Y294800D01*
X532660Y295750D02*
X531660Y295750D01*
X536660Y296600D02*
X536660Y291950D01*
X536660Y296600D02*
X537660Y296600D01*
X537660Y291950D01*
X536660Y291950D01*
X536660Y292900D02*
X537660Y292900D01*
X537660Y293850D02*
X536660Y293850D01*
X536660Y294800D02*
X537660Y294800D01*
X537660Y295750D02*
X536660Y295750D01*
X612860Y300300D02*
X612860Y304950D01*
X613860Y304950D01*
X613860Y300300D01*
X612860Y300300D01*
X612860Y301250D02*
X613860Y301250D01*
X613860Y302200D02*
X612860Y302200D01*
X612860Y303150D02*
X613860Y303150D01*
X613860Y304100D02*
X612860Y304100D01*
X607860Y304950D02*
X607860Y300300D01*
X607860Y304950D02*
X608860Y304950D01*
X608860Y300300D01*
X607860Y300300D01*
X607860Y301250D02*
X608860Y301250D01*
X608860Y302200D02*
X607860Y302200D01*
X607860Y303150D02*
X608860Y303150D01*
X608860Y304100D02*
X607860Y304100D01*
X597860Y304950D02*
X597860Y300300D01*
X597860Y304950D02*
X598860Y304950D01*
X598860Y300300D01*
X597860Y300300D01*
X597860Y301250D02*
X598860Y301250D01*
X598860Y302200D02*
X597860Y302200D01*
X597860Y303150D02*
X598860Y303150D01*
X598860Y304100D02*
X597860Y304100D01*
X592860Y304950D02*
X592860Y300300D01*
X592860Y304950D02*
X593860Y304950D01*
X593860Y300300D01*
X592860Y300300D01*
X592860Y301250D02*
X593860Y301250D01*
X593860Y302200D02*
X592860Y302200D01*
X592860Y303150D02*
X593860Y303150D01*
X593860Y304100D02*
X592860Y304100D01*
X592860Y296600D02*
X592860Y291950D01*
X592860Y296600D02*
X593860Y296600D01*
X593860Y291950D01*
X592860Y291950D01*
X592860Y292900D02*
X593860Y292900D01*
X593860Y293850D02*
X592860Y293850D01*
X592860Y294800D02*
X593860Y294800D01*
X593860Y295750D02*
X592860Y295750D01*
X597860Y296600D02*
X597860Y291950D01*
X597860Y296600D02*
X598860Y296600D01*
X598860Y291950D01*
X597860Y291950D01*
X597860Y292900D02*
X598860Y292900D01*
X598860Y293850D02*
X597860Y293850D01*
X597860Y294800D02*
X598860Y294800D01*
X598860Y295750D02*
X597860Y295750D01*
X607860Y296600D02*
X607860Y291950D01*
X607860Y296600D02*
X608860Y296600D01*
X608860Y291950D01*
X607860Y291950D01*
X607860Y292900D02*
X608860Y292900D01*
X608860Y293850D02*
X607860Y293850D01*
X607860Y294800D02*
X608860Y294800D01*
X608860Y295750D02*
X607860Y295750D01*
X612860Y296600D02*
X612860Y291950D01*
X612860Y296600D02*
X613860Y296600D01*
X613860Y291950D01*
X612860Y291950D01*
X612860Y292900D02*
X613860Y292900D01*
X613860Y293850D02*
X612860Y293850D01*
X612860Y294800D02*
X613860Y294800D01*
X613860Y295750D02*
X612860Y295750D01*
X2603328Y403200D02*
X2607978Y403200D01*
X2603328Y403200D02*
X2603328Y404200D01*
X2607978Y404200D01*
X2607978Y403200D01*
X2607978Y404150D02*
X2603328Y404150D01*
X2603328Y398200D02*
X2607978Y398200D01*
X2603328Y398200D02*
X2603328Y399200D01*
X2607978Y399200D01*
X2607978Y398200D01*
X2607978Y399150D02*
X2603328Y399150D01*
X2603328Y388200D02*
X2607978Y388200D01*
X2603328Y388200D02*
X2603328Y389200D01*
X2607978Y389200D01*
X2607978Y388200D01*
X2607978Y389150D02*
X2603328Y389150D01*
X2603328Y383200D02*
X2607978Y383200D01*
X2603328Y383200D02*
X2603328Y384200D01*
X2607978Y384200D01*
X2607978Y383200D01*
X2607978Y384150D02*
X2603328Y384150D01*
X2611678Y383200D02*
X2616328Y383200D01*
X2611678Y383200D02*
X2611678Y384200D01*
X2616328Y384200D01*
X2616328Y383200D01*
X2616328Y384150D02*
X2611678Y384150D01*
X2611678Y388200D02*
X2616328Y388200D01*
X2611678Y388200D02*
X2611678Y389200D01*
X2616328Y389200D01*
X2616328Y388200D01*
X2616328Y389150D02*
X2611678Y389150D01*
X2611678Y398200D02*
X2616328Y398200D01*
X2611678Y398200D02*
X2611678Y399200D01*
X2616328Y399200D01*
X2616328Y398200D01*
X2616328Y399150D02*
X2611678Y399150D01*
X2611678Y403200D02*
X2616328Y403200D01*
X2611678Y403200D02*
X2611678Y404200D01*
X2616328Y404200D01*
X2616328Y403200D01*
X2616328Y404150D02*
X2611678Y404150D01*
X2607978Y435077D02*
X2603328Y435077D01*
X2603328Y436077D01*
X2607978Y436077D01*
X2607978Y435077D01*
X2607978Y436027D02*
X2603328Y436027D01*
X2603328Y430077D02*
X2607978Y430077D01*
X2603328Y430077D02*
X2603328Y431077D01*
X2607978Y431077D01*
X2607978Y430077D01*
X2607978Y431027D02*
X2603328Y431027D01*
X2603328Y420077D02*
X2607978Y420077D01*
X2603328Y420077D02*
X2603328Y421077D01*
X2607978Y421077D01*
X2607978Y420077D01*
X2607978Y421027D02*
X2603328Y421027D01*
X2603328Y415077D02*
X2607978Y415077D01*
X2603328Y415077D02*
X2603328Y416077D01*
X2607978Y416077D01*
X2607978Y415077D01*
X2607978Y416027D02*
X2603328Y416027D01*
X2611678Y415077D02*
X2616328Y415077D01*
X2611678Y415077D02*
X2611678Y416077D01*
X2616328Y416077D01*
X2616328Y415077D01*
X2616328Y416027D02*
X2611678Y416027D01*
X2611678Y420077D02*
X2616328Y420077D01*
X2611678Y420077D02*
X2611678Y421077D01*
X2616328Y421077D01*
X2616328Y420077D01*
X2616328Y421027D02*
X2611678Y421027D01*
X2611678Y430077D02*
X2616328Y430077D01*
X2611678Y430077D02*
X2611678Y431077D01*
X2616328Y431077D01*
X2616328Y430077D01*
X2616328Y431027D02*
X2611678Y431027D01*
X2611678Y435077D02*
X2616328Y435077D01*
X2611678Y435077D02*
X2611678Y436077D01*
X2616328Y436077D01*
X2616328Y435077D01*
X2616328Y436027D02*
X2611678Y436027D01*
D36*
X1192120Y499500D03*
X1214120Y499500D03*
X1214120Y516500D03*
X1192120Y516500D03*
D37*
X2687772Y99696D03*
X2709772Y99696D03*
X2709772Y115696D03*
X2687772Y115696D03*
D38*
X798300Y130812D02*
X784800Y130812D01*
X784800Y124312D02*
X798300Y124312D01*
X798300Y117812D02*
X784800Y117812D01*
X784800Y111312D02*
X798300Y111312D01*
X798300Y104812D02*
X784800Y104812D01*
X784800Y98312D02*
X798300Y98312D01*
X798300Y91812D02*
X784800Y91812D01*
X784800Y85312D02*
X798300Y85312D01*
X798300Y78812D02*
X784800Y78812D01*
X784800Y72312D02*
X798300Y72312D01*
X841800Y72312D02*
X855300Y72312D01*
X855300Y78812D02*
X841800Y78812D01*
X841800Y85312D02*
X855300Y85312D01*
X855300Y91812D02*
X841800Y91812D01*
X841800Y98312D02*
X855300Y98312D01*
X855300Y104812D02*
X841800Y104812D01*
X841800Y111312D02*
X855300Y111312D01*
X855300Y117812D02*
X841800Y117812D01*
X841800Y124312D02*
X855300Y124312D01*
X855300Y130812D02*
X841800Y130812D01*
D12*
X788338Y149996D03*
X788338Y167504D03*
X876378Y123054D03*
X876378Y105546D03*
D16*
X908150Y129054D03*
X908150Y99546D03*
D14*
X849396Y152616D03*
X866904Y152616D03*
D13*
X837300Y178016D03*
X866808Y178016D03*
D12*
X769212Y129404D03*
X769212Y111896D03*
D13*
X763938Y152438D03*
X734430Y152438D03*
D14*
X809754Y50838D03*
X792246Y50838D03*
D13*
X830696Y50762D03*
X860204Y50762D03*
D14*
X811296Y152286D03*
X828804Y152286D03*
D12*
X743888Y111896D03*
X743888Y129404D03*
D25*
X747355Y88100D03*
X765745Y88100D03*
X747355Y62700D03*
X765745Y62700D03*
D12*
X718488Y86496D03*
X718488Y104004D03*
X718412Y66158D03*
X718412Y48650D03*
D26*
X890700Y149555D03*
X890700Y167945D03*
D39*
X483768Y115892D03*
X483768Y110892D03*
X483768Y105892D03*
X483768Y100892D03*
X488268Y96392D03*
X493268Y96392D03*
X498268Y96392D03*
X503268Y96392D03*
X507768Y100892D03*
X507768Y105892D03*
X507768Y110892D03*
X507768Y115892D03*
X503268Y120392D03*
X498268Y120392D03*
X493268Y120392D03*
X488268Y120392D03*
D40*
X491268Y112892D03*
D41*
X480518Y115892D03*
X480518Y110892D03*
X480518Y105892D03*
X480518Y100892D03*
D42*
X488268Y93142D03*
X493268Y93142D03*
X498268Y93142D03*
X503268Y93142D03*
D41*
X511018Y100892D03*
X511018Y105892D03*
X511018Y110892D03*
X511018Y115892D03*
D42*
X503268Y123642D03*
X498268Y123642D03*
X493268Y123642D03*
X488268Y123642D03*
D40*
X491268Y103892D03*
X500268Y103892D03*
X500268Y112892D03*
D12*
X457640Y80306D03*
X457640Y97814D03*
X457696Y136168D03*
X457696Y118660D03*
D14*
X548972Y114686D03*
X531464Y114686D03*
X531210Y63688D03*
X548718Y63688D03*
X548972Y89032D03*
X531464Y89032D03*
D12*
X508440Y143806D03*
X508440Y161314D03*
X483040Y143806D03*
X483040Y161314D03*
D43*
X631522Y146050D03*
D44*
X620347Y134725D02*
X620347Y127675D01*
X618697Y127675D01*
X618697Y134725D01*
X620347Y134725D01*
X620347Y128197D02*
X618697Y128197D01*
X618697Y128719D02*
X620347Y128719D01*
X620347Y129241D02*
X618697Y129241D01*
X618697Y129763D02*
X620347Y129763D01*
X620347Y130285D02*
X618697Y130285D01*
X618697Y130807D02*
X620347Y130807D01*
X620347Y131329D02*
X618697Y131329D01*
X618697Y131851D02*
X620347Y131851D01*
X620347Y132373D02*
X618697Y132373D01*
X618697Y132895D02*
X620347Y132895D01*
X620347Y133417D02*
X618697Y133417D01*
X618697Y133939D02*
X620347Y133939D01*
X620347Y134461D02*
X618697Y134461D01*
X624347Y134725D02*
X624347Y127675D01*
X622697Y127675D01*
X622697Y134725D01*
X624347Y134725D01*
X624347Y128197D02*
X622697Y128197D01*
X622697Y128719D02*
X624347Y128719D01*
X624347Y129241D02*
X622697Y129241D01*
X622697Y129763D02*
X624347Y129763D01*
X624347Y130285D02*
X622697Y130285D01*
X622697Y130807D02*
X624347Y130807D01*
X624347Y131329D02*
X622697Y131329D01*
X622697Y131851D02*
X624347Y131851D01*
X624347Y132373D02*
X622697Y132373D01*
X622697Y132895D02*
X624347Y132895D01*
X624347Y133417D02*
X622697Y133417D01*
X622697Y133939D02*
X624347Y133939D01*
X624347Y134461D02*
X622697Y134461D01*
X628347Y134725D02*
X628347Y127675D01*
X626697Y127675D01*
X626697Y134725D01*
X628347Y134725D01*
X628347Y128197D02*
X626697Y128197D01*
X626697Y128719D02*
X628347Y128719D01*
X628347Y129241D02*
X626697Y129241D01*
X626697Y129763D02*
X628347Y129763D01*
X628347Y130285D02*
X626697Y130285D01*
X626697Y130807D02*
X628347Y130807D01*
X628347Y131329D02*
X626697Y131329D01*
X626697Y131851D02*
X628347Y131851D01*
X628347Y132373D02*
X626697Y132373D01*
X626697Y132895D02*
X628347Y132895D01*
X628347Y133417D02*
X626697Y133417D01*
X626697Y133939D02*
X628347Y133939D01*
X628347Y134461D02*
X626697Y134461D01*
X632347Y134725D02*
X632347Y127675D01*
X630697Y127675D01*
X630697Y134725D01*
X632347Y134725D01*
X632347Y128197D02*
X630697Y128197D01*
X630697Y128719D02*
X632347Y128719D01*
X632347Y129241D02*
X630697Y129241D01*
X630697Y129763D02*
X632347Y129763D01*
X632347Y130285D02*
X630697Y130285D01*
X630697Y130807D02*
X632347Y130807D01*
X632347Y131329D02*
X630697Y131329D01*
X630697Y131851D02*
X632347Y131851D01*
X632347Y132373D02*
X630697Y132373D01*
X630697Y132895D02*
X632347Y132895D01*
X632347Y133417D02*
X630697Y133417D01*
X630697Y133939D02*
X632347Y133939D01*
X632347Y134461D02*
X630697Y134461D01*
X636347Y134725D02*
X636347Y127675D01*
X634697Y127675D01*
X634697Y134725D01*
X636347Y134725D01*
X636347Y128197D02*
X634697Y128197D01*
X634697Y128719D02*
X636347Y128719D01*
X636347Y129241D02*
X634697Y129241D01*
X634697Y129763D02*
X636347Y129763D01*
X636347Y130285D02*
X634697Y130285D01*
X634697Y130807D02*
X636347Y130807D01*
X636347Y131329D02*
X634697Y131329D01*
X634697Y131851D02*
X636347Y131851D01*
X636347Y132373D02*
X634697Y132373D01*
X634697Y132895D02*
X636347Y132895D01*
X636347Y133417D02*
X634697Y133417D01*
X634697Y133939D02*
X636347Y133939D01*
X636347Y134461D02*
X634697Y134461D01*
X640347Y134725D02*
X640347Y127675D01*
X638697Y127675D01*
X638697Y134725D01*
X640347Y134725D01*
X640347Y128197D02*
X638697Y128197D01*
X638697Y128719D02*
X640347Y128719D01*
X640347Y129241D02*
X638697Y129241D01*
X638697Y129763D02*
X640347Y129763D01*
X640347Y130285D02*
X638697Y130285D01*
X638697Y130807D02*
X640347Y130807D01*
X640347Y131329D02*
X638697Y131329D01*
X638697Y131851D02*
X640347Y131851D01*
X640347Y132373D02*
X638697Y132373D01*
X638697Y132895D02*
X640347Y132895D01*
X640347Y133417D02*
X638697Y133417D01*
X638697Y133939D02*
X640347Y133939D01*
X640347Y134461D02*
X638697Y134461D01*
X644347Y134725D02*
X644347Y127675D01*
X642697Y127675D01*
X642697Y134725D01*
X644347Y134725D01*
X644347Y128197D02*
X642697Y128197D01*
X642697Y128719D02*
X644347Y128719D01*
X644347Y129241D02*
X642697Y129241D01*
X642697Y129763D02*
X644347Y129763D01*
X644347Y130285D02*
X642697Y130285D01*
X642697Y130807D02*
X644347Y130807D01*
X644347Y131329D02*
X642697Y131329D01*
X642697Y131851D02*
X644347Y131851D01*
X644347Y132373D02*
X642697Y132373D01*
X642697Y132895D02*
X644347Y132895D01*
X644347Y133417D02*
X642697Y133417D01*
X642697Y133939D02*
X644347Y133939D01*
X644347Y134461D02*
X642697Y134461D01*
X644347Y157375D02*
X644347Y164425D01*
X644347Y157375D02*
X642697Y157375D01*
X642697Y164425D01*
X644347Y164425D01*
X644347Y157897D02*
X642697Y157897D01*
X642697Y158419D02*
X644347Y158419D01*
X644347Y158941D02*
X642697Y158941D01*
X642697Y159463D02*
X644347Y159463D01*
X644347Y159985D02*
X642697Y159985D01*
X642697Y160507D02*
X644347Y160507D01*
X644347Y161029D02*
X642697Y161029D01*
X642697Y161551D02*
X644347Y161551D01*
X644347Y162073D02*
X642697Y162073D01*
X642697Y162595D02*
X644347Y162595D01*
X644347Y163117D02*
X642697Y163117D01*
X642697Y163639D02*
X644347Y163639D01*
X644347Y164161D02*
X642697Y164161D01*
X640347Y164425D02*
X640347Y157375D01*
X638697Y157375D01*
X638697Y164425D01*
X640347Y164425D01*
X640347Y157897D02*
X638697Y157897D01*
X638697Y158419D02*
X640347Y158419D01*
X640347Y158941D02*
X638697Y158941D01*
X638697Y159463D02*
X640347Y159463D01*
X640347Y159985D02*
X638697Y159985D01*
X638697Y160507D02*
X640347Y160507D01*
X640347Y161029D02*
X638697Y161029D01*
X638697Y161551D02*
X640347Y161551D01*
X640347Y162073D02*
X638697Y162073D01*
X638697Y162595D02*
X640347Y162595D01*
X640347Y163117D02*
X638697Y163117D01*
X638697Y163639D02*
X640347Y163639D01*
X640347Y164161D02*
X638697Y164161D01*
X636347Y164425D02*
X636347Y157375D01*
X634697Y157375D01*
X634697Y164425D01*
X636347Y164425D01*
X636347Y157897D02*
X634697Y157897D01*
X634697Y158419D02*
X636347Y158419D01*
X636347Y158941D02*
X634697Y158941D01*
X634697Y159463D02*
X636347Y159463D01*
X636347Y159985D02*
X634697Y159985D01*
X634697Y160507D02*
X636347Y160507D01*
X636347Y161029D02*
X634697Y161029D01*
X634697Y161551D02*
X636347Y161551D01*
X636347Y162073D02*
X634697Y162073D01*
X634697Y162595D02*
X636347Y162595D01*
X636347Y163117D02*
X634697Y163117D01*
X634697Y163639D02*
X636347Y163639D01*
X636347Y164161D02*
X634697Y164161D01*
X632347Y164425D02*
X632347Y157375D01*
X630697Y157375D01*
X630697Y164425D01*
X632347Y164425D01*
X632347Y157897D02*
X630697Y157897D01*
X630697Y158419D02*
X632347Y158419D01*
X632347Y158941D02*
X630697Y158941D01*
X630697Y159463D02*
X632347Y159463D01*
X632347Y159985D02*
X630697Y159985D01*
X630697Y160507D02*
X632347Y160507D01*
X632347Y161029D02*
X630697Y161029D01*
X630697Y161551D02*
X632347Y161551D01*
X632347Y162073D02*
X630697Y162073D01*
X630697Y162595D02*
X632347Y162595D01*
X632347Y163117D02*
X630697Y163117D01*
X630697Y163639D02*
X632347Y163639D01*
X632347Y164161D02*
X630697Y164161D01*
X628347Y164425D02*
X628347Y157375D01*
X626697Y157375D01*
X626697Y164425D01*
X628347Y164425D01*
X628347Y157897D02*
X626697Y157897D01*
X626697Y158419D02*
X628347Y158419D01*
X628347Y158941D02*
X626697Y158941D01*
X626697Y159463D02*
X628347Y159463D01*
X628347Y159985D02*
X626697Y159985D01*
X626697Y160507D02*
X628347Y160507D01*
X628347Y161029D02*
X626697Y161029D01*
X626697Y161551D02*
X628347Y161551D01*
X628347Y162073D02*
X626697Y162073D01*
X626697Y162595D02*
X628347Y162595D01*
X628347Y163117D02*
X626697Y163117D01*
X626697Y163639D02*
X628347Y163639D01*
X628347Y164161D02*
X626697Y164161D01*
X624347Y164425D02*
X624347Y157375D01*
X622697Y157375D01*
X622697Y164425D01*
X624347Y164425D01*
X624347Y157897D02*
X622697Y157897D01*
X622697Y158419D02*
X624347Y158419D01*
X624347Y158941D02*
X622697Y158941D01*
X622697Y159463D02*
X624347Y159463D01*
X624347Y159985D02*
X622697Y159985D01*
X622697Y160507D02*
X624347Y160507D01*
X624347Y161029D02*
X622697Y161029D01*
X622697Y161551D02*
X624347Y161551D01*
X624347Y162073D02*
X622697Y162073D01*
X622697Y162595D02*
X624347Y162595D01*
X624347Y163117D02*
X622697Y163117D01*
X622697Y163639D02*
X624347Y163639D01*
X624347Y164161D02*
X622697Y164161D01*
X620347Y164425D02*
X620347Y157375D01*
X618697Y157375D01*
X618697Y164425D01*
X620347Y164425D01*
X620347Y157897D02*
X618697Y157897D01*
X618697Y158419D02*
X620347Y158419D01*
X620347Y158941D02*
X618697Y158941D01*
X618697Y159463D02*
X620347Y159463D01*
X620347Y159985D02*
X618697Y159985D01*
X618697Y160507D02*
X620347Y160507D01*
X620347Y161029D02*
X618697Y161029D01*
X618697Y161551D02*
X620347Y161551D01*
X620347Y162073D02*
X618697Y162073D01*
X618697Y162595D02*
X620347Y162595D01*
X620347Y163117D02*
X618697Y163117D01*
X618697Y163639D02*
X620347Y163639D01*
X620347Y164161D02*
X618697Y164161D01*
D12*
X593422Y86496D03*
X593422Y104004D03*
X669563Y86496D03*
X669563Y104004D03*
X618822Y86496D03*
X618822Y104004D03*
X644222Y86496D03*
X644222Y104004D03*
D25*
X621695Y63472D03*
X603305Y63472D03*
X641405Y63528D03*
X659795Y63528D03*
D14*
X667500Y133378D03*
X685008Y133378D03*
D13*
X667596Y165128D03*
X697104Y165128D03*
D26*
X593422Y136855D03*
X593422Y155245D03*
D25*
X549239Y139766D03*
X530849Y139766D03*
D45*
X2006578Y464058D03*
X2011578Y464058D03*
X2016578Y464058D03*
X2021578Y464058D03*
X2026578Y464058D03*
X2031578Y464058D03*
X2036578Y464058D03*
X2041578Y464058D03*
D46*
X1996578Y489058D03*
X2051578Y489058D03*
D26*
X336152Y498873D03*
X336152Y517263D03*
X311156Y498873D03*
X311156Y517263D03*
M02*
