G04 EAGLE Gerber RS-274X export*
G75*
%MOMM*%
%FSLAX34Y34*%
%LPD*%
%INSolderpaste Bottom*%
%IPPOS*%
%AMOC8*
5,1,8,0,0,1.08239X$1,22.5*%
G01*
G04 Define Apertures*
%ADD10R,0.280000X2.600000*%
%ADD11C,2.032000*%
%ADD12R,2.700000X1.200000*%
%ADD13R,1.100000X0.800000*%
D10*
X2725000Y462800D03*
X2720000Y462800D03*
X2715000Y462800D03*
X2710000Y462800D03*
X2705000Y462800D03*
X2700000Y462800D03*
X2695000Y462800D03*
X2690000Y462800D03*
X2685000Y462800D03*
X2680000Y462800D03*
X2675000Y462800D03*
X2670000Y462800D03*
X2665000Y462800D03*
X2660000Y462800D03*
X2655000Y462800D03*
X2650000Y462800D03*
X2645000Y462800D03*
X2640000Y462800D03*
X2635000Y462800D03*
X2485000Y462800D03*
X2480000Y462800D03*
X2475000Y462800D03*
X2470000Y462800D03*
X2465000Y462800D03*
X2460000Y462800D03*
X2455000Y462800D03*
X2450000Y462800D03*
X2445000Y462800D03*
X2440000Y462800D03*
X2435000Y462800D03*
X2430000Y462800D03*
X2425000Y462800D03*
X2420000Y462800D03*
X2415000Y462800D03*
X2410000Y462800D03*
X2405000Y462800D03*
X2400000Y462800D03*
X2395000Y462800D03*
D11*
X1602533Y24653D03*
X1653333Y50053D03*
X1729533Y50053D03*
X1983533Y50053D03*
X2008933Y50053D03*
X1923033Y81353D03*
X1898033Y155353D03*
X1868033Y544353D03*
X1948033Y527353D03*
X1982033Y544353D03*
X2030033Y544353D03*
D12*
X2785500Y403300D03*
X2834500Y403300D03*
X2785500Y516700D03*
X2834500Y516700D03*
D13*
X2782500Y466350D03*
X2782500Y479050D03*
X2782500Y491750D03*
X2782500Y453650D03*
X2782500Y440950D03*
X2782500Y428250D03*
X2837500Y428250D03*
X2837500Y440950D03*
X2837500Y453650D03*
X2837500Y466350D03*
X2837500Y479050D03*
X2837500Y491750D03*
D12*
X375500Y403300D03*
X424500Y403300D03*
X375500Y516700D03*
X424500Y516700D03*
D13*
X372500Y466350D03*
X372500Y479050D03*
X372500Y491750D03*
X372500Y453650D03*
X372500Y440950D03*
X372500Y428250D03*
X427500Y428250D03*
X427500Y440950D03*
X427500Y453650D03*
X427500Y466350D03*
X427500Y479050D03*
X427500Y491750D03*
M02*
