G04 EAGLE Gerber RS-274X export*
G75*
%MOMM*%
%FSLAX34Y34*%
%LPD*%
%INSoldermask Top*%
%IPPOS*%
%AMOC8*
5,1,8,0,0,1.08239X$1,22.5*%
G01*
G04 Define Apertures*
%ADD10C,3.801600*%
%ADD11R,5.181600X5.181600*%
%ADD12R,4.061600X4.061600*%
%ADD13R,1.566900X1.266200*%
%ADD14R,1.266200X1.916900*%
%ADD15R,1.266200X1.566900*%
%ADD16R,2.305200X1.897100*%
%ADD17R,1.916900X1.266200*%
%ADD18C,0.150800*%
%ADD19R,0.406400X1.397000*%
%ADD20R,1.905000X2.311400*%
%ADD21C,2.201600*%
%ADD22C,1.625600*%
%ADD23C,1.473200*%
%ADD24C,3.131600*%
%ADD25C,0.812800*%
%ADD26C,1.481600*%
%ADD27C,1.320800*%
%ADD28R,1.651600X0.401600*%
%ADD29C,1.201600*%
%ADD30C,1.701600*%
%ADD31R,2.851600X1.301600*%
%ADD32C,5.401600*%
%ADD33C,3.101600*%
%ADD34R,0.762000X1.651000*%
%ADD35R,1.397000X2.006600*%
%ADD36R,1.371600X0.762000*%
%ADD37R,4.901600X1.401600*%
%ADD38R,1.132800X1.521800*%
%ADD39R,1.521800X1.132800*%
%ADD40C,4.149600*%
%ADD41R,0.801600X0.301600*%
%ADD42R,0.705000X0.340000*%
%ADD43R,0.705000X0.540000*%
%ADD44R,0.863600X0.355600*%
%ADD45R,1.092200X1.905000*%
%ADD46R,0.660400X1.422400*%
%ADD47C,0.248975*%
%ADD48R,1.168400X0.355600*%
%ADD49R,0.355600X1.168400*%
%ADD50R,3.911600X3.911600*%
%ADD51C,0.240406*%
%ADD52R,0.340000X0.705000*%
%ADD53R,0.540000X0.705000*%
%ADD54R,1.501600X1.301600*%
%ADD55R,1.501600X1.101600*%
%ADD56C,0.451600*%
%ADD57C,0.400000*%
%ADD58R,1.750000X1.750000*%
%ADD59R,0.700000X0.400000*%
%ADD60R,0.400000X0.700000*%
%ADD61R,0.762000X1.371600*%
%ADD62C,0.157581*%
%ADD63R,2.401600X1.801600*%
%ADD64R,1.451600X1.451600*%
%ADD65C,1.451600*%
%ADD66R,0.401600X0.901600*%
%ADD67R,0.501600X0.901600*%
%ADD68C,1.751600*%
%ADD69C,1.801600*%
%ADD70C,1.301600*%
%ADD71C,1.601600*%
%ADD72C,1.301600*%
%ADD73C,1.371600*%
%ADD74C,0.601600*%
G36*
X3073864Y248536D02*
X3074633Y248450D01*
X3075402Y248363D01*
X3076174Y248275D01*
X3076948Y248186D01*
X3077723Y248095D01*
X3078501Y248004D01*
X3079281Y247912D01*
X3080063Y247819D01*
X3080848Y247725D01*
X3081635Y247630D01*
X3082425Y247535D01*
X3083217Y247438D01*
X3084013Y247340D01*
X3084811Y247242D01*
X3085612Y247142D01*
X3086416Y247042D01*
X3085353Y246317D01*
X3084956Y246346D01*
X3084561Y246374D01*
X3084168Y246403D01*
X3083777Y246432D01*
X3083387Y246461D01*
X3082999Y246490D01*
X3082612Y246519D01*
X3082228Y246549D01*
X3081844Y246579D01*
X3081463Y246609D01*
X3081082Y246639D01*
X3080704Y246669D01*
X3080327Y246699D01*
X3079951Y246729D01*
X3079204Y246790D01*
X3078462Y246852D01*
X3077726Y246914D01*
X3076994Y246976D01*
X3076268Y247038D01*
X3075546Y247101D01*
X3074829Y247164D01*
X3074116Y247227D01*
X3073407Y247290D01*
X3072694Y245351D01*
X3065366Y245351D01*
X3066359Y247931D01*
X3065842Y247990D01*
X3065323Y248048D01*
X3064803Y248105D01*
X3064282Y248161D01*
X3063759Y248215D01*
X3063236Y248269D01*
X3062711Y248321D01*
X3062186Y248372D01*
X3061659Y248422D01*
X3061131Y248471D01*
X3060602Y248519D01*
X3060071Y248565D01*
X3059540Y248611D01*
X3059008Y248655D01*
X3058475Y248699D01*
X3057940Y248741D01*
X3057405Y248782D01*
X3056868Y248822D01*
X3056331Y248861D01*
X3055792Y248899D01*
X3055253Y248936D01*
X3054713Y248972D01*
X3054171Y249006D01*
X3053629Y249040D01*
X3052541Y249104D01*
X3051450Y249164D01*
X3050356Y249220D01*
X3049257Y249271D01*
X3048156Y249319D01*
X3047051Y249362D01*
X3045943Y249402D01*
X3044832Y249437D01*
X3043718Y249469D01*
X3042600Y249497D01*
X3041480Y249520D01*
X3040357Y249540D01*
X3039232Y249557D01*
X3038104Y249569D01*
X3036973Y249578D01*
X3035840Y249583D01*
X3034705Y249584D01*
X3033568Y249581D01*
X3032428Y249576D01*
X3031286Y249566D01*
X3030143Y249553D01*
X3028997Y249536D01*
X3027850Y249517D01*
X3026701Y249493D01*
X3025550Y249466D01*
X3024398Y249436D01*
X3023245Y249403D01*
X3022090Y249366D01*
X3020934Y249326D01*
X3019777Y249283D01*
X3018618Y249237D01*
X3017459Y249187D01*
X3016299Y249135D01*
X3015138Y249079D01*
X3013977Y249020D01*
X3012814Y248959D01*
X3011652Y248894D01*
X3010489Y248826D01*
X3009325Y248756D01*
X3008161Y248683D01*
X3006998Y248606D01*
X3005834Y248528D01*
X3004670Y248446D01*
X3003506Y248361D01*
X3002342Y248274D01*
X3001179Y248185D01*
X3000016Y248092D01*
X2998854Y247997D01*
X2997692Y247900D01*
X2996531Y247800D01*
X2995370Y247697D01*
X2994211Y247593D01*
X2993052Y247485D01*
X2991895Y247376D01*
X2990738Y247264D01*
X2989583Y247149D01*
X2988429Y247033D01*
X2987276Y246914D01*
X2986125Y246793D01*
X2984975Y246670D01*
X2983827Y246545D01*
X2982681Y246417D01*
X2981536Y246288D01*
X2980394Y246156D01*
X2979253Y246023D01*
X2978115Y245888D01*
X2976978Y245750D01*
X2975844Y245611D01*
X2974713Y245470D01*
X2973584Y245327D01*
X2972457Y245183D01*
X2971333Y245037D01*
X2970212Y244889D01*
X2969093Y244739D01*
X2967978Y244588D01*
X2966865Y244435D01*
X2965756Y244280D01*
X2964650Y244124D01*
X2963547Y243967D01*
X2962447Y243808D01*
X2961351Y243647D01*
X2960258Y243486D01*
X2959169Y243323D01*
X2958084Y243158D01*
X2957002Y242992D01*
X2955925Y242826D01*
X2954851Y242657D01*
X2953782Y242488D01*
X2952716Y242318D01*
X2951655Y242146D01*
X2950599Y241973D01*
X2949546Y241800D01*
X2948498Y241625D01*
X2947455Y241449D01*
X2946417Y241273D01*
X2945383Y241095D01*
X2944354Y240917D01*
X2943331Y240738D01*
X2942312Y240558D01*
X2941298Y240377D01*
X2940290Y240195D01*
X2939287Y240013D01*
X2938289Y239830D01*
X2937297Y239647D01*
X2936803Y239555D01*
X2936311Y239463D01*
X2935820Y239371D01*
X2935330Y239278D01*
X2934842Y239186D01*
X2934355Y239093D01*
X2933870Y239001D01*
X2933386Y238908D01*
X2932904Y238815D01*
X2932423Y238722D01*
X2931944Y238629D01*
X2931466Y238535D01*
X2930990Y238442D01*
X2930515Y238349D01*
X2930042Y238255D01*
X2929571Y238162D01*
X2929101Y238068D01*
X2928632Y237974D01*
X2928165Y237880D01*
X2927700Y237787D01*
X2927237Y237693D01*
X2926775Y237599D01*
X2926315Y237505D01*
X2925856Y237411D01*
X2926758Y241679D01*
X2927675Y241853D01*
X2928594Y242027D01*
X2929516Y242199D01*
X2930439Y242370D01*
X2931365Y242539D01*
X2932292Y242707D01*
X2933222Y242874D01*
X2934153Y243040D01*
X2935087Y243204D01*
X2936022Y243367D01*
X2936959Y243528D01*
X2937898Y243688D01*
X2938839Y243847D01*
X2939782Y244004D01*
X2940726Y244160D01*
X2941672Y244315D01*
X2942620Y244468D01*
X2943569Y244619D01*
X2944521Y244770D01*
X2945473Y244919D01*
X2946427Y245066D01*
X2947383Y245212D01*
X2948340Y245356D01*
X2949299Y245499D01*
X2950259Y245641D01*
X2951221Y245781D01*
X2952183Y245920D01*
X2953148Y246057D01*
X2954113Y246192D01*
X2955080Y246326D01*
X2956048Y246459D01*
X2957017Y246590D01*
X2957987Y246719D01*
X2958959Y246847D01*
X2959931Y246973D01*
X2960905Y247098D01*
X2961879Y247221D01*
X2962855Y247343D01*
X2963832Y247463D01*
X2964809Y247581D01*
X2965788Y247698D01*
X2966767Y247813D01*
X2967747Y247926D01*
X2968728Y248038D01*
X2969710Y248148D01*
X2970692Y248257D01*
X2971676Y248364D01*
X2972660Y248469D01*
X2973644Y248572D01*
X2974629Y248674D01*
X2975615Y248774D01*
X2976602Y248872D01*
X2977588Y248969D01*
X2978576Y249064D01*
X2979563Y249157D01*
X2980552Y249249D01*
X2981540Y249338D01*
X2982529Y249426D01*
X2983519Y249512D01*
X2984508Y249597D01*
X2985498Y249679D01*
X2986488Y249760D01*
X2987478Y249839D01*
X2988469Y249916D01*
X2989459Y249991D01*
X2990450Y250065D01*
X2991441Y250136D01*
X2992432Y250206D01*
X2993422Y250274D01*
X2994413Y250340D01*
X2995404Y250404D01*
X2996394Y250467D01*
X2997385Y250527D01*
X2998375Y250586D01*
X2999365Y250642D01*
X3000355Y250697D01*
X3001345Y250750D01*
X3002334Y250801D01*
X3003323Y250849D01*
X3004312Y250896D01*
X3005300Y250941D01*
X3006288Y250984D01*
X3007276Y251025D01*
X3008263Y251064D01*
X3009249Y251101D01*
X3010235Y251136D01*
X3011221Y251169D01*
X3012205Y251200D01*
X3013189Y251229D01*
X3014173Y251256D01*
X3015156Y251281D01*
X3016138Y251304D01*
X3017119Y251324D01*
X3018099Y251343D01*
X3019079Y251360D01*
X3020058Y251374D01*
X3021035Y251386D01*
X3022012Y251397D01*
X3022988Y251405D01*
X3023963Y251411D01*
X3024937Y251415D01*
X3025910Y251416D01*
X3026882Y251416D01*
X3027852Y251413D01*
X3028822Y251409D01*
X3029790Y251402D01*
X3030757Y251393D01*
X3031723Y251381D01*
X3032687Y251368D01*
X3033651Y251352D01*
X3034613Y251334D01*
X3035573Y251314D01*
X3036532Y251291D01*
X3037490Y251267D01*
X3038446Y251240D01*
X3039400Y251211D01*
X3040354Y251179D01*
X3041305Y251145D01*
X3042255Y251109D01*
X3043203Y251071D01*
X3044150Y251030D01*
X3045095Y250987D01*
X3046038Y250942D01*
X3046979Y250894D01*
X3047919Y250844D01*
X3048857Y250792D01*
X3049792Y250737D01*
X3050726Y250680D01*
X3051755Y250615D01*
X3052782Y250546D01*
X3053806Y250475D01*
X3054827Y250401D01*
X3055847Y250324D01*
X3056863Y250244D01*
X3057877Y250161D01*
X3058889Y250075D01*
X3059898Y249986D01*
X3060904Y249894D01*
X3061907Y249799D01*
X3062907Y249701D01*
X3063904Y249600D01*
X3064899Y249496D01*
X3065890Y249388D01*
X3066878Y249278D01*
X3068668Y253919D01*
X3060663Y275308D01*
X3067830Y275308D01*
X3072404Y261537D01*
X3076721Y275308D01*
X3083710Y275308D01*
X3073864Y248536D01*
G37*
G36*
X3017563Y253420D02*
X3009510Y253420D01*
X3002183Y282410D01*
X3009720Y282410D01*
X3013746Y262987D01*
X3018627Y282410D01*
X3025826Y282410D01*
X3030480Y262938D01*
X3034668Y282410D01*
X3042045Y282410D01*
X3034668Y253420D01*
X3026679Y253420D01*
X3022025Y271329D01*
X3017563Y253420D01*
G37*
G36*
X2986415Y258553D02*
X2986610Y258542D01*
X2986807Y258532D01*
X2987004Y258523D01*
X2987203Y258516D01*
X2987601Y258504D01*
X2987802Y258500D01*
X2988002Y258498D01*
X2988203Y258497D01*
X2988403Y258497D01*
X2988604Y258499D01*
X2988804Y258503D01*
X2989003Y258509D01*
X2989202Y258517D01*
X2989400Y258526D01*
X2989597Y258538D01*
X2989597Y253218D01*
X2989198Y253211D01*
X2988800Y253207D01*
X2988401Y253206D01*
X2988002Y253206D01*
X2987603Y253209D01*
X2987206Y253213D01*
X2986810Y253218D01*
X2986415Y253225D01*
X2985887Y253235D01*
X2985364Y253244D01*
X2985104Y253248D01*
X2984846Y253253D01*
X2984589Y253256D01*
X2984334Y253260D01*
X2984080Y253264D01*
X2983829Y253267D01*
X2983579Y253270D01*
X2983331Y253273D01*
X2983086Y253276D01*
X2982843Y253278D01*
X2982603Y253281D01*
X2982365Y253283D01*
X2982130Y253285D01*
X2981897Y253287D01*
X2981668Y253288D01*
X2981442Y253290D01*
X2981218Y253291D01*
X2980999Y253292D01*
X2980782Y253293D01*
X2980569Y253294D01*
X2980360Y253295D01*
X2980154Y253296D01*
X2979953Y253296D01*
X2979755Y253296D01*
X2979561Y253296D01*
X2979372Y253296D01*
X2979187Y253296D01*
X2979007Y253296D01*
X2979007Y282425D01*
X2979195Y282424D01*
X2979388Y282424D01*
X2979583Y282423D01*
X2979783Y282422D01*
X2979985Y282421D01*
X2980191Y282421D01*
X2980400Y282420D01*
X2980612Y282419D01*
X2980827Y282418D01*
X2981045Y282417D01*
X2981266Y282416D01*
X2981489Y282415D01*
X2981715Y282414D01*
X2981944Y282413D01*
X2982176Y282412D01*
X2982409Y282410D01*
X2982645Y282409D01*
X2982884Y282408D01*
X2983124Y282408D01*
X2983367Y282407D01*
X2983612Y282406D01*
X2983859Y282405D01*
X2984107Y282404D01*
X2984357Y282403D01*
X2984609Y282403D01*
X2984863Y282402D01*
X2985118Y282401D01*
X2985375Y282401D01*
X2985893Y282400D01*
X2986415Y282400D01*
X2986812Y282401D01*
X2987210Y282405D01*
X2988007Y282416D01*
X2988406Y282420D01*
X2988804Y282422D01*
X2989201Y282421D01*
X2989597Y282416D01*
X2989597Y276953D01*
X2989386Y276967D01*
X2989175Y276978D01*
X2988963Y276985D01*
X2988752Y276989D01*
X2988541Y276991D01*
X2988331Y276991D01*
X2988123Y276990D01*
X2987917Y276987D01*
X2987713Y276983D01*
X2987514Y276979D01*
X2987318Y276975D01*
X2987126Y276971D01*
X2986940Y276968D01*
X2986848Y276967D01*
X2986758Y276966D01*
X2986670Y276966D01*
X2986583Y276966D01*
X2986498Y276966D01*
X2986415Y276968D01*
X2986274Y276968D01*
X2986274Y270829D01*
X2986299Y270829D01*
X2986321Y270829D01*
X2986340Y270827D01*
X2986358Y270825D01*
X2986373Y270821D01*
X2986388Y270814D01*
X2986402Y270806D01*
X2986415Y270794D01*
X2986609Y270787D01*
X2986805Y270781D01*
X2987002Y270776D01*
X2987201Y270772D01*
X2987401Y270769D01*
X2987602Y270767D01*
X2987804Y270767D01*
X2988006Y270768D01*
X2988208Y270771D01*
X2988409Y270777D01*
X2988610Y270784D01*
X2988810Y270794D01*
X2989009Y270807D01*
X2989207Y270822D01*
X2989403Y270840D01*
X2989597Y270862D01*
X2989597Y265867D01*
X2989165Y265863D01*
X2988951Y265860D01*
X2988738Y265857D01*
X2988527Y265854D01*
X2988319Y265850D01*
X2988112Y265846D01*
X2987908Y265842D01*
X2987708Y265838D01*
X2987510Y265834D01*
X2987317Y265831D01*
X2987127Y265827D01*
X2986942Y265825D01*
X2986761Y265822D01*
X2986585Y265821D01*
X2986415Y265820D01*
X2986274Y265820D01*
X2986274Y258553D01*
X2986415Y258553D01*
G37*
G36*
X2996363Y269171D02*
X2996363Y269171D01*
X2996509Y269157D01*
X2996653Y269140D01*
X2996796Y269119D01*
X2996936Y269095D01*
X2997075Y269069D01*
X2997212Y269039D01*
X2997347Y269006D01*
X2997480Y268969D01*
X2997611Y268930D01*
X2997740Y268888D01*
X2997868Y268844D01*
X2997993Y268796D01*
X2998117Y268745D01*
X2998239Y268692D01*
X2998358Y268636D01*
X2998476Y268578D01*
X2998592Y268516D01*
X2998706Y268453D01*
X2998819Y268386D01*
X2998929Y268318D01*
X2999037Y268246D01*
X2999144Y268173D01*
X2999248Y268097D01*
X2999351Y268018D01*
X2999452Y267938D01*
X2999550Y267855D01*
X2999647Y267770D01*
X2999742Y267683D01*
X2999835Y267593D01*
X2999926Y267502D01*
X3000015Y267409D01*
X3000103Y267314D01*
X3000188Y267216D01*
X3000271Y267117D01*
X3000353Y267016D01*
X3000432Y266914D01*
X3000510Y266809D01*
X3000585Y266703D01*
X3000659Y266596D01*
X3000730Y266486D01*
X3000800Y266375D01*
X3000868Y266263D01*
X3000934Y266149D01*
X3000998Y266033D01*
X3001060Y265917D01*
X3001120Y265799D01*
X3001178Y265679D01*
X3001234Y265558D01*
X3001288Y265436D01*
X3001340Y265313D01*
X3001390Y265189D01*
X3001438Y265064D01*
X3001484Y264938D01*
X3001528Y264810D01*
X3001571Y264682D01*
X3001611Y264553D01*
X3001649Y264423D01*
X3001685Y264292D01*
X3001720Y264160D01*
X3001752Y264028D01*
X3001782Y263894D01*
X3001811Y263761D01*
X3001837Y263626D01*
X3001861Y263491D01*
X3001884Y263356D01*
X3001904Y263220D01*
X3001923Y263084D01*
X3001939Y262947D01*
X3001953Y262810D01*
X3001966Y262673D01*
X3001976Y262535D01*
X3001984Y262397D01*
X3001991Y262259D01*
X3001995Y262121D01*
X3001997Y261983D01*
X3001998Y261845D01*
X3001996Y261706D01*
X3001992Y261568D01*
X3001986Y261430D01*
X3001978Y261292D01*
X3001969Y261155D01*
X3001957Y261017D01*
X3001943Y260880D01*
X3001927Y260743D01*
X3001909Y260606D01*
X3001889Y260470D01*
X3001867Y260334D01*
X3001843Y260199D01*
X3001817Y260064D01*
X3001789Y259930D01*
X3001758Y259797D01*
X3001726Y259664D01*
X3001692Y259532D01*
X3001655Y259400D01*
X3001617Y259270D01*
X3001577Y259140D01*
X3001534Y259011D01*
X3001489Y258883D01*
X3001443Y258756D01*
X3001394Y258631D01*
X3001343Y258506D01*
X3001290Y258382D01*
X3001236Y258259D01*
X3001179Y258138D01*
X3001119Y258018D01*
X3001058Y257899D01*
X3000995Y257781D01*
X3000930Y257665D01*
X3000863Y257550D01*
X3000793Y257437D01*
X3000722Y257325D01*
X3000648Y257215D01*
X3000572Y257106D01*
X3000494Y256999D01*
X3000415Y256893D01*
X3000333Y256790D01*
X3000248Y256688D01*
X3000162Y256588D01*
X3000074Y256489D01*
X2999984Y256393D01*
X2999891Y256298D01*
X2999797Y256206D01*
X2999700Y256115D01*
X2999601Y256027D01*
X2999500Y255941D01*
X2999397Y255857D01*
X2999292Y255775D01*
X2999185Y255695D01*
X2999089Y255607D01*
X2998991Y255520D01*
X2998890Y255436D01*
X2998787Y255353D01*
X2998681Y255273D01*
X2998573Y255195D01*
X2998463Y255118D01*
X2998351Y255044D01*
X2998237Y254971D01*
X2998120Y254900D01*
X2998001Y254831D01*
X2997880Y254764D01*
X2997758Y254699D01*
X2997633Y254635D01*
X2997506Y254573D01*
X2997377Y254513D01*
X2997246Y254455D01*
X2997113Y254398D01*
X2996979Y254343D01*
X2996843Y254290D01*
X2996705Y254238D01*
X2996565Y254188D01*
X2996423Y254139D01*
X2996280Y254092D01*
X2996135Y254047D01*
X2995989Y254003D01*
X2995841Y253960D01*
X2995692Y253919D01*
X2995541Y253880D01*
X2995388Y253841D01*
X2995234Y253804D01*
X2995079Y253769D01*
X2994923Y253735D01*
X2994765Y253702D01*
X2994606Y253671D01*
X2994445Y253640D01*
X2994284Y253611D01*
X2994121Y253584D01*
X2993957Y253557D01*
X2993792Y253532D01*
X2993626Y253507D01*
X2993459Y253484D01*
X2993291Y253462D01*
X2993122Y253442D01*
X2992781Y253403D01*
X2992437Y253369D01*
X2992090Y253338D01*
X2991740Y253311D01*
X2991387Y253288D01*
X2991032Y253268D01*
X2990675Y253251D01*
X2990317Y253238D01*
X2989957Y253227D01*
X2989596Y253218D01*
X2989596Y258538D01*
X2989750Y258549D01*
X2989904Y258561D01*
X2990056Y258574D01*
X2990208Y258589D01*
X2990358Y258606D01*
X2990508Y258624D01*
X2990656Y258643D01*
X2990803Y258665D01*
X2990948Y258688D01*
X2991092Y258713D01*
X2991235Y258739D01*
X2991375Y258768D01*
X2991515Y258798D01*
X2991652Y258831D01*
X2991787Y258865D01*
X2991921Y258901D01*
X2992052Y258939D01*
X2992182Y258980D01*
X2992309Y259023D01*
X2992434Y259067D01*
X2992556Y259114D01*
X2992676Y259164D01*
X2992794Y259215D01*
X2992909Y259269D01*
X2993021Y259326D01*
X2993131Y259385D01*
X2993238Y259446D01*
X2993342Y259510D01*
X2993442Y259577D01*
X2993540Y259646D01*
X2993635Y259718D01*
X2993726Y259792D01*
X2993814Y259870D01*
X2993899Y259950D01*
X2993980Y260033D01*
X2994058Y260119D01*
X2994132Y260208D01*
X2994202Y260299D01*
X2994268Y260394D01*
X2994331Y260492D01*
X2994389Y260593D01*
X2994444Y260697D01*
X2994494Y260805D01*
X2994541Y260916D01*
X2994583Y261030D01*
X2994620Y261147D01*
X2994653Y261268D01*
X2994668Y261329D01*
X2994682Y261392D01*
X2994694Y261455D01*
X2994706Y261519D01*
X2994716Y261584D01*
X2994725Y261650D01*
X2994733Y261717D01*
X2994740Y261785D01*
X2994745Y261854D01*
X2994749Y261923D01*
X2994752Y261994D01*
X2994754Y262065D01*
X2994755Y262138D01*
X2994754Y262211D01*
X2994752Y262285D01*
X2994748Y262360D01*
X2994744Y262436D01*
X2994738Y262513D01*
X2994731Y262591D01*
X2994722Y262670D01*
X2994712Y262750D01*
X2994701Y262831D01*
X2994688Y262913D01*
X2994675Y262996D01*
X2994659Y263080D01*
X2994643Y263164D01*
X2994624Y263250D01*
X2994605Y263337D01*
X2994584Y263425D01*
X2994562Y263514D01*
X2994538Y263604D01*
X2994513Y263695D01*
X2994486Y263787D01*
X2994458Y263880D01*
X2994420Y263961D01*
X2994381Y264039D01*
X2994339Y264116D01*
X2994296Y264191D01*
X2994251Y264263D01*
X2994204Y264333D01*
X2994156Y264402D01*
X2994106Y264468D01*
X2994055Y264533D01*
X2994001Y264595D01*
X2993947Y264656D01*
X2993890Y264714D01*
X2993833Y264771D01*
X2993773Y264826D01*
X2993713Y264879D01*
X2993651Y264931D01*
X2993587Y264980D01*
X2993522Y265028D01*
X2993456Y265074D01*
X2993389Y265119D01*
X2993320Y265162D01*
X2993250Y265203D01*
X2993179Y265243D01*
X2993107Y265281D01*
X2993033Y265318D01*
X2992959Y265353D01*
X2992883Y265387D01*
X2992806Y265419D01*
X2992729Y265450D01*
X2992650Y265480D01*
X2992570Y265508D01*
X2992490Y265535D01*
X2992408Y265560D01*
X2992326Y265585D01*
X2992242Y265608D01*
X2992158Y265630D01*
X2991988Y265670D01*
X2991815Y265706D01*
X2991639Y265737D01*
X2991460Y265764D01*
X2991280Y265788D01*
X2991097Y265808D01*
X2990913Y265825D01*
X2990727Y265838D01*
X2990540Y265849D01*
X2990353Y265857D01*
X2990164Y265863D01*
X2989975Y265866D01*
X2989785Y265867D01*
X2989596Y265867D01*
X2989596Y270862D01*
X2989783Y270886D01*
X2989968Y270914D01*
X2990149Y270946D01*
X2990328Y270981D01*
X2990503Y271021D01*
X2990589Y271043D01*
X2990674Y271066D01*
X2990758Y271089D01*
X2990841Y271115D01*
X2990923Y271141D01*
X2991004Y271168D01*
X2991084Y271197D01*
X2991162Y271227D01*
X2991240Y271259D01*
X2991316Y271291D01*
X2991390Y271326D01*
X2991464Y271361D01*
X2991536Y271398D01*
X2991607Y271436D01*
X2991676Y271476D01*
X2991744Y271518D01*
X2991810Y271561D01*
X2991875Y271605D01*
X2991938Y271651D01*
X2991999Y271699D01*
X2992059Y271748D01*
X2992117Y271799D01*
X2992174Y271852D01*
X2992229Y271906D01*
X2992281Y271962D01*
X2992333Y272020D01*
X2992382Y272080D01*
X2992429Y272141D01*
X2992474Y272204D01*
X2992518Y272270D01*
X2992559Y272337D01*
X2992598Y272406D01*
X2992635Y272477D01*
X2992671Y272549D01*
X2992703Y272624D01*
X2992734Y272701D01*
X2992763Y272780D01*
X2992789Y272861D01*
X2992813Y272945D01*
X2992834Y273030D01*
X2992854Y273117D01*
X2992870Y273207D01*
X2992885Y273299D01*
X2992897Y273393D01*
X2992906Y273489D01*
X2992913Y273588D01*
X2992917Y273689D01*
X2992918Y273792D01*
X2992917Y273898D01*
X2992914Y274006D01*
X2992907Y274117D01*
X2992898Y274230D01*
X2992886Y274345D01*
X2992871Y274463D01*
X2992865Y274549D01*
X2992857Y274633D01*
X2992847Y274715D01*
X2992835Y274795D01*
X2992821Y274874D01*
X2992805Y274950D01*
X2992787Y275025D01*
X2992768Y275098D01*
X2992746Y275169D01*
X2992723Y275238D01*
X2992698Y275305D01*
X2992671Y275371D01*
X2992643Y275435D01*
X2992613Y275498D01*
X2992581Y275558D01*
X2992548Y275617D01*
X2992513Y275675D01*
X2992476Y275731D01*
X2992438Y275785D01*
X2992399Y275838D01*
X2992358Y275889D01*
X2992315Y275939D01*
X2992271Y275987D01*
X2992226Y276033D01*
X2992179Y276079D01*
X2992131Y276123D01*
X2992082Y276165D01*
X2992031Y276206D01*
X2991979Y276246D01*
X2991926Y276284D01*
X2991872Y276321D01*
X2991816Y276357D01*
X2991760Y276392D01*
X2991702Y276425D01*
X2991643Y276457D01*
X2991583Y276488D01*
X2991522Y276518D01*
X2991460Y276546D01*
X2991398Y276574D01*
X2991334Y276600D01*
X2991204Y276649D01*
X2991070Y276694D01*
X2990933Y276735D01*
X2990793Y276773D01*
X2990651Y276806D01*
X2990506Y276836D01*
X2990358Y276863D01*
X2990209Y276887D01*
X2990058Y276908D01*
X2989905Y276926D01*
X2989751Y276941D01*
X2989596Y276954D01*
X2989596Y282417D01*
X2989902Y282410D01*
X2990207Y282401D01*
X2990511Y282389D01*
X2990813Y282376D01*
X2991113Y282360D01*
X2991412Y282342D01*
X2991708Y282321D01*
X2992002Y282297D01*
X2992294Y282271D01*
X2992583Y282241D01*
X2992869Y282208D01*
X2993153Y282173D01*
X2993433Y282134D01*
X2993709Y282091D01*
X2993983Y282045D01*
X2994252Y281995D01*
X2994518Y281941D01*
X2994649Y281913D01*
X2994779Y281884D01*
X2994909Y281854D01*
X2995037Y281822D01*
X2995164Y281790D01*
X2995290Y281757D01*
X2995414Y281722D01*
X2995538Y281687D01*
X2995660Y281650D01*
X2995782Y281612D01*
X2995902Y281573D01*
X2996020Y281533D01*
X2996138Y281492D01*
X2996254Y281450D01*
X2996368Y281406D01*
X2996482Y281362D01*
X2996594Y281316D01*
X2996705Y281269D01*
X2996814Y281220D01*
X2996922Y281170D01*
X2997028Y281120D01*
X2997133Y281067D01*
X2997236Y281014D01*
X2997338Y280959D01*
X2997438Y280903D01*
X2997537Y280845D01*
X2997634Y280786D01*
X2997729Y280726D01*
X2997823Y280664D01*
X2997915Y280601D01*
X2998006Y280537D01*
X2998095Y280471D01*
X2998182Y280403D01*
X2998268Y280335D01*
X2998351Y280265D01*
X2998433Y280193D01*
X2998513Y280120D01*
X2998591Y280046D01*
X2998668Y279970D01*
X2998742Y279893D01*
X2998815Y279815D01*
X2998886Y279736D01*
X2998955Y279656D01*
X2999023Y279574D01*
X2999088Y279491D01*
X2999152Y279407D01*
X2999214Y279322D01*
X2999275Y279236D01*
X2999334Y279149D01*
X2999390Y279061D01*
X2999446Y278972D01*
X2999499Y278882D01*
X2999551Y278791D01*
X2999601Y278699D01*
X2999649Y278606D01*
X2999696Y278513D01*
X2999741Y278418D01*
X2999784Y278323D01*
X2999825Y278227D01*
X2999865Y278130D01*
X2999903Y278033D01*
X2999940Y277935D01*
X2999975Y277836D01*
X3000008Y277737D01*
X3000039Y277637D01*
X3000069Y277536D01*
X3000097Y277435D01*
X3000123Y277333D01*
X3000148Y277231D01*
X3000171Y277128D01*
X3000193Y277025D01*
X3000213Y276922D01*
X3000231Y276818D01*
X3000248Y276714D01*
X3000263Y276609D01*
X3000276Y276504D01*
X3000288Y276399D01*
X3000298Y276293D01*
X3000307Y276187D01*
X3000314Y276082D01*
X3000319Y275975D01*
X3000323Y275869D01*
X3000326Y275763D01*
X3000326Y275656D01*
X3000325Y275549D01*
X3000323Y275443D01*
X3000319Y275336D01*
X3000313Y275229D01*
X3000306Y275123D01*
X3000298Y275016D01*
X3000288Y274910D01*
X3000276Y274803D01*
X3000263Y274697D01*
X3000248Y274591D01*
X3000232Y274485D01*
X3000214Y274379D01*
X3000195Y274274D01*
X3000174Y274168D01*
X3000152Y274063D01*
X3000128Y273959D01*
X3000103Y273855D01*
X3000076Y273751D01*
X3000048Y273647D01*
X3000018Y273544D01*
X2999987Y273442D01*
X2999954Y273339D01*
X2999920Y273238D01*
X2999884Y273137D01*
X2999847Y273036D01*
X2999809Y272936D01*
X2999769Y272837D01*
X2999728Y272738D01*
X2999685Y272640D01*
X2999641Y272543D01*
X2999595Y272446D01*
X2999548Y272350D01*
X2999500Y272255D01*
X2999450Y272161D01*
X2999399Y272067D01*
X2999346Y271975D01*
X2999292Y271883D01*
X2999237Y271792D01*
X2999180Y271702D01*
X2999122Y271613D01*
X2999063Y271525D01*
X2999002Y271438D01*
X2998939Y271352D01*
X2998876Y271268D01*
X2998811Y271184D01*
X2998745Y271101D01*
X2998677Y271020D01*
X2998608Y270939D01*
X2998538Y270860D01*
X2998466Y270782D01*
X2998393Y270705D01*
X2998319Y270630D01*
X2998244Y270556D01*
X2998167Y270483D01*
X2998089Y270412D01*
X2998009Y270342D01*
X2997928Y270273D01*
X2997846Y270206D01*
X2997763Y270140D01*
X2997678Y270076D01*
X2997593Y270013D01*
X2997505Y269952D01*
X2997417Y269892D01*
X2997327Y269834D01*
X2997237Y269778D01*
X2997144Y269723D01*
X2997051Y269670D01*
X2996956Y269619D01*
X2996861Y269569D01*
X2996763Y269521D01*
X2996665Y269475D01*
X2996566Y269431D01*
X2996465Y269388D01*
X2996363Y269348D01*
X2996363Y269171D01*
G37*
G36*
X2934666Y268914D02*
X2934901Y268907D01*
X2935140Y268900D01*
X2935382Y268893D01*
X2935628Y268887D01*
X2935877Y268880D01*
X2936129Y268874D01*
X2936383Y268869D01*
X2936640Y268865D01*
X2936898Y268862D01*
X2937157Y268860D01*
X2937418Y268860D01*
X2937679Y268862D01*
X2937941Y268865D01*
X2938203Y268870D01*
X2938464Y268878D01*
X2938725Y268888D01*
X2938725Y264223D01*
X2938213Y264229D01*
X2937705Y264237D01*
X2937453Y264240D01*
X2937203Y264243D01*
X2936954Y264246D01*
X2936706Y264248D01*
X2936461Y264250D01*
X2936218Y264251D01*
X2935977Y264250D01*
X2935738Y264249D01*
X2935502Y264246D01*
X2935269Y264241D01*
X2935038Y264235D01*
X2934811Y264227D01*
X2934811Y253484D01*
X2928981Y253420D01*
X2928981Y282024D01*
X2929087Y282019D01*
X2929195Y282015D01*
X2929306Y282011D01*
X2929420Y282008D01*
X2929535Y282005D01*
X2929653Y282002D01*
X2929773Y282000D01*
X2929894Y281998D01*
X2930018Y281996D01*
X2930144Y281994D01*
X2930272Y281993D01*
X2930402Y281992D01*
X2930534Y281991D01*
X2930668Y281991D01*
X2930803Y281990D01*
X2930940Y281990D01*
X2931079Y281991D01*
X2931220Y281991D01*
X2931362Y281992D01*
X2931506Y281992D01*
X2931651Y281993D01*
X2931798Y281995D01*
X2932096Y281997D01*
X2932399Y282000D01*
X2932708Y282004D01*
X2933021Y282008D01*
X2933338Y282012D01*
X2933660Y282017D01*
X2933985Y282022D01*
X2934314Y282026D01*
X2934645Y282031D01*
X2934979Y282035D01*
X2935316Y282040D01*
X2935654Y282044D01*
X2935994Y282047D01*
X2936677Y282053D01*
X2937361Y282056D01*
X2938045Y282056D01*
X2938386Y282054D01*
X2938725Y282052D01*
X2938725Y277071D01*
X2938449Y277067D01*
X2938174Y277060D01*
X2937900Y277053D01*
X2937627Y277044D01*
X2937357Y277034D01*
X2937089Y277024D01*
X2936825Y277015D01*
X2936563Y277006D01*
X2936307Y276999D01*
X2936054Y276994D01*
X2935930Y276992D01*
X2935807Y276991D01*
X2935686Y276991D01*
X2935566Y276991D01*
X2935447Y276993D01*
X2935330Y276995D01*
X2935215Y276998D01*
X2935102Y277002D01*
X2934990Y277008D01*
X2934880Y277014D01*
X2934772Y277022D01*
X2934666Y277031D01*
X2934666Y268914D01*
G37*
G36*
X3054188Y253420D02*
X3054188Y253419D01*
X3054188Y255771D01*
X3054074Y255689D01*
X3053960Y255609D01*
X3053846Y255530D01*
X3053733Y255452D01*
X3053620Y255376D01*
X3053507Y255301D01*
X3053284Y255156D01*
X3053062Y255016D01*
X3052842Y254881D01*
X3052623Y254751D01*
X3052406Y254626D01*
X3052191Y254506D01*
X3051977Y254391D01*
X3051764Y254280D01*
X3051554Y254174D01*
X3051344Y254073D01*
X3051137Y253975D01*
X3050931Y253882D01*
X3050726Y253793D01*
X3050726Y257602D01*
X3050817Y257616D01*
X3050908Y257632D01*
X3051001Y257650D01*
X3051094Y257669D01*
X3051189Y257691D01*
X3051285Y257714D01*
X3051381Y257738D01*
X3051479Y257765D01*
X3051577Y257794D01*
X3051677Y257824D01*
X3051777Y257857D01*
X3051879Y257891D01*
X3051981Y257928D01*
X3052085Y257966D01*
X3052189Y258007D01*
X3052295Y258050D01*
X3052402Y258095D01*
X3052509Y258142D01*
X3052618Y258192D01*
X3052727Y258244D01*
X3052838Y258298D01*
X3052950Y258354D01*
X3053062Y258413D01*
X3053176Y258475D01*
X3053291Y258538D01*
X3053407Y258605D01*
X3053524Y258674D01*
X3053641Y258745D01*
X3053760Y258819D01*
X3053880Y258895D01*
X3054001Y258975D01*
X3054124Y259057D01*
X3054124Y263647D01*
X3053997Y263657D01*
X3053873Y263665D01*
X3053749Y263673D01*
X3053628Y263679D01*
X3053507Y263684D01*
X3053388Y263687D01*
X3053270Y263690D01*
X3053153Y263691D01*
X3053038Y263691D01*
X3052924Y263690D01*
X3052811Y263687D01*
X3052700Y263684D01*
X3052589Y263679D01*
X3052480Y263674D01*
X3052373Y263667D01*
X3052266Y263659D01*
X3052161Y263650D01*
X3052057Y263640D01*
X3051955Y263630D01*
X3051853Y263618D01*
X3051753Y263605D01*
X3051654Y263591D01*
X3051556Y263576D01*
X3051459Y263561D01*
X3051363Y263544D01*
X3051269Y263526D01*
X3051176Y263508D01*
X3051083Y263489D01*
X3050902Y263448D01*
X3050726Y263404D01*
X3050726Y267869D01*
X3050927Y267880D01*
X3051129Y267889D01*
X3051334Y267897D01*
X3051541Y267902D01*
X3051749Y267906D01*
X3051960Y267907D01*
X3052173Y267906D01*
X3052388Y267904D01*
X3052605Y267899D01*
X3052825Y267892D01*
X3053046Y267883D01*
X3053270Y267871D01*
X3053496Y267857D01*
X3053725Y267841D01*
X3053955Y267823D01*
X3054188Y267802D01*
X3054176Y267907D01*
X3054162Y268010D01*
X3054146Y268110D01*
X3054129Y268209D01*
X3054110Y268306D01*
X3054089Y268401D01*
X3054067Y268494D01*
X3054044Y268585D01*
X3054018Y268674D01*
X3053991Y268761D01*
X3053963Y268846D01*
X3053933Y268930D01*
X3053902Y269011D01*
X3053869Y269091D01*
X3053835Y269169D01*
X3053799Y269245D01*
X3053762Y269320D01*
X3053723Y269392D01*
X3053683Y269463D01*
X3053642Y269532D01*
X3053599Y269600D01*
X3053555Y269666D01*
X3053510Y269730D01*
X3053463Y269792D01*
X3053415Y269853D01*
X3053366Y269912D01*
X3053315Y269969D01*
X3053264Y270025D01*
X3053211Y270080D01*
X3053157Y270132D01*
X3053101Y270184D01*
X3053045Y270233D01*
X3052987Y270281D01*
X3052929Y270328D01*
X3052869Y270373D01*
X3052808Y270417D01*
X3052746Y270459D01*
X3052683Y270500D01*
X3052618Y270539D01*
X3052553Y270577D01*
X3052487Y270614D01*
X3052420Y270649D01*
X3052352Y270683D01*
X3052283Y270715D01*
X3052213Y270747D01*
X3052142Y270776D01*
X3052070Y270805D01*
X3051997Y270832D01*
X3051923Y270858D01*
X3051849Y270883D01*
X3051774Y270907D01*
X3051697Y270929D01*
X3051620Y270950D01*
X3051543Y270970D01*
X3051385Y271007D01*
X3051224Y271039D01*
X3051061Y271066D01*
X3050895Y271089D01*
X3050726Y271109D01*
X3050726Y276073D01*
X3050861Y276074D01*
X3050995Y276073D01*
X3051128Y276072D01*
X3051259Y276070D01*
X3051390Y276068D01*
X3051519Y276064D01*
X3051775Y276054D01*
X3052026Y276040D01*
X3052273Y276024D01*
X3052515Y276003D01*
X3052754Y275980D01*
X3052987Y275953D01*
X3053217Y275922D01*
X3053443Y275888D01*
X3053664Y275851D01*
X3053881Y275811D01*
X3054095Y275767D01*
X3054304Y275720D01*
X3054509Y275670D01*
X3054710Y275617D01*
X3054908Y275560D01*
X3055101Y275500D01*
X3055290Y275437D01*
X3055476Y275370D01*
X3055658Y275301D01*
X3055836Y275228D01*
X3056011Y275152D01*
X3056182Y275074D01*
X3056349Y274992D01*
X3056513Y274907D01*
X3056673Y274818D01*
X3056829Y274727D01*
X3056982Y274633D01*
X3057132Y274536D01*
X3057278Y274436D01*
X3057421Y274332D01*
X3057560Y274226D01*
X3057696Y274117D01*
X3057829Y274005D01*
X3057959Y273890D01*
X3058085Y273772D01*
X3058209Y273652D01*
X3058329Y273528D01*
X3058446Y273402D01*
X3058560Y273272D01*
X3058671Y273140D01*
X3058779Y273005D01*
X3058884Y272868D01*
X3058986Y272727D01*
X3059086Y272584D01*
X3059182Y272438D01*
X3059276Y272290D01*
X3059367Y272139D01*
X3059455Y271985D01*
X3059541Y271828D01*
X3059624Y271669D01*
X3059704Y271507D01*
X3059782Y271342D01*
X3059857Y271175D01*
X3059929Y271006D01*
X3060000Y270833D01*
X3060067Y270659D01*
X3060133Y270481D01*
X3060196Y270302D01*
X3060256Y270119D01*
X3060315Y269934D01*
X3060371Y269747D01*
X3060425Y269558D01*
X3060477Y269366D01*
X3060526Y269171D01*
X3060574Y268974D01*
X3060619Y268775D01*
X3060663Y268573D01*
X3060704Y268369D01*
X3060743Y268163D01*
X3060781Y267954D01*
X3060817Y267744D01*
X3060851Y267530D01*
X3060883Y267315D01*
X3060913Y267097D01*
X3060941Y266877D01*
X3060968Y266655D01*
X3060993Y266431D01*
X3061017Y266205D01*
X3061038Y265976D01*
X3061059Y265745D01*
X3061078Y265512D01*
X3061095Y265277D01*
X3061111Y265040D01*
X3061125Y264801D01*
X3061138Y264560D01*
X3061150Y264317D01*
X3061161Y264071D01*
X3061170Y263824D01*
X3061178Y263575D01*
X3061185Y263324D01*
X3061190Y263071D01*
X3061195Y262815D01*
X3061198Y262558D01*
X3061200Y262300D01*
X3061202Y262039D01*
X3061202Y261776D01*
X3061202Y261511D01*
X3061200Y261245D01*
X3061198Y260977D01*
X3061195Y260707D01*
X3061191Y260435D01*
X3061186Y260161D01*
X3061181Y259886D01*
X3061174Y259609D01*
X3061168Y259330D01*
X3061160Y259050D01*
X3061152Y258768D01*
X3061144Y258484D01*
X3061135Y258198D01*
X3061125Y257911D01*
X3061116Y257623D01*
X3061105Y257332D01*
X3061095Y257040D01*
X3061084Y256747D01*
X3061072Y256452D01*
X3061061Y256155D01*
X3061049Y255857D01*
X3061038Y255557D01*
X3061026Y255256D01*
X3061013Y254954D01*
X3061001Y254650D01*
X3060989Y254344D01*
X3060977Y254038D01*
X3060953Y253420D01*
X3054188Y253420D01*
G37*
G36*
X2946826Y265580D02*
X2946720Y265520D01*
X2946613Y265462D01*
X2946505Y265406D01*
X2946395Y265351D01*
X2946285Y265298D01*
X2946174Y265247D01*
X2946062Y265197D01*
X2945949Y265149D01*
X2945835Y265103D01*
X2945720Y265058D01*
X2945604Y265014D01*
X2945487Y264972D01*
X2945369Y264932D01*
X2945251Y264893D01*
X2945132Y264855D01*
X2945012Y264819D01*
X2944891Y264784D01*
X2944770Y264750D01*
X2944647Y264718D01*
X2944524Y264687D01*
X2944276Y264629D01*
X2944026Y264576D01*
X2943773Y264527D01*
X2943518Y264483D01*
X2943261Y264443D01*
X2943002Y264407D01*
X2942741Y264375D01*
X2942478Y264347D01*
X2942214Y264322D01*
X2941949Y264300D01*
X2941683Y264282D01*
X2941415Y264266D01*
X2941147Y264253D01*
X2940879Y264242D01*
X2940609Y264234D01*
X2940340Y264228D01*
X2940070Y264224D01*
X2939801Y264221D01*
X2939262Y264220D01*
X2938725Y264224D01*
X2938725Y268889D01*
X2939069Y268906D01*
X2939239Y268917D01*
X2939409Y268929D01*
X2939579Y268942D01*
X2939747Y268957D01*
X2939914Y268974D01*
X2940080Y268992D01*
X2940245Y269012D01*
X2940409Y269034D01*
X2940571Y269057D01*
X2940732Y269082D01*
X2940892Y269109D01*
X2941049Y269138D01*
X2941205Y269169D01*
X2941359Y269202D01*
X2941511Y269238D01*
X2941661Y269275D01*
X2941808Y269315D01*
X2941954Y269357D01*
X2942097Y269402D01*
X2942237Y269448D01*
X2942375Y269498D01*
X2942511Y269550D01*
X2942643Y269604D01*
X2942773Y269662D01*
X2942900Y269722D01*
X2943023Y269784D01*
X2943144Y269850D01*
X2943261Y269919D01*
X2943375Y269990D01*
X2943486Y270065D01*
X2943593Y270142D01*
X2943696Y270223D01*
X2943796Y270307D01*
X2943891Y270394D01*
X2943983Y270485D01*
X2944071Y270579D01*
X2944155Y270676D01*
X2944234Y270777D01*
X2944272Y270829D01*
X2944309Y270882D01*
X2944345Y270935D01*
X2944380Y270990D01*
X2944414Y271045D01*
X2944446Y271102D01*
X2944478Y271159D01*
X2944508Y271217D01*
X2944537Y271277D01*
X2944565Y271337D01*
X2944591Y271398D01*
X2944617Y271460D01*
X2944641Y271523D01*
X2944664Y271587D01*
X2944685Y271652D01*
X2944706Y271718D01*
X2944725Y271785D01*
X2944743Y271853D01*
X2944760Y271923D01*
X2944775Y271993D01*
X2944789Y272064D01*
X2944801Y272136D01*
X2944813Y272209D01*
X2944822Y272284D01*
X2944831Y272359D01*
X2944838Y272436D01*
X2944844Y272513D01*
X2944848Y272592D01*
X2944851Y272672D01*
X2944852Y272753D01*
X2944852Y272835D01*
X2944851Y272918D01*
X2944848Y273002D01*
X2944844Y273087D01*
X2944838Y273174D01*
X2944830Y273261D01*
X2944821Y273350D01*
X2944811Y273440D01*
X2944799Y273531D01*
X2944785Y273624D01*
X2944770Y273717D01*
X2944754Y273812D01*
X2944735Y273908D01*
X2944715Y274005D01*
X2944694Y274104D01*
X2944671Y274203D01*
X2944646Y274304D01*
X2944619Y274406D01*
X2944579Y274516D01*
X2944536Y274623D01*
X2944490Y274728D01*
X2944442Y274829D01*
X2944392Y274927D01*
X2944339Y275023D01*
X2944284Y275116D01*
X2944227Y275206D01*
X2944168Y275293D01*
X2944107Y275377D01*
X2944044Y275459D01*
X2943978Y275539D01*
X2943911Y275616D01*
X2943841Y275690D01*
X2943770Y275762D01*
X2943697Y275831D01*
X2943622Y275898D01*
X2943545Y275963D01*
X2943466Y276025D01*
X2943386Y276085D01*
X2943304Y276143D01*
X2943220Y276198D01*
X2943135Y276252D01*
X2943048Y276303D01*
X2942959Y276352D01*
X2942869Y276399D01*
X2942778Y276444D01*
X2942685Y276487D01*
X2942591Y276529D01*
X2942495Y276568D01*
X2942399Y276606D01*
X2942300Y276641D01*
X2942201Y276675D01*
X2942100Y276707D01*
X2941999Y276738D01*
X2941896Y276767D01*
X2941792Y276794D01*
X2941687Y276820D01*
X2941581Y276844D01*
X2941474Y276867D01*
X2941367Y276888D01*
X2941258Y276908D01*
X2941149Y276927D01*
X2941038Y276944D01*
X2940927Y276960D01*
X2940815Y276974D01*
X2940590Y277000D01*
X2940362Y277021D01*
X2940132Y277038D01*
X2939900Y277052D01*
X2939667Y277061D01*
X2939432Y277068D01*
X2939197Y277071D01*
X2938961Y277072D01*
X2938725Y277071D01*
X2938725Y282052D01*
X2939022Y282049D01*
X2939318Y282045D01*
X2939611Y282039D01*
X2939903Y282033D01*
X2940193Y282026D01*
X2940480Y282018D01*
X2940764Y282008D01*
X2941045Y281997D01*
X2941323Y281985D01*
X2941598Y281971D01*
X2941869Y281956D01*
X2942136Y281939D01*
X2942398Y281921D01*
X2942656Y281901D01*
X2942910Y281879D01*
X2943159Y281855D01*
X2943402Y281830D01*
X2943522Y281817D01*
X2943640Y281803D01*
X2943757Y281788D01*
X2943872Y281773D01*
X2943986Y281758D01*
X2944099Y281742D01*
X2944210Y281726D01*
X2944319Y281709D01*
X2944427Y281691D01*
X2944533Y281673D01*
X2944637Y281655D01*
X2944740Y281636D01*
X2944841Y281616D01*
X2944940Y281596D01*
X2945037Y281575D01*
X2945133Y281553D01*
X2945227Y281531D01*
X2945318Y281508D01*
X2945408Y281485D01*
X2945496Y281461D01*
X2945582Y281437D01*
X2945666Y281412D01*
X2945748Y281386D01*
X2945828Y281359D01*
X2945906Y281332D01*
X2945982Y281304D01*
X2946055Y281276D01*
X2946126Y281247D01*
X2946196Y281217D01*
X2946262Y281186D01*
X2946402Y281123D01*
X2946539Y281058D01*
X2946675Y280989D01*
X2946808Y280919D01*
X2946939Y280845D01*
X2947068Y280770D01*
X2947195Y280691D01*
X2947320Y280611D01*
X2947443Y280528D01*
X2947563Y280443D01*
X2947682Y280355D01*
X2947798Y280266D01*
X2947913Y280174D01*
X2948025Y280080D01*
X2948135Y279984D01*
X2948243Y279886D01*
X2948349Y279786D01*
X2948453Y279684D01*
X2948555Y279580D01*
X2948654Y279474D01*
X2948752Y279366D01*
X2948847Y279257D01*
X2948940Y279145D01*
X2949031Y279032D01*
X2949120Y278917D01*
X2949207Y278801D01*
X2949292Y278683D01*
X2949375Y278564D01*
X2949456Y278442D01*
X2949534Y278320D01*
X2949610Y278196D01*
X2949685Y278070D01*
X2949757Y277944D01*
X2949827Y277815D01*
X2949895Y277686D01*
X2949960Y277555D01*
X2950024Y277423D01*
X2950085Y277290D01*
X2950145Y277156D01*
X2950202Y277021D01*
X2950257Y276885D01*
X2950310Y276747D01*
X2950361Y276609D01*
X2950410Y276470D01*
X2950457Y276330D01*
X2950501Y276189D01*
X2950543Y276047D01*
X2950584Y275904D01*
X2950622Y275761D01*
X2950658Y275617D01*
X2950692Y275473D01*
X2950723Y275327D01*
X2950753Y275182D01*
X2950780Y275035D01*
X2950806Y274889D01*
X2950829Y274741D01*
X2950850Y274594D01*
X2950869Y274446D01*
X2950885Y274298D01*
X2950900Y274149D01*
X2950912Y274000D01*
X2950923Y273851D01*
X2950931Y273702D01*
X2950937Y273553D01*
X2950941Y273403D01*
X2950943Y273254D01*
X2950942Y273104D01*
X2950940Y272955D01*
X2950935Y272806D01*
X2950928Y272656D01*
X2950919Y272507D01*
X2950908Y272358D01*
X2950895Y272210D01*
X2950879Y272061D01*
X2950861Y271913D01*
X2950842Y271766D01*
X2950820Y271619D01*
X2950796Y271472D01*
X2950769Y271325D01*
X2950741Y271180D01*
X2950711Y271034D01*
X2950678Y270890D01*
X2950643Y270746D01*
X2950606Y270602D01*
X2950567Y270460D01*
X2950525Y270318D01*
X2950482Y270177D01*
X2950436Y270037D01*
X2950388Y269897D01*
X2950338Y269759D01*
X2950286Y269621D01*
X2950232Y269485D01*
X2950175Y269350D01*
X2950117Y269215D01*
X2950056Y269082D01*
X2949993Y268950D01*
X2949928Y268819D01*
X2949860Y268690D01*
X2949791Y268561D01*
X2949719Y268434D01*
X2949645Y268309D01*
X2949569Y268184D01*
X2949491Y268062D01*
X2949411Y267940D01*
X2949328Y267821D01*
X2949243Y267702D01*
X2949156Y267586D01*
X2949067Y267471D01*
X2948976Y267358D01*
X2948882Y267246D01*
X2948787Y267136D01*
X2948689Y267028D01*
X2948589Y266922D01*
X2948487Y266818D01*
X2948382Y266716D01*
X2948276Y266615D01*
X2948167Y266517D01*
X2948056Y266421D01*
X2947943Y266327D01*
X2947828Y266235D01*
X2947710Y266145D01*
X2947590Y266057D01*
X2947468Y265972D01*
X2947344Y265888D01*
X2947218Y265808D01*
X2947090Y265729D01*
X2946959Y265653D01*
X2946826Y265580D01*
G37*
G36*
X3050726Y263404D02*
X3050614Y263373D01*
X3050503Y263341D01*
X3050395Y263308D01*
X3050288Y263273D01*
X3050184Y263237D01*
X3050081Y263200D01*
X3049981Y263161D01*
X3049882Y263122D01*
X3049786Y263081D01*
X3049691Y263039D01*
X3049598Y262995D01*
X3049508Y262951D01*
X3049419Y262906D01*
X3049332Y262859D01*
X3049247Y262812D01*
X3049165Y262763D01*
X3049084Y262714D01*
X3049005Y262663D01*
X3048928Y262612D01*
X3048852Y262560D01*
X3048779Y262506D01*
X3048708Y262452D01*
X3048638Y262398D01*
X3048571Y262342D01*
X3048505Y262286D01*
X3048441Y262229D01*
X3048379Y262171D01*
X3048319Y262113D01*
X3048261Y262053D01*
X3048205Y261994D01*
X3048150Y261933D01*
X3048098Y261873D01*
X3048047Y261811D01*
X3047998Y261749D01*
X3047951Y261687D01*
X3047906Y261624D01*
X3047862Y261561D01*
X3047820Y261497D01*
X3047781Y261433D01*
X3047742Y261369D01*
X3047706Y261304D01*
X3047672Y261239D01*
X3047639Y261174D01*
X3047608Y261108D01*
X3047579Y261043D01*
X3047551Y260977D01*
X3047526Y260911D01*
X3047502Y260845D01*
X3047480Y260779D01*
X3047459Y260712D01*
X3047440Y260646D01*
X3047423Y260580D01*
X3047408Y260513D01*
X3047395Y260447D01*
X3047383Y260381D01*
X3047373Y260315D01*
X3047364Y260249D01*
X3047357Y260183D01*
X3047352Y260117D01*
X3047349Y260052D01*
X3047347Y259987D01*
X3047347Y259922D01*
X3047349Y259857D01*
X3047352Y259793D01*
X3047357Y259729D01*
X3047363Y259665D01*
X3047372Y259602D01*
X3047381Y259539D01*
X3047393Y259477D01*
X3047406Y259415D01*
X3047420Y259354D01*
X3047437Y259293D01*
X3047455Y259233D01*
X3047474Y259173D01*
X3047495Y259114D01*
X3047518Y259056D01*
X3047542Y258998D01*
X3047568Y258941D01*
X3047595Y258885D01*
X3047624Y258830D01*
X3047654Y258775D01*
X3047686Y258721D01*
X3047720Y258668D01*
X3047755Y258616D01*
X3047792Y258565D01*
X3047830Y258514D01*
X3047869Y258465D01*
X3047910Y258417D01*
X3047953Y258369D01*
X3047997Y258323D01*
X3048043Y258278D01*
X3048090Y258233D01*
X3048139Y258190D01*
X3048189Y258148D01*
X3048240Y258108D01*
X3048293Y258068D01*
X3048348Y258030D01*
X3048404Y257993D01*
X3048461Y257957D01*
X3048520Y257923D01*
X3048580Y257889D01*
X3048642Y257858D01*
X3048705Y257827D01*
X3048769Y257798D01*
X3048835Y257771D01*
X3048903Y257745D01*
X3048971Y257720D01*
X3049041Y257697D01*
X3049113Y257676D01*
X3049186Y257656D01*
X3049260Y257638D01*
X3049336Y257621D01*
X3049413Y257606D01*
X3049491Y257593D01*
X3049571Y257582D01*
X3049652Y257572D01*
X3049734Y257564D01*
X3049818Y257558D01*
X3049903Y257554D01*
X3049989Y257551D01*
X3050077Y257551D01*
X3050166Y257552D01*
X3050256Y257555D01*
X3050347Y257561D01*
X3050440Y257568D01*
X3050534Y257577D01*
X3050630Y257589D01*
X3050726Y257602D01*
X3050726Y253793D01*
X3050586Y253734D01*
X3050447Y253678D01*
X3050309Y253623D01*
X3050171Y253570D01*
X3050034Y253520D01*
X3049898Y253472D01*
X3049763Y253425D01*
X3049628Y253381D01*
X3049495Y253339D01*
X3049362Y253298D01*
X3049230Y253260D01*
X3049099Y253224D01*
X3048969Y253190D01*
X3048839Y253157D01*
X3048711Y253127D01*
X3048583Y253098D01*
X3048456Y253072D01*
X3048330Y253047D01*
X3048205Y253024D01*
X3048081Y253003D01*
X3047957Y252984D01*
X3047835Y252967D01*
X3047713Y252951D01*
X3047592Y252938D01*
X3047472Y252926D01*
X3047353Y252916D01*
X3047235Y252907D01*
X3047118Y252901D01*
X3047002Y252896D01*
X3046886Y252893D01*
X3046772Y252891D01*
X3046658Y252891D01*
X3046545Y252893D01*
X3046433Y252897D01*
X3046322Y252902D01*
X3046212Y252909D01*
X3046103Y252917D01*
X3045995Y252928D01*
X3045888Y252939D01*
X3045782Y252952D01*
X3045676Y252967D01*
X3045572Y252984D01*
X3045469Y253001D01*
X3045366Y253021D01*
X3045264Y253042D01*
X3045164Y253064D01*
X3045064Y253088D01*
X3044966Y253113D01*
X3044868Y253140D01*
X3044771Y253168D01*
X3044675Y253198D01*
X3044580Y253229D01*
X3044487Y253261D01*
X3044394Y253295D01*
X3044302Y253330D01*
X3044211Y253366D01*
X3044121Y253404D01*
X3044032Y253443D01*
X3043944Y253483D01*
X3043858Y253525D01*
X3043772Y253568D01*
X3043687Y253612D01*
X3043603Y253657D01*
X3043520Y253704D01*
X3043438Y253752D01*
X3043358Y253801D01*
X3043278Y253851D01*
X3043199Y253902D01*
X3043122Y253955D01*
X3043045Y254008D01*
X3042969Y254063D01*
X3042895Y254119D01*
X3042821Y254176D01*
X3042749Y254234D01*
X3042677Y254293D01*
X3042607Y254353D01*
X3042538Y254414D01*
X3042470Y254477D01*
X3042403Y254540D01*
X3042337Y254604D01*
X3042272Y254669D01*
X3042208Y254735D01*
X3042145Y254802D01*
X3042083Y254870D01*
X3042023Y254939D01*
X3041963Y255009D01*
X3041847Y255151D01*
X3041736Y255297D01*
X3041629Y255446D01*
X3041527Y255598D01*
X3041429Y255754D01*
X3041336Y255912D01*
X3041247Y256073D01*
X3041163Y256237D01*
X3041083Y256404D01*
X3041008Y256573D01*
X3040938Y256744D01*
X3040873Y256918D01*
X3040812Y257094D01*
X3040756Y257272D01*
X3040705Y257451D01*
X3040658Y257633D01*
X3040617Y257816D01*
X3040580Y258001D01*
X3040549Y258187D01*
X3040522Y258375D01*
X3040500Y258564D01*
X3040483Y258754D01*
X3040471Y258945D01*
X3040465Y259137D01*
X3040463Y259329D01*
X3040466Y259523D01*
X3040475Y259717D01*
X3040489Y259911D01*
X3040508Y260105D01*
X3040532Y260300D01*
X3040561Y260495D01*
X3040596Y260689D01*
X3040636Y260884D01*
X3040681Y261078D01*
X3040732Y261272D01*
X3040788Y261465D01*
X3040849Y261658D01*
X3040916Y261849D01*
X3040989Y262040D01*
X3041067Y262230D01*
X3041108Y262325D01*
X3041150Y262419D01*
X3041194Y262513D01*
X3041239Y262607D01*
X3041286Y262700D01*
X3041334Y262793D01*
X3041383Y262886D01*
X3041434Y262978D01*
X3041486Y263070D01*
X3041540Y263162D01*
X3041595Y263253D01*
X3041651Y263343D01*
X3041709Y263433D01*
X3041769Y263523D01*
X3041829Y263612D01*
X3041891Y263701D01*
X3041955Y263789D01*
X3042020Y263877D01*
X3042087Y263964D01*
X3042155Y264051D01*
X3042224Y264137D01*
X3042295Y264222D01*
X3042367Y264307D01*
X3042441Y264391D01*
X3042516Y264475D01*
X3042593Y264558D01*
X3042671Y264640D01*
X3042751Y264721D01*
X3042832Y264802D01*
X3042915Y264883D01*
X3042999Y264962D01*
X3043085Y265041D01*
X3043172Y265119D01*
X3043260Y265196D01*
X3043351Y265273D01*
X3043442Y265349D01*
X3043535Y265424D01*
X3043630Y265498D01*
X3043726Y265571D01*
X3043824Y265644D01*
X3043923Y265715D01*
X3044024Y265786D01*
X3044126Y265856D01*
X3044230Y265925D01*
X3044335Y265993D01*
X3044442Y266060D01*
X3044551Y266126D01*
X3044661Y266191D01*
X3044772Y266255D01*
X3044885Y266319D01*
X3045000Y266381D01*
X3045116Y266442D01*
X3045234Y266502D01*
X3045354Y266561D01*
X3045474Y266619D01*
X3045597Y266676D01*
X3045721Y266732D01*
X3045847Y266787D01*
X3045974Y266841D01*
X3046103Y266893D01*
X3046233Y266944D01*
X3046365Y266995D01*
X3046499Y267044D01*
X3046634Y267092D01*
X3046771Y267138D01*
X3046910Y267184D01*
X3047050Y267228D01*
X3047192Y267271D01*
X3047335Y267312D01*
X3047480Y267353D01*
X3047626Y267392D01*
X3047775Y267430D01*
X3047925Y267466D01*
X3048076Y267501D01*
X3048229Y267535D01*
X3048384Y267567D01*
X3048541Y267598D01*
X3048699Y267628D01*
X3048858Y267656D01*
X3049020Y267683D01*
X3049183Y267708D01*
X3049348Y267732D01*
X3049514Y267754D01*
X3049682Y267775D01*
X3049852Y267795D01*
X3050024Y267813D01*
X3050197Y267829D01*
X3050372Y267844D01*
X3050548Y267857D01*
X3050726Y267869D01*
X3050726Y263404D01*
G37*
G36*
X3042270Y274857D02*
X3042587Y274934D01*
X3042899Y275007D01*
X3043209Y275079D01*
X3043514Y275147D01*
X3043816Y275213D01*
X3044114Y275277D01*
X3044409Y275337D01*
X3044700Y275395D01*
X3044988Y275451D01*
X3045272Y275504D01*
X3045553Y275554D01*
X3045830Y275602D01*
X3046105Y275648D01*
X3046375Y275691D01*
X3046643Y275732D01*
X3046907Y275770D01*
X3047168Y275806D01*
X3047426Y275839D01*
X3047681Y275871D01*
X3047933Y275899D01*
X3048182Y275926D01*
X3048427Y275950D01*
X3048670Y275972D01*
X3048910Y275992D01*
X3049147Y276010D01*
X3049381Y276025D01*
X3049612Y276039D01*
X3049840Y276050D01*
X3050066Y276059D01*
X3050289Y276066D01*
X3050509Y276070D01*
X3050726Y276073D01*
X3050726Y271109D01*
X3050598Y271121D01*
X3050468Y271130D01*
X3050337Y271138D01*
X3050204Y271143D01*
X3050071Y271146D01*
X3049936Y271147D01*
X3049801Y271146D01*
X3049664Y271143D01*
X3049527Y271138D01*
X3049389Y271132D01*
X3049249Y271124D01*
X3049110Y271114D01*
X3048969Y271102D01*
X3048828Y271089D01*
X3048687Y271074D01*
X3048544Y271058D01*
X3048402Y271040D01*
X3048259Y271021D01*
X3047972Y270978D01*
X3047685Y270931D01*
X3047397Y270879D01*
X3047109Y270823D01*
X3046821Y270763D01*
X3046535Y270701D01*
X3046250Y270635D01*
X3045967Y270567D01*
X3045687Y270497D01*
X3045409Y270425D01*
X3045135Y270352D01*
X3044864Y270278D01*
X3044598Y270204D01*
X3044336Y270131D01*
X3044080Y270057D01*
X3043954Y270021D01*
X3043829Y269985D01*
X3043706Y269950D01*
X3043584Y269914D01*
X3043464Y269880D01*
X3043346Y269845D01*
X3043230Y269812D01*
X3043115Y269778D01*
X3043002Y269746D01*
X3042891Y269714D01*
X3042783Y269683D01*
X3042676Y269653D01*
X3042571Y269624D01*
X3042468Y269596D01*
X3042368Y269568D01*
X3042270Y269542D01*
X3042270Y274857D01*
G37*
G36*
X462674Y36327D02*
X462674Y40137D01*
X467754Y40137D01*
X467754Y36327D01*
X462674Y36327D01*
G37*
G36*
X511262Y36327D02*
X511262Y40137D01*
X516342Y40137D01*
X516342Y36327D01*
X511262Y36327D01*
G37*
G36*
X623930Y36167D02*
X623930Y39977D01*
X629010Y39977D01*
X629010Y36167D01*
X623930Y36167D01*
G37*
G36*
X1369695Y34820D02*
X1373505Y34820D01*
X1373505Y29740D01*
X1369695Y29740D01*
X1369695Y34820D01*
G37*
G36*
X926783Y509444D02*
X927824Y509128D01*
X928784Y508615D01*
X929625Y507925D01*
X930315Y507084D01*
X930828Y506124D01*
X931144Y505083D01*
X931250Y504002D01*
X931250Y493997D01*
X931111Y492765D01*
X930701Y491592D01*
X930039Y490539D01*
X929161Y489661D01*
X928108Y488999D01*
X926935Y488589D01*
X925700Y488450D01*
X924465Y488589D01*
X923292Y488999D01*
X922239Y489661D01*
X921361Y490539D01*
X920699Y491592D01*
X920289Y492765D01*
X920150Y493997D01*
X920150Y504002D01*
X920256Y505083D01*
X920572Y506124D01*
X921085Y507084D01*
X921775Y507925D01*
X922616Y508615D01*
X923576Y509128D01*
X924617Y509444D01*
X925700Y509550D01*
X926783Y509444D01*
G37*
G36*
X955383Y509444D02*
X956424Y509128D01*
X957384Y508615D01*
X958225Y507925D01*
X958915Y507084D01*
X959428Y506124D01*
X959744Y505083D01*
X959850Y504002D01*
X959850Y493997D01*
X959711Y492765D01*
X959301Y491592D01*
X958639Y490539D01*
X957761Y489661D01*
X956708Y488999D01*
X955535Y488589D01*
X954300Y488450D01*
X953065Y488589D01*
X951892Y488999D01*
X950839Y489661D01*
X949961Y490539D01*
X949299Y491592D01*
X948889Y492765D01*
X948750Y493997D01*
X948750Y504002D01*
X948856Y505083D01*
X949172Y506124D01*
X949685Y507084D01*
X950375Y507925D01*
X951216Y508615D01*
X952176Y509128D01*
X953217Y509444D01*
X954300Y509550D01*
X955383Y509444D01*
G37*
G36*
X1046783Y509444D02*
X1047824Y509128D01*
X1048784Y508615D01*
X1049625Y507925D01*
X1050315Y507084D01*
X1050828Y506124D01*
X1051144Y505083D01*
X1051250Y504002D01*
X1051250Y493997D01*
X1051111Y492765D01*
X1050701Y491592D01*
X1050039Y490539D01*
X1049161Y489661D01*
X1048108Y488999D01*
X1046935Y488589D01*
X1045700Y488450D01*
X1044465Y488589D01*
X1043292Y488999D01*
X1042239Y489661D01*
X1041361Y490539D01*
X1040699Y491592D01*
X1040289Y492765D01*
X1040150Y493997D01*
X1040150Y504002D01*
X1040256Y505083D01*
X1040572Y506124D01*
X1041085Y507084D01*
X1041775Y507925D01*
X1042616Y508615D01*
X1043576Y509128D01*
X1044617Y509444D01*
X1045700Y509550D01*
X1046783Y509444D01*
G37*
G36*
X1075383Y509444D02*
X1076424Y509128D01*
X1077384Y508615D01*
X1078225Y507925D01*
X1078915Y507084D01*
X1079428Y506124D01*
X1079744Y505083D01*
X1079850Y504002D01*
X1079850Y493997D01*
X1079711Y492765D01*
X1079301Y491592D01*
X1078639Y490539D01*
X1077761Y489661D01*
X1076708Y488999D01*
X1075535Y488589D01*
X1074300Y488450D01*
X1073065Y488589D01*
X1071892Y488999D01*
X1070839Y489661D01*
X1069961Y490539D01*
X1069299Y491592D01*
X1068889Y492765D01*
X1068750Y493997D01*
X1068750Y504002D01*
X1068856Y505083D01*
X1069172Y506124D01*
X1069685Y507084D01*
X1070375Y507925D01*
X1071216Y508615D01*
X1072176Y509128D01*
X1073217Y509444D01*
X1074300Y509550D01*
X1075383Y509444D01*
G37*
G36*
X2126783Y509444D02*
X2127824Y509128D01*
X2128784Y508615D01*
X2129625Y507925D01*
X2130315Y507084D01*
X2130828Y506124D01*
X2131144Y505083D01*
X2131250Y504002D01*
X2131250Y493997D01*
X2131111Y492765D01*
X2130701Y491592D01*
X2130039Y490539D01*
X2129161Y489661D01*
X2128108Y488999D01*
X2126935Y488589D01*
X2125700Y488450D01*
X2124465Y488589D01*
X2123292Y488999D01*
X2122239Y489661D01*
X2121361Y490539D01*
X2120699Y491592D01*
X2120289Y492765D01*
X2120150Y493997D01*
X2120150Y504002D01*
X2120256Y505083D01*
X2120572Y506124D01*
X2121085Y507084D01*
X2121775Y507925D01*
X2122616Y508615D01*
X2123576Y509128D01*
X2124617Y509444D01*
X2125700Y509550D01*
X2126783Y509444D01*
G37*
G36*
X2155383Y509444D02*
X2156424Y509128D01*
X2157384Y508615D01*
X2158225Y507925D01*
X2158915Y507084D01*
X2159428Y506124D01*
X2159744Y505083D01*
X2159850Y504002D01*
X2159850Y493997D01*
X2159711Y492765D01*
X2159301Y491592D01*
X2158639Y490539D01*
X2157761Y489661D01*
X2156708Y488999D01*
X2155535Y488589D01*
X2154300Y488450D01*
X2153065Y488589D01*
X2151892Y488999D01*
X2150839Y489661D01*
X2149961Y490539D01*
X2149299Y491592D01*
X2148889Y492765D01*
X2148750Y493997D01*
X2148750Y504002D01*
X2148856Y505083D01*
X2149172Y506124D01*
X2149685Y507084D01*
X2150375Y507925D01*
X2151216Y508615D01*
X2152176Y509128D01*
X2153217Y509444D01*
X2154300Y509550D01*
X2155383Y509444D01*
G37*
G36*
X2246783Y509444D02*
X2247824Y509128D01*
X2248784Y508615D01*
X2249625Y507925D01*
X2250315Y507084D01*
X2250828Y506124D01*
X2251144Y505083D01*
X2251250Y504002D01*
X2251250Y493997D01*
X2251111Y492765D01*
X2250701Y491592D01*
X2250039Y490539D01*
X2249161Y489661D01*
X2248108Y488999D01*
X2246935Y488589D01*
X2245700Y488450D01*
X2244465Y488589D01*
X2243292Y488999D01*
X2242239Y489661D01*
X2241361Y490539D01*
X2240699Y491592D01*
X2240289Y492765D01*
X2240150Y493997D01*
X2240150Y504002D01*
X2240256Y505083D01*
X2240572Y506124D01*
X2241085Y507084D01*
X2241775Y507925D01*
X2242616Y508615D01*
X2243576Y509128D01*
X2244617Y509444D01*
X2245700Y509550D01*
X2246783Y509444D01*
G37*
G36*
X2275383Y509444D02*
X2276424Y509128D01*
X2277384Y508615D01*
X2278225Y507925D01*
X2278915Y507084D01*
X2279428Y506124D01*
X2279744Y505083D01*
X2279850Y504002D01*
X2279850Y493997D01*
X2279711Y492765D01*
X2279301Y491592D01*
X2278639Y490539D01*
X2277761Y489661D01*
X2276708Y488999D01*
X2275535Y488589D01*
X2274300Y488450D01*
X2273065Y488589D01*
X2271892Y488999D01*
X2270839Y489661D01*
X2269961Y490539D01*
X2269299Y491592D01*
X2268889Y492765D01*
X2268750Y493997D01*
X2268750Y504002D01*
X2268856Y505083D01*
X2269172Y506124D01*
X2269685Y507084D01*
X2270375Y507925D01*
X2271216Y508615D01*
X2272176Y509128D01*
X2273217Y509444D01*
X2274300Y509550D01*
X2275383Y509444D01*
G37*
G36*
X915783Y461444D02*
X916824Y461128D01*
X917784Y460615D01*
X918625Y459925D01*
X919315Y459084D01*
X919828Y458124D01*
X920144Y457083D01*
X920250Y456002D01*
X920250Y445998D01*
X920144Y444917D01*
X919828Y443876D01*
X919315Y442916D01*
X918625Y442075D01*
X917784Y441385D01*
X916824Y440872D01*
X915783Y440556D01*
X914700Y440450D01*
X913617Y440556D01*
X912576Y440872D01*
X911616Y441385D01*
X910775Y442075D01*
X910085Y442916D01*
X909572Y443876D01*
X909256Y444917D01*
X909150Y445998D01*
X909150Y456002D01*
X909256Y457083D01*
X909572Y458124D01*
X910085Y459084D01*
X910775Y459925D01*
X911616Y460615D01*
X912576Y461128D01*
X913617Y461444D01*
X914700Y461550D01*
X915783Y461444D01*
G37*
G36*
X966383Y461444D02*
X967424Y461128D01*
X968384Y460615D01*
X969225Y459925D01*
X969915Y459084D01*
X970428Y458124D01*
X970744Y457083D01*
X970850Y456002D01*
X970850Y445998D01*
X970744Y444917D01*
X970428Y443876D01*
X969915Y442916D01*
X969225Y442075D01*
X968384Y441385D01*
X967424Y440872D01*
X966383Y440556D01*
X965300Y440450D01*
X964217Y440556D01*
X963176Y440872D01*
X962216Y441385D01*
X961375Y442075D01*
X960685Y442916D01*
X960172Y443876D01*
X959856Y444917D01*
X959750Y445998D01*
X959750Y456002D01*
X959856Y457083D01*
X960172Y458124D01*
X960685Y459084D01*
X961375Y459925D01*
X962216Y460615D01*
X963176Y461128D01*
X964217Y461444D01*
X965300Y461550D01*
X966383Y461444D01*
G37*
G36*
X1035783Y461444D02*
X1036824Y461128D01*
X1037784Y460615D01*
X1038625Y459925D01*
X1039315Y459084D01*
X1039828Y458124D01*
X1040144Y457083D01*
X1040250Y456002D01*
X1040250Y445998D01*
X1040144Y444917D01*
X1039828Y443876D01*
X1039315Y442916D01*
X1038625Y442075D01*
X1037784Y441385D01*
X1036824Y440872D01*
X1035783Y440556D01*
X1034700Y440450D01*
X1033617Y440556D01*
X1032576Y440872D01*
X1031616Y441385D01*
X1030775Y442075D01*
X1030085Y442916D01*
X1029572Y443876D01*
X1029256Y444917D01*
X1029150Y445998D01*
X1029150Y456002D01*
X1029256Y457083D01*
X1029572Y458124D01*
X1030085Y459084D01*
X1030775Y459925D01*
X1031616Y460615D01*
X1032576Y461128D01*
X1033617Y461444D01*
X1034700Y461550D01*
X1035783Y461444D01*
G37*
G36*
X1086383Y461444D02*
X1087424Y461128D01*
X1088384Y460615D01*
X1089225Y459925D01*
X1089915Y459084D01*
X1090428Y458124D01*
X1090744Y457083D01*
X1090850Y456002D01*
X1090850Y445998D01*
X1090744Y444917D01*
X1090428Y443876D01*
X1089915Y442916D01*
X1089225Y442075D01*
X1088384Y441385D01*
X1087424Y440872D01*
X1086383Y440556D01*
X1085300Y440450D01*
X1084217Y440556D01*
X1083176Y440872D01*
X1082216Y441385D01*
X1081375Y442075D01*
X1080685Y442916D01*
X1080172Y443876D01*
X1079856Y444917D01*
X1079750Y445998D01*
X1079750Y456002D01*
X1079856Y457083D01*
X1080172Y458124D01*
X1080685Y459084D01*
X1081375Y459925D01*
X1082216Y460615D01*
X1083176Y461128D01*
X1084217Y461444D01*
X1085300Y461550D01*
X1086383Y461444D01*
G37*
G36*
X2115783Y461444D02*
X2116824Y461128D01*
X2117784Y460615D01*
X2118625Y459925D01*
X2119315Y459084D01*
X2119828Y458124D01*
X2120144Y457083D01*
X2120250Y456002D01*
X2120250Y445998D01*
X2120144Y444917D01*
X2119828Y443876D01*
X2119315Y442916D01*
X2118625Y442075D01*
X2117784Y441385D01*
X2116824Y440872D01*
X2115783Y440556D01*
X2114700Y440450D01*
X2113617Y440556D01*
X2112576Y440872D01*
X2111616Y441385D01*
X2110775Y442075D01*
X2110085Y442916D01*
X2109572Y443876D01*
X2109256Y444917D01*
X2109150Y445998D01*
X2109150Y456002D01*
X2109256Y457083D01*
X2109572Y458124D01*
X2110085Y459084D01*
X2110775Y459925D01*
X2111616Y460615D01*
X2112576Y461128D01*
X2113617Y461444D01*
X2114700Y461550D01*
X2115783Y461444D01*
G37*
G36*
X2166383Y461444D02*
X2167424Y461128D01*
X2168384Y460615D01*
X2169225Y459925D01*
X2169915Y459084D01*
X2170428Y458124D01*
X2170744Y457083D01*
X2170850Y456002D01*
X2170850Y445998D01*
X2170744Y444917D01*
X2170428Y443876D01*
X2169915Y442916D01*
X2169225Y442075D01*
X2168384Y441385D01*
X2167424Y440872D01*
X2166383Y440556D01*
X2165300Y440450D01*
X2164217Y440556D01*
X2163176Y440872D01*
X2162216Y441385D01*
X2161375Y442075D01*
X2160685Y442916D01*
X2160172Y443876D01*
X2159856Y444917D01*
X2159750Y445998D01*
X2159750Y456002D01*
X2159856Y457083D01*
X2160172Y458124D01*
X2160685Y459084D01*
X2161375Y459925D01*
X2162216Y460615D01*
X2163176Y461128D01*
X2164217Y461444D01*
X2165300Y461550D01*
X2166383Y461444D01*
G37*
G36*
X2235783Y461444D02*
X2236824Y461128D01*
X2237784Y460615D01*
X2238625Y459925D01*
X2239315Y459084D01*
X2239828Y458124D01*
X2240144Y457083D01*
X2240250Y456002D01*
X2240250Y445998D01*
X2240144Y444917D01*
X2239828Y443876D01*
X2239315Y442916D01*
X2238625Y442075D01*
X2237784Y441385D01*
X2236824Y440872D01*
X2235783Y440556D01*
X2234700Y440450D01*
X2233617Y440556D01*
X2232576Y440872D01*
X2231616Y441385D01*
X2230775Y442075D01*
X2230085Y442916D01*
X2229572Y443876D01*
X2229256Y444917D01*
X2229150Y445998D01*
X2229150Y456002D01*
X2229256Y457083D01*
X2229572Y458124D01*
X2230085Y459084D01*
X2230775Y459925D01*
X2231616Y460615D01*
X2232576Y461128D01*
X2233617Y461444D01*
X2234700Y461550D01*
X2235783Y461444D01*
G37*
G36*
X2286383Y461444D02*
X2287424Y461128D01*
X2288384Y460615D01*
X2289225Y459925D01*
X2289915Y459084D01*
X2290428Y458124D01*
X2290744Y457083D01*
X2290850Y456002D01*
X2290850Y445998D01*
X2290744Y444917D01*
X2290428Y443876D01*
X2289915Y442916D01*
X2289225Y442075D01*
X2288384Y441385D01*
X2287424Y440872D01*
X2286383Y440556D01*
X2285300Y440450D01*
X2284217Y440556D01*
X2283176Y440872D01*
X2282216Y441385D01*
X2281375Y442075D01*
X2280685Y442916D01*
X2280172Y443876D01*
X2279856Y444917D01*
X2279750Y445998D01*
X2279750Y456002D01*
X2279856Y457083D01*
X2280172Y458124D01*
X2280685Y459084D01*
X2281375Y459925D01*
X2282216Y460615D01*
X2283176Y461128D01*
X2284217Y461444D01*
X2285300Y461550D01*
X2286383Y461444D01*
G37*
G36*
X2977814Y276582D02*
X2974264Y273210D01*
X2974108Y273379D01*
X2973951Y273544D01*
X2973792Y273705D01*
X2973631Y273862D01*
X2973468Y274015D01*
X2973304Y274164D01*
X2973139Y274308D01*
X2972972Y274449D01*
X2972804Y274587D01*
X2972634Y274720D01*
X2972463Y274849D01*
X2972291Y274974D01*
X2972117Y275096D01*
X2971943Y275213D01*
X2971767Y275327D01*
X2971590Y275437D01*
X2971413Y275543D01*
X2971234Y275645D01*
X2971054Y275743D01*
X2970874Y275838D01*
X2970693Y275929D01*
X2970511Y276016D01*
X2970328Y276099D01*
X2970144Y276178D01*
X2969960Y276254D01*
X2969776Y276326D01*
X2969591Y276395D01*
X2969405Y276460D01*
X2969219Y276521D01*
X2969033Y276578D01*
X2968846Y276632D01*
X2968659Y276682D01*
X2968472Y276729D01*
X2968285Y276772D01*
X2968098Y276811D01*
X2967910Y276847D01*
X2967723Y276879D01*
X2967535Y276908D01*
X2967348Y276933D01*
X2967161Y276955D01*
X2966973Y276973D01*
X2966787Y276988D01*
X2966600Y276999D01*
X2966414Y277007D01*
X2966228Y277011D01*
X2966043Y277012D01*
X2965858Y277010D01*
X2965673Y277004D01*
X2965489Y276995D01*
X2965306Y276982D01*
X2965123Y276966D01*
X2964942Y276947D01*
X2964760Y276924D01*
X2964580Y276898D01*
X2964401Y276869D01*
X2964222Y276837D01*
X2964045Y276801D01*
X2963868Y276762D01*
X2963693Y276720D01*
X2963519Y276674D01*
X2963345Y276625D01*
X2963174Y276574D01*
X2963003Y276519D01*
X2962834Y276460D01*
X2962666Y276399D01*
X2962499Y276334D01*
X2962334Y276267D01*
X2962170Y276196D01*
X2962008Y276122D01*
X2961848Y276045D01*
X2961689Y275965D01*
X2961532Y275882D01*
X2961377Y275796D01*
X2961223Y275707D01*
X2961071Y275615D01*
X2960922Y275519D01*
X2960774Y275421D01*
X2960628Y275320D01*
X2960484Y275216D01*
X2960343Y275109D01*
X2960203Y274999D01*
X2960066Y274886D01*
X2959931Y274771D01*
X2959798Y274652D01*
X2959668Y274530D01*
X2959540Y274406D01*
X2959414Y274279D01*
X2959291Y274149D01*
X2959171Y274016D01*
X2959053Y273880D01*
X2958938Y273742D01*
X2958825Y273601D01*
X2958715Y273457D01*
X2958608Y273310D01*
X2958504Y273161D01*
X2958403Y273008D01*
X2958304Y272854D01*
X2958209Y272696D01*
X2958117Y272536D01*
X2958028Y272373D01*
X2957941Y272207D01*
X2957859Y272039D01*
X2957779Y271868D01*
X2957702Y271695D01*
X2957629Y271519D01*
X2957560Y271341D01*
X2957494Y271159D01*
X2957431Y270976D01*
X2957372Y270790D01*
X2957316Y270601D01*
X2957264Y270410D01*
X2957216Y270216D01*
X2957171Y270020D01*
X2957130Y269821D01*
X2957093Y269620D01*
X2957060Y269417D01*
X2957031Y269211D01*
X2957006Y269003D01*
X2956985Y268792D01*
X2956968Y268579D01*
X2956955Y268363D01*
X2956946Y268145D01*
X2956941Y267925D01*
X2956941Y267703D01*
X2956945Y267478D01*
X2956954Y267251D01*
X2956966Y267022D01*
X2956984Y266790D01*
X2957008Y266586D01*
X2957035Y266385D01*
X2957067Y266186D01*
X2957102Y265990D01*
X2957140Y265797D01*
X2957182Y265606D01*
X2957227Y265418D01*
X2957276Y265233D01*
X2957328Y265050D01*
X2957383Y264870D01*
X2957441Y264693D01*
X2957503Y264518D01*
X2957568Y264346D01*
X2957636Y264177D01*
X2957707Y264011D01*
X2957781Y263847D01*
X2957858Y263685D01*
X2957938Y263527D01*
X2958021Y263371D01*
X2958106Y263217D01*
X2958195Y263067D01*
X2958286Y262919D01*
X2958380Y262774D01*
X2958476Y262631D01*
X2958576Y262491D01*
X2958677Y262354D01*
X2958781Y262220D01*
X2958888Y262088D01*
X2958997Y261959D01*
X2959109Y261832D01*
X2959222Y261709D01*
X2959339Y261588D01*
X2959457Y261469D01*
X2959577Y261354D01*
X2959700Y261241D01*
X2959825Y261131D01*
X2959952Y261023D01*
X2960080Y260918D01*
X2960211Y260816D01*
X2960344Y260717D01*
X2960479Y260620D01*
X2960615Y260526D01*
X2960753Y260434D01*
X2960893Y260346D01*
X2961035Y260260D01*
X2961178Y260177D01*
X2961323Y260096D01*
X2961470Y260018D01*
X2961618Y259943D01*
X2961767Y259871D01*
X2961918Y259801D01*
X2962070Y259734D01*
X2962224Y259670D01*
X2962378Y259608D01*
X2962535Y259550D01*
X2962692Y259494D01*
X2962850Y259440D01*
X2963010Y259390D01*
X2963170Y259342D01*
X2963332Y259296D01*
X2963495Y259254D01*
X2963658Y259214D01*
X2963822Y259177D01*
X2963988Y259143D01*
X2964154Y259111D01*
X2964320Y259083D01*
X2964488Y259056D01*
X2964656Y259033D01*
X2964824Y259012D01*
X2964994Y258995D01*
X2965163Y258979D01*
X2965333Y258967D01*
X2965504Y258957D01*
X2965675Y258950D01*
X2965846Y258946D01*
X2966018Y258945D01*
X2966190Y258946D01*
X2966362Y258950D01*
X2966534Y258957D01*
X2966706Y258966D01*
X2966878Y258978D01*
X2967051Y258993D01*
X2967223Y259011D01*
X2967395Y259032D01*
X2967567Y259055D01*
X2967739Y259081D01*
X2967911Y259110D01*
X2968082Y259141D01*
X2968253Y259175D01*
X2968424Y259212D01*
X2968594Y259252D01*
X2968764Y259295D01*
X2968934Y259340D01*
X2969103Y259388D01*
X2969271Y259439D01*
X2969439Y259492D01*
X2969606Y259549D01*
X2969772Y259608D01*
X2969937Y259670D01*
X2970102Y259734D01*
X2970266Y259802D01*
X2970429Y259872D01*
X2970591Y259945D01*
X2970752Y260021D01*
X2970912Y260099D01*
X2971071Y260181D01*
X2971228Y260265D01*
X2971385Y260351D01*
X2971540Y260441D01*
X2971694Y260533D01*
X2971847Y260629D01*
X2971998Y260727D01*
X2972148Y260827D01*
X2972297Y260931D01*
X2972444Y261037D01*
X2972590Y261146D01*
X2972734Y261258D01*
X2972876Y261373D01*
X2973016Y261490D01*
X2973155Y261610D01*
X2973293Y261733D01*
X2973428Y261859D01*
X2973561Y261988D01*
X2973693Y262119D01*
X2973823Y262254D01*
X2973950Y262391D01*
X2974076Y262530D01*
X2974199Y262673D01*
X2977636Y259123D01*
X2977505Y258992D01*
X2977374Y258862D01*
X2977243Y258735D01*
X2977111Y258609D01*
X2976979Y258485D01*
X2976846Y258363D01*
X2976712Y258243D01*
X2976579Y258124D01*
X2976445Y258007D01*
X2976310Y257892D01*
X2976175Y257779D01*
X2976039Y257667D01*
X2975904Y257558D01*
X2975767Y257450D01*
X2975631Y257343D01*
X2975494Y257239D01*
X2975356Y257136D01*
X2975219Y257035D01*
X2975081Y256936D01*
X2974942Y256838D01*
X2974804Y256742D01*
X2974665Y256648D01*
X2974525Y256555D01*
X2974386Y256464D01*
X2974246Y256375D01*
X2974105Y256288D01*
X2973965Y256202D01*
X2973824Y256118D01*
X2973683Y256035D01*
X2973542Y255954D01*
X2973400Y255875D01*
X2973259Y255798D01*
X2973117Y255722D01*
X2972974Y255648D01*
X2972832Y255575D01*
X2972689Y255504D01*
X2972546Y255435D01*
X2972403Y255367D01*
X2972260Y255301D01*
X2972117Y255237D01*
X2971973Y255174D01*
X2971830Y255112D01*
X2971686Y255053D01*
X2971542Y254995D01*
X2971398Y254938D01*
X2971254Y254883D01*
X2971110Y254830D01*
X2970965Y254778D01*
X2970821Y254728D01*
X2970676Y254679D01*
X2970532Y254632D01*
X2970387Y254586D01*
X2970242Y254542D01*
X2970098Y254500D01*
X2969953Y254459D01*
X2969808Y254419D01*
X2969663Y254381D01*
X2969518Y254345D01*
X2969373Y254310D01*
X2969229Y254276D01*
X2969084Y254244D01*
X2968939Y254214D01*
X2968794Y254185D01*
X2968649Y254157D01*
X2968505Y254131D01*
X2968360Y254107D01*
X2968215Y254084D01*
X2968071Y254062D01*
X2967927Y254042D01*
X2967782Y254023D01*
X2967638Y254006D01*
X2967494Y253990D01*
X2967350Y253976D01*
X2967206Y253963D01*
X2967062Y253951D01*
X2966919Y253941D01*
X2966775Y253932D01*
X2966632Y253925D01*
X2966346Y253914D01*
X2966061Y253910D01*
X2965776Y253910D01*
X2965493Y253916D01*
X2965210Y253928D01*
X2964928Y253944D01*
X2964648Y253967D01*
X2964368Y253994D01*
X2964090Y254027D01*
X2963813Y254065D01*
X2963538Y254108D01*
X2963264Y254156D01*
X2962991Y254210D01*
X2962720Y254268D01*
X2962451Y254331D01*
X2962183Y254400D01*
X2961918Y254473D01*
X2961654Y254551D01*
X2961391Y254634D01*
X2961131Y254722D01*
X2960873Y254814D01*
X2960617Y254912D01*
X2960364Y255013D01*
X2960112Y255120D01*
X2959863Y255231D01*
X2959616Y255346D01*
X2959372Y255466D01*
X2959130Y255591D01*
X2958891Y255720D01*
X2958655Y255853D01*
X2958421Y255991D01*
X2958190Y256132D01*
X2957962Y256278D01*
X2957737Y256429D01*
X2957515Y256583D01*
X2957296Y256742D01*
X2957080Y256904D01*
X2956867Y257071D01*
X2956658Y257241D01*
X2956452Y257416D01*
X2956250Y257594D01*
X2956051Y257776D01*
X2955855Y257962D01*
X2955663Y258152D01*
X2955475Y258345D01*
X2955291Y258542D01*
X2955110Y258743D01*
X2954934Y258948D01*
X2954761Y259156D01*
X2954593Y259367D01*
X2954428Y259582D01*
X2954268Y259800D01*
X2954112Y260022D01*
X2953960Y260247D01*
X2953813Y260475D01*
X2953670Y260706D01*
X2953532Y260941D01*
X2953398Y261179D01*
X2953269Y261420D01*
X2953206Y261542D01*
X2953145Y261664D01*
X2953085Y261787D01*
X2953025Y261911D01*
X2952967Y262036D01*
X2952911Y262161D01*
X2952855Y262287D01*
X2952801Y262414D01*
X2952748Y262542D01*
X2952696Y262670D01*
X2952646Y262799D01*
X2952597Y262929D01*
X2952549Y263059D01*
X2952502Y263191D01*
X2952457Y263322D01*
X2952413Y263455D01*
X2952371Y263588D01*
X2952329Y263722D01*
X2952289Y263857D01*
X2952251Y263992D01*
X2952214Y264128D01*
X2952178Y264264D01*
X2952143Y264401D01*
X2952110Y264539D01*
X2952078Y264678D01*
X2952048Y264817D01*
X2952019Y264957D01*
X2951991Y265097D01*
X2951965Y265238D01*
X2951941Y265380D01*
X2951918Y265522D01*
X2951896Y265665D01*
X2951875Y265808D01*
X2951857Y265952D01*
X2951839Y266097D01*
X2951823Y266242D01*
X2951809Y266388D01*
X2951796Y266534D01*
X2951785Y266681D01*
X2951775Y266828D01*
X2951767Y266976D01*
X2951760Y267125D01*
X2951755Y267274D01*
X2951751Y267424D01*
X2951749Y267574D01*
X2951748Y267724D01*
X2951749Y267876D01*
X2951752Y268027D01*
X2951756Y268180D01*
X2951762Y268332D01*
X2951769Y268486D01*
X2951778Y268639D01*
X2951789Y268794D01*
X2951801Y268948D01*
X2951815Y269104D01*
X2951831Y269259D01*
X2951848Y269415D01*
X2951867Y269572D01*
X2951888Y269729D01*
X2951910Y269887D01*
X2951929Y270034D01*
X2951949Y270180D01*
X2951970Y270325D01*
X2951992Y270470D01*
X2952016Y270613D01*
X2952042Y270756D01*
X2952068Y270898D01*
X2952096Y271039D01*
X2952125Y271180D01*
X2952156Y271319D01*
X2952188Y271457D01*
X2952221Y271595D01*
X2952255Y271732D01*
X2952291Y271868D01*
X2952328Y272003D01*
X2952366Y272137D01*
X2952405Y272271D01*
X2952446Y272403D01*
X2952488Y272535D01*
X2952531Y272665D01*
X2952575Y272795D01*
X2952621Y272924D01*
X2952668Y273052D01*
X2952716Y273180D01*
X2952765Y273306D01*
X2952815Y273432D01*
X2952866Y273556D01*
X2952919Y273680D01*
X2952973Y273803D01*
X2953028Y273925D01*
X2953084Y274046D01*
X2953141Y274166D01*
X2953199Y274285D01*
X2953258Y274404D01*
X2953380Y274638D01*
X2953506Y274869D01*
X2953637Y275096D01*
X2953771Y275319D01*
X2953910Y275539D01*
X2954053Y275756D01*
X2954199Y275968D01*
X2954350Y276178D01*
X2954504Y276383D01*
X2954662Y276585D01*
X2954824Y276783D01*
X2954989Y276978D01*
X2955158Y277169D01*
X2955331Y277356D01*
X2955507Y277539D01*
X2955686Y277719D01*
X2955868Y277895D01*
X2956054Y278068D01*
X2956243Y278237D01*
X2956434Y278402D01*
X2956629Y278563D01*
X2956827Y278720D01*
X2957028Y278874D01*
X2957231Y279024D01*
X2957437Y279170D01*
X2957646Y279313D01*
X2957857Y279451D01*
X2958071Y279586D01*
X2958287Y279717D01*
X2958506Y279844D01*
X2958727Y279968D01*
X2958950Y280087D01*
X2959176Y280203D01*
X2959403Y280315D01*
X2959633Y280423D01*
X2959864Y280527D01*
X2960098Y280627D01*
X2960333Y280723D01*
X2960570Y280815D01*
X2960809Y280904D01*
X2961049Y280988D01*
X2961291Y281069D01*
X2961534Y281145D01*
X2961779Y281218D01*
X2962025Y281287D01*
X2962273Y281352D01*
X2962521Y281412D01*
X2962771Y281469D01*
X2963022Y281522D01*
X2963274Y281571D01*
X2963526Y281615D01*
X2963780Y281656D01*
X2964035Y281693D01*
X2964290Y281725D01*
X2964546Y281754D01*
X2964802Y281778D01*
X2965059Y281799D01*
X2965316Y281815D01*
X2965574Y281827D01*
X2965832Y281835D01*
X2966091Y281839D01*
X2966349Y281839D01*
X2966608Y281835D01*
X2966867Y281826D01*
X2967125Y281814D01*
X2967384Y281797D01*
X2967642Y281776D01*
X2967901Y281751D01*
X2968159Y281722D01*
X2968416Y281688D01*
X2968673Y281651D01*
X2968930Y281609D01*
X2969186Y281562D01*
X2969441Y281512D01*
X2969696Y281457D01*
X2969950Y281399D01*
X2970203Y281335D01*
X2970455Y281268D01*
X2970706Y281196D01*
X2970957Y281120D01*
X2971206Y281040D01*
X2971453Y280955D01*
X2971700Y280866D01*
X2971945Y280773D01*
X2972189Y280675D01*
X2972431Y280573D01*
X2972672Y280467D01*
X2972911Y280356D01*
X2973149Y280241D01*
X2973385Y280122D01*
X2973619Y279998D01*
X2973851Y279869D01*
X2974081Y279737D01*
X2974309Y279600D01*
X2974536Y279458D01*
X2974760Y279312D01*
X2974981Y279162D01*
X2975201Y279007D01*
X2975418Y278847D01*
X2975633Y278683D01*
X2975845Y278515D01*
X2976054Y278342D01*
X2976261Y278164D01*
X2976466Y277983D01*
X2976667Y277796D01*
X2976866Y277605D01*
X2977062Y277410D01*
X2977255Y277209D01*
X2977444Y277005D01*
X2977631Y276795D01*
X2977814Y276582D01*
X2977814Y276582D01*
G37*
G36*
X2369168Y544386D02*
X2370772Y543899D01*
X2372250Y543109D01*
X2373546Y542046D01*
X2374609Y540750D01*
X2375399Y539272D01*
X2375886Y537668D01*
X2376050Y536002D01*
X2376050Y523998D01*
X2375886Y522332D01*
X2375399Y520728D01*
X2374609Y519250D01*
X2373546Y517954D01*
X2372250Y516891D01*
X2370772Y516101D01*
X2369168Y515614D01*
X2367500Y515450D01*
X2365832Y515614D01*
X2364228Y516101D01*
X2362750Y516891D01*
X2361454Y517954D01*
X2360391Y519250D01*
X2359601Y520728D01*
X2359114Y522332D01*
X2358950Y523998D01*
X2358950Y536002D01*
X2359114Y537668D01*
X2359601Y539272D01*
X2360391Y540750D01*
X2361454Y542046D01*
X2362750Y543109D01*
X2364228Y543899D01*
X2365832Y544386D01*
X2367500Y544550D01*
X2369168Y544386D01*
G37*
G36*
X2514168Y544386D02*
X2515772Y543899D01*
X2517250Y543109D01*
X2518546Y542046D01*
X2519609Y540750D01*
X2520399Y539272D01*
X2520886Y537668D01*
X2521050Y536002D01*
X2521050Y523998D01*
X2520886Y522332D01*
X2520399Y520728D01*
X2519609Y519250D01*
X2518546Y517954D01*
X2517250Y516891D01*
X2515772Y516101D01*
X2514168Y515614D01*
X2512500Y515450D01*
X2510832Y515614D01*
X2509228Y516101D01*
X2507750Y516891D01*
X2506454Y517954D01*
X2505391Y519250D01*
X2504601Y520728D01*
X2504114Y522332D01*
X2503950Y523998D01*
X2503950Y536002D01*
X2504114Y537668D01*
X2504601Y539272D01*
X2505391Y540750D01*
X2506454Y542046D01*
X2507750Y543109D01*
X2509228Y543899D01*
X2510832Y544386D01*
X2512500Y544550D01*
X2514168Y544386D01*
G37*
G36*
X2609168Y544386D02*
X2610772Y543899D01*
X2612250Y543109D01*
X2613546Y542046D01*
X2614609Y540750D01*
X2615399Y539272D01*
X2615886Y537668D01*
X2616050Y536002D01*
X2616050Y523998D01*
X2615886Y522332D01*
X2615399Y520728D01*
X2614609Y519250D01*
X2613546Y517954D01*
X2612250Y516891D01*
X2610772Y516101D01*
X2609168Y515614D01*
X2607500Y515450D01*
X2605832Y515614D01*
X2604228Y516101D01*
X2602750Y516891D01*
X2601454Y517954D01*
X2600391Y519250D01*
X2599601Y520728D01*
X2599114Y522332D01*
X2598950Y523998D01*
X2598950Y536002D01*
X2599114Y537668D01*
X2599601Y539272D01*
X2600391Y540750D01*
X2601454Y542046D01*
X2602750Y543109D01*
X2604228Y543899D01*
X2605832Y544386D01*
X2607500Y544550D01*
X2609168Y544386D01*
G37*
G36*
X2754168Y544386D02*
X2755772Y543899D01*
X2757250Y543109D01*
X2758546Y542046D01*
X2759609Y540750D01*
X2760399Y539272D01*
X2760886Y537668D01*
X2761050Y536002D01*
X2761050Y523998D01*
X2760886Y522332D01*
X2760399Y520728D01*
X2759609Y519250D01*
X2758546Y517954D01*
X2757250Y516891D01*
X2755772Y516101D01*
X2754168Y515614D01*
X2752500Y515450D01*
X2750832Y515614D01*
X2749228Y516101D01*
X2747750Y516891D01*
X2746454Y517954D01*
X2745391Y519250D01*
X2744601Y520728D01*
X2744114Y522332D01*
X2743950Y523998D01*
X2743950Y536002D01*
X2744114Y537668D01*
X2744601Y539272D01*
X2745391Y540750D01*
X2746454Y542046D01*
X2747750Y543109D01*
X2749228Y543899D01*
X2750832Y544386D01*
X2752500Y544550D01*
X2754168Y544386D01*
G37*
G36*
X2369168Y487786D02*
X2370772Y487299D01*
X2372250Y486509D01*
X2373546Y485446D01*
X2374609Y484150D01*
X2375399Y482672D01*
X2375886Y481068D01*
X2376050Y479402D01*
X2376050Y461398D01*
X2375886Y459732D01*
X2375399Y458128D01*
X2374609Y456650D01*
X2373546Y455354D01*
X2372250Y454291D01*
X2370772Y453501D01*
X2369168Y453014D01*
X2367500Y452850D01*
X2365832Y453014D01*
X2364228Y453501D01*
X2362750Y454291D01*
X2361454Y455354D01*
X2360391Y456650D01*
X2359601Y458128D01*
X2359114Y459732D01*
X2358950Y461398D01*
X2358950Y479402D01*
X2359114Y481068D01*
X2359601Y482672D01*
X2360391Y484150D01*
X2361454Y485446D01*
X2362750Y486509D01*
X2364228Y487299D01*
X2365832Y487786D01*
X2367500Y487950D01*
X2369168Y487786D01*
G37*
G36*
X2514168Y487786D02*
X2515772Y487299D01*
X2517250Y486509D01*
X2518546Y485446D01*
X2519609Y484150D01*
X2520399Y482672D01*
X2520886Y481068D01*
X2521050Y479402D01*
X2521050Y461398D01*
X2520886Y459732D01*
X2520399Y458128D01*
X2519609Y456650D01*
X2518546Y455354D01*
X2517250Y454291D01*
X2515772Y453501D01*
X2514168Y453014D01*
X2512500Y452850D01*
X2510832Y453014D01*
X2509228Y453501D01*
X2507750Y454291D01*
X2506454Y455354D01*
X2505391Y456650D01*
X2504601Y458128D01*
X2504114Y459732D01*
X2503950Y461398D01*
X2503950Y479402D01*
X2504114Y481068D01*
X2504601Y482672D01*
X2505391Y484150D01*
X2506454Y485446D01*
X2507750Y486509D01*
X2509228Y487299D01*
X2510832Y487786D01*
X2512500Y487950D01*
X2514168Y487786D01*
G37*
G36*
X2609168Y487786D02*
X2610772Y487299D01*
X2612250Y486509D01*
X2613546Y485446D01*
X2614609Y484150D01*
X2615399Y482672D01*
X2615886Y481068D01*
X2616050Y479402D01*
X2616050Y461398D01*
X2615886Y459732D01*
X2615399Y458128D01*
X2614609Y456650D01*
X2613546Y455354D01*
X2612250Y454291D01*
X2610772Y453501D01*
X2609168Y453014D01*
X2607500Y452850D01*
X2605832Y453014D01*
X2604228Y453501D01*
X2602750Y454291D01*
X2601454Y455354D01*
X2600391Y456650D01*
X2599601Y458128D01*
X2599114Y459732D01*
X2598950Y461398D01*
X2598950Y479402D01*
X2599114Y481068D01*
X2599601Y482672D01*
X2600391Y484150D01*
X2601454Y485446D01*
X2602750Y486509D01*
X2604228Y487299D01*
X2605832Y487786D01*
X2607500Y487950D01*
X2609168Y487786D01*
G37*
G36*
X2754168Y487786D02*
X2755772Y487299D01*
X2757250Y486509D01*
X2758546Y485446D01*
X2759609Y484150D01*
X2760399Y482672D01*
X2760886Y481068D01*
X2761050Y479402D01*
X2761050Y461398D01*
X2760886Y459732D01*
X2760399Y458128D01*
X2759609Y456650D01*
X2758546Y455354D01*
X2757250Y454291D01*
X2755772Y453501D01*
X2754168Y453014D01*
X2752500Y452850D01*
X2750832Y453014D01*
X2749228Y453501D01*
X2747750Y454291D01*
X2746454Y455354D01*
X2745391Y456650D01*
X2744601Y458128D01*
X2744114Y459732D01*
X2743950Y461398D01*
X2743950Y479402D01*
X2744114Y481068D01*
X2744601Y482672D01*
X2745391Y484150D01*
X2746454Y485446D01*
X2747750Y486509D01*
X2749228Y487299D01*
X2750832Y487786D01*
X2752500Y487950D01*
X2754168Y487786D01*
G37*
D10*
X320000Y360000D03*
X320000Y40000D03*
X2880000Y40000D03*
X2880000Y360000D03*
X2360000Y40000D03*
X920000Y40000D03*
X40000Y240000D03*
X3160000Y240000D03*
X40000Y520000D03*
X3160000Y520000D03*
X880000Y520000D03*
X2320000Y520000D03*
D11*
X1241950Y121280D03*
D12*
X1113700Y121280D03*
D11*
X985450Y121280D03*
D13*
X2541147Y529327D03*
X2541147Y511819D03*
D14*
X1210796Y349256D03*
X1240304Y349256D03*
D13*
X1298200Y403996D03*
X1298200Y421504D03*
D15*
X1186304Y476250D03*
X1168796Y476250D03*
X1213754Y476250D03*
X1231262Y476250D03*
D14*
X871982Y419100D03*
X842474Y419100D03*
X925024Y419100D03*
X954532Y419100D03*
X1045768Y419100D03*
X1075276Y419100D03*
X757654Y450850D03*
X728146Y450850D03*
D16*
X793006Y407571D03*
X793006Y378373D03*
D17*
X2616305Y36046D03*
X2616305Y65554D03*
D13*
X2576300Y529581D03*
X2576300Y512073D03*
D17*
X2641578Y36046D03*
X2641578Y65554D03*
D13*
X2673350Y35674D03*
X2673350Y53182D03*
D17*
X2565385Y116354D03*
X2565385Y86846D03*
X2590778Y116354D03*
X2590778Y86846D03*
X2616178Y116354D03*
X2616178Y86846D03*
X2641578Y116354D03*
X2641578Y86846D03*
D13*
X2527278Y99196D03*
X2527278Y116704D03*
D15*
X2690250Y76222D03*
X2707758Y76222D03*
X1166746Y455168D03*
X1149238Y455168D03*
X1141854Y412750D03*
X1124346Y412750D03*
X1165984Y369316D03*
X1148476Y369316D03*
D13*
X1187456Y358004D03*
X1187456Y340496D03*
D15*
X1257486Y444500D03*
X1274994Y444500D03*
D13*
X1317250Y511946D03*
X1317250Y529454D03*
D17*
X1253750Y474196D03*
X1253750Y503704D03*
D18*
X782730Y457088D02*
X782730Y452980D01*
X782730Y457088D02*
X784238Y457088D01*
X784238Y452980D01*
X782730Y452980D01*
X782730Y454413D02*
X784238Y454413D01*
X784238Y455846D02*
X782730Y455846D01*
X775730Y457088D02*
X775730Y452980D01*
X775730Y457088D02*
X777238Y457088D01*
X777238Y452980D01*
X775730Y452980D01*
X775730Y454413D02*
X777238Y454413D01*
X777238Y455846D02*
X775730Y455846D01*
X779230Y446688D02*
X779230Y442580D01*
X779230Y446688D02*
X780738Y446688D01*
X780738Y442580D01*
X779230Y442580D01*
X779230Y444013D02*
X780738Y444013D01*
X780738Y445446D02*
X779230Y445446D01*
X1101674Y478838D02*
X1105782Y478838D01*
X1105782Y477330D01*
X1101674Y477330D01*
X1101674Y478838D01*
X1101674Y478763D02*
X1105782Y478763D01*
X1105782Y485838D02*
X1101674Y485838D01*
X1105782Y485838D02*
X1105782Y484330D01*
X1101674Y484330D01*
X1101674Y485838D01*
X1101674Y485763D02*
X1105782Y485763D01*
X1095382Y482338D02*
X1091274Y482338D01*
X1095382Y482338D02*
X1095382Y480830D01*
X1091274Y480830D01*
X1091274Y482338D01*
X1091274Y482263D02*
X1095382Y482263D01*
X985132Y478584D02*
X981024Y478584D01*
X985132Y478584D02*
X985132Y477076D01*
X981024Y477076D01*
X981024Y478584D01*
X981024Y478509D02*
X985132Y478509D01*
X985132Y485584D02*
X981024Y485584D01*
X985132Y485584D02*
X985132Y484076D01*
X981024Y484076D01*
X981024Y485584D01*
X981024Y485509D02*
X985132Y485509D01*
X974732Y482084D02*
X970624Y482084D01*
X974732Y482084D02*
X974732Y480576D01*
X970624Y480576D01*
X970624Y482084D01*
X970624Y482009D02*
X974732Y482009D01*
X2210130Y465376D02*
X2214238Y465376D01*
X2214238Y463868D01*
X2210130Y463868D01*
X2210130Y465376D01*
X2210130Y465301D02*
X2214238Y465301D01*
X2214238Y472376D02*
X2210130Y472376D01*
X2214238Y472376D02*
X2214238Y470868D01*
X2210130Y470868D01*
X2210130Y472376D01*
X2210130Y472301D02*
X2214238Y472301D01*
X2203838Y468876D02*
X2199730Y468876D01*
X2203838Y468876D02*
X2203838Y467368D01*
X2199730Y467368D01*
X2199730Y468876D01*
X2199730Y468801D02*
X2203838Y468801D01*
X2095841Y465630D02*
X2091733Y465630D01*
X2095841Y465630D02*
X2095841Y464122D01*
X2091733Y464122D01*
X2091733Y465630D01*
X2091733Y465555D02*
X2095841Y465555D01*
X2095841Y472630D02*
X2091733Y472630D01*
X2095841Y472630D02*
X2095841Y471122D01*
X2091733Y471122D01*
X2091733Y472630D01*
X2091733Y472555D02*
X2095841Y472555D01*
X2085441Y469130D02*
X2081333Y469130D01*
X2085441Y469130D02*
X2085441Y467622D01*
X2081333Y467622D01*
X2081333Y469130D01*
X2081333Y469055D02*
X2085441Y469055D01*
D19*
X1951128Y464796D03*
X1946128Y464796D03*
X1941128Y464796D03*
X1936128Y464796D03*
X1931128Y464796D03*
X1926128Y464796D03*
X1921128Y464796D03*
X1916128Y464796D03*
X1911128Y464796D03*
X1906128Y464796D03*
X1901128Y464796D03*
X1896128Y464796D03*
X1891128Y464796D03*
X1886128Y464796D03*
X1881128Y464796D03*
X1876128Y464796D03*
X1871128Y464796D03*
X1866128Y464796D03*
X1861128Y464796D03*
X1856128Y464796D03*
X1851128Y464796D03*
X1846128Y464796D03*
D20*
X1970128Y497296D03*
X1827128Y497296D03*
D21*
X472116Y405804D03*
X647884Y450000D03*
D22*
X484816Y495720D03*
X484816Y521120D03*
D23*
X490150Y326048D03*
X502850Y338748D03*
X515550Y326048D03*
X528250Y338748D03*
X540950Y326048D03*
X553650Y338748D03*
X566350Y326048D03*
X579050Y338748D03*
X591750Y326048D03*
X604450Y338748D03*
X617150Y326048D03*
X629850Y338748D03*
D22*
X635184Y521120D03*
X635184Y495720D03*
D24*
X472116Y470828D03*
X647884Y382436D03*
D25*
X1056100Y445500D03*
X1056100Y454500D03*
X1056100Y463500D03*
X1056100Y472500D03*
X1056100Y481500D03*
X1056100Y490500D03*
X1056100Y499500D03*
X1063900Y504000D03*
X1063900Y495000D03*
X1063900Y486000D03*
X1063900Y477000D03*
X1063900Y468000D03*
X1063900Y459000D03*
X1063900Y450000D03*
D26*
X770000Y481500D03*
X745000Y481500D03*
X790000Y481500D03*
X815000Y481500D03*
D27*
X716000Y490047D02*
X716000Y499953D01*
X844000Y499953D02*
X844000Y490047D01*
D25*
X936100Y445500D03*
X936100Y454500D03*
X936100Y463500D03*
X936100Y472500D03*
X936100Y481500D03*
X936100Y490500D03*
X936100Y499500D03*
X943900Y504000D03*
X943900Y495000D03*
X943900Y486000D03*
X943900Y477000D03*
X943900Y468000D03*
X943900Y459000D03*
X943900Y450000D03*
X2256100Y445500D03*
X2256100Y454500D03*
X2256100Y463500D03*
X2256100Y472500D03*
X2256100Y481500D03*
X2256100Y490500D03*
X2256100Y499500D03*
X2263900Y504000D03*
X2263900Y495000D03*
X2263900Y486000D03*
X2263900Y477000D03*
X2263900Y468000D03*
X2263900Y459000D03*
X2263900Y450000D03*
D28*
X2755250Y352500D03*
D29*
X2702500Y360000D03*
D30*
X2702500Y160000D03*
D31*
X2747500Y363500D03*
X2747500Y156500D03*
D28*
X2755250Y347500D03*
X2755250Y342500D03*
X2755250Y337500D03*
X2755250Y332500D03*
X2755250Y327500D03*
X2755250Y322500D03*
X2755250Y317500D03*
X2755250Y312500D03*
X2755250Y307500D03*
X2755250Y302500D03*
X2755250Y297500D03*
X2755250Y292500D03*
X2755250Y287500D03*
X2755250Y282500D03*
X2755250Y277500D03*
X2755250Y272500D03*
X2755250Y267500D03*
X2755250Y262500D03*
X2755250Y257500D03*
X2755250Y252500D03*
X2755250Y247500D03*
X2755250Y242500D03*
X2755250Y237500D03*
X2755250Y232500D03*
X2755250Y227500D03*
X2755250Y222500D03*
X2755250Y217500D03*
X2755250Y212500D03*
X2755250Y187500D03*
X2755250Y182500D03*
X2755250Y177500D03*
X2755250Y172500D03*
X2755250Y167500D03*
X2679750Y350000D03*
X2679750Y345000D03*
X2679750Y340000D03*
X2679750Y335000D03*
X2679750Y330000D03*
X2679750Y325000D03*
X2679750Y320000D03*
X2679750Y315000D03*
X2679750Y310000D03*
X2679750Y305000D03*
X2679750Y300000D03*
X2679750Y295000D03*
X2679750Y290000D03*
X2679750Y285000D03*
X2679750Y280000D03*
X2679750Y275000D03*
X2679750Y270000D03*
X2679750Y265000D03*
X2679750Y260000D03*
X2679750Y255000D03*
X2679750Y250000D03*
X2679750Y245000D03*
X2679750Y240000D03*
X2679750Y235000D03*
X2679750Y230000D03*
X2679750Y225000D03*
X2679750Y220000D03*
X2679750Y215000D03*
X2679750Y210000D03*
X2679750Y185000D03*
X2679750Y180000D03*
X2679750Y175000D03*
X2679750Y170000D03*
D32*
X2420000Y260000D03*
X2300000Y260000D03*
X2120000Y260000D03*
D33*
X2420000Y260000D03*
X2300000Y260000D03*
X2120000Y260000D03*
D34*
X1293210Y52735D03*
X1303210Y52735D03*
X1313210Y52735D03*
X1323210Y52735D03*
D35*
X1336210Y13985D03*
X1280210Y13985D03*
D25*
X2136100Y445500D03*
X2136100Y454500D03*
X2136100Y463500D03*
X2136100Y472500D03*
X2136100Y481500D03*
X2136100Y490500D03*
X2136100Y499500D03*
X2143900Y504000D03*
X2143900Y495000D03*
X2143900Y486000D03*
X2143900Y477000D03*
X2143900Y468000D03*
X2143900Y459000D03*
X2143900Y450000D03*
D36*
X1371600Y16786D03*
X1371600Y27200D03*
X1371600Y37614D03*
D37*
X2508250Y34072D03*
X2508250Y67572D03*
D38*
X1298905Y82561D03*
X1317295Y82561D03*
X1155655Y501650D03*
X1174045Y501650D03*
X1257255Y368300D03*
X1275645Y368300D03*
X1257255Y393700D03*
X1275645Y393700D03*
X1257255Y419100D03*
X1275645Y419100D03*
X1295355Y444500D03*
X1313745Y444500D03*
X803605Y457178D03*
X821995Y457178D03*
D39*
X1342650Y511505D03*
X1342650Y529895D03*
X2451078Y117145D03*
X2451078Y98755D03*
X2476478Y117145D03*
X2476478Y98755D03*
X2501878Y98755D03*
X2501878Y117145D03*
X666772Y517195D03*
X666772Y498805D03*
D38*
X1050595Y533328D03*
X1032205Y533328D03*
X1070305Y533472D03*
X1088695Y533472D03*
X942645Y533422D03*
X924255Y533422D03*
X962355Y533378D03*
X980745Y533378D03*
X2079955Y438128D03*
X2098345Y438128D03*
X2194255Y514328D03*
X2212645Y514328D03*
D39*
X450651Y517355D03*
X450651Y498965D03*
D38*
X2194255Y488928D03*
X2212645Y488928D03*
D39*
X2212086Y447091D03*
X2212086Y428701D03*
X1368050Y529895D03*
X1368050Y511505D03*
X1298200Y365455D03*
X1298200Y383845D03*
D38*
X2124659Y425428D03*
X2143049Y425428D03*
D39*
X2186686Y428701D03*
X2186686Y447091D03*
D40*
X2083033Y527353D03*
X2083033Y37353D03*
X1503033Y37353D03*
X1503033Y527353D03*
D41*
X1414600Y353000D03*
X1445400Y353000D03*
X1414600Y349000D03*
X1445400Y349000D03*
X1414600Y345000D03*
X1445400Y345000D03*
X1414600Y341000D03*
X1445400Y341000D03*
X1414600Y337000D03*
X1445400Y337000D03*
X1414600Y333000D03*
X1445400Y333000D03*
X1414600Y329000D03*
X1445400Y329000D03*
X1414600Y325000D03*
X1445400Y325000D03*
X1414600Y321000D03*
X1445400Y321000D03*
X1414600Y317000D03*
X1445400Y317000D03*
X1414600Y313000D03*
X1445400Y313000D03*
X1414600Y309000D03*
X1445400Y309000D03*
X1414600Y305000D03*
X1445400Y305000D03*
X1414600Y301000D03*
X1445400Y301000D03*
X1414600Y297000D03*
X1445400Y297000D03*
X1414600Y293000D03*
X1445400Y293000D03*
X1414600Y289000D03*
X1445400Y289000D03*
X1414600Y285000D03*
X1445400Y285000D03*
X1414600Y281000D03*
X1445400Y281000D03*
X1414600Y277000D03*
X1445400Y277000D03*
X1414600Y273000D03*
X1445400Y273000D03*
X1414600Y269000D03*
X1445400Y269000D03*
X1414600Y265000D03*
X1445400Y265000D03*
X1414600Y261000D03*
X1445400Y261000D03*
X1414600Y257000D03*
X1445400Y257000D03*
X1414600Y253000D03*
X1445400Y253000D03*
X1414600Y249000D03*
X1445400Y249000D03*
X1414600Y245000D03*
X1445400Y245000D03*
X1414600Y241000D03*
X1445400Y241000D03*
X1414600Y237000D03*
X1445400Y237000D03*
X1414600Y233000D03*
X1445400Y233000D03*
X1414600Y229000D03*
X1445400Y229000D03*
X1414600Y225000D03*
X1445400Y225000D03*
X1414600Y221000D03*
X1445400Y221000D03*
X1414600Y217000D03*
X1445400Y217000D03*
X1414600Y213000D03*
X1445400Y213000D03*
X1414600Y209000D03*
X1445400Y209000D03*
X1414600Y205000D03*
X1445400Y205000D03*
X1414600Y201000D03*
X1445400Y201000D03*
X1414600Y197000D03*
X1445400Y197000D03*
X1414600Y193000D03*
X1445400Y193000D03*
X1414600Y189000D03*
X1445400Y189000D03*
X1414600Y185000D03*
X1445400Y185000D03*
X1414600Y181000D03*
X1445400Y181000D03*
X1414600Y177000D03*
X1445400Y177000D03*
X1414600Y173000D03*
X1445400Y173000D03*
X1414600Y169000D03*
X1445400Y169000D03*
X1414600Y165000D03*
X1445400Y165000D03*
X1414600Y161000D03*
X1445400Y161000D03*
X1414600Y157000D03*
X1445400Y157000D03*
X1754600Y353000D03*
X1785400Y353000D03*
X1754600Y349000D03*
X1785400Y349000D03*
X1754600Y345000D03*
X1785400Y345000D03*
X1754600Y341000D03*
X1785400Y341000D03*
X1754600Y337000D03*
X1785400Y337000D03*
X1754600Y333000D03*
X1785400Y333000D03*
X1754600Y329000D03*
X1785400Y329000D03*
X1754600Y325000D03*
X1785400Y325000D03*
X1754600Y321000D03*
X1785400Y321000D03*
X1754600Y317000D03*
X1785400Y317000D03*
X1754600Y313000D03*
X1785400Y313000D03*
X1754600Y309000D03*
X1785400Y309000D03*
X1754600Y305000D03*
X1785400Y305000D03*
X1754600Y301000D03*
X1785400Y301000D03*
X1754600Y297000D03*
X1785400Y297000D03*
X1754600Y293000D03*
X1785400Y293000D03*
X1754600Y289000D03*
X1785400Y289000D03*
X1754600Y285000D03*
X1785400Y285000D03*
X1754600Y281000D03*
X1785400Y281000D03*
X1754600Y277000D03*
X1785400Y277000D03*
X1754600Y273000D03*
X1785400Y273000D03*
X1754600Y269000D03*
X1785400Y269000D03*
X1754600Y265000D03*
X1785400Y265000D03*
X1754600Y261000D03*
X1785400Y261000D03*
X1754600Y257000D03*
X1785400Y257000D03*
X1754600Y253000D03*
X1785400Y253000D03*
X1754600Y249000D03*
X1785400Y249000D03*
X1754600Y245000D03*
X1785400Y245000D03*
X1754600Y241000D03*
X1785400Y241000D03*
X1754600Y237000D03*
X1785400Y237000D03*
X1754600Y233000D03*
X1785400Y233000D03*
X1754600Y229000D03*
X1785400Y229000D03*
X1754600Y225000D03*
X1785400Y225000D03*
X1754600Y221000D03*
X1785400Y221000D03*
X1754600Y217000D03*
X1785400Y217000D03*
X1754600Y213000D03*
X1785400Y213000D03*
X1754600Y209000D03*
X1785400Y209000D03*
X1754600Y205000D03*
X1785400Y205000D03*
X1754600Y201000D03*
X1785400Y201000D03*
X1754600Y197000D03*
X1785400Y197000D03*
X1754600Y193000D03*
X1785400Y193000D03*
X1754600Y189000D03*
X1785400Y189000D03*
X1754600Y185000D03*
X1785400Y185000D03*
X1754600Y181000D03*
X1785400Y181000D03*
X1754600Y177000D03*
X1785400Y177000D03*
X1754600Y173000D03*
X1785400Y173000D03*
X1754600Y169000D03*
X1785400Y169000D03*
X1754600Y165000D03*
X1785400Y165000D03*
X1754600Y161000D03*
X1785400Y161000D03*
X1754600Y157000D03*
X1785400Y157000D03*
D10*
X1435000Y40000D03*
X1765000Y40000D03*
X1435000Y520000D03*
X1765000Y520000D03*
D42*
X2364353Y403700D03*
X2364353Y398700D03*
X2364353Y388700D03*
X2364353Y383700D03*
X2372703Y403700D03*
X2372703Y398700D03*
X2372703Y388700D03*
X2372703Y383700D03*
D43*
X2364353Y393700D03*
X2372703Y393700D03*
D42*
X2364353Y435577D03*
X2364353Y430577D03*
X2364353Y420577D03*
X2364353Y415577D03*
X2372703Y435577D03*
X2372703Y430577D03*
X2372703Y420577D03*
X2372703Y415577D03*
D43*
X2364353Y425577D03*
X2372703Y425577D03*
D44*
X2582396Y43300D03*
X2582396Y48300D03*
X2582396Y53300D03*
X2582396Y58300D03*
X2561060Y58300D03*
X2561060Y53300D03*
X2561060Y48300D03*
X2561060Y43300D03*
D45*
X2571728Y50800D03*
D46*
X2568386Y488188D03*
X2549336Y488188D03*
X2558861Y464312D03*
D47*
X874541Y449913D02*
X862815Y449913D01*
X874541Y449913D02*
X874541Y445487D01*
X862815Y445487D01*
X862815Y449913D01*
X862815Y447852D02*
X874541Y447852D01*
X874541Y459413D02*
X862815Y459413D01*
X874541Y459413D02*
X874541Y454987D01*
X862815Y454987D01*
X862815Y459413D01*
X862815Y457352D02*
X874541Y457352D01*
X874541Y468913D02*
X862815Y468913D01*
X874541Y468913D02*
X874541Y464487D01*
X862815Y464487D01*
X862815Y468913D01*
X862815Y466852D02*
X874541Y466852D01*
X851641Y449913D02*
X839915Y449913D01*
X851641Y449913D02*
X851641Y445487D01*
X839915Y445487D01*
X839915Y449913D01*
X839915Y447852D02*
X851641Y447852D01*
X851641Y459413D02*
X839915Y459413D01*
X851641Y459413D02*
X851641Y454987D01*
X839915Y454987D01*
X839915Y459413D01*
X839915Y457352D02*
X851641Y457352D01*
X851641Y468913D02*
X839915Y468913D01*
X851641Y468913D02*
X851641Y464487D01*
X839915Y464487D01*
X839915Y468913D01*
X839915Y466852D02*
X851641Y466852D01*
D48*
X1174756Y432750D03*
X1174756Y427750D03*
X1174756Y422750D03*
X1174756Y417750D03*
X1174756Y412750D03*
X1174756Y407750D03*
X1174756Y402750D03*
X1174756Y397750D03*
X1174756Y392750D03*
D49*
X1182950Y384556D03*
X1187950Y384556D03*
X1192950Y384556D03*
X1197950Y384556D03*
X1202950Y384556D03*
X1207950Y384556D03*
X1212950Y384556D03*
X1217950Y384556D03*
X1222950Y384556D03*
D48*
X1231144Y392750D03*
X1231144Y397750D03*
X1231144Y402750D03*
X1231144Y407750D03*
X1231144Y412750D03*
X1231144Y417750D03*
X1231144Y422750D03*
X1231144Y427750D03*
X1231144Y432750D03*
D49*
X1222950Y440944D03*
X1217950Y440944D03*
X1212950Y440944D03*
X1207950Y440944D03*
X1202950Y440944D03*
X1197950Y440944D03*
X1192950Y440944D03*
X1187950Y440944D03*
X1182950Y440944D03*
D50*
X1202950Y412750D03*
D51*
X1314794Y491894D02*
X1328406Y491894D01*
X1314794Y491894D02*
X1314794Y493306D01*
X1328406Y493306D01*
X1328406Y491894D01*
X1328406Y486894D02*
X1314794Y486894D01*
X1314794Y488306D01*
X1328406Y488306D01*
X1328406Y486894D01*
X1328406Y481894D02*
X1314794Y481894D01*
X1314794Y483306D01*
X1328406Y483306D01*
X1328406Y481894D01*
X1328406Y476894D02*
X1314794Y476894D01*
X1314794Y478306D01*
X1328406Y478306D01*
X1328406Y476894D01*
X1328406Y471894D02*
X1314794Y471894D01*
X1314794Y473306D01*
X1328406Y473306D01*
X1328406Y471894D01*
X1356894Y471894D02*
X1370506Y471894D01*
X1356894Y471894D02*
X1356894Y473306D01*
X1370506Y473306D01*
X1370506Y471894D01*
X1370506Y476894D02*
X1356894Y476894D01*
X1356894Y478306D01*
X1370506Y478306D01*
X1370506Y476894D01*
X1370506Y481894D02*
X1356894Y481894D01*
X1356894Y483306D01*
X1370506Y483306D01*
X1370506Y481894D01*
X1370506Y486894D02*
X1356894Y486894D01*
X1356894Y488306D01*
X1370506Y488306D01*
X1370506Y486894D01*
X1370506Y491894D02*
X1356894Y491894D01*
X1356894Y493306D01*
X1370506Y493306D01*
X1370506Y491894D01*
D52*
X537160Y302625D03*
X532160Y302625D03*
X522160Y302625D03*
X517160Y302625D03*
X537160Y294275D03*
X532160Y294275D03*
X522160Y294275D03*
X517160Y294275D03*
D53*
X527160Y302625D03*
X527160Y294275D03*
D52*
X613360Y302625D03*
X608360Y302625D03*
X598360Y302625D03*
X593360Y302625D03*
X613360Y294275D03*
X608360Y294275D03*
X598360Y294275D03*
X593360Y294275D03*
D53*
X603360Y302625D03*
X603360Y294275D03*
D42*
X2605653Y403700D03*
X2605653Y398700D03*
X2605653Y388700D03*
X2605653Y383700D03*
X2614003Y403700D03*
X2614003Y398700D03*
X2614003Y388700D03*
X2614003Y383700D03*
D43*
X2605653Y393700D03*
X2614003Y393700D03*
D42*
X2605653Y435577D03*
X2605653Y430577D03*
X2605653Y420577D03*
X2605653Y415577D03*
X2614003Y435577D03*
X2614003Y430577D03*
X2614003Y420577D03*
X2614003Y415577D03*
D43*
X2605653Y425577D03*
X2614003Y425577D03*
D54*
X1192120Y499500D03*
X1214120Y499500D03*
X1214120Y516500D03*
X1192120Y516500D03*
D55*
X2687772Y99696D03*
X2709772Y99696D03*
X2709772Y115696D03*
X2687772Y115696D03*
D56*
X798300Y130812D02*
X784800Y130812D01*
X784800Y124312D02*
X798300Y124312D01*
X798300Y117812D02*
X784800Y117812D01*
X784800Y111312D02*
X798300Y111312D01*
X798300Y104812D02*
X784800Y104812D01*
X784800Y98312D02*
X798300Y98312D01*
X798300Y91812D02*
X784800Y91812D01*
X784800Y85312D02*
X798300Y85312D01*
X798300Y78812D02*
X784800Y78812D01*
X784800Y72312D02*
X798300Y72312D01*
X841800Y72312D02*
X855300Y72312D01*
X855300Y78812D02*
X841800Y78812D01*
X841800Y85312D02*
X855300Y85312D01*
X855300Y91812D02*
X841800Y91812D01*
X841800Y98312D02*
X855300Y98312D01*
X855300Y104812D02*
X841800Y104812D01*
X841800Y111312D02*
X855300Y111312D01*
X855300Y117812D02*
X841800Y117812D01*
X841800Y124312D02*
X855300Y124312D01*
X855300Y130812D02*
X841800Y130812D01*
D13*
X788338Y149996D03*
X788338Y167504D03*
X876378Y123054D03*
X876378Y105546D03*
D17*
X908150Y129054D03*
X908150Y99546D03*
D15*
X849396Y152616D03*
X866904Y152616D03*
D14*
X837300Y178016D03*
X866808Y178016D03*
D13*
X769212Y129404D03*
X769212Y111896D03*
D14*
X763938Y152438D03*
X734430Y152438D03*
D15*
X809754Y50838D03*
X792246Y50838D03*
D14*
X830696Y50762D03*
X860204Y50762D03*
D15*
X811296Y152286D03*
X828804Y152286D03*
D13*
X743888Y111896D03*
X743888Y129404D03*
D38*
X747355Y88100D03*
X765745Y88100D03*
X747355Y62700D03*
X765745Y62700D03*
D13*
X718488Y86496D03*
X718488Y104004D03*
X718412Y66158D03*
X718412Y48650D03*
D39*
X890700Y149555D03*
X890700Y167945D03*
D57*
X483768Y115892D03*
X483768Y110892D03*
X483768Y105892D03*
X483768Y100892D03*
X488268Y96392D03*
X493268Y96392D03*
X498268Y96392D03*
X503268Y96392D03*
X507768Y100892D03*
X507768Y105892D03*
X507768Y110892D03*
X507768Y115892D03*
X503268Y120392D03*
X498268Y120392D03*
X493268Y120392D03*
X488268Y120392D03*
D58*
X495768Y108392D03*
D59*
X480268Y115892D03*
X480268Y110892D03*
X480268Y105892D03*
X480268Y100892D03*
D60*
X488268Y92892D03*
X493268Y92892D03*
X498268Y92892D03*
X503268Y92892D03*
D59*
X511268Y100892D03*
X511268Y105892D03*
X511268Y110892D03*
X511268Y115892D03*
D60*
X503268Y123892D03*
X498268Y123892D03*
X493268Y123892D03*
X488268Y123892D03*
D13*
X457640Y80306D03*
X457640Y97814D03*
X457696Y136168D03*
X457696Y118660D03*
D15*
X548972Y114686D03*
X531464Y114686D03*
X531210Y63688D03*
X548718Y63688D03*
X548972Y89032D03*
X531464Y89032D03*
D13*
X508440Y143806D03*
X508440Y161314D03*
X483040Y143806D03*
X483040Y161314D03*
D61*
X480708Y38232D03*
X470294Y38232D03*
X459880Y38232D03*
X529296Y38232D03*
X518882Y38232D03*
X508468Y38232D03*
D62*
X620342Y127680D02*
X620342Y134720D01*
X620342Y127680D02*
X618702Y127680D01*
X618702Y134720D01*
X620342Y134720D01*
X620342Y129177D02*
X618702Y129177D01*
X618702Y130674D02*
X620342Y130674D01*
X620342Y132171D02*
X618702Y132171D01*
X618702Y133668D02*
X620342Y133668D01*
X624342Y134720D02*
X624342Y127680D01*
X622702Y127680D01*
X622702Y134720D01*
X624342Y134720D01*
X624342Y129177D02*
X622702Y129177D01*
X622702Y130674D02*
X624342Y130674D01*
X624342Y132171D02*
X622702Y132171D01*
X622702Y133668D02*
X624342Y133668D01*
X628342Y134720D02*
X628342Y127680D01*
X626702Y127680D01*
X626702Y134720D01*
X628342Y134720D01*
X628342Y129177D02*
X626702Y129177D01*
X626702Y130674D02*
X628342Y130674D01*
X628342Y132171D02*
X626702Y132171D01*
X626702Y133668D02*
X628342Y133668D01*
X632342Y134720D02*
X632342Y127680D01*
X630702Y127680D01*
X630702Y134720D01*
X632342Y134720D01*
X632342Y129177D02*
X630702Y129177D01*
X630702Y130674D02*
X632342Y130674D01*
X632342Y132171D02*
X630702Y132171D01*
X630702Y133668D02*
X632342Y133668D01*
X636342Y134720D02*
X636342Y127680D01*
X634702Y127680D01*
X634702Y134720D01*
X636342Y134720D01*
X636342Y129177D02*
X634702Y129177D01*
X634702Y130674D02*
X636342Y130674D01*
X636342Y132171D02*
X634702Y132171D01*
X634702Y133668D02*
X636342Y133668D01*
X640342Y134720D02*
X640342Y127680D01*
X638702Y127680D01*
X638702Y134720D01*
X640342Y134720D01*
X640342Y129177D02*
X638702Y129177D01*
X638702Y130674D02*
X640342Y130674D01*
X640342Y132171D02*
X638702Y132171D01*
X638702Y133668D02*
X640342Y133668D01*
X644342Y134720D02*
X644342Y127680D01*
X642702Y127680D01*
X642702Y134720D01*
X644342Y134720D01*
X644342Y129177D02*
X642702Y129177D01*
X642702Y130674D02*
X644342Y130674D01*
X644342Y132171D02*
X642702Y132171D01*
X642702Y133668D02*
X644342Y133668D01*
X644342Y157380D02*
X644342Y164420D01*
X644342Y157380D02*
X642702Y157380D01*
X642702Y164420D01*
X644342Y164420D01*
X644342Y158877D02*
X642702Y158877D01*
X642702Y160374D02*
X644342Y160374D01*
X644342Y161871D02*
X642702Y161871D01*
X642702Y163368D02*
X644342Y163368D01*
X640342Y164420D02*
X640342Y157380D01*
X638702Y157380D01*
X638702Y164420D01*
X640342Y164420D01*
X640342Y158877D02*
X638702Y158877D01*
X638702Y160374D02*
X640342Y160374D01*
X640342Y161871D02*
X638702Y161871D01*
X638702Y163368D02*
X640342Y163368D01*
X636342Y164420D02*
X636342Y157380D01*
X634702Y157380D01*
X634702Y164420D01*
X636342Y164420D01*
X636342Y158877D02*
X634702Y158877D01*
X634702Y160374D02*
X636342Y160374D01*
X636342Y161871D02*
X634702Y161871D01*
X634702Y163368D02*
X636342Y163368D01*
X632342Y164420D02*
X632342Y157380D01*
X630702Y157380D01*
X630702Y164420D01*
X632342Y164420D01*
X632342Y158877D02*
X630702Y158877D01*
X630702Y160374D02*
X632342Y160374D01*
X632342Y161871D02*
X630702Y161871D01*
X630702Y163368D02*
X632342Y163368D01*
X628342Y164420D02*
X628342Y157380D01*
X626702Y157380D01*
X626702Y164420D01*
X628342Y164420D01*
X628342Y158877D02*
X626702Y158877D01*
X626702Y160374D02*
X628342Y160374D01*
X628342Y161871D02*
X626702Y161871D01*
X626702Y163368D02*
X628342Y163368D01*
X624342Y164420D02*
X624342Y157380D01*
X622702Y157380D01*
X622702Y164420D01*
X624342Y164420D01*
X624342Y158877D02*
X622702Y158877D01*
X622702Y160374D02*
X624342Y160374D01*
X624342Y161871D02*
X622702Y161871D01*
X622702Y163368D02*
X624342Y163368D01*
X620342Y164420D02*
X620342Y157380D01*
X618702Y157380D01*
X618702Y164420D01*
X620342Y164420D01*
X620342Y158877D02*
X618702Y158877D01*
X618702Y160374D02*
X620342Y160374D01*
X620342Y161871D02*
X618702Y161871D01*
X618702Y163368D02*
X620342Y163368D01*
D63*
X631522Y146050D03*
D13*
X593422Y86496D03*
X593422Y104004D03*
X669563Y86496D03*
X669563Y104004D03*
X618822Y86496D03*
X618822Y104004D03*
X644222Y86496D03*
X644222Y104004D03*
D61*
X641964Y38072D03*
X631550Y38072D03*
X621136Y38072D03*
D38*
X621695Y63472D03*
X603305Y63472D03*
X641405Y63528D03*
X659795Y63528D03*
D15*
X667500Y133378D03*
X685008Y133378D03*
D14*
X667596Y165128D03*
X697104Y165128D03*
D39*
X593422Y136855D03*
X593422Y155245D03*
D38*
X549239Y139766D03*
X530849Y139766D03*
D64*
X2262554Y78750D03*
D65*
X2287554Y78750D03*
D64*
X2170766Y78740D03*
D65*
X2195766Y78740D03*
D66*
X2006578Y464058D03*
X2011578Y464058D03*
X2016578Y464058D03*
X2021578Y464058D03*
X2026578Y464058D03*
X2031578Y464058D03*
X2036578Y464058D03*
X2041578Y464058D03*
D67*
X1996578Y489058D03*
X2051578Y489058D03*
D68*
X3088900Y441950D03*
X3088900Y467350D03*
X3063500Y441950D03*
X3063500Y467350D03*
X3038100Y441950D03*
X3038100Y467350D03*
X3012700Y441950D03*
X3012700Y467350D03*
X2987300Y441950D03*
X2987300Y467350D03*
X2961900Y441950D03*
X2961900Y467350D03*
X2936500Y441950D03*
X2936500Y467350D03*
X2911100Y441950D03*
X2911100Y467350D03*
D69*
X2810000Y406150D03*
X2810000Y513850D03*
X400000Y406150D03*
X400000Y513850D03*
D68*
X288900Y441950D03*
X288900Y467350D03*
X263500Y441950D03*
X263500Y467350D03*
X238100Y441950D03*
X238100Y467350D03*
X212700Y441950D03*
X212700Y467350D03*
X187300Y441950D03*
X187300Y467350D03*
X161900Y441950D03*
X161900Y467350D03*
X136500Y441950D03*
X136500Y467350D03*
X111100Y441950D03*
X111100Y467350D03*
D70*
X96000Y310000D02*
X84000Y310000D01*
X84000Y410000D02*
X96000Y410000D01*
D71*
X140000Y385000D03*
X140000Y360000D03*
X140000Y335000D03*
D70*
X40000Y354000D02*
X40000Y366000D01*
D72*
X140000Y310000D03*
X140000Y410000D03*
X90000Y360000D03*
X40000Y310000D03*
X15000Y310000D03*
X40000Y410000D03*
X15000Y410000D03*
D71*
X165000Y335000D03*
X165000Y360000D03*
X165000Y385000D03*
D39*
X336152Y498873D03*
X336152Y517263D03*
X311156Y498873D03*
X311156Y517263D03*
D73*
X1143000Y533400D03*
X1925150Y31750D03*
X1244600Y50800D03*
X1244600Y25400D03*
X1116450Y533400D03*
X1963250Y31750D03*
X2647950Y184150D03*
X2609850Y184150D03*
X139700Y520700D03*
X171450Y520700D03*
X755650Y419100D03*
X730250Y419100D03*
X234950Y520700D03*
X203200Y520700D03*
D74*
X1739900Y400050D03*
X1758950Y400050D03*
X1717080Y416235D03*
X1752600Y415869D03*
X1726184Y349504D03*
X1720850Y254000D03*
X1730502Y265430D03*
X1730756Y242316D03*
M02*
